<!-- Generated by IcoMoon.io -->
<svg version="1.1" xmlns="http://www.w3.org/2000/svg" width="24" height="24" viewBox="0 0 24 24">
<path d="M10.331 1.104c-0.026 0.008-0.096 0.038-0.156 0.066-0.075 0.036-0.124 0.049-0.158 0.041-0.026-0.007-0.075-0.004-0.109 0.008-0.051 0.017-0.079 0.013-0.158-0.019-0.116-0.045-0.133-0.047-0.133-0.009s-0.111 0.038-0.161 0c-0.047-0.036-0.073-0.036-0.109 0-0.015 0.017-0.067 0.036-0.114 0.045-0.049 0.009-0.098 0.026-0.109 0.038-0.024 0.024-0.107 0.028-0.107 0.004 0-0.009-0.058-0.028-0.129-0.039-0.118-0.022-0.171-0.021-0.428 0.013-0.053 0.006-0.081 0.002-0.081-0.011 0-0.034-0.034-0.024-0.082 0.026-0.043 0.041-0.062 0.047-0.195 0.047-0.263 0-0.499 0.069-0.623 0.18-0.075 0.068-0.105 0.079-0.116 0.041-0.006-0.017-0.022-0.015-0.058 0.009-0.026 0.017-0.069 0.032-0.096 0.032s-0.082 0.030-0.131 0.073c-0.098 0.084-0.163 0.109-0.317 0.12-0.094 0.007-0.116 0.002-0.159-0.034-0.043-0.038-0.054-0.039-0.105-0.019-0.036 0.013-0.146 0.021-0.276 0.021-0.208-0.002-0.219-0.004-0.285-0.054-0.049-0.036-0.069-0.067-0.069-0.101 0-0.045-0.002-0.047-0.086-0.034-0.049 0.006-0.098 0.017-0.109 0.021-0.013 0.006-0.054 0.084-0.094 0.178s-0.109 0.219-0.154 0.277c-0.079 0.103-0.092 0.114-0.313 0.208-0.197 0.083-0.251 0.116-0.356 0.214-0.103 0.094-0.126 0.126-0.126 0.173 0 0.037-0.024 0.090-0.069 0.15-0.060 0.079-0.073 0.111-0.083 0.223-0.009 0.099-0.007 0.139 0.013 0.161 0.015 0.015 0.026 0.041 0.026 0.056 0 0.034-0.232 0.261-0.381 0.375-0.060 0.045-0.139 0.105-0.173 0.131-0.049 0.037-0.099 0.053-0.234 0.069-0.165 0.021-0.294 0.069-0.287 0.109 0.002 0.009-0.004 0.024-0.013 0.036-0.007 0.009-0.030 0.071-0.047 0.135-0.037 0.131-0.047 0.143-0.195 0.221-0.094 0.051-0.111 0.069-0.169 0.188-0.036 0.077-0.067 0.178-0.077 0.242-0.013 0.118-0.002 0.103-0.223 0.289-0.053 0.045-0.105 0.099-0.116 0.122l-0.022 0.041 0.045-0.037 0.043-0.038-0.043 0.066c-0.039 0.062-0.071 0.127-0.148 0.306-0.017 0.041-0.049 0.081-0.071 0.090-0.024 0.007-0.054 0.039-0.069 0.067-0.034 0.066-0.079 0.351-0.062 0.394 0.011 0.028 0.019 0.024 0.056-0.023l0.043-0.054 0.041 0.079c0.039 0.077 0.077 0.103 0.077 0.054 0.002-0.011 0.017 0.008 0.038 0.043 0.045 0.082 0.051 0.21 0.009 0.195-0.017-0.008-0.034 0.002-0.041 0.022-0.007 0.019-0.004 0.036 0.009 0.041 0.015 0.004 0.015 0.019 0 0.053-0.019 0.038-0.015 0.053 0.021 0.088 0.051 0.056 0.067 0.116 0.084 0.296 0.013 0.135 0.011 0.152-0.054 0.319-0.045 0.114-0.071 0.217-0.077 0.296-0.009 0.144-0.062 0.246-0.186 0.354-0.092 0.081-0.101 0.098-0.054 0.098 0.043 0 0.158 0.12 0.158 0.167 0 0.024 0.011 0.039 0.032 0.039 0.024 0 0.026 0.006 0.009 0.022-0.032 0.032-0.028 0.058 0.004 0.047 0.019-0.008 0.024-0.002 0.019 0.015-0.008 0.017 0.013 0.041 0.052 0.066 0.047 0.028 0.052 0.037 0.026 0.037-0.021 0-0.051-0.013-0.069-0.030-0.030-0.026-0.034-0.026-0.052 0.008-0.011 0.021-0.015 0.041-0.007 0.049 0.006 0.006 0.009 0.069 0.007 0.143-0.004 0.118 0 0.137 0.039 0.169 0.024 0.021 0.052 0.036 0.062 0.037 0.011 0 0.021 0.019 0.022 0.039 0.002 0.022 0.013 0.051 0.024 0.062 0.022 0.022 0.146 0.024 0.195 0.002 0.028-0.011 0.032-0.009 0.021 0.007-0.017 0.030 0.021 0.056 0.084 0.060 0.039 0.002 0.041 0.004 0.009 0.011-0.021 0.006-0.049 0.019-0.062 0.028-0.026 0.023-0.030 0.060-0.004 0.043 0.011-0.006 0.019 0.002 0.019 0.019 0 0.034 0.043 0.084 0.073 0.084 0.009 0 0.024 0.017 0.030 0.038 0.015 0.047 0.045 0.049 0.077 0.004 0.022-0.028 0.024-0.026 0.026 0.021 0 0.036 0.007 0.049 0.022 0.039 0.013-0.008 0.015-0.006 0.007 0.008-0.007 0.011 0.002 0.043 0.019 0.069 0.034 0.053 0.188 0.167 0.249 0.188 0.030 0.009 0.039 0.024 0.034 0.047-0.006 0.021 0.009 0.051 0.034 0.075 0.024 0.022 0.049 0.062 0.054 0.086 0.007 0.024 0.021 0.045 0.032 0.045s0.009 0.015-0.004 0.041c-0.019 0.034-0.015 0.045 0.013 0.067 0.034 0.024 0.032 0.026-0.017 0.015l-0.054-0.013 0.034 0.056c0.017 0.030 0.053 0.064 0.077 0.075s0.043 0.032 0.039 0.047c-0.004 0.015 0.015 0.045 0.039 0.066 0.043 0.038 0.043 0.039 0.006 0.039-0.064 0-0.066 0.034 0 0.047 0.107 0.024 0.388 0.169 0.424 0.219 0.013 0.019 0.058 0.051 0.099 0.071 0.039 0.021 0.073 0.047 0.073 0.058 0 0.009 0.039 0.036 0.086 0.054 0.049 0.023 0.15 0.099 0.24 0.186 0.126 0.12 0.188 0.163 0.341 0.236 0.101 0.049 0.208 0.099 0.238 0.114 0.047 0.026 0.062 0.024 0.216-0.032 0.090-0.032 0.173-0.066 0.184-0.075 0.051-0.041 0.204-0.077 0.429-0.103 0.244-0.028 0.572-0.030 0.572-0.004 0 0.009 0.036 0.015 0.081 0.015 0.043 0.002 0.113 0.015 0.154 0.030 0.133 0.051 0.143 0.051 0.197 0.011 0.028-0.021 0.103-0.053 0.165-0.069 0.064-0.015 0.186-0.062 0.27-0.103 0.086-0.041 0.188-0.081 0.227-0.088 0.038-0.006 0.069-0.017 0.069-0.026 0-0.021-0.056-0.073-0.079-0.073-0.011 0-0.017-0.006-0.011-0.011 0.019-0.019 0.086 0.028 0.099 0.068 0.015 0.049 0.075 0.036 0.135-0.030 0.058-0.062 0.246-0.103 0.482-0.103 0.139 0 0.201-0.007 0.232-0.028 0.024-0.017 0.049-0.024 0.056-0.019 0.006 0.006 0 0.011-0.011 0.011-0.013 0-0.022 0.006-0.022 0.013 0 0.009 0.049 0.015 0.109 0.017 0.137 0 0.261 0.066 0.313 0.165 0.021 0.037 0.049 0.067 0.062 0.067s0.019 0.009 0.013 0.021c-0.008 0.011 0.004 0.024 0.026 0.030 0.034 0.009 0.036 0.015 0.017 0.039-0.019 0.022-0.019 0.030 0 0.036 0.011 0.006 0.023 0.026 0.023 0.045 0 0.082 0.098 0.206 0.182 0.231 0.023 0.008 0.045 0.006 0.051-0.006 0.006-0.009 0.028-0.013 0.049-0.008s0.067 0.004 0.105-0.002c0.054-0.011 0.062-0.019 0.045-0.041-0.028-0.032 0.002-0.036 0.034-0.004 0.017 0.017 0.028 0.017 0.045 0 0.032-0.032 0.073-0.028 0.060 0.006-0.008 0.015-0.002 0.028 0.009 0.028 0.013 0 0.026-0.011 0.032-0.024 0.006-0.019 0.051-0.028 0.135-0.030 0.069-0.002 0.129-0.011 0.131-0.023 0.011-0.028 0.041-0.019 0.041 0.011 0 0.019 0.019 0.028 0.053 0.028 0.039 0 0.058 0.015 0.079 0.060 0.036 0.077 0.139 0.141 0.176 0.111 0.019-0.015 0.030-0.017 0.039-0.002 0.006 0.009 0.002 0.019-0.008 0.019-0.036 0-0.022 0.049 0.038 0.131l0.058 0.079-0.028 0.137c-0.015 0.075-0.023 0.159-0.019 0.186 0.008 0.032-0.008 0.079-0.043 0.137-0.079 0.129-0.086 0.156-0.054 0.167 0.015 0.008 0.028 0.032 0.028 0.056 0 0.032-0.013 0.047-0.047 0.056l-0.049 0.011 0.041 0.069c0.021 0.037 0.028 0.056 0.015 0.043-0.041-0.039-0.049-0.026-0.047 0.081 0 0.094-0.006 0.111-0.056 0.158-0.041 0.037-0.066 0.049-0.084 0.037-0.015-0.009-0.032-0.017-0.041-0.017-0.017 0 0.034 0.122 0.077 0.188 0.030 0.045 0.034 0.054 0.039 0.094 0 0.009 0.021 0.019 0.043 0.019 0.032 0 0.036 0.006 0.019 0.023-0.036 0.036-0.028 0.051 0.039 0.081 0.034 0.015 0.041 0.023 0.017 0.017l-0.043-0.011 0.051 0.079c0.041 0.062 0.062 0.077 0.096 0.069 0.022-0.004 0.037-0.002 0.034 0.008-0.006 0.008 0.006 0.019 0.022 0.023 0.019 0.004 0.011 0.006-0.019 0.004-0.073-0.004-0.056 0.024 0.069 0.118 0.058 0.045 0.152 0.139 0.206 0.206 0.056 0.069 0.131 0.156 0.171 0.191 0.037 0.036 0.084 0.096 0.101 0.131 0.019 0.036 0.051 0.098 0.073 0.137s0.039 0.094 0.037 0.122c-0.002 0.028 0.045 0.154 0.103 0.279s0.114 0.261 0.124 0.3c0.011 0.039 0.045 0.122 0.077 0.182 0.073 0.144 0.073 0.204 0 0.249-0.030 0.017-0.056 0.045-0.056 0.058 0 0.043 0.154 0.418 0.203 0.499 0.045 0.071 0.045 0.081 0.028 0.255-0.021 0.21-0.056 0.278-0.176 0.338-0.043 0.023-0.073 0.052-0.073 0.071s-0.030 0.062-0.066 0.098c-0.045 0.043-0.066 0.081-0.066 0.118 0 0.028-0.009 0.071-0.022 0.094-0.011 0.023-0.028 0.082-0.036 0.135-0.021 0.154-0.088 0.356-0.137 0.409-0.039 0.043-0.043 0.054-0.026 0.154 0.009 0.060 0.013 0.118 0.008 0.129-0.004 0.011-0.009 0.006-0.009-0.013-0.002-0.017-0.011-0.032-0.023-0.032-0.013 0-0.015 0.013-0.006 0.032 0.007 0.019 0.017 0.114 0.019 0.212 0.002 0.148 0.011 0.195 0.051 0.281 0.028 0.058 0.077 0.129 0.109 0.159 0.032 0.032 0.077 0.094 0.101 0.141s0.073 0.133 0.111 0.195c0.036 0.060 0.081 0.152 0.098 0.204s0.069 0.15 0.113 0.216c0.045 0.066 0.082 0.129 0.082 0.143s0.022 0.043 0.049 0.069c0.026 0.024 0.064 0.069 0.082 0.101 0.039 0.064 0.071 0.208 0.043 0.191-0.011-0.008-0.015 0.068-0.009 0.199 0.008 0.171 0.017 0.227 0.053 0.296 0.026 0.053 0.049 0.148 0.062 0.253 0.024 0.219 0.039 0.291 0.069 0.337 0.015 0.021 0.021 0.043 0.015 0.051-0.017 0.017 0.056 0.197 0.128 0.319 0.051 0.086 0.214 0.253 0.272 0.279 0.041 0.017 0.124 0.159 0.186 0.317 0.088 0.227 0.124 0.296 0.236 0.463 0.051 0.077 0.105 0.167 0.12 0.201 0.054 0.129 0.021 0.253-0.069 0.253-0.051 0-0.045 0.056 0.011 0.111 0.026 0.024 0.047 0.053 0.047 0.062s0.017 0.043 0.039 0.073c0.034 0.049 0.036 0.064 0.017 0.122-0.013 0.036-0.017 0.077-0.011 0.092 0.015 0.041 0.062 0.034 0.073-0.009 0.013-0.051 0.066-0.047 0.073 0.004 0.004 0.034 0.021 0.045 0.067 0.049 0.034 0.004 0.067 0.019 0.073 0.034 0.023 0.060 0.247 0.112 0.277 0.064s0.184-0.092 0.33-0.092c0.137 0 0.159-0.006 0.227-0.051 0.069-0.049 0.092-0.052 0.266-0.058 0.326-0.008 0.369-0.006 0.476 0.023 0.092 0.023 0.109 0.023 0.135 0 0.021-0.019 0.069-0.028 0.137-0.028 0.094 0 0.105-0.004 0.111-0.043 0.006-0.038 0.015-0.041 0.146-0.043 0.124 0 0.157-0.009 0.272-0.067 0.184-0.094 0.386-0.244 0.562-0.413 0.083-0.079 0.195-0.176 0.249-0.216 0.101-0.073 0.328-0.362 0.396-0.503 0.045-0.094 0.129-0.18 0.268-0.276 0.122-0.082 0.15-0.128 0.184-0.287 0.013-0.062 0.039-0.154 0.060-0.206 0.021-0.051 0.032-0.107 0.028-0.124-0.006-0.017-0.004-0.088 0.004-0.156 0.011-0.111 0.009-0.128-0.023-0.148-0.036-0.023-0.036-0.026-0.006-0.084 0.043-0.082 0.103-0.116 0.377-0.208 0.169-0.058 0.253-0.098 0.309-0.148 0.101-0.086 0.176-0.249 0.101-0.221-0.024 0.009-0.028 0-0.017-0.067 0.008-0.045 0.024-0.105 0.039-0.135 0.017-0.036 0.021-0.060 0.009-0.067-0.011-0.006-0.017-0.058-0.015-0.116 0.004-0.109-0.024-0.15-0.045-0.068-0.006 0.024-0.011-0.004-0.009-0.060 0-0.067-0.013-0.129-0.039-0.178-0.024-0.049-0.036-0.096-0.030-0.135 0.008-0.051 0-0.071-0.049-0.116-0.054-0.051-0.060-0.066-0.056-0.15 0.004-0.081 0.011-0.096 0.041-0.096 0.023 0 0.094-0.058 0.171-0.137 0.075-0.075 0.159-0.143 0.193-0.154 0.039-0.013 0.105-0.071 0.188-0.169 0.071-0.082 0.161-0.172 0.202-0.201 0.086-0.058 0.324-0.159 0.422-0.176 0.036-0.008 0.086-0.032 0.113-0.054 0.026-0.024 0.082-0.060 0.128-0.082s0.086-0.056 0.092-0.073c0.017-0.043 0.143-0.212 0.191-0.255 0.073-0.066 0.126-0.321 0.069-0.341-0.015-0.006-0.023-0.024-0.017-0.047 0.006-0.019 0.002-0.036-0.008-0.036-0.008 0-0.017-0.082-0.019-0.184-0.004-0.135-0.011-0.18-0.028-0.176-0.013 0.004-0.008-0.011 0.011-0.032 0.026-0.028 0.030-0.045 0.015-0.062-0.009-0.013-0.024-0.105-0.032-0.203-0.009-0.139-0.006-0.197 0.017-0.263 0.015-0.047 0.021-0.086 0.011-0.090s-0.011-0.019-0.006-0.034c0.013-0.036-0.054-0.107-0.157-0.169-0.045-0.024-0.081-0.049-0.081-0.051-0.002-0.060-0.043-0.231-0.060-0.251-0.013-0.017-0.024-0.039-0.024-0.051-0.002-0.011-0.013-0.043-0.028-0.071-0.021-0.043-0.021-0.069 0-0.152 0.021-0.090 0.021-0.107-0.009-0.15-0.030-0.047-0.030-0.053 0.008-0.112 0.023-0.036 0.039-0.075 0.039-0.088s-0.045-0.069-0.101-0.126c-0.056-0.056-0.107-0.122-0.112-0.146-0.008-0.026 0.009-0.098 0.043-0.182 0.030-0.075 0.062-0.159 0.067-0.188 0.008-0.028 0.030-0.056 0.051-0.064 0.024-0.008 0.069-0.079 0.131-0.206 0.051-0.107 0.101-0.199 0.111-0.204 0.009-0.008 0.017-0.039 0.017-0.071 0-0.079 0.043-0.139 0.109-0.152 0.062-0.015 0.188-0.126 0.176-0.158-0.004-0.013 0.009-0.023 0.028-0.023 0.047 0 0.094-0.052 0.186-0.206 0.081-0.135 0.429-0.514 0.679-0.735 0.111-0.098 0.225-0.178 0.351-0.244 0.167-0.086 0.214-0.124 0.431-0.341 0.291-0.293 0.401-0.414 0.446-0.501 0.017-0.036 0.086-0.143 0.154-0.238 0.066-0.094 0.126-0.193 0.131-0.219s0.013-0.066 0.019-0.090c0.004-0.022 0.043-0.094 0.084-0.159 0.043-0.064 0.092-0.154 0.111-0.197s0.049-0.092 0.066-0.107c0.019-0.013 0.064-0.086 0.099-0.158 0.036-0.073 0.081-0.15 0.101-0.171 0.021-0.023 0.043-0.094 0.056-0.178 0.013-0.077 0.036-0.156 0.051-0.174 0.036-0.041 0.062-0.242 0.036-0.261-0.013-0.008-0.008-0.043 0.013-0.099 0.021-0.052 0.028-0.094 0.017-0.105-0.009-0.009-0.056-0.022-0.107-0.028-0.083-0.011-0.092-0.009-0.143 0.045-0.028 0.032-0.077 0.064-0.107 0.069-0.028 0.006-0.099 0.024-0.156 0.041s-0.157 0.032-0.225 0.032c-0.067 0.002-0.142 0.013-0.167 0.028-0.032 0.017-0.079 0.023-0.159 0.013-0.107-0.011-0.116-0.007-0.24 0.066l-0.129 0.079-0.112-0.032-0.111-0.030-0.099 0.054c-0.053 0.030-0.137 0.066-0.184 0.077-0.077 0.019-0.099 0.017-0.171-0.015-0.047-0.021-0.112-0.071-0.148-0.116-0.036-0.043-0.082-0.101-0.105-0.127-0.036-0.045-0.053-0.051-0.152-0.051-0.122 0-0.12-0.007 0.030-0.075 0.113-0.053 0.128-0.077 0.099-0.163-0.023-0.066-0.103-0.167-0.128-0.163-0.039 0.008-0.062-0.004-0.062-0.032 0-0.017-0.024-0.039-0.056-0.051-0.036-0.013-0.058-0.037-0.066-0.071-0.013-0.056-0.067-0.111-0.156-0.156-0.032-0.017-0.081-0.064-0.105-0.103-0.062-0.098-0.126-0.144-0.219-0.159-0.084-0.013-0.186-0.060-0.186-0.084 0-0.008-0.017-0.034-0.036-0.056-0.021-0.024-0.041-0.053-0.045-0.064-0.013-0.041-0.054 0.011-0.043 0.060 0.008 0.043 0.006 0.041-0.017-0.011-0.015-0.032-0.038-0.066-0.051-0.075-0.034-0.021-0.071-0.124-0.099-0.277-0.026-0.142-0.038-0.172-0.135-0.381-0.038-0.081-0.075-0.135-0.092-0.135-0.015 0-0.067-0.037-0.116-0.082s-0.107-0.086-0.129-0.094c-0.023-0.007-0.049-0.037-0.060-0.069-0.026-0.075-0.064-0.437-0.052-0.51 0.004-0.036-0.002-0.069-0.017-0.084-0.036-0.036-0.034-0.071 0.002-0.041 0.056 0.047 0.049 0.004-0.009-0.064-0.038-0.041-0.064-0.096-0.071-0.146-0.011-0.066-0.032-0.097-0.116-0.176-0.056-0.053-0.131-0.111-0.163-0.128-0.075-0.037-0.156-0.186-0.156-0.285 0-0.064 0.004-0.068 0.047-0.056 0.026 0.007 0.047 0.007 0.047 0.002 0-0.004-0.039-0.045-0.086-0.088-0.051-0.047-0.112-0.131-0.146-0.202-0.034-0.067-0.113-0.206-0.174-0.309-0.064-0.103-0.133-0.242-0.156-0.307s-0.062-0.148-0.088-0.184c-0.041-0.054-0.045-0.067-0.023-0.083 0.021-0.013 0.008-0.034-0.064-0.101-0.049-0.049-0.109-0.12-0.135-0.159-0.024-0.039-0.054-0.077-0.064-0.083-0.011-0.008-0.015-0.024-0.009-0.039s-0.006-0.056-0.028-0.090c-0.043-0.069-0.051-0.135-0.021-0.154 0.011-0.006 0.019 0.004 0.019 0.023s0.038 0.084 0.084 0.146c0.051 0.067 0.084 0.131 0.084 0.161 0 0.037 0.032 0.081 0.129 0.171 0.069 0.067 0.144 0.126 0.167 0.131 0.054 0.015 0.107-0.049 0.109-0.133 0.002-0.064 0.021-0.129 0.105-0.354 0.026-0.067 0.032-0.105 0.019-0.122-0.011-0.011-0.056-0.116-0.103-0.232l-0.084-0.21 0.045-0.041c0.024-0.022 0.045-0.049 0.045-0.058 0-0.028-0.051-0.015-0.086 0.024-0.069 0.077-0.135 0.097-0.272 0.084-0.081-0.009-0.129-0.006-0.139 0.006-0.017 0.030-0.114 0.024-0.141-0.008-0.011-0.015-0.041-0.032-0.062-0.039-0.023-0.006-0.052-0.022-0.067-0.034-0.026-0.021-0.116-0.030-0.302-0.030-0.201 0-0.225 0.004-0.225 0.041 0 0.026-0.011 0.036-0.043 0.030-0.023-0.002-0.068 0.013-0.098 0.034-0.084 0.060-0.173 0.101-0.212 0.101-0.021 0-0.073-0.017-0.118-0.037s-0.114-0.038-0.152-0.038c-0.038 0-0.075-0.009-0.081-0.019-0.006-0.011-0.038-0.019-0.068-0.019s-0.075-0.013-0.097-0.028c-0.024-0.015-0.105-0.036-0.18-0.047s-0.172-0.028-0.217-0.039c-0.056-0.015-0.099-0.015-0.152 0-0.103 0.028-0.116 0.026-0.131-0.022-0.026-0.088-0.062-0.107-0.199-0.107-0.071 0-0.148-0.009-0.171-0.022-0.023-0.011-0.082-0.030-0.135-0.041-0.082-0.019-0.094-0.028-0.099-0.073s-0.021-0.054-0.163-0.099c-0.176-0.054-0.259-0.054-0.461 0.006-0.165 0.049-0.279 0.114-0.33 0.191-0.053 0.079-0.054 0.15-0.006 0.246 0.043 0.086 0.032 0.133-0.049 0.208-0.084 0.079-0.173 0.116-0.24 0.103-0.032-0.008-0.105-0.045-0.163-0.086-0.137-0.096-0.398-0.182-0.613-0.204-0.103-0.011-0.189-0.030-0.219-0.051-0.054-0.036-0.103-0.118-0.103-0.172 0-0.069-0.069-0.129-0.163-0.144-0.049-0.007-0.118-0.028-0.156-0.047-0.036-0.017-0.107-0.039-0.159-0.047-0.051-0.007-0.109-0.021-0.127-0.032-0.023-0.011-0.077-0.011-0.161 0.006-0.124 0.021-0.133 0.021-0.232-0.028-0.12-0.056-0.172-0.062-0.197-0.017-0.026 0.043-0.079 0.017-0.079-0.041 0-0.051-0.058-0.090-0.071-0.051-0.009 0.030-0.062 0.028-0.056 0 0.004-0.013-0.015-0.026-0.041-0.030-0.103-0.013-0.18-0.083-0.159-0.141 0.006-0.013 0.039-0.039 0.075-0.056s0.086-0.049 0.113-0.073c0.069-0.058 0.163-0.199 0.143-0.21-0.008-0.006-0.021-0.036-0.026-0.066-0.009-0.041-0.032-0.067-0.088-0.096-0.062-0.032-0.075-0.047-0.075-0.094 0-0.032 0.008-0.056 0.017-0.056 0.043 0 0.133-0.101 0.144-0.161 0.006-0.036 0.008-0.071 0-0.077-0.006-0.006-0.043 0.009-0.081 0.036-0.099 0.064-0.137 0.077-0.137 0.041 0-0.015-0.013-0.032-0.030-0.039-0.021-0.008-0.022-0.015-0.008-0.024 0.039-0.024-0.002-0.060-0.058-0.052-0.030 0.006-0.051 0-0.049-0.011 0.006-0.024-0.058-0.032-0.118-0.013zM2.696 8.244c-0.019 0.004-0.049 0.004-0.066 0-0.019-0.006-0.004-0.009 0.032-0.009s0.051 0.004 0.034 0.009zM2.944 8.719c0 0.009-0.017 0.019-0.039 0.019-0.021 0-0.032-0.009-0.026-0.019 0.006-0.011 0.024-0.019 0.039-0.019s0.026 0.008 0.026 0.019z"></path>
<path d="M3.193 3.551c-0.045 0.037-0.047 0.049-0.026 0.075 0.034 0.039 0.043 0.038 0.103-0.017 0.097-0.092 0.026-0.146-0.077-0.058z"></path>
<path d="M1.901 3.647c-0.015 0.036 0.043 0.128 0.073 0.116 0.022-0.007 0.052-0.118 0.036-0.135-0.021-0.021-0.099-0.007-0.109 0.019z"></path>
<path d="M3.083 3.716c-0.017 0.034-0.053 0.084-0.079 0.113l-0.049 0.053h0.052c0.083 0 0.159-0.051 0.176-0.118 0.009-0.032 0.013-0.071 0.008-0.084-0.015-0.045-0.077-0.022-0.109 0.037z"></path>
<path d="M2.391 3.72c-0.021 0.013-0.066 0.032-0.098 0.039-0.034 0.006-0.062 0.017-0.062 0.022 0 0.034 0.081 0.133 0.101 0.126 0.039-0.015 0.165-0.174 0.152-0.195-0.017-0.026-0.051-0.023-0.094 0.007z"></path>
<path d="M2.119 3.834c-0.028 0.034-0.009 0.066 0.037 0.066 0.019 0 0.041-0.009 0.047-0.019 0.013-0.021-0.022-0.075-0.047-0.075-0.007 0-0.024 0.013-0.037 0.028z"></path>
<path d="M2.591 3.848c-0.062 0.062 0.011 0.171 0.088 0.129 0.045-0.024 0.056-0.058 0.037-0.111-0.017-0.045-0.088-0.056-0.126-0.019z"></path>
<path d="M1.877 3.939c-0.036 0.015-0.039 0.023-0.021 0.045 0.032 0.039 0.081 0.036 0.107-0.007 0.019-0.030 0.017-0.038-0.006-0.047-0.017-0.006-0.030-0.011-0.032-0.009-0.002 0-0.024 0.009-0.049 0.019z"></path>
<path d="M17.7 3.99c0 0.009 0.013 0.024 0.030 0.030 0.019 0.007 0.026 0.002 0.023-0.011-0.009-0.028-0.052-0.043-0.052-0.019z"></path>
<path d="M0.456 7.192c-0.021 0.009-0.036 0.082-0.017 0.082 0.036 0 0.124-0.047 0.118-0.064-0.007-0.022-0.066-0.034-0.101-0.019z"></path>
<path d="M0.531 7.269c-0.038 0.015-0.028 0.043 0.013 0.043 0.021 0 0.038-0.013 0.038-0.028 0-0.028-0.011-0.032-0.051-0.015z"></path>
<path d="M1.136 7.271c-0.015 0.024 0.019 0.098 0.045 0.098s0.022-0.043-0.006-0.084c-0.019-0.022-0.030-0.026-0.039-0.013z"></path>
<path d="M0.609 7.313c-0.006 0.009-0.002 0.019 0.008 0.019 0.011 0 0.021-0.009 0.021-0.019 0-0.011-0.004-0.019-0.007-0.019-0.006 0-0.015 0.008-0.021 0.019z"></path>
<path d="M0.726 7.342c-0.026 0.026 0.011 0.056 0.062 0.049 0.068-0.009 0.073-0.032 0.015-0.049-0.054-0.013-0.062-0.013-0.077 0z"></path>
<path d="M19.519 7.459c0 0.011 0.009 0.022 0.021 0.026 0.015 0.006 0.011 0.019-0.009 0.039-0.019 0.017-0.024 0.032-0.013 0.032s0.015 0.013 0.009 0.028c-0.015 0.036 0.019 0.036 0.049 0 0.011-0.015 0.015-0.038 0.008-0.051-0.009-0.013-0.017-0.036-0.017-0.051 0-0.030-0.047-0.053-0.047-0.024z"></path>
<path d="M1.155 7.492c-0.022 0.060 0.039 0.088 0.081 0.038 0.019-0.022 0.015-0.032-0.015-0.047-0.049-0.026-0.053-0.026-0.066 0.009z"></path>
<path d="M19.622 7.575c-0.015 0.024-0.002 0.045 0.026 0.036 0.011-0.006 0.013-0.019 0.004-0.034-0.011-0.019-0.019-0.019-0.030-0.002z"></path>
<path d="M1.069 7.781c0 0.021 0.009 0.038 0.019 0.038 0.011 0 0.019-0.017 0.019-0.038s-0.008-0.038-0.019-0.038c-0.009 0-0.019 0.017-0.019 0.038z"></path>
<path d="M0.913 7.776c-0.045 0.043 0.030 0.135 0.092 0.111 0.036-0.013 0.034-0.041-0.011-0.086-0.039-0.039-0.060-0.045-0.081-0.024z"></path>
<path d="M20.353 8.063c-0.013 0.022 0.004 0.056 0.030 0.056 0.023 0 0.023-0.051 0-0.066-0.009-0.006-0.023-0.002-0.030 0.009z"></path>
<path d="M20.325 8.175c0 0.009 0.008 0.019 0.017 0.019 0.011 0 0.024-0.009 0.030-0.019 0.006-0.011-0.002-0.019-0.017-0.019-0.017 0-0.030 0.008-0.030 0.019z"></path>
<path d="M23.587 8.484c-0.017 0.019-0.011 0.036 0.017 0.064 0.051 0.051 0.154 0.051 0.264 0 0.079-0.036 0.081-0.039 0.047-0.060-0.056-0.032-0.302-0.034-0.328-0.004z"></path>
<path d="M23.194 8.604c0 0.019 0.094 0.047 0.109 0.030 0.015-0.013 0.002-0.021-0.056-0.036-0.030-0.006-0.052-0.004-0.052 0.006z"></path>
<path d="M23.475 8.625c0 0.009 0.009 0.019 0.019 0.019 0.011 0 0.019-0.009 0.019-0.019 0-0.011-0.008-0.019-0.019-0.019-0.009 0-0.019 0.008-0.019 0.019z"></path>
<path d="M2.52 8.835c-0.009 0.015-0.004 0.017 0.017 0.009 0.019-0.008 0.032-0.004 0.032 0.008s0.011 0.017 0.026 0.011c0.013-0.006 0.036 0 0.047 0.011 0.017 0.017 0.026 0.015 0.039-0.006 0.026-0.039 0.022-0.056-0.009-0.056-0.015 0-0.028 0.008-0.028 0.019s-0.017 0.011-0.049 0c-0.060-0.023-0.058-0.023-0.075 0.004z"></path>
<path d="M2.728 8.85c-0.006 0.009-0.004 0.019 0.007 0.019 0.009 0 0.024-0.009 0.030-0.019 0.006-0.011 0.004-0.019-0.007-0.019-0.009 0-0.024 0.008-0.030 0.019z"></path>
<path d="M2.578 8.906c-0.006 0.009-0.002 0.019 0.007 0.019 0.011 0 0.021-0.009 0.021-0.019 0-0.011-0.004-0.019-0.007-0.019-0.006 0-0.015 0.008-0.021 0.019z"></path>
<path d="M2.737 8.904c0 0.011-0.011 0.015-0.022 0.011-0.037-0.013-0.073 0.019-0.060 0.053s0.045 0.043 0.045 0.013c0-0.011-0.009-0.019-0.021-0.019-0.009 0-0.013-0.009-0.007-0.019 0.009-0.015 0.021-0.015 0.037 0 0.017 0.013 0.030 0.011 0.045-0.008s0.017-0.030 0.002-0.039c-0.009-0.006-0.019-0.004-0.019 0.007z"></path>
<path d="M2.573 8.966c0.009 0.028 0.052 0.034 0.054 0.006 0-0.011-0.013-0.023-0.032-0.024-0.019-0.006-0.028 0.002-0.022 0.019z"></path>
<path d="M10.131 11.151c-0.013 0.006-0.024 0.019-0.024 0.032 0 0.015-0.019 0.049-0.041 0.077-0.039 0.051-0.039 0.053-0.006 0.077 0.056 0.041 0.081 0.032 0.122-0.047 0.049-0.096 0.023-0.165-0.051-0.139z"></path>
<path d="M9.72 11.814c-0.006 0.011-0.002 0.030 0.009 0.041 0.015 0.015 0.021 0.009 0.021-0.021 0-0.045-0.009-0.053-0.030-0.021z"></path>
<path d="M19.436 13.851c0.002 0.051 0.009 0.088 0.015 0.084 0.006-0.002 0.019-0.004 0.028-0.004 0.024 0 0.037-0.118 0.017-0.146-0.041-0.049-0.064-0.023-0.060 0.066z"></path>
<path d="M19.301 14.051c-0.015 0.039 0 0.152 0.019 0.146 0.009-0.004 0.024 0.006 0.034 0.023s0.024 0.030 0.032 0.030c0.032 0 0.039-0.062 0.015-0.092-0.015-0.017-0.032-0.053-0.039-0.082-0.013-0.054-0.043-0.068-0.060-0.024z"></path>
<path d="M19.459 14.651c-0.030 0.023-0.053 0.047-0.053 0.054 0 0.026 0.051 0.013 0.082-0.023 0.051-0.056 0.028-0.079-0.030-0.032z"></path>
<path d="M21.487 15.225c0 0.009 0.009 0.019 0.019 0.019 0.011 0 0.019-0.009 0.019-0.019 0-0.011-0.008-0.019-0.019-0.019-0.009 0-0.019 0.008-0.019 0.019z"></path>
<path d="M20.505 15.742c-0.021 0.052-0.011 0.096 0.026 0.129 0.058 0.052 0.084 0.015 0.054-0.082-0.023-0.079-0.060-0.099-0.081-0.047z"></path>
<path d="M22.299 15.932c-0.019 0.056-0.066 0.099-0.105 0.099-0.036 0-0.036 0.002-0.008 0.034 0.019 0.019 0.032 0.054 0.032 0.081 0 0.067-0.060 0.171-0.107 0.188-0.038 0.013-0.043 0.009-0.043-0.030 0-0.026-0.009-0.047-0.019-0.047-0.030 0-0.049 0.062-0.023 0.071 0.026 0.008 0.030 0.071 0.006 0.088-0.009 0.006-0.023-0.008-0.030-0.028-0.006-0.021-0.019-0.038-0.028-0.038-0.030 0-0.079 0.090-0.064 0.116 0.009 0.013 0.017 0.047 0.019 0.075 0.002 0.039-0.006 0.053-0.032 0.053-0.045 0-0.060 0.028-0.039 0.069 0.021 0.037-0.023 0.096-0.043 0.062s-0.045-0.019-0.096 0.056c-0.036 0.052-0.045 0.088-0.038 0.122 0.008 0.026 0.004 0.047-0.008 0.047-0.009 0-0.019-0.015-0.019-0.034 0-0.052-0.019-0.062-0.073-0.034-0.079 0.041-0.139 0.116-0.127 0.161 0.006 0.021 0.002 0.034-0.008 0.026-0.009-0.006-0.017-0.023-0.017-0.038 0-0.021-0.008-0.023-0.036-0.008-0.021 0.009-0.058 0.019-0.084 0.019s-0.054 0.011-0.062 0.024c-0.021 0.034-0.096 0.052-0.105 0.026-0.004-0.013-0.028-0.006-0.060 0.021s-0.079 0.041-0.12 0.041c-0.086 0-0.114 0.026-0.114 0.113 0 0.045-0.021 0.094-0.066 0.157-0.066 0.094-0.066 0.094-0.054 0.244 0.008 0.088 0.028 0.182 0.047 0.221 0.021 0.039 0.036 0.094 0.036 0.122s0.013 0.069 0.030 0.090c0.019 0.026 0.024 0.058 0.017 0.105-0.008 0.039-0.004 0.075 0.008 0.081 0.011 0.008 0 0.039-0.028 0.081-0.024 0.038-0.073 0.124-0.107 0.193-0.032 0.069-0.075 0.133-0.096 0.143-0.019 0.009-0.056 0.067-0.081 0.129-0.066 0.158-0.056 0.283 0.038 0.431 0.056 0.088 0.064 0.116 0.047 0.146-0.032 0.060-0.009 0.233 0.038 0.281 0.023 0.024 0.041 0.054 0.041 0.068 0 0.039 0.15 0.171 0.193 0.171 0.023 0 0.081 0.021 0.129 0.047s0.099 0.047 0.113 0.047c0.015 0 0.084-0.028 0.156-0.062 0.073-0.036 0.173-0.069 0.223-0.075 0.129-0.019 0.171-0.053 0.208-0.167 0.019-0.054 0.049-0.131 0.067-0.169 0.021-0.039 0.060-0.174 0.090-0.3 0.030-0.128 0.082-0.291 0.114-0.362 0.032-0.073 0.071-0.184 0.086-0.249s0.045-0.161 0.066-0.216c0.023-0.054 0.090-0.244 0.15-0.42 0.094-0.274 0.111-0.343 0.111-0.454 0-0.107 0.006-0.135 0.036-0.156 0.019-0.013 0.045-0.060 0.058-0.103 0.021-0.069 0.021-0.086-0.008-0.128-0.017-0.026-0.026-0.056-0.021-0.066s0-0.034-0.011-0.053c-0.023-0.038-0.013-0.097 0.017-0.097 0.009 0 0.030 0.034 0.047 0.075 0.032 0.081 0.082 0.114 0.109 0.073 0.009-0.015 0.030-0.068 0.047-0.116 0.030-0.090 0.030-0.090-0.021-0.163-0.038-0.053-0.049-0.090-0.045-0.144 0.004-0.039 0-0.082-0.008-0.094-0.008-0.013-0.009-0.043-0.004-0.067 0.008-0.030-0.002-0.075-0.026-0.122-0.023-0.043-0.039-0.101-0.039-0.133 0-0.034-0.021-0.075-0.056-0.114-0.030-0.034-0.056-0.071-0.056-0.084 0-0.015-0.015-0.038-0.036-0.051-0.019-0.013-0.037-0.041-0.041-0.060-0.009-0.049-0.051-0.060-0.067-0.017z"></path>
<path d="M20.856 15.934c-0.054 0.008-0.054 0.032-0.002 0.067 0.051 0.036 0.086 0.011 0.060-0.039-0.011-0.023-0.032-0.032-0.058-0.028z"></path>
<path d="M20.625 15.994c0 0.024 0.053 0.047 0.071 0.030 0.006-0.008 0-0.021-0.015-0.030-0.038-0.024-0.056-0.023-0.056 0z"></path>
<path d="M21.062 16.153c0 0.028 0.009 0.047 0.024 0.047s0.026-0.013 0.026-0.028c0-0.015 0.011-0.028 0.024-0.028 0.015 0 0.013-0.008-0.006-0.019-0.047-0.030-0.069-0.021-0.069 0.028z"></path>
<path d="M22.53 17.361c-0.019 0.021-0.030 0.053-0.026 0.071 0.006 0.026 0.015 0.021 0.041-0.028 0.038-0.075 0.032-0.094-0.015-0.043z"></path>
<path d="M20.353 17.438c0.006 0.009 0.015 0.019 0.021 0.019 0.004 0 0.008-0.009 0.008-0.019 0-0.011-0.009-0.019-0.021-0.019-0.009 0-0.013 0.008-0.008 0.019z"></path>
<path d="M18.15 18.825c0 0.021 0.009 0.037 0.019 0.037 0.011 0 0.019-0.017 0.019-0.037s-0.008-0.038-0.019-0.038c-0.009 0-0.019 0.017-0.019 0.038z"></path>
</svg>
