<!-- Generated by IcoMoon.io -->
<svg version="1.1" xmlns="http://www.w3.org/2000/svg" width="24" height="24" viewBox="0 0 24 24">
<path d="M6.386 2.717c-0.028 0.017-0.086 0.030-0.126 0.030-0.082 0-0.101 0.021-0.071 0.077 0.021 0.039 0.030 0.039 0.212 0.030 0.103-0.007 0.233-0.017 0.283-0.022 0.086-0.007 0.082-0.006-0.045 0.028-0.159 0.043-0.161 0.043-0.144 0.086 0.009 0.022 0.026 0.028 0.069 0.019 0.032-0.006 0.084 0 0.12 0.015 0.034 0.015 0.128 0.032 0.208 0.039 0.082 0.007 0.206 0.024 0.277 0.039 0.167 0.032 0.255-0.004 0.167-0.071-0.019-0.013-0.043-0.041-0.054-0.062-0.019-0.032-0.041-0.038-0.141-0.038-0.066 0-0.139-0.011-0.159-0.022-0.022-0.013-0.075-0.028-0.116-0.036-0.058-0.009-0.073-0.019-0.066-0.043 0.013-0.054-0.034-0.073-0.201-0.086-0.126-0.009-0.171-0.006-0.214 0.017z"></path>
<path d="M7.579 2.974c-0.049 0.019-0.086 0.101-0.071 0.159 0.015 0.054 0.071 0.071 0.15 0.045 0.034-0.011 0.129-0.019 0.214-0.017 0.167 0.006 0.223-0.017 0.191-0.077-0.019-0.034-0.116-0.053-0.313-0.062-0.047-0.002-0.081-0.011-0.081-0.024 0-0.032-0.039-0.043-0.090-0.024z"></path>
<path d="M7.971 3.27c-0.015 0.024-0.015 0.053-0.002 0.086 0.026 0.071 0.026 0.071-0.064 0.058-0.071-0.011-0.082-0.007-0.092 0.026-0.008 0.028-0.024 0.038-0.077 0.038-0.036 0-0.107 0.009-0.159 0.021-0.075 0.015-0.103 0.013-0.15-0.009-0.082-0.043-0.268-0.039-0.296 0.004-0.017 0.030-0.054 0.037-0.212 0.049-0.126 0.007-0.21 0.022-0.249 0.045-0.034 0.017-0.090 0.036-0.126 0.041-0.101 0.015-0.079 0.053 0.073 0.129 0.077 0.038 0.137 0.075 0.131 0.086-0.004 0.011-0.066 0.017-0.148 0.013-0.077-0.004-0.154-0.006-0.169-0.004s-0.127 0.006-0.249 0.009c-0.12 0.002-0.225 0.009-0.231 0.015-0.021 0.021 0.030 0.086 0.071 0.092 0.026 0.004 0.045 0.023 0.053 0.053 0.011 0.043 0.019 0.047 0.099 0.041 0.054-0.004 0.105 0.004 0.139 0.023 0.028 0.017 0.099 0.047 0.156 0.067s0.099 0.038 0.094 0.038c-0.006 0.002-0.073 0.002-0.15 0.002-0.159 0-0.296-0.017-0.311-0.041-0.006-0.009-0.037-0.017-0.069-0.017-0.034 0-0.103-0.017-0.157-0.037-0.105-0.039-0.146-0.024-0.092 0.036 0.041 0.045 0.037 0.064-0.006 0.039-0.056-0.028-0.173-0.024-0.159 0.007 0.017 0.041 0.092 0.066 0.199 0.060 0.086-0.004 0.112 0.002 0.156 0.039 0.028 0.024 0.047 0.051 0.041 0.056-0.013 0.011-0.435-0.064-0.495-0.088-0.024-0.009-0.043-0.034-0.043-0.054 0-0.062-0.039-0.127-0.088-0.15-0.071-0.032-0.092-0.024-0.047 0.019 0.047 0.041 0.039 0.073-0.015 0.073-0.021 0-0.045 0.017-0.056 0.036-0.015 0.032-0.007 0.047 0.041 0.094 0.034 0.032 0.071 0.058 0.084 0.058 0.037 0 0.081 0.056 0.081 0.109 0.002 0.032 0.030 0.083 0.073 0.133l0.073 0.081 0.225 0.004c0.188 0.004 0.232 0.009 0.277 0.039 0.030 0.021 0.071 0.045 0.092 0.056s0.039 0.036 0.043 0.056c0.009 0.051 0.041 0.084 0.092 0.105 0.064 0.024 0.053 0.054-0.019 0.054-0.067 0-0.113-0.036-0.135-0.111-0.009-0.028-0.047-0.058-0.116-0.090-0.094-0.043-0.116-0.047-0.21-0.032-0.075 0.011-0.107 0.026-0.111 0.049-0.004 0.017 0.009 0.036 0.030 0.043 0.030 0.007 0.039 0.032 0.045 0.109 0.009 0.103-0.006 0.137-0.069 0.165-0.021 0.009-0.058 0.032-0.084 0.053-0.043 0.034-0.058 0.034-0.221 0.013-0.096-0.013-0.184-0.034-0.195-0.045-0.013-0.013-0.037-0.022-0.056-0.022s-0.034-0.009-0.034-0.019c0-0.024 0.049-0.024 0.098 0.002 0.021 0.011 0.084 0.026 0.141 0.034 0.109 0.015 0.118 0.009 0.206-0.139 0.045-0.075 0.047-0.086 0.017-0.12-0.017-0.019-0.030-0.045-0.026-0.060 0.004-0.013-0.028-0.041-0.069-0.064s-0.094-0.069-0.116-0.105c-0.022-0.036-0.058-0.081-0.077-0.101-0.021-0.021-0.041-0.060-0.049-0.088-0.006-0.026-0.054-0.088-0.107-0.135s-0.090-0.094-0.082-0.105c0.019-0.030-0.024-0.126-0.062-0.143-0.019-0.008-0.12-0.023-0.227-0.034-0.171-0.019-0.199-0.019-0.231 0.007s-0.034 0.036-0.013 0.081c0.032 0.071 0 0.137-0.077 0.154-0.068 0.015-0.073 0.071-0.008 0.081 0.045 0.006 0.101 0.094 0.101 0.161 0 0.054 0.047 0.086 0.127 0.086 0.030 0 0.069 0.017 0.088 0.038s0.053 0.037 0.075 0.037c0.049 0 0.103 0.054 0.103 0.101 0 0.038 0 0.038-0.231-0.015-0.071-0.017-0.144-0.038-0.163-0.049-0.067-0.037-0.073-0.017-0.019 0.069 0.032 0.049 0.056 0.103 0.056 0.12 0 0.021-0.041 0.056-0.107 0.094-0.129 0.075-0.249 0.18-0.249 0.217 0 0.017 0.026 0.081 0.056 0.144 0.032 0.062 0.073 0.173 0.094 0.246 0.079 0.274 0.206 0.864 0.206 0.958 0 0.066 0.009 0.105 0.030 0.122 0.047 0.037 0.129 0.169 0.165 0.259 0.028 0.073 0.028 0.086 0.002 0.126-0.017 0.026-0.066 0.054-0.12 0.071-0.223 0.066-0.249 0.109-0.152 0.261 0.077 0.122 0.193 0.178 0.296 0.148 0.045-0.015 0.103-0.054 0.152-0.107l0.079-0.084 0.045 0.045c0.036 0.036 0.047 0.067 0.047 0.126 0 0.043 0.009 0.133 0.021 0.199s0.015 0.165 0.008 0.221c-0.011 0.092-0.021 0.111-0.092 0.169l-0.081 0.066-0.148-0.062c-0.083-0.036-0.189-0.086-0.242-0.112-0.135-0.071-0.238-0.082-0.328-0.039l-0.073 0.036 0.038 0.060c0.032 0.049 0.034 0.066 0.015 0.098-0.026 0.039-0.084 0.053-0.289 0.069-0.15 0.013-0.18 0.034-0.244 0.157-0.024 0.047-0.066 0.105-0.092 0.131-0.041 0.038-0.056 0.041-0.083 0.022-0.058-0.041-0.079-0.045-0.109-0.021-0.023 0.019-0.028 0.047-0.021 0.116 0.007 0.079 0.019 0.103 0.086 0.163 0.073 0.068 0.077 0.077 0.077 0.18 0.002 0.069 0.015 0.135 0.036 0.174l0.034 0.064 0.039-0.056c0.032-0.045 0.058-0.058 0.129-0.067 0.069-0.008 0.097-0.021 0.137-0.071l0.051-0.060 0.084 0.039c0.071 0.036 0.090 0.037 0.144 0.017s0.064-0.019 0.088 0.013c0.015 0.022 0.026 0.081 0.026 0.144 0 0.060 0.009 0.114 0.019 0.12 0.047 0.030 0.009 0.037-0.090 0.021-0.062-0.009-0.124-0.011-0.141-0.006-0.039 0.015-0.041 0.099-0.004 0.114 0.037 0.013 0.036 0.068-0.002 0.068-0.015 0-0.045-0.009-0.066-0.021-0.028-0.013-0.045-0.013-0.064 0.002-0.036 0.030-0.004 0.094 0.047 0.094 0.019 0 0.039 0.017 0.047 0.036 0.006 0.021 0.032 0.049 0.056 0.066 0.026 0.017 0.047 0.043 0.047 0.058 0 0.017 0.017 0.028 0.043 0.028s0.049 0.017 0.060 0.041c0.013 0.030 0.036 0.043 0.075 0.043 0.051 0.002 0.056 0.008 0.069 0.084 0.019 0.111 0.092 0.283 0.116 0.276 0.021-0.008 0.024-0.066 0.009-0.135-0.006-0.026 0.008-0.041 0.045-0.054 0.049-0.017 0.058-0.013 0.127 0.069 0.041 0.049 0.088 0.088 0.101 0.088s0.039 0.013 0.054 0.030c0.022 0.022 0.026 0.037 0.009 0.067-0.017 0.032-0.032 0.036-0.088 0.026-0.039-0.008-0.105-0.017-0.148-0.023l-0.081-0.011v0.077c0 0.071 0.004 0.079 0.058 0.090 0.069 0.013 0.084 0.043 0.056 0.118-0.024 0.073-0.015 0.094 0.066 0.146 0.067 0.045 0.088 0.081 0.131 0.244 0.051 0.191 0.062 0.182-0.231 0.188-0.246 0.006-0.257 0.004-0.304-0.039-0.084-0.077-0.139-0.107-0.199-0.107-0.079 0-0.133-0.043-0.148-0.116-0.034-0.165-0.034-0.184 0-0.236 0.021-0.028 0.039-0.081 0.045-0.116 0.009-0.062 0.013-0.066 0.081-0.064 0.118 0.004 0.069-0.081-0.066-0.113-0.028-0.006-0.081-0.049-0.118-0.094-0.073-0.090-0.058-0.084-0.379-0.122-0.173-0.019-0.334-0.086-0.471-0.199-0.081-0.066-0.176-0.086-0.201-0.047-0.024 0.038-0.12 0.019-0.184-0.038-0.107-0.094-0.248-0.124-0.324-0.067-0.039 0.030-0.041 0.026 0.052 0.084 0.054 0.032 0.075 0.062 0.096 0.129 0.034 0.114 0.017 0.144-0.105 0.199-0.079 0.034-0.127 0.041-0.257 0.039-0.088-0.002-0.182-0.013-0.212-0.024-0.028-0.013-0.090-0.021-0.137-0.019-0.073 0.004-0.094-0.004-0.127-0.045-0.051-0.062-0.127-0.077-0.424-0.079-0.208-0.002-0.244 0.004-0.313 0.039-0.043 0.024-0.090 0.060-0.107 0.082-0.026 0.037-0.039 0.039-0.156 0.030-0.071-0.006-0.141-0.013-0.156-0.017-0.038-0.008-0.047 0.062-0.011 0.082 0.086 0.049-0.019 0.086-0.264 0.094-0.107 0.004-0.201 0.015-0.21 0.024-0.008 0.011-0.021 0.051-0.026 0.090-0.011 0.069-0.009 0.073 0.073 0.107 0.094 0.041 0.107 0.088 0.043 0.152-0.026 0.026-0.051 0.036-0.079 0.026-0.101-0.032-0.126-0.032-0.126-0.006 0 0.047 0.068 0.092 0.154 0.103 0.094 0.013 0.128 0.034 0.128 0.081 0 0.019 0.017 0.038 0.039 0.043 0.034 0.009 0.036 0.015 0.015 0.049-0.021 0.032-0.019 0.043 0.009 0.075 0.028 0.030 0.058 0.039 0.135 0.039 0.090 0 0.105 0.006 0.142 0.056s0.051 0.056 0.144 0.056c0.097 0 0.107-0.006 0.137-0.056 0.047-0.082 0.114-0.092 0.229-0.028 0.052 0.028 0.109 0.064 0.126 0.077 0.045 0.041 0.197 0.011 0.291-0.054 0.069-0.049 0.086-0.053 0.137-0.036 0.045 0.017 0.073 0.015 0.124-0.008 0.058-0.022 0.066-0.022 0.066 0 0 0.015-0.009 0.034-0.021 0.041-0.013 0.008-0.019 0.092-0.019 0.231 0.002 0.285-0.015 0.469-0.045 0.516-0.015 0.022-0.039 0.094-0.056 0.161-0.032 0.126-0.071 0.216-0.101 0.234-0.009 0.006-0.092 0.002-0.182-0.009-0.090-0.009-0.169-0.015-0.172-0.011-0.009 0.011 0.12 0.285 0.142 0.3 0.011 0.006 0.034 0.056 0.049 0.111s0.058 0.133 0.092 0.172c0.036 0.041 0.067 0.092 0.071 0.112 0.013 0.062 0.069 0.056 0.111-0.013 0.026-0.043 0.037-0.094 0.037-0.171 0-0.058 0.007-0.107 0.017-0.107 0.028 0 0.041 0.056 0.021 0.094-0.021 0.039-0.024 0.167-0.007 0.214 0.006 0.017 0.030 0.030 0.052 0.030 0.060 0 0.116 0.047 0.189 0.156 0.036 0.054 0.103 0.148 0.148 0.21s0.088 0.143 0.094 0.18c0.006 0.036 0.028 0.082 0.049 0.101s0.038 0.045 0.038 0.060c0 0.013 0.022 0.034 0.051 0.045 0.116 0.043 0.236 0.21 0.244 0.336 0.011 0.229 0.024 0.281 0.096 0.39 0.054 0.082 0.083 0.109 0.124 0.113 0.083 0.009 0.157 0.097 0.184 0.214 0.013 0.064 0.038 0.112 0.066 0.133 0.022 0.019 0.043 0.045 0.043 0.058s0.037 0.068 0.084 0.122c0.047 0.054 0.084 0.114 0.084 0.135s0.021 0.045 0.045 0.056c0.045 0.021 0.086 0.088 0.086 0.139 0 0.015-0.017 0.036-0.038 0.047-0.049 0.026-0.049 0.092 0.002 0.188 0.021 0.041 0.043 0.111 0.049 0.154 0.007 0.045 0.022 0.099 0.037 0.122 0.017 0.026 0.023 0.062 0.015 0.103-0.011 0.056-0.006 0.069 0.036 0.096 0.073 0.049 0.141 0.039 0.351-0.052 0.107-0.045 0.214-0.084 0.238-0.084 0.056 0 0.157-0.043 0.189-0.081 0.019-0.023 0.034-0.026 0.058-0.013 0.043 0.023 0.114-0.002 0.165-0.058 0.045-0.047 0.294-0.165 0.351-0.167 0.021 0 0.083-0.021 0.139-0.047l0.101-0.047-0.009-0.082c-0.009-0.079-0.008-0.084 0.064-0.131 0.041-0.026 0.111-0.054 0.152-0.060 0.043-0.008 0.111-0.028 0.15-0.049 0.053-0.026 0.079-0.030 0.105-0.015 0.047 0.024 0.109 0.024 0.124 0 0.008-0.011-0.002-0.041-0.019-0.067-0.043-0.068-0.024-0.096 0.069-0.111 0.098-0.017 0.127-0.037 0.127-0.092 0-0.024 0.036-0.075 0.084-0.124 0.082-0.081 0.141-0.202 0.141-0.294 0-0.032 0.011-0.043 0.043-0.043 0.049 0 0.088-0.032 0.088-0.073 0-0.015 0.036-0.064 0.079-0.109 0.066-0.066 0.077-0.092 0.079-0.159 0.002-0.060-0.006-0.081-0.026-0.081-0.047 0-0.135-0.101-0.122-0.143 0.009-0.026 0-0.039-0.038-0.054-0.026-0.009-0.067-0.019-0.090-0.019-0.088 0-0.176-0.043-0.27-0.129-0.086-0.079-0.101-0.101-0.111-0.182-0.007-0.051-0.028-0.111-0.049-0.133-0.034-0.036-0.034-0.041-0.006-0.058 0.017-0.009 0.028-0.032 0.026-0.051-0.009-0.041-0.054-0.060-0.054-0.023 0 0.015-0.024 0.056-0.056 0.090-0.030 0.036-0.056 0.073-0.056 0.084s-0.017 0.036-0.038 0.054c-0.021 0.019-0.037 0.049-0.037 0.066 0 0.047-0.096 0.128-0.193 0.161-0.081 0.028-0.090 0.026-0.143-0.004-0.045-0.026-0.062-0.030-0.081-0.011-0.026 0.026-0.079 0.030-0.124 0.006-0.017-0.009-0.047-0.023-0.066-0.028-0.030-0.009-0.032-0.026-0.021-0.169 0.013-0.159 0.013-0.159-0.037-0.182-0.026-0.013-0.054-0.017-0.062-0.009s-0.011 0.062-0.009 0.124c0.002 0.060-0.004 0.114-0.013 0.12-0.028 0.019-0.081-0.047-0.069-0.088 0.006-0.026-0.009-0.054-0.047-0.090-0.043-0.041-0.058-0.073-0.066-0.143-0.006-0.066-0.019-0.099-0.051-0.122-0.084-0.064-0.163-0.159-0.216-0.261-0.094-0.18-0.128-0.229-0.169-0.244-0.062-0.024-0.051-0.051 0.053-0.114 0.053-0.032 0.094-0.066 0.094-0.073 0-0.030 0.073-0.017 0.092 0.015 0.013 0.026 0.022 0.028 0.045 0.009 0.026-0.023 0.088-0.013 0.088 0.013 0 0.006 0.034 0.056 0.075 0.109 0.039 0.054 0.099 0.159 0.131 0.234s0.068 0.143 0.081 0.15c0.013 0.008 0.054 0.015 0.092 0.015s0.073 0.008 0.079 0.017c0.019 0.028 0.214 0.133 0.249 0.133 0.019 0 0.062 0.017 0.096 0.038 0.084 0.051 0.105 0.049 0.193-0.032 0.067-0.060 0.088-0.069 0.171-0.069s0.101 0.008 0.148 0.060c0.039 0.043 0.054 0.081 0.054 0.128 0 0.092 0.082 0.165 0.191 0.169 0.133 0.006 0.375 0.045 0.465 0.077 0.099 0.036 0.158 0.036 0.384 0.006 0.094-0.013 0.191-0.023 0.221-0.021 0.028 0 0.099 0.004 0.159 0.006 0.079 0.004 0.124-0.004 0.159-0.028 0.094-0.062 0.193-0.034 0.171 0.051-0.009 0.043-0.004 0.053 0.056 0.077 0.045 0.019 0.079 0.053 0.105 0.103 0.021 0.041 0.064 0.088 0.096 0.105 0.032 0.015 0.096 0.064 0.143 0.105 0.086 0.081 0.204 0.116 0.283 0.088 0.062-0.023 0.066 0.013 0.009 0.058-0.037 0.028-0.067 0.037-0.109 0.030-0.030-0.006-0.069-0.002-0.084 0.008-0.022 0.015 0.006 0.051 0.148 0.188 0.096 0.092 0.186 0.169 0.197 0.169 0.013 0 0.066-0.013 0.118-0.028 0.107-0.032 0.137-0.081 0.124-0.199-0.006-0.043 0-0.073 0.019-0.088 0.024-0.021 0.034-0.011 0.060 0.060 0.017 0.045 0.026 0.092 0.019 0.103-0.006 0.011 0.006 0.043 0.026 0.069 0.047 0.060 0.051 0.124 0.011 0.184-0.036 0.053-0.024 0.103 0.073 0.377 0.047 0.133 0.068 0.219 0.068 0.294 0 0.092 0.008 0.116 0.054 0.169 0.028 0.034 0.081 0.116 0.114 0.184s0.082 0.146 0.109 0.174c0.049 0.051 0.056 0.075 0.114 0.403 0.011 0.056 0.034 0.098 0.079 0.141 0.079 0.071 0.223 0.405 0.238 0.542 0.006 0.060 0.022 0.101 0.053 0.129 0.024 0.023 0.045 0.058 0.045 0.075 0 0.043 0.054 0.073 0.137 0.073 0.058 0 0.067-0.008 0.098-0.084 0.017-0.049 0.060-0.109 0.096-0.137 0.037-0.030 0.064-0.068 0.064-0.092 0-0.023 0.009-0.047 0.019-0.052 0.011-0.008 0.015-0.028 0.009-0.049-0.009-0.028-0.002-0.036 0.034-0.036 0.073 0 0.098-0.045 0.071-0.129-0.030-0.105-0.026-0.204 0.019-0.336 0.032-0.094 0.036-0.128 0.019-0.169-0.009-0.028-0.019-0.090-0.019-0.137s-0.009-0.122-0.021-0.167c-0.034-0.126 0.022-0.225 0.127-0.225 0.026 0 0.039-0.017 0.049-0.058 0.009-0.051 0.017-0.056 0.056-0.047 0.058 0.015 0.133-0.045 0.161-0.129 0.011-0.036 0.043-0.082 0.071-0.105 0.028-0.021 0.054-0.056 0.060-0.079 0.006-0.024 0.028-0.043 0.051-0.047 0.024-0.004 0.064-0.043 0.099-0.099 0.062-0.096 0.277-0.298 0.317-0.298 0.013 0 0.043-0.021 0.068-0.047 0.037-0.037 0.047-0.064 0.047-0.146 0-0.075 0.009-0.109 0.034-0.131 0.019-0.019 0.041-0.032 0.051-0.032s0.032-0.015 0.051-0.032c0.030-0.026 0.039-0.028 0.051-0.008 0.011 0.019 0.026 0.021 0.049 0.006 0.019-0.009 0.066-0.013 0.105-0.009 0.088 0.013 0.167-0.006 0.167-0.039 0-0.017 0.015-0.023 0.045-0.017 0.024 0.006 0.051 0 0.056-0.011 0.008-0.011 0.030-0.021 0.049-0.021 0.026 0 0.038-0.017 0.041-0.069 0.004-0.056 0.013-0.071 0.043-0.071 0.060 0 0.126 0.158 0.129 0.308 0.002 0.112 0.009 0.133 0.075 0.217 0.039 0.051 0.075 0.098 0.077 0.099 0.004 0.004 0.032-0.008 0.064-0.026 0.071-0.041 0.137-0.017 0.18 0.066 0.026 0.053 0.026 0.058-0.009 0.077-0.073 0.039-0.028 0.129 0.049 0.099 0.049-0.019 0.114 0.066 0.157 0.202 0.038 0.113 0.039 0.143 0.021 0.203-0.028 0.096-0.026 0.18 0.006 0.206 0.015 0.013 0.075 0.019 0.152 0.015 0.112-0.006 0.133-0.013 0.169-0.056 0.021-0.028 0.053-0.051 0.071-0.051 0.024 0 0.032-0.017 0.032-0.075 0-0.094 0.045-0.122 0.097-0.058 0.019 0.024 0.034 0.056 0.034 0.073s0.023 0.053 0.049 0.081c0.038 0.039 0.053 0.079 0.064 0.171 0.008 0.066 0.028 0.152 0.047 0.193 0.021 0.047 0.028 0.096 0.021 0.139-0.009 0.056-0.002 0.073 0.038 0.105 0.043 0.036 0.047 0.051 0.049 0.208 0.004 0.152 0.008 0.172 0.041 0.188 0.054 0.023 0.060 0.081 0.013 0.113-0.051 0.036-0.053 0.137-0.004 0.197 0.036 0.043 0.036 0.045-0.008 0.12-0.030 0.053-0.045 0.111-0.049 0.188-0.004 0.111-0.004 0.113 0.045 0.107 0.039-0.004 0.073 0.019 0.165 0.112 0.062 0.066 0.128 0.143 0.143 0.174 0.015 0.030 0.051 0.079 0.077 0.109 0.039 0.041 0.052 0.079 0.066 0.197 0.009 0.079 0.015 0.165 0.015 0.189-0.002 0.024 0.023 0.071 0.053 0.105s0.073 0.118 0.096 0.188c0.032 0.094 0.053 0.129 0.090 0.146 0.028 0.013 0.086 0.058 0.129 0.101 0.045 0.043 0.12 0.090 0.169 0.107 0.079 0.026 0.092 0.026 0.131 0.002 0.032-0.021 0.043-0.047 0.043-0.096 0-0.064-0.019-0.092-0.12-0.173-0.024-0.019-0.030-0.064-0.030-0.225 0-0.173-0.008-0.214-0.045-0.298-0.026-0.052-0.068-0.111-0.092-0.128-0.026-0.017-0.051-0.047-0.056-0.066-0.006-0.023-0.026-0.038-0.047-0.038-0.024 0-0.045-0.019-0.056-0.054-0.015-0.039-0.038-0.060-0.092-0.077-0.12-0.036-0.152-0.058-0.186-0.129-0.017-0.038-0.056-0.109-0.088-0.158-0.030-0.049-0.062-0.116-0.068-0.15-0.009-0.041-0.026-0.062-0.056-0.069-0.032-0.008-0.054-0.036-0.079-0.099-0.041-0.105-0.030-0.176 0.049-0.326 0.039-0.073 0.047-0.113 0.047-0.251 0-0.148 0.004-0.167 0.041-0.193 0.023-0.017 0.062-0.030 0.084-0.030 0.039 0 0.043 0.008 0.039 0.079l-0.006 0.079 0.092 0.015c0.064 0.009 0.107 0.028 0.137 0.060 0.024 0.026 0.064 0.049 0.088 0.049 0.028 0 0.051 0.017 0.064 0.047 0.011 0.026 0.030 0.047 0.041 0.047 0.009 0 0.019 0.034 0.019 0.075 0 0.060 0.008 0.075 0.034 0.075 0.019 0 0.049 0.024 0.066 0.056 0.026 0.043 0.047 0.056 0.094 0.056 0.041 0.002 0.082 0.023 0.129 0.064 0.068 0.058 0.069 0.064 0.049 0.128-0.026 0.088-0.006 0.203 0.038 0.203s0.069-0.021 0.096-0.071c0.011-0.023 0.034-0.041 0.049-0.041 0.034 0 0.178-0.182 0.178-0.225 0-0.047 0.034-0.067 0.129-0.082 0.112-0.017 0.135-0.032 0.225-0.148 0.077-0.101 0.077-0.105 0.081-0.259 0.002-0.191-0.017-0.293-0.062-0.352-0.021-0.024-0.036-0.066-0.036-0.090 0-0.053-0.041-0.139-0.082-0.172-0.017-0.015-0.030-0.045-0.030-0.071 0-0.032-0.019-0.054-0.058-0.077-0.032-0.017-0.094-0.060-0.137-0.094-0.041-0.034-0.097-0.075-0.122-0.094-0.101-0.075-0.152-0.133-0.152-0.18 0-0.036-0.009-0.049-0.038-0.049-0.021 0-0.038-0.008-0.038-0.017s-0.015-0.032-0.032-0.049c-0.017-0.019-0.038-0.082-0.047-0.144-0.015-0.109-0.013-0.116 0.041-0.178 0.039-0.043 0.056-0.082 0.056-0.128 0-0.054 0.008-0.066 0.041-0.066 0.023 0 0.062-0.021 0.088-0.045 0.071-0.064 0.201-0.111 0.246-0.086 0.019 0.009 0.054 0.017 0.079 0.013 0.039-0.004 0.043 0.002 0.038 0.066-0.006 0.067 0.021 0.143 0.060 0.169 0.034 0.023 0.118 0.017 0.141-0.011 0.013-0.015 0.017-0.058 0.009-0.111-0.017-0.12 0.008-0.144 0.141-0.144 0.064 0 0.137-0.015 0.188-0.037 0.045-0.021 0.092-0.037 0.107-0.037 0.013 0 0.039-0.021 0.056-0.047 0.026-0.039 0.039-0.045 0.109-0.036 0.082 0.011 0.157-0.015 0.253-0.088 0.024-0.021 0.073-0.036 0.109-0.036 0.049 0 0.068-0.009 0.079-0.043 0.009-0.023 0.060-0.077 0.113-0.122s0.096-0.094 0.096-0.109c0-0.015 0.030-0.045 0.066-0.066 0.045-0.028 0.066-0.052 0.066-0.084 0-0.026 0.019-0.056 0.045-0.073 0.043-0.028 0.045-0.041 0.047-0.206 0-0.114 0.009-0.195 0.026-0.229 0.015-0.028 0.032-0.077 0.039-0.105 0.008-0.032 0.030-0.058 0.058-0.069 0.024-0.009 0.051-0.038 0.054-0.060 0.017-0.086 0.030-0.293 0.019-0.321-0.008-0.019-0.051-0.032-0.141-0.041-0.142-0.015-0.159-0.039-0.052-0.075 0.049-0.017 0.066-0.034 0.069-0.073 0.004-0.028-0.002-0.062-0.011-0.073-0.009-0.013-0.023-0.060-0.030-0.105-0.017-0.109-0.041-0.152-0.088-0.152-0.090 0-0.186-0.079-0.253-0.208-0.086-0.165-0.174-0.264-0.268-0.307-0.12-0.053-0.12-0.066 0.023-0.317 0.034-0.062 0.056-0.077 0.126-0.094 0.064-0.015 0.090-0.034 0.109-0.073 0.039-0.082 0.017-0.114-0.069-0.099-0.049 0.008-0.092 0.002-0.126-0.017-0.101-0.053-0.257-0.026-0.276 0.045-0.006 0.022-0.023 0.039-0.039 0.039-0.038 0-0.174-0.122-0.189-0.171-0.008-0.024-0.030-0.036-0.067-0.036-0.068 0-0.223-0.118-0.223-0.169 0-0.026 0.019-0.032 0.116-0.034 0.079-0.002 0.124-0.011 0.144-0.032 0.028-0.028 0.028-0.032-0.002-0.054-0.047-0.034-0.043-0.054 0.021-0.101 0.030-0.022 0.064-0.067 0.075-0.101 0.017-0.053 0.036-0.068 0.105-0.088 0.096-0.028 0.122-0.017 0.169 0.073 0.023 0.045 0.023 0.056-0.011 0.113-0.032 0.051-0.036 0.069-0.017 0.114 0.013 0.028 0.017 0.077 0.009 0.109-0.021 0.099 0.045 0.073 0.141-0.056 0.019-0.026 0.075-0.064 0.126-0.082 0.079-0.030 0.103-0.032 0.231-0.011 0.077 0.013 0.154 0.032 0.171 0.041 0.045 0.022 0.058 0.098 0.036 0.191-0.015 0.056-0.015 0.096-0.002 0.131 0.019 0.051 0.024 0.053 0.146 0.049 0.159-0.006 0.238 0.026 0.246 0.103 0.004 0.030-0.002 0.062-0.013 0.073-0.038 0.038-0.023 0.103 0.034 0.143 0.056 0.041 0.096 0.15 0.096 0.27 0 0.158 0.054 0.257 0.141 0.257 0.058 0 0.071-0.022 0.047-0.084-0.043-0.112 0.017-0.157 0.234-0.176 0.116-0.009 0.133-0.017 0.154-0.058 0.030-0.066 0.004-0.178-0.058-0.242-0.026-0.028-0.049-0.064-0.049-0.079s-0.096-0.122-0.212-0.238c-0.161-0.159-0.225-0.21-0.262-0.21-0.054 0-0.081-0.030-0.073-0.081 0.004-0.021-0.006-0.032-0.032-0.032-0.021 0-0.049-0.019-0.060-0.041-0.019-0.036-0.017-0.045 0.021-0.069 0.024-0.017 0.071-0.056 0.105-0.090 0.075-0.069 0.084-0.152 0.026-0.24-0.045-0.067-0.047-0.114-0.008-0.129 0.017-0.008 0.026-0.024 0.019-0.039-0.006-0.015 0-0.028 0.013-0.028s0.032-0.026 0.041-0.060c0.011-0.032 0.036-0.069 0.056-0.082 0.032-0.021 0.049-0.017 0.12 0.030 0.133 0.090 0.225 0.075 0.369-0.060 0.053-0.049 0.058-0.064 0.051-0.135-0.008-0.054 0-0.096 0.019-0.126 0.015-0.024 0.034-0.075 0.041-0.111 0.006-0.036 0.026-0.101 0.041-0.146 0.024-0.068 0.026-0.099 0.008-0.21-0.030-0.182-0.026-0.225 0.021-0.276 0.034-0.037 0.038-0.051 0.019-0.077-0.011-0.017-0.049-0.086-0.079-0.154-0.032-0.068-0.086-0.152-0.12-0.188-0.077-0.079-0.114-0.152-0.144-0.274-0.015-0.066-0.043-0.112-0.099-0.167-0.041-0.041-0.105-0.114-0.137-0.165-0.038-0.053-0.075-0.088-0.096-0.088s-0.064-0.019-0.099-0.043c-0.075-0.051-0.289-0.122-0.352-0.118-0.043 0.002-0.064 0.024-0.084 0.090-0.015 0.053-0.073 0.039-0.109-0.022-0.026-0.045-0.045-0.056-0.096-0.056-0.045 0-0.077-0.015-0.116-0.056-0.051-0.053-0.064-0.056-0.184-0.056-0.126 0-0.129-0.002-0.118-0.043 0.006-0.022 0.011-0.056 0.011-0.073 0-0.021 0.026-0.045 0.066-0.060 0.049-0.021 0.066-0.039 0.066-0.071 0-0.024 0.008-0.054 0.017-0.069 0.011-0.017 0.009-0.039-0.002-0.058-0.028-0.043-0.006-0.094 0.041-0.094 0.024 0 0.037-0.013 0.037-0.038 0-0.021 0.009-0.054 0.023-0.075 0.017-0.028 0.017-0.045-0.002-0.081-0.021-0.038-0.019-0.056 0.011-0.118l0.034-0.073h0.263c0.144-0.002 0.274-0.007 0.287-0.017 0.013-0.007 0.041-0.007 0.066 0.002 0.023 0.008 0.084 0.015 0.135 0.017 0.053 0.002 0.111 0.006 0.131 0.009 0.030 0.006 0.036-0.002 0.032-0.032-0.002-0.022 0.008-0.051 0.023-0.062 0.024-0.021 0.041-0.017 0.094 0.017 0.054 0.032 0.083 0.038 0.154 0.026 0.097-0.015 0.144 0.017 0.126 0.086-0.009 0.034 0 0.038 0.077 0.038 0.049 0 0.103-0.008 0.122-0.017 0.019-0.011 0.043-0.011 0.058-0.002 0.019 0.011 0.039 0.008 0.060-0.013 0.021-0.017 0.073-0.030 0.141-0.032 0.084-0.002 0.111-0.009 0.114-0.034 0.006-0.032-0.038-0.047-0.184-0.056-0.056-0.006-0.066-0.013-0.071-0.058-0.004-0.030 0.004-0.066 0.019-0.082 0.015-0.019 0.023-0.069 0.017-0.148l-0.006-0.12h0.092c0.049 0.002 0.139-0.004 0.197-0.011 0.105-0.011 0.107-0.009 0.186 0.066 0.045 0.043 0.099 0.077 0.122 0.077s0.045 0.013 0.053 0.028c0.017 0.047 0.084 0.034 0.109-0.024 0.013-0.028 0.038-0.071 0.056-0.096 0.047-0.062 0.043-0.071-0.041-0.114-0.041-0.021-0.075-0.045-0.075-0.054 0-0.019 0.146-0.045 0.171-0.028 0.009 0.006 0.051 0.054 0.092 0.107 0.041 0.054 0.094 0.12 0.116 0.148l0.041 0.053-0.043 0.045c-0.053 0.054-0.075 0.159-0.077 0.336 0 0.158-0.021 0.201-0.094 0.201-0.062 0-0.066 0.006-0.037 0.056 0.011 0.021 0.023 0.073 0.024 0.116 0.008 0.116 0.141 0.279 0.411 0.495 0.122 0.098 0.24 0.206 0.262 0.242 0.024 0.036 0.096 0.094 0.163 0.131 0.069 0.041 0.182 0.133 0.268 0.223 0.169 0.174 0.189 0.172 0.18-0.019-0.006-0.090-0.019-0.129-0.058-0.182-0.028-0.038-0.051-0.071-0.051-0.077 0-0.004 0.023-0.011 0.053-0.015 0.075-0.007 0.081-0.094 0.011-0.167-0.066-0.069-0.051-0.107 0.052-0.114 0.105-0.007 0.118-0.056 0.030-0.101-0.034-0.017-0.101-0.066-0.15-0.109-0.094-0.079-0.092-0.105 0.009-0.105 0.030 0 0.056-0.013 0.064-0.030 0.015-0.039-0.082-0.118-0.148-0.12-0.034 0-0.064-0.019-0.094-0.058-0.098-0.131-0.165-0.189-0.204-0.18-0.086 0.022-0.223-0.071-0.223-0.154 0-0.026-0.024-0.071-0.056-0.105-0.066-0.067-0.062-0.135 0.008-0.112 0.096 0.032 0.133 0.021 0.152-0.043 0.023-0.077 0.081-0.077 0.118 0 0.034 0.071 0.069 0.066 0.111-0.019 0.026-0.053 0.047-0.071 0.088-0.075 0.105-0.013 0.218 0.017 0.279 0.069 0.064 0.054 0.172 0.088 0.191 0.058 0.006-0.009-0.002-0.043-0.019-0.075-0.026-0.051-0.026-0.058 0-0.067 0.015-0.006 0.028-0.032 0.028-0.058 0-0.077 0.034-0.118 0.096-0.118 0.041 0 0.060-0.011 0.073-0.045 0.009-0.026 0.034-0.056 0.056-0.067 0.021-0.011 0.038-0.037 0.038-0.056 0-0.039 0.045-0.051 0.066-0.019 0.006 0.009 0.051 0.019 0.099 0.019s0.116 0.008 0.148 0.017c0.034 0.009 0.084 0.011 0.113 0.004 0.051-0.013 0.041-0.022-0.201-0.202-0.3-0.223-0.878-0.615-1.322-0.896l-0.319-0.203-0.216-0.002c-0.174-0.002-0.229-0.009-0.281-0.037-0.071-0.039-0.219-0.043-0.405-0.015-0.066 0.011-0.122 0.007-0.176-0.007-0.105-0.032-0.306-0.039-0.313-0.013-0.013 0.036 0.075 0.081 0.154 0.081 0.088 0 0.159 0.043 0.159 0.096 0 0.047-0.064 0.047-0.159-0.002-0.041-0.021-0.107-0.037-0.146-0.037s-0.105-0.019-0.146-0.043c-0.064-0.036-0.073-0.047-0.062-0.092 0.009-0.045 0.006-0.051-0.024-0.039-0.019 0.006-0.058 0.032-0.086 0.056-0.064 0.051-0.067 0.051-0.396 0.013-0.191-0.022-0.272-0.024-0.315-0.009-0.032 0.011-0.113 0.021-0.176 0.021-0.109 0-0.126-0.006-0.189-0.064-0.101-0.088-0.126-0.098-0.364-0.148-0.285-0.062-0.639-0.079-0.752-0.039-0.097 0.036-0.216 0.026-0.334-0.028-0.047-0.021-0.114-0.039-0.15-0.039s-0.114-0.013-0.173-0.026c-0.058-0.015-0.111-0.022-0.116-0.017-0.004 0.006-0.019 0.004-0.030-0.004-0.015-0.009-0.015-0.021 0.002-0.039 0.011-0.015 0.019-0.030 0.015-0.034-0.004-0.006-0.071-0.017-0.15-0.028-0.077-0.011-0.156-0.024-0.172-0.032-0.024-0.009-0.039 0.006-0.060 0.056-0.034 0.079-0.094 0.096-0.081 0.021 0.015-0.075-0.026-0.092-0.244-0.098-0.111-0.004-0.293-0.019-0.407-0.036-0.195-0.026-0.208-0.026-0.231 0.006-0.013 0.019-0.039 0.032-0.060 0.028-0.019-0.004-0.039 0.004-0.047 0.015-0.019 0.032 0.026 0.075 0.081 0.075 0.026 0 0.066 0.021 0.090 0.049l0.045 0.047-0.276-0.006c-0.154-0.002-0.324 0.002-0.381 0.011-0.094 0.013-0.116 0.011-0.202-0.034-0.053-0.026-0.101-0.049-0.107-0.049-0.021 0-0.008 0.045 0.023 0.079 0.026 0.030 0.028 0.037 0.004 0.062-0.039 0.039-0.279 0.008-0.347-0.045-0.028-0.021-0.064-0.039-0.079-0.039-0.017 0-0.084-0.028-0.152-0.062-0.101-0.049-0.144-0.060-0.24-0.058-0.146 0.002-0.176-0.036-0.062-0.081 0.111-0.043 0.094-0.086-0.037-0.101-0.056-0.006-0.118-0.017-0.135-0.024s-0.052-0.002-0.081 0.011c-0.041 0.023-0.069 0.021-0.221-0.017-0.161-0.041-0.257-0.043-0.257-0.009 0 0.021 0.124 0.079 0.165 0.079s0.112 0.049 0.096 0.064c-0.006 0.007-0.056 0-0.113-0.013-0.056-0.015-0.214-0.026-0.351-0.028-0.236-0.004-0.255-0.008-0.362-0.060-0.105-0.051-0.126-0.054-0.36-0.058-0.161-0.002-0.264 0.004-0.291 0.019-0.036 0.019-0.051 0.015-0.105-0.026-0.071-0.054-0.092-0.058-0.124-0.019s-0.099 0.036-0.156-0.009c-0.062-0.049-0.219-0.034-0.219 0.021 0 0.017 0.015 0.038 0.034 0.041 0.021 0.006 0.015 0.009-0.017 0.011-0.028 0-0.086 0.015-0.129 0.030-0.116 0.041-0.154 0.038-0.146-0.013 0.004-0.024 0.021-0.045 0.043-0.049 0.021-0.004 0.064-0.032 0.094-0.062 0.032-0.028 0.086-0.064 0.122-0.077 0.15-0.051 0.225-0.122 0.167-0.156-0.009-0.008-0.026-0.034-0.036-0.056-0.013-0.034-0.036-0.047-0.088-0.056-0.039-0.006-0.139-0.032-0.221-0.056-0.163-0.053-0.293-0.058-0.506-0.026-0.225 0.034-0.225 0.034-0.219-0.028 0.008-0.054 0.008-0.054-0.077-0.043-0.12 0.017-0.219-0.004-0.236-0.049-0.013-0.034-0.036-0.038-0.214-0.045-0.184-0.008-0.199-0.006-0.217 0.030zM5.647 9.047c0.013 0.021 0.034 0.038 0.047 0.038s0.032-0.017 0.043-0.038c0.011-0.021 0.032-0.038 0.047-0.038 0.034 0 0.034 0.015 0 0.075-0.049 0.084-0.036 0.161 0.036 0.216 0.088 0.066 0.096 0.098 0.037 0.15-0.039 0.036-0.047 0.058-0.043 0.129 0.004 0.047 0.002 0.088-0.004 0.092-0.004 0.006-0.043 0.013-0.084 0.021-0.062 0.009-0.081 0.006-0.090-0.019s-0.030-0.028-0.114-0.017c-0.101 0.011-0.103 0.011-0.103-0.036 0-0.028-0.015-0.056-0.037-0.067-0.036-0.019-0.039-0.036-0.034-0.174l0.006-0.154 0.054-0.006c0.034-0.004 0.056-0.021 0.062-0.043 0.006-0.019 0.026-0.036 0.047-0.036 0.028 0 0.034-0.009 0.024-0.037-0.013-0.043 0.019-0.094 0.058-0.094 0.015 0 0.036 0.017 0.049 0.037z"></path>
<path d="M7.258 3.289c-0.013 0.009-0.019 0.026-0.013 0.038 0.015 0.024 0.086-0.006 0.086-0.036 0-0.022-0.038-0.024-0.073-0.002z"></path>
<path d="M12.664 3.488c-0.008 0.015 0.011 0.058 0.038 0.094 0.043 0.054 0.062 0.066 0.122 0.066 0.041 0 0.092 0.015 0.116 0.034 0.071 0.054 0.103 0.060 0.208 0.034 0.159-0.041 0.309-0.053 0.377-0.032 0.066 0.022 0.202-0.011 0.216-0.053 0.011-0.036-0.036-0.079-0.079-0.073-0.075 0.009-0.433-0.043-0.504-0.073-0.079-0.034-0.107-0.021-0.073 0.032 0.028 0.047 0.030 0.047-0.12-0.009-0.143-0.054-0.283-0.062-0.3-0.019z"></path>
<path d="M12.487 3.544c0 0.032 0.041 0.084 0.068 0.084 0.047 0 0.024-0.083-0.024-0.090-0.024-0.004-0.043-0.002-0.043 0.006z"></path>
<path d="M13.856 3.609c0 0.036 0.058 0.056 0.161 0.056 0.075 0 0.144 0.013 0.197 0.037 0.094 0.041 0.277 0.051 0.313 0.015 0.049-0.049 0.024-0.071-0.079-0.071-0.054 0-0.129-0.013-0.167-0.028-0.064-0.026-0.426-0.036-0.426-0.009z"></path>
<path d="M13.444 3.806c0 0.021 0.021 0.028 0.071 0.028 0.066-0.002 0.067-0.004 0.034-0.028-0.049-0.036-0.105-0.036-0.105 0z"></path>
<path d="M13.622 3.891c-0.019 0.021-0.030 0.041-0.026 0.045s0.092 0.017 0.193 0.028c0.103 0.011 0.206 0.026 0.232 0.034 0.036 0.007 0.043 0.004 0.037-0.023-0.008-0.039-0.154-0.092-0.304-0.111-0.084-0.011-0.103-0.007-0.133 0.026z"></path>
<path d="M18.371 4.549c-0.045 0.026-0.041 0.047 0.008 0.062 0.056 0.013 0.088-0.019 0.052-0.054-0.021-0.019-0.038-0.021-0.060-0.008z"></path>
<path d="M21.469 7.373c0 0.024 0.099 0.118 0.126 0.118 0.051 0 0.023-0.051-0.054-0.099-0.056-0.034-0.071-0.039-0.071-0.019z"></path>
<path d="M21.769 7.423c0 0.026 0.068 0.086 0.099 0.086 0.008 0-0.004-0.026-0.028-0.056-0.045-0.062-0.071-0.071-0.071-0.030z"></path>
<path d="M17.951 7.5c-0.008 0.019 0.006 0.049 0.036 0.081 0.036 0.036 0.047 0.064 0.038 0.094-0.008 0.034 0.019 0.071 0.137 0.197 0.079 0.084 0.178 0.176 0.219 0.204 0.073 0.051 0.199 0.225 0.201 0.276 0 0.013 0.034 0.056 0.075 0.094 0.047 0.043 0.094 0.111 0.122 0.18 0.036 0.092 0.054 0.114 0.099 0.126 0.047 0.013 0.056 0.026 0.067 0.088 0.006 0.041 0.039 0.112 0.077 0.159 0.036 0.049 0.066 0.098 0.066 0.113 0 0.034 0.062 0.086 0.099 0.086 0.021 0 0.032-0.015 0.032-0.047 0-0.054 0.028-0.060 0.126-0.024 0.045 0.017 0.068 0.017 0.082 0.002s0.002-0.032-0.051-0.058c-0.112-0.058-0.326-0.262-0.326-0.313 0-0.022-0.017-0.064-0.037-0.090-0.045-0.056-0.047-0.081-0.009-0.096 0.041-0.015 0.111 0.017 0.163 0.073 0.030 0.032 0.056 0.045 0.077 0.036 0.047-0.017 0.039-0.038-0.028-0.084-0.034-0.022-0.105-0.082-0.159-0.133-0.053-0.049-0.107-0.090-0.12-0.090-0.049 0-0.144-0.096-0.203-0.204-0.049-0.094-0.073-0.118-0.116-0.127-0.030-0.006-0.064-0.026-0.075-0.045-0.009-0.021-0.030-0.036-0.043-0.036-0.015 0-0.045-0.038-0.068-0.084-0.041-0.086-0.199-0.234-0.249-0.234-0.017 0-0.049-0.024-0.073-0.054-0.024-0.028-0.066-0.067-0.094-0.086-0.049-0.030-0.053-0.030-0.064 0z"></path>
<path d="M22.976 7.83c-0.013 0.024 0.024 0.054 0.068 0.054 0.032 0 0.088-0.032 0.075-0.043-0.024-0.021-0.131-0.028-0.143-0.011z"></path>
<path d="M23.212 7.913c0 0.034 0.045 0.056 0.073 0.039 0.030-0.019 0.002-0.068-0.038-0.068-0.019 0-0.036 0.013-0.036 0.028z"></path>
<path d="M23.955 8.010c-0.021 0.021-0.011 0.043 0.017 0.043 0.015 0 0.028-0.008 0.028-0.017 0-0.024-0.030-0.041-0.045-0.026z"></path>
<path d="M20.649 8.197c-0.030 0.011-0.032 0.062-0.006 0.062 0.021 0 0.049-0.052 0.036-0.064-0.004-0.004-0.019-0.002-0.030 0.002z"></path>
<path d="M20.732 8.269c-0.039 0.039-0.058 0.103-0.038 0.124 0.034 0.034 0.118-0.015 0.118-0.066 0-0.064-0.043-0.096-0.081-0.058z"></path>
<path d="M20.749 8.481c-0.006 0.011-0.002 0.026 0.009 0.032 0.028 0.019 0.047-0.006 0.023-0.030-0.013-0.013-0.024-0.013-0.032-0.002z"></path>
<path d="M20.482 9.227c-0.021 0.030-0.026 0.053-0.013 0.066 0.026 0.026 0.081 0 0.081-0.041 0-0.019 0.009-0.036 0.019-0.036 0.011 0 0.019-0.009 0.019-0.019 0-0.037-0.075-0.017-0.105 0.030z"></path>
<path d="M20.239 9.377c-0.034 0.049-0.043 0.146-0.019 0.171 0.021 0.021 0.077-0.023 0.083-0.064 0.004-0.022 0.023-0.054 0.043-0.073 0.052-0.047 0.045-0.082-0.021-0.082-0.039 0-0.066 0.015-0.086 0.049z"></path>
<path d="M19.256 9.375c-0.021 0.024-0.013 0.039 0.045 0.092 0.043 0.043 0.067 0.082 0.067 0.113 0 0.026 0.009 0.049 0.019 0.049 0.021 0 0.049 0.060 0.060 0.124 0.004 0.024-0.006 0.036-0.034 0.037-0.067 0.004-0.084 0.024-0.062 0.068 0.017 0.030 0.013 0.049-0.019 0.092-0.023 0.028-0.039 0.064-0.039 0.079 0 0.036 0.039 0.069 0.081 0.069 0.019 0 0.058 0.026 0.086 0.056 0.047 0.053 0.054 0.056 0.116 0.036 0.036-0.013 0.071-0.030 0.081-0.037 0.026-0.022-0.039-0.086-0.111-0.111-0.058-0.019-0.098-0.068-0.075-0.090 0.006-0.006 0.032 0 0.058 0.013 0.041 0.019 0.056 0.017 0.082-0.008 0.045-0.041 0.071-0.036 0.158 0.034 0.165 0.135 0.217 0.137 0.217 0.008 0-0.094 0.021-0.12 0.103-0.129 0.041-0.004 0.058-0.017 0.062-0.049 0.004-0.024-0.002-0.054-0.013-0.067s-0.015-0.051-0.009-0.082c0.015-0.077-0.004-0.127-0.036-0.101-0.013 0.011-0.081 0.026-0.148 0.034-0.114 0.011-0.135 0.008-0.247-0.045-0.069-0.032-0.172-0.092-0.231-0.135-0.111-0.079-0.172-0.094-0.212-0.047z"></path>
<path d="M19.669 10.217c-0.036 0.013-0.066 0.034-0.066 0.047 0 0.011-0.013 0.030-0.028 0.039-0.023 0.013-0.023 0.022-0.004 0.041 0.011 0.011 0.023 0.058 0.023 0.099 0 0.077 0.041 0.141 0.088 0.141 0.023 0 0.043 0.131 0.045 0.287 0.002 0.075-0.008 0.12-0.028 0.143-0.017 0.019-0.030 0.043-0.030 0.054 0 0.030-0.073 0.066-0.107 0.053-0.017-0.008-0.024-0.026-0.019-0.049 0.011-0.041-0.021-0.058-0.066-0.034-0.024 0.011-0.034 0.039-0.034 0.092 0 0.041-0.013 0.105-0.028 0.141-0.015 0.038-0.023 0.088-0.017 0.113 0.013 0.053 0.009 0.054-0.075 0.015-0.058-0.028-0.081-0.030-0.212-0.006-0.143 0.024-0.15 0.028-0.249 0.131-0.056 0.060-0.12 0.111-0.139 0.114-0.047 0.007-0.056 0.036-0.024 0.079 0.038 0.051 0.24 0.058 0.302 0.009 0.024-0.019 0.062-0.036 0.082-0.036 0.019 0 0.056-0.015 0.081-0.036 0.030-0.022 0.088-0.037 0.182-0.043l0.135-0.009v0.079c0 0.081 0.028 0.122 0.101 0.148 0.041 0.015 0.124-0.034 0.124-0.073 0-0.013 0.015-0.039 0.032-0.058 0.030-0.030 0.028-0.034-0.021-0.073-0.030-0.024-0.047-0.053-0.041-0.064 0.023-0.036 0.081-0.022 0.113 0.028 0.032 0.045 0.038 0.047 0.167 0.034 0.142-0.013 0.197-0.038 0.163-0.071-0.056-0.056 0.017-0.111 0.077-0.056 0.038 0.034 0.039 0.034 0.075-0.009 0.047-0.058 0.045-0.101-0.011-0.167-0.030-0.036-0.056-0.099-0.068-0.167-0.011-0.060-0.032-0.137-0.047-0.172-0.024-0.056-0.023-0.068 0.004-0.098 0.028-0.032 0.028-0.041-0.011-0.142-0.079-0.199-0.126-0.277-0.204-0.339-0.041-0.034-0.092-0.060-0.109-0.056-0.028 0.004-0.034-0.007-0.034-0.069 0-0.084-0.021-0.096-0.122-0.058z"></path>
<path d="M1.462 11.4c-0.013 0.015-0.051 0.028-0.084 0.028-0.067 0-0.133 0.058-0.116 0.103 0.008 0.019 0.036 0.028 0.084 0.028 0.139 0 0.302-0.167 0.18-0.184-0.021-0.004-0.051 0.008-0.064 0.024z"></path>
<path d="M19.207 11.719c-0.008 0.017-0.036 0.028-0.071 0.028-0.049 0-0.064 0.011-0.090 0.071-0.028 0.060-0.030 0.081-0.011 0.131 0.037 0.096 0.163 0.107 0.139 0.013-0.017-0.067 0.028-0.092 0.111-0.064 0.081 0.030 0.103 0.009 0.103-0.101 0-0.058-0.008-0.073-0.049-0.088-0.069-0.026-0.12-0.023-0.131 0.009z"></path>
<path d="M18.604 11.837c-0.039 0.034-0.054 0.058-0.043 0.069 0.009 0.011 0.021 0.039 0.024 0.066 0.008 0.066 0.062 0.069 0.094 0.006 0.028-0.060 0.084-0.069 0.116-0.021 0.015 0.024 0.015 0.043-0.002 0.069-0.015 0.023-0.015 0.041-0.002 0.054 0.011 0.011 0.011 0.030-0.006 0.054-0.019 0.032-0.017 0.045 0.008 0.082 0.019 0.024 0.032 0.058 0.032 0.077 0 0.032 0.067 0.090 0.103 0.090 0.023-0.002 0.103-0.124 0.103-0.159 0-0.015-0.009-0.032-0.021-0.037-0.011-0.008-0.019-0.056-0.017-0.111 0.004-0.137 0.006-0.133-0.049-0.197-0.036-0.043-0.064-0.058-0.111-0.058-0.036 0-0.069-0.009-0.075-0.019-0.021-0.034-0.092-0.019-0.156 0.034z"></path>
<path d="M17.962 11.85c-0.013 0.015-0.021 0.034-0.015 0.037 0.017 0.019 0.129-0.015 0.122-0.036-0.011-0.034-0.079-0.034-0.107-0.002z"></path>
<path d="M18.936 12.508c-0.021 0.026-0.019 0.028 0.021 0.023 0.024-0.002 0.047-0.017 0.053-0.030 0.009-0.032-0.043-0.028-0.073 0.008z"></path>
<path d="M18.844 12.947c-0.066 0.066-0.045 0.088 0.053 0.064 0.047-0.013 0.056-0.073 0.013-0.090-0.017-0.006-0.045 0.006-0.066 0.026z"></path>
<path d="M5.601 13.224c-0.030 0.034-0.030 0.037-0.002 0.060 0.037 0.032 0.092 0.004 0.092-0.049 0-0.049-0.051-0.054-0.090-0.011z"></path>
<path d="M18.705 13.307c-0.021 0.030-0.024 0.047-0.008 0.066 0.028 0.036 0.053 0.030 0.053-0.011 0-0.019 0.013-0.041 0.030-0.047 0.015-0.006 0.023-0.019 0.017-0.030-0.019-0.032-0.062-0.021-0.092 0.023z"></path>
<path d="M4.65 13.348c0 0.015 0.007 0.032 0.017 0.038 0.019 0.013 0.043-0.036 0.026-0.053-0.021-0.021-0.043-0.011-0.043 0.015z"></path>
<path d="M17.565 13.635c-0.056 0.068-0.113 0.268-0.105 0.373 0.009 0.111 0.094 0.257 0.143 0.247 0.015-0.004 0.037-0.045 0.051-0.096s0.032-0.099 0.045-0.112c0.030-0.030 0.026-0.081-0.009-0.116-0.026-0.024-0.028-0.039-0.009-0.077 0.066-0.144-0.026-0.322-0.114-0.219z"></path>
<path d="M15.636 14.747c-0.143 0.075-0.203 0.202-0.139 0.294 0.054 0.079 0.309 0.077 0.309-0.002 0-0.015 0.013-0.036 0.028-0.049 0.017-0.013 0.024-0.039 0.019-0.058-0.008-0.023-0.002-0.039 0.017-0.047 0.030-0.011 0.039-0.090 0.019-0.146-0.017-0.043-0.167-0.037-0.253 0.008z"></path>
<path d="M17.723 15.053c-0.038 0.043-0.043 0.12-0.024 0.259 0.011 0.077 0.026 0.159 0.032 0.186 0.011 0.039 0.008 0.043-0.013 0.023-0.034-0.030-0.082-0.028-0.111 0.006-0.017 0.021-0.008 0.053 0.051 0.159 0.045 0.082 0.084 0.135 0.109 0.141 0.152 0.030 0.146 0.026 0.137 0.090-0.015 0.098-0.004 0.107 0.128 0.107 0.111 0 0.122 0.004 0.161 0.056 0.049 0.067 0.082 0.071 0.096 0.015 0.011-0.039 0.013-0.039 0.051-0.006 0.039 0.036 0.051 0.084 0.019 0.084-0.030 0-0.021 0.053 0.013 0.073 0.030 0.017 0.030 0.021-0.004 0.084-0.021 0.036-0.032 0.069-0.028 0.073 0.006 0.006 0.049 0.015 0.099 0.021l0.088 0.013v-0.067c0-0.038 0.009-0.084 0.021-0.107 0.017-0.030 0.013-0.045-0.019-0.073-0.023-0.021-0.039-0.060-0.039-0.092 0-0.060-0.088-0.139-0.137-0.12-0.015 0.006-0.032-0.004-0.038-0.019-0.009-0.023-0.039-0.030-0.116-0.030-0.090 0-0.103-0.004-0.103-0.038 0-0.019-0.015-0.045-0.036-0.054-0.023-0.013-0.038-0.049-0.045-0.103-0.011-0.071-0.002-0.101 0.066-0.227l0.075-0.146-0.056-0.114c-0.032-0.064-0.066-0.137-0.075-0.163-0.019-0.045-0.028-0.049-0.15-0.051-0.084-0.002-0.139 0.006-0.15 0.021z"></path>
<path d="M12.688 16.104c-0.041 0.041-0.056 0.298-0.023 0.379 0.019 0.047 0.038 0.064 0.060 0.060 0.028-0.006 0.034-0.036 0.039-0.236 0.006-0.195 0.002-0.229-0.021-0.229-0.017 0-0.041 0.011-0.056 0.026z"></path>
<path d="M17.869 16.101c0 0.011 0.021 0.043 0.047 0.075 0.049 0.058 0.060 0.116 0.028 0.137-0.034 0.021-0.021 0.047 0.024 0.047 0.024 0 0.058-0.015 0.075-0.034 0.039-0.043 0.041-0.159 0.004-0.191s-0.178-0.056-0.178-0.034z"></path>
<path d="M5.387 16.239c-0.013 0.006-0.024 0.026-0.024 0.047 0 0.028 0.013 0.036 0.066 0.036 0.036 0 0.066-0.008 0.066-0.017s0.021-0.021 0.047-0.024c0.086-0.009 0.058-0.043-0.037-0.047-0.051-0.002-0.105 0-0.116 0.006z"></path>
<path d="M18.641 16.316c-0.011 0.030-0.032 0.094-0.043 0.146-0.034 0.148-0.058 0.174-0.161 0.182-0.086 0.006-0.090 0.008-0.099 0.073-0.008 0.036-0.026 0.086-0.043 0.111-0.047 0.066-0.039 0.109 0.026 0.171 0.088 0.082 0.118 0.073 0.184-0.069 0.032-0.068 0.067-0.156 0.079-0.197 0.013-0.041 0.034-0.082 0.045-0.092 0.023-0.019 0.036 0.004 0.073 0.116 0.013 0.041 0.082 0.045 0.099 0.004 0.006-0.015 0.002-0.049-0.009-0.071-0.015-0.034-0.013-0.054 0.008-0.084 0.030-0.041 0.023-0.165-0.015-0.264-0.034-0.088-0.113-0.101-0.143-0.024z"></path>
<path d="M18.161 16.318c-0.008 0.013-0.004 0.054 0.008 0.096 0.013 0.051 0.013 0.090 0 0.124-0.028 0.075-0.023 0.154 0.011 0.167 0.038 0.015 0.189-0.079 0.201-0.124 0.015-0.051-0.039-0.111-0.096-0.105-0.041 0.006-0.051-0.004-0.060-0.051-0.017-0.081-0.049-0.131-0.064-0.107z"></path>
<path d="M17.764 16.35c-0.019 0.047 0.008 0.088 0.053 0.081 0.052-0.008 0.062-0.039 0.024-0.079-0.038-0.037-0.064-0.037-0.077-0.002z"></path>
<path d="M17.663 16.639c0 0.032-0.009 0.062-0.019 0.067-0.011 0.008-0.043 0.047-0.069 0.090-0.028 0.043-0.099 0.129-0.159 0.191-0.103 0.107-0.131 0.163-0.092 0.188 0.030 0.017 0.148-0.051 0.159-0.092 0.006-0.023 0.034-0.052 0.064-0.069 0.039-0.023 0.058-0.051 0.068-0.098 0.008-0.041 0.024-0.069 0.047-0.075 0.019-0.004 0.049-0.038 0.067-0.075 0.028-0.060 0.028-0.071 0-0.124-0.038-0.073-0.066-0.075-0.066-0.004z"></path>
<path d="M12.666 16.659c0.006 0.009 0.024 0.019 0.039 0.019s0.026-0.009 0.026-0.019c0-0.011-0.017-0.019-0.039-0.019-0.021 0-0.032 0.008-0.026 0.019z"></path>
<path d="M18.596 16.83c-0.041 0.023-0.043 0.103-0.004 0.118 0.015 0.006 0.049-0.004 0.075-0.021 0.090-0.058 0.021-0.154-0.071-0.098z"></path>
<path d="M10.387 16.875c-0.019 0.023-0.019 0.036 0.006 0.071 0.030 0.047 0.026 0.176-0.009 0.242-0.009 0.021-0.009 0.049 0.004 0.071 0.015 0.026 0.013 0.047-0.004 0.073-0.019 0.030-0.019 0.051 0 0.101 0.013 0.034 0.022 0.088 0.022 0.118 0 0.077 0.030 0.101 0.126 0.101 0.069 0 0.092-0.011 0.158-0.075 0.073-0.071 0.077-0.079 0.064-0.154-0.007-0.045-0.024-0.094-0.036-0.109-0.043-0.052-0.124-0.21-0.124-0.244 0-0.019-0.013-0.043-0.030-0.058-0.017-0.013-0.043-0.054-0.060-0.090-0.036-0.075-0.079-0.094-0.116-0.049z"></path>
<path d="M18.838 16.898c-0.008 0.006-0.013 0.038-0.013 0.071 0 0.071-0.024 0.103-0.118 0.156-0.084 0.049-0.107 0.051-0.107 0.015 0-0.043-0.034-0.053-0.103-0.030-0.041 0.013-0.077 0.043-0.094 0.077-0.017 0.030-0.041 0.054-0.054 0.054s-0.047 0.017-0.075 0.039c-0.037 0.030-0.049 0.054-0.049 0.111 0 0.096 0.056 0.135 0.101 0.071 0.017-0.023 0.030-0.056 0.030-0.075 0-0.045 0.026-0.056 0.081-0.036 0.034 0.013 0.056 0.011 0.081-0.008 0.041-0.030 0.225-0.037 0.242-0.009 0.006 0.009-0.009 0.028-0.036 0.039-0.062 0.028-0.075 0.071-0.049 0.165 0.017 0.062 0.036 0.084 0.12 0.131 0.163 0.094 0.206 0.073 0.143-0.067-0.021-0.047-0.034-0.103-0.026-0.122 0.015-0.053 0.071-0.034 0.079 0.026s0.049 0.099 0.088 0.083c0.023-0.008 0.028-0.045 0.028-0.167 0-0.143-0.004-0.161-0.047-0.201-0.034-0.032-0.043-0.056-0.036-0.086 0.011-0.045-0.032-0.131-0.105-0.21-0.041-0.043-0.060-0.051-0.081-0.028z"></path>
<path d="M20.563 17.329c-0.019 0.017-0.017 0.118 0.002 0.118 0.015 0 0.030-0.026 0.075-0.118 0.009-0.017-0.060-0.019-0.077 0z"></path>
<path d="M12.951 17.413c-0.009 0.030 0.019 0.090 0.045 0.090s0.013-0.098-0.013-0.107c-0.013-0.004-0.026 0.004-0.032 0.017z"></path>
<path d="M17.235 17.496c-0.024 0.017-0.041 0.049-0.041 0.077 0 0.030-0.028 0.084-0.073 0.137-0.039 0.047-0.075 0.103-0.081 0.122-0.006 0.030-0.023 0.038-0.079 0.038-0.058 0-0.075 0.008-0.088 0.041-0.009 0.024-0.028 0.043-0.045 0.043-0.015 0-0.043 0.028-0.060 0.062-0.066 0.122-0.159 0.257-0.193 0.276-0.019 0.011-0.073 0.019-0.118 0.019-0.081 0-0.086 0.004-0.133 0.082-0.026 0.047-0.049 0.109-0.049 0.141 0 0.071-0.030 0.090-0.075 0.049-0.021-0.019-0.049-0.026-0.071-0.021-0.023 0.008-0.047-0.002-0.069-0.026-0.043-0.049-0.062-0.047-0.129 0.009-0.049 0.039-0.056 0.060-0.064 0.165-0.006 0.086 0 0.137 0.024 0.18 0.023 0.045 0.024 0.067 0.009 0.086s-0.009 0.036 0.023 0.071c0.116 0.124 0.128 0.146 0.135 0.268 0.006 0.077 0.021 0.131 0.039 0.152 0.019 0.019 0.026 0.047 0.021 0.073-0.008 0.024-0.002 0.045 0.011 0.049 0.021 0.008 0.165-0.009 0.219-0.024 0.017-0.004 0.032 0.011 0.039 0.039 0.009 0.039 0.023 0.047 0.084 0.049 0.041 0.002 0.096-0.008 0.122-0.021 0.039-0.021 0.058-0.021 0.112 0.004 0.036 0.015 0.090 0.028 0.12 0.030 0.047 0.004 0.058 0.015 0.075 0.079 0.028 0.099 0.071 0.103 0.186 0.017 0.111-0.081 0.201-0.251 0.201-0.381 0-0.077 0.008-0.090 0.096-0.169l0.097-0.086 0.002-0.144c0.004-0.182 0.024-0.21 0.144-0.197 0.056 0.008 0.099 0.002 0.12-0.013 0.030-0.023 0.028-0.028-0.030-0.094-0.034-0.039-0.081-0.079-0.103-0.086-0.036-0.015-0.041-0.026-0.032-0.092 0.009-0.064 0.004-0.081-0.038-0.118-0.066-0.062-0.090-0.223-0.041-0.277 0.019-0.021 0.045-0.038 0.056-0.038 0.013 0 0.043-0.015 0.066-0.034l0.043-0.036-0.041-0.028c-0.038-0.026-0.039-0.032-0.011-0.060 0.017-0.017 0.051-0.030 0.073-0.030 0.024 0 0.054-0.013 0.067-0.028 0.021-0.024 0.017-0.037-0.019-0.075-0.024-0.026-0.060-0.047-0.079-0.047-0.034 0-0.142-0.066-0.169-0.103-0.008-0.009-0.008-0.024-0.004-0.032 0.006-0.009-0.017-0.041-0.049-0.071-0.067-0.064-0.137-0.071-0.202-0.026z"></path>
<path d="M18.229 17.582c0.011 0.034 0.041 0.037 0.081 0.006 0.036-0.026 0.034-0.026-0.024-0.028-0.041 0-0.060 0.008-0.056 0.023z"></path>
<path d="M18.098 17.655c-0.024 0.009-0.038 0.024-0.032 0.036 0.015 0.024 0.079 0.024 0.096-0.002 0.019-0.032-0.017-0.053-0.064-0.034z"></path>
<path d="M13.301 17.737c-0.021 0.051 0.011 0.159 0.066 0.221 0.028 0.032 0.064 0.079 0.075 0.103 0.013 0.024 0.060 0.060 0.105 0.079s0.092 0.054 0.105 0.079c0.013 0.024 0.038 0.054 0.058 0.068 0.021 0.017 0.034 0.049 0.034 0.090 0 0.094 0.028 0.135 0.105 0.15 0.082 0.015 0.107 0.054 0.15 0.24 0.032 0.129 0.041 0.15 0.088 0.165 0.028 0.011 0.051 0.026 0.051 0.036s0.019 0.036 0.041 0.058c0.023 0.023 0.060 0.094 0.082 0.158s0.062 0.152 0.088 0.197c0.026 0.045 0.069 0.124 0.094 0.176 0.024 0.051 0.064 0.111 0.088 0.131 0.023 0.021 0.053 0.060 0.067 0.088 0.015 0.030 0.054 0.064 0.088 0.079 0.066 0.028 0.257 0.21 0.257 0.246 0 0.011 0.017 0.038 0.036 0.054 0.034 0.030 0.039 0.030 0.096 0.002 0.054-0.028 0.062-0.028 0.107 0 0.069 0.045 0.081 0.017 0.081-0.214 0-0.18 0.004-0.201 0.049-0.259l0.047-0.062-0.081-0.094c-0.051-0.058-0.096-0.094-0.12-0.094-0.051 0-0.158-0.157-0.158-0.229 0-0.054-0.039-0.096-0.084-0.086-0.058 0.011-0.075-0.047-0.041-0.146 0.026-0.084 0.026-0.094 0-0.124-0.017-0.021-0.056-0.034-0.094-0.034-0.062 0-0.064-0.002-0.053-0.062 0.015-0.081-0.026-0.126-0.112-0.126-0.058 0-0.064-0.006-0.069-0.062-0.006-0.054-0.011-0.060-0.064-0.056-0.045 0.004-0.067-0.006-0.090-0.041-0.019-0.030-0.049-0.047-0.079-0.047s-0.068-0.023-0.098-0.054c-0.028-0.032-0.077-0.084-0.109-0.12-0.034-0.036-0.069-0.082-0.081-0.105-0.013-0.021-0.036-0.039-0.051-0.039-0.041 0-0.158-0.098-0.158-0.133 0-0.017-0.028-0.062-0.062-0.099-0.060-0.064-0.067-0.067-0.186-0.067-0.105 0-0.133-0.008-0.18-0.047-0.066-0.054-0.077-0.056-0.090-0.019z"></path>
<path d="M20.306 17.962c0 0.015 0.017 0.036 0.038 0.047 0.030 0.017 0.041 0.015 0.049-0.008 0.006-0.015 0.006-0.038-0.002-0.049-0.017-0.028-0.084-0.023-0.084 0.009z"></path>
<path d="M19.151 18.019c-0.013 0.032 0.008 0.069 0.032 0.056 0.023-0.015 0.023-0.084-0.002-0.084-0.011 0-0.024 0.013-0.030 0.028z"></path>
<path d="M13.367 18.339c-0.019 0.024-0.019 0.032 0.004 0.047 0.015 0.009 0.041 0.017 0.058 0.017s0.043 0.006 0.060 0.011c0.041 0.017 0.039-0.036-0.004-0.073-0.043-0.039-0.086-0.041-0.118-0.002z"></path>
<path d="M19.483 18.411c-0.019 0.023-0.019 0.041-0.004 0.077 0.030 0.068 0.049 0.066 0.054-0.008 0.008-0.075-0.019-0.109-0.051-0.069z"></path>
<path d="M19.382 18.531c-0.019 0.019-0.045 0.075-0.062 0.124-0.028 0.079-0.028 0.094 0 0.161 0.041 0.105 0.038 0.144-0.021 0.214l-0.049 0.058 0.064 0.006c0.036 0.004 0.079 0.021 0.096 0.036 0.026 0.024 0.039 0.024 0.060 0.006 0.024-0.019 0.024-0.028-0.009-0.073-0.024-0.032-0.036-0.073-0.032-0.107 0.004-0.045 0.015-0.056 0.062-0.060 0.097-0.009 0.107-0.017 0.082-0.062-0.015-0.030-0.015-0.051 0.002-0.082 0.011-0.023 0.019-0.066 0.015-0.096-0.006-0.054-0.028-0.064-0.094-0.036-0.026 0.009-0.034 0.004-0.034-0.024 0-0.049-0.019-0.098-0.038-0.098-0.008 0-0.026 0.015-0.043 0.034z"></path>
<path d="M18.821 18.619c-0.011 0.026-0.032 0.047-0.047 0.047-0.013 0-0.034 0.021-0.043 0.047-0.017 0.043-0.024 0.047-0.154 0.043-0.075 0-0.154-0.009-0.174-0.021s-0.092-0.032-0.158-0.045c-0.12-0.024-0.122-0.024-0.165 0.021-0.024 0.026-0.077 0.058-0.118 0.069-0.073 0.023-0.097 0.056-0.090 0.129 0.008 0.092-0.008 0.206-0.032 0.229-0.015 0.013-0.039 0.036-0.056 0.049-0.019 0.017-0.028 0.058-0.028 0.126s-0.013 0.122-0.039 0.167c-0.023 0.039-0.036 0.090-0.032 0.127 0.006 0.056 0.011 0.062 0.066 0.058 0.118-0.009 0.152 0.127 0.079 0.322-0.021 0.058-0.034 0.116-0.028 0.131 0.013 0.036 0.171 0.039 0.191 0.006 0.009-0.013 0.017-0.152 0.017-0.311 0.004-0.293 0.013-0.332 0.077-0.319 0.030 0.006 0.036 0.024 0.036 0.137 0 0.122 0.002 0.129 0.047 0.141 0.034 0.009 0.045 0.023 0.041 0.049-0.004 0.019-0.009 0.060-0.009 0.092-0.004 0.049 0.004 0.056 0.047 0.062 0.041 0.006 0.056-0.004 0.071-0.043 0.015-0.041 0.028-0.049 0.079-0.043 0.053 0.006 0.062-0.002 0.068-0.039 0.006-0.028-0.011-0.062-0.045-0.098-0.047-0.049-0.049-0.058-0.026-0.101s0.019-0.053-0.064-0.15c-0.101-0.116-0.103-0.163-0.006-0.195 0.032-0.013 0.088-0.049 0.122-0.082s0.081-0.060 0.103-0.060c0.049 0 0.067-0.067 0.028-0.098-0.034-0.028-0.221-0.008-0.221 0.024 0 0.015-0.030 0.026-0.079 0.030-0.064 0.004-0.081 0.013-0.081 0.041 0 0.053-0.054 0.081-0.094 0.049-0.017-0.013-0.026-0.036-0.021-0.049s-0.009-0.039-0.034-0.058c-0.030-0.023-0.047-0.060-0.054-0.113-0.013-0.111 0.009-0.126 0.163-0.098 0.103 0.019 0.133 0.019 0.197-0.006 0.043-0.017 0.083-0.023 0.098-0.013 0.038 0.023 0.293 0.021 0.338-0.002 0.037-0.021 0.148-0.223 0.148-0.272s-0.092-0.036-0.116 0.019z"></path>
<path d="M9.107 18.819c-0.013 0.051-0.002 0.073 0.034 0.058 0.036-0.013 0.038-0.099 0.002-0.099-0.013 0-0.030 0.019-0.036 0.041z"></path>
<path d="M15.026 18.968c-0.006 0.011-0.004 0.028 0.008 0.039 0.028 0.028 0.086 0.009 0.094-0.028 0.006-0.023-0.006-0.032-0.041-0.032-0.026 0-0.053 0.009-0.060 0.021z"></path>
<path d="M13.869 18.996c-0.026 0.026-0.013 0.066 0.021 0.060 0.017-0.004 0.032-0.019 0.032-0.032 0-0.030-0.034-0.047-0.053-0.028z"></path>
<path d="M19.886 19.11c-0.017 0.017-0.013 0.062 0.006 0.062 0.023 0 0.041-0.053 0.023-0.064-0.009-0.006-0.021-0.006-0.028 0.002z"></path>
<path d="M13.918 19.148c-0.060 0.021 0.006 0.137 0.075 0.137 0.037 0 0.037 0.002 0.011-0.071-0.021-0.060-0.047-0.079-0.086-0.066z"></path>
<path d="M18.482 19.224c-0.045 0.049-0.039 0.060 0.030 0.060 0.073 0 0.124-0.028 0.098-0.052-0.041-0.039-0.098-0.041-0.128-0.008z"></path>
<path d="M19.316 19.251c-0.026 0.026-0.030 0.082-0.006 0.099 0.009 0.006 0.024 0 0.030-0.011 0.008-0.009 0.041-0.017 0.077-0.013 0.034 0.002 0.064-0.002 0.064-0.009s0-0.021 0-0.028c0-0.019-0.082-0.060-0.118-0.060-0.013 0-0.034 0.009-0.047 0.023z"></path>
<path d="M15.216 19.286c-0.049 0.030-0.079 0.071-0.082 0.114-0.002 0.008 0.030 0.015 0.068 0.019 0.058 0.004 0.071 0.015 0.082 0.058 0.015 0.058 0.122 0.176 0.141 0.157 0.008-0.006 0.017-0.047 0.021-0.092 0.009-0.073 0.004-0.084-0.039-0.107-0.026-0.015-0.049-0.043-0.049-0.062 0-0.047-0.030-0.101-0.060-0.112-0.013-0.006-0.049 0.006-0.081 0.024z"></path>
<path d="M18.726 19.301c-0.004 0.021 0 0.045 0.011 0.056 0.026 0.026 0.135 0.026 0.184 0 0.038-0.019 0.038-0.021 0.006-0.056-0.045-0.051-0.188-0.051-0.201 0z"></path>
<path d="M19.77 19.311c-0.017 0.047 0.006 0.084 0.058 0.098 0.058 0.015 0.107-0.023 0.099-0.075-0.004-0.030-0.021-0.041-0.077-0.045-0.049-0.004-0.073 0.002-0.081 0.023z"></path>
<path d="M14.128 19.418c-0.019 0.028 0.002 0.043 0.037 0.028 0.017-0.006 0.024-0.019 0.019-0.030-0.015-0.024-0.041-0.024-0.056 0.002z"></path>
<path d="M19.044 19.429c-0.023 0.021-0.015 0.043 0.015 0.043 0.015 0 0.028-0.013 0.028-0.028 0-0.030-0.023-0.038-0.043-0.015z"></path>
<path d="M15.602 19.502c-0.038 0.039-0.041 0.052-0.024 0.092 0.024 0.053 0.037 0.056 0.105 0.026 0.067-0.032 0.073-0.084 0.013-0.128-0.051-0.036-0.051-0.036-0.094 0.009z"></path>
<path d="M19.485 19.549c-0.036 0.013-0.043 0.028-0.038 0.086l0.006 0.071 0.143-0.006c0.131-0.006 0.146-0.004 0.201 0.043 0.073 0.062 0.159 0.060 0.169-0.004 0.015-0.101-0.099-0.18-0.268-0.184-0.051-0.002-0.111-0.008-0.131-0.013-0.021-0.008-0.056-0.004-0.081 0.006z"></path>
<path d="M19.093 19.599c-0.011 0.008-0.017 0.036-0.011 0.066 0.013 0.067 0.101 0.116 0.156 0.088 0.041-0.023 0.051-0.097 0.015-0.127-0.034-0.026-0.133-0.043-0.159-0.026z"></path>
<path d="M18.48 19.913c-0.006 0.015-0.026 0.028-0.043 0.028-0.111 0-0.156 0.128-0.073 0.204 0.069 0.066 0.116 0.039 0.129-0.068 0.006-0.058 0.023-0.097 0.049-0.116 0.032-0.024 0.036-0.036 0.017-0.054-0.030-0.030-0.066-0.028-0.079 0.006z"></path>
<path d="M20.306 20.126c-0.013 0.026-0.013 0.041 0.002 0.049 0.024 0.015 0.028 0.011 0.043-0.043 0.017-0.051-0.017-0.056-0.045-0.006z"></path>
<path d="M20.608 20.151c-0.009 0.024-0.034 0.058-0.054 0.079-0.045 0.039-0.088 0.15-0.069 0.18 0.021 0.034 0.081 0.021 0.118-0.026 0.019-0.026 0.051-0.084 0.067-0.133 0.026-0.067 0.028-0.092 0.011-0.112-0.032-0.039-0.054-0.036-0.073 0.013z"></path>
<path d="M17.962 20.212c-0.030 0.036-0.011 0.086 0.028 0.073 0.030-0.013 0.039-0.073 0.011-0.090-0.009-0.006-0.026 0.002-0.039 0.017z"></path>
<path d="M15.249 20.224c-0.011 0.015-0.026 0.049-0.034 0.079-0.009 0.037-0.024 0.051-0.058 0.051-0.039 0-0.045 0.006-0.034 0.051 0.019 0.075 0.026 0.082 0.066 0.071 0.019-0.006 0.053-0.013 0.071-0.021 0.028-0.008 0.045 0.006 0.068 0.049 0.026 0.051 0.036 0.056 0.092 0.047 0.037-0.008 0.088-0.002 0.133 0.017s0.126 0.030 0.225 0.030c0.098 0 0.176 0.009 0.21 0.026 0.186 0.092 0.221 0.101 0.405 0.103 0.111 0 0.217 0.013 0.266 0.030 0.105 0.036 0.135 0.023 0.161-0.067 0.021-0.064 0.019-0.079-0.011-0.111-0.028-0.032-0.054-0.037-0.137-0.034-0.101 0.006-0.101 0.006-0.122-0.060-0.019-0.054-0.034-0.066-0.097-0.079-0.041-0.009-0.084-0.030-0.098-0.045-0.015-0.021-0.038-0.026-0.069-0.019-0.036 0.009-0.049 0.004-0.049-0.017 0-0.047-0.051-0.032-0.094 0.028-0.045 0.064-0.071 0.069-0.156 0.024-0.034-0.017-0.101-0.032-0.154-0.034-0.081-0.002-0.094-0.009-0.099-0.043-0.009-0.060-0.051-0.075-0.268-0.088-0.156-0.011-0.201-0.009-0.217 0.011z"></path>
<path d="M16.562 20.381c-0.015 0.041 0.047 0.103 0.105 0.103s0.133-0.047 0.133-0.082c0-0.052-0.217-0.069-0.238-0.021z"></path>
<path d="M19.984 20.503c-0.105 0.135-0.122 0.161-0.114 0.182 0.017 0.049 0.077 0.023 0.158-0.071 0.045-0.052 0.086-0.098 0.090-0.103 0.013-0.011-0.039-0.064-0.064-0.064-0.013 0-0.045 0.024-0.069 0.056z"></path>
<path d="M19.039 20.554c-0.034 0.004-0.075 0.024-0.092 0.043-0.030 0.034-0.030 0.038-0.002 0.049 0.043 0.017 0.154-0.008 0.18-0.039 0.021-0.026 0.011-0.069-0.015-0.062-0.008 0-0.039 0.006-0.071 0.009z"></path>
<path d="M17.334 20.73c-0.114 0.077-0.143 0.114-0.103 0.139 0.030 0.019 0.388-0.047 0.427-0.077 0.045-0.034 0.008-0.090-0.064-0.098-0.030-0.004-0.062-0.015-0.071-0.024-0.032-0.030-0.075-0.017-0.189 0.060z"></path>
<path d="M16.856 20.694c0 0.013 0.015 0.043 0.034 0.067 0.032 0.041 0.036 0.041 0.094 0.013 0.036-0.019 0.060-0.045 0.060-0.067 0-0.030-0.013-0.036-0.094-0.036-0.062 0-0.094 0.008-0.094 0.023z"></path>
<path d="M17.091 20.747c-0.060 0.096-0.058 0.107 0.009 0.116 0.069 0.011 0.094-0.015 0.107-0.116 0.009-0.068 0.006-0.075-0.030-0.075-0.024 0-0.054 0.026-0.086 0.075z"></path>
<path d="M17.854 20.732c-0.144 0.090-0.127 0.133 0.060 0.152 0.090 0.009 0.124 0.004 0.188-0.030 0.043-0.021 0.12-0.045 0.171-0.051 0.090-0.009 0.094-0.011 0.094-0.066 0-0.064 0.002-0.064-0.144-0.019-0.105 0.032-0.107 0.032-0.157-0.008-0.068-0.052-0.094-0.051-0.21 0.021z"></path>
<path d="M18.473 20.694c-0.039 0.039-0.024 0.071 0.034 0.071 0.043 0 0.056-0.009 0.056-0.036 0-0.019-0.013-0.041-0.030-0.047-0.037-0.015-0.034-0.015-0.060 0.011z"></path>
<path d="M18.939 20.726c-0.137 0.028-0.165 0.041-0.21 0.096-0.030 0.034-0.107 0.094-0.171 0.131-0.107 0.060-0.118 0.073-0.124 0.133-0.011 0.122 0.082 0.137 0.182 0.028 0.026-0.026 0.060-0.049 0.079-0.049 0.017 0 0.043-0.019 0.060-0.043 0.015-0.023 0.064-0.060 0.109-0.082 0.154-0.075 0.296-0.137 0.315-0.137 0.036 0 0.023-0.053-0.021-0.082-0.023-0.017-0.047-0.030-0.052-0.028-0.006 0-0.081 0.015-0.167 0.034z"></path>
<path d="M17.657 20.923c-0.015 0.036 0.039 0.105 0.081 0.105 0.019 0 0.053 0.021 0.077 0.047 0.058 0.060 0.107 0.060 0.122 0 0.015-0.062-0.002-0.103-0.043-0.103-0.019 0-0.043-0.015-0.056-0.036-0.026-0.041-0.165-0.052-0.18-0.013z"></path>
<path d="M18.311 21.225c-0.043 0.032-0.026 0.084 0.026 0.084 0.045 0 0.118-0.068 0.103-0.094-0.017-0.026-0.088-0.023-0.129 0.009z"></path>
</svg>
