<!-- Generated by IcoMoon.io -->
<svg version="1.1" xmlns="http://www.w3.org/2000/svg" width="24" height="24" viewBox="0 0 24 24">
<path d="M17.857 3.863c-0.008 0.019 0.002 0.045 0.024 0.069 0.034 0.034 0.045 0.036 0.12 0.013 0.156-0.043 0.146-0.081-0.024-0.101-0.092-0.011-0.111-0.009-0.12 0.019z"></path>
<path d="M19.637 3.938c-0.054 0.024-0.099 0.054-0.099 0.066 0 0.009 0 0.024 0 0.032 0 0.021 0.345 0.023 0.369 0.002 0.034-0.028 0.030-0.122-0.006-0.135-0.062-0.024-0.171-0.009-0.264 0.036z"></path>
<path d="M16.766 3.988c-0.030 0.030-0.028 0.073 0.008 0.124s0.086 0.051 0.186 0.004c0.041-0.021 0.086-0.036 0.099-0.037 0.011 0 0.023-0.011 0.023-0.024 0-0.017-0.049-0.037-0.129-0.056-0.154-0.038-0.157-0.038-0.186-0.009z"></path>
<path d="M16.256 4.001c-0.182 0.011-0.197 0.015-0.203 0.051-0.004 0.021 0.011 0.060 0.032 0.084 0.036 0.043 0.038 0.045 0.090 0.013 0.052-0.030 0.056-0.030 0.096 0.007 0.038 0.039 0.043 0.039 0.156 0.013 0.129-0.032 0.159-0.060 0.141-0.135-0.009-0.041-0.023-0.051-0.064-0.047-0.028 0.002-0.139 0.007-0.248 0.013z"></path>
<path d="M18.874 4.035c-0.017 0.039 0.021 0.099 0.075 0.12 0.058 0.021 0.279 0.006 0.343-0.026 0.064-0.030 0.073-0.084 0.017-0.096-0.024-0.006-0.129-0.013-0.234-0.017-0.156-0.007-0.193-0.004-0.201 0.019z"></path>
<path d="M17.499 4.091c-0.013 0.034 0.054 0.099 0.099 0.099 0.049 0 0.051-0.054 0.006-0.094-0.054-0.045-0.090-0.047-0.105-0.006z"></path>
<path d="M17.968 4.072c-0.030 0.011-0.032 0.073-0.006 0.090 0.032 0.019 0.133-0.009 0.144-0.041 0.019-0.047-0.067-0.079-0.139-0.049z"></path>
<path d="M18.394 4.097c-0.163 0.043-0.188 0.056-0.188 0.088 0 0.043 0.159 0.105 0.206 0.081 0.021-0.011 0.038-0.028 0.038-0.037s0.034-0.026 0.077-0.037c0.075-0.021 0.113-0.064 0.081-0.094-0.036-0.032-0.096-0.032-0.214 0z"></path>
<path d="M10.245 4.157c-0.017 0.056 0.015 0.128 0.069 0.157 0.064 0.032 0.075 0.109 0.019 0.139-0.060 0.030-0.075 0.024-0.18-0.083-0.114-0.114-0.167-0.131-0.293-0.094l-0.090 0.028 0.038 0.037c0.041 0.041 0.041 0.088-0.002 0.114-0.030 0.021-0.116-0.024-0.231-0.118-0.081-0.066-0.141-0.096-0.163-0.082-0.011 0.006-0.036 0.053-0.058 0.103-0.037 0.086-0.077 0.124-0.111 0.103-0.007-0.006-0.041-0.056-0.073-0.112-0.079-0.139-0.105-0.148-0.3-0.114-0.21 0.036-0.302 0.103-0.234 0.171 0.024 0.024 0.051 0.028 0.113 0.019 0.098-0.013 0.141 0.006 0.195 0.094 0.036 0.060 0.049 0.066 0.124 0.066 0.071 0 0.086 0.008 0.105 0.047 0.041 0.090 0.146 0.079 0.279-0.030 0.069-0.056 0.202-0.071 0.236-0.026 0.013 0.021 0.024 0.054 0.024 0.079 0 0.036-0.009 0.043-0.054 0.043-0.051 0-0.255 0.066-0.287 0.092-0.007 0.007-0.006 0.024 0.004 0.039 0.011 0.019 0.049 0.028 0.122 0.028 0.099 0 0.146 0.032 0.066 0.043-0.049 0.007-0.068 0.053-0.038 0.088 0.015 0.019 0.053 0.026 0.105 0.024 0.066-0.002 0.101 0.011 0.201 0.075 0.103 0.067 0.133 0.079 0.221 0.079 0.116 0 0.191-0.032 0.203-0.084 0.004-0.021 0.043-0.077 0.086-0.124 0.084-0.090 0.129-0.199 0.111-0.27-0.017-0.071 0.032-0.090 0.148-0.056 0.122 0.036 0.159 0.075 0.229 0.231 0.060 0.133 0.086 0.154 0.197 0.154 0.092 0 0.169-0.037 0.223-0.105 0.054-0.069 0.049-0.131-0.017-0.208-0.030-0.034-0.056-0.075-0.056-0.090 0-0.041-0.086-0.090-0.135-0.077-0.028 0.006-0.084-0.011-0.159-0.047-0.071-0.036-0.131-0.053-0.154-0.045-0.049 0.015-0.171-0.037-0.171-0.073 0-0.021 0.019-0.030 0.056-0.030 0.032 0 0.084-0.013 0.114-0.030 0.073-0.037 0.116-0.028 0.129 0.030 0.013 0.051 0.006 0.049 0.262 0.038 0.086-0.006 0.114 0.002 0.176 0.043 0.094 0.066 0.193 0.066 0.328 0.004 0.071-0.034 0.118-0.045 0.161-0.036 0.047 0.008 0.071 0 0.12-0.041 0.034-0.028 0.086-0.056 0.118-0.062 0.079-0.017 0.103-0.060 0.075-0.124-0.023-0.047-0.030-0.051-0.094-0.036-0.075 0.017-0.328 0.019-1.191 0.006-0.508-0.008-0.559-0.006-0.568 0.024z"></path>
<path d="M17.162 4.172c-0.062 0.024-0.056 0.090 0.009 0.105 0.028 0.006 0.073 0.019 0.103 0.030 0.054 0.021 0.107-0.004 0.107-0.051 0-0.062-0.141-0.116-0.219-0.084z"></path>
<path d="M21.469 5.016c-0.015 0.009-0.056 0.019-0.092 0.019-0.054 0-0.081 0.017-0.15 0.092l-0.086 0.094-0.221-0.011c-0.188-0.009-0.231-0.006-0.294 0.022-0.067 0.030-0.090 0.032-0.203 0.011-0.137-0.024-0.182-0.017-0.212 0.038-0.013 0.026-0.039 0.036-0.107 0.036-0.049 0-0.128 0.013-0.176 0.028-0.049 0.013-0.116 0.021-0.15 0.015-0.081-0.011-0.139 0.034-0.174 0.135-0.024 0.073-0.026 0.075-0.111 0.069-0.056-0.004-0.101 0.006-0.135 0.028-0.062 0.039-0.107 0.141-0.090 0.202 0.013 0.054-0.068 0.141-0.135 0.141-0.056 0-0.105 0.051-0.098 0.101 0.006 0.034 0.017 0.039 0.086 0.034 0.043-0.002 0.079 0.004 0.079 0.013 0 0.036-0.060 0.075-0.128 0.086-0.126 0.019-0.161 0.038-0.18 0.090-0.015 0.041-0.011 0.062 0.023 0.107 0.023 0.030 0.041 0.067 0.041 0.082 0 0.030-0.101 0.071-0.141 0.054-0.047-0.017-0.116 0.009-0.128 0.049-0.021 0.079 0.105 0.171 0.232 0.171 0.039 0 0.073 0.017 0.109 0.054 0.079 0.084 0.126 0.090 0.188 0.022 0.030-0.032 0.064-0.058 0.075-0.058 0.009 0 0.043 0.039 0.071 0.088 0.028 0.051 0.060 0.098 0.071 0.105 0.009 0.008 0.075 0.011 0.144 0.008 0.092-0.006 0.144 0 0.199 0.024 0.053 0.024 0.082 0.028 0.105 0.015 0.038-0.021 0.099-0.013 0.216 0.032 0.045 0.017 0.112 0.028 0.15 0.024 0.058-0.006 0.067-0.013 0.073-0.056 0.009-0.075-0.084-0.127-0.223-0.127-0.092 0-0.111-0.008-0.159-0.058-0.030-0.032-0.079-0.069-0.107-0.084s-0.067-0.053-0.086-0.082c-0.019-0.030-0.062-0.075-0.097-0.099-0.090-0.060-0.098-0.144-0.017-0.219l0.060-0.056-0.049-0.019c-0.096-0.036-0.043-0.114 0.073-0.107 0.062 0.004 0.075-0.004 0.107-0.058 0.019-0.036 0.060-0.084 0.090-0.109 0.030-0.026 0.060-0.066 0.068-0.088 0.024-0.082 0.064-0.107 0.172-0.107 0.098 0 0.107-0.004 0.18-0.083 0.043-0.045 0.103-0.096 0.133-0.111 0.064-0.032 0.247-0.069 0.341-0.069 0.036 0 0.096-0.017 0.135-0.037 0.039-0.019 0.124-0.045 0.186-0.054s0.137-0.030 0.167-0.045c0.028-0.015 0.114-0.032 0.191-0.037 0.171-0.013 0.334-0.086 0.351-0.156 0.015-0.060-0.038-0.12-0.103-0.12-0.026-0.002-0.069-0.013-0.096-0.028-0.054-0.032-0.129-0.036-0.169-0.009z"></path>
<path d="M4.208 6.823c-0.006 0.015-0.043 0.051-0.084 0.079-0.092 0.064-0.099 0.109-0.011 0.092 0.126-0.026 0.218-0.105 0.195-0.167-0.015-0.038-0.086-0.039-0.099-0.004z"></path>
<path d="M13.039 6.906c-0.141 0.167-0.176 0.184-0.176 0.081 0-0.062-0.030-0.096-0.086-0.096-0.051 0-0.12 0.082-0.12 0.143 0 0.047-0.081 0.12-0.131 0.12-0.066 0-0.060-0.058 0.013-0.126l0.069-0.068-0.039-0.032c-0.028-0.022-0.079-0.032-0.172-0.034l-0.133-0.004-0.034 0.069c-0.067 0.146-0.231 0.193-0.435 0.126-0.114-0.038-0.171-0.030-0.201 0.030-0.017 0.034-0.041 0.049-0.094 0.056-0.056 0.007-0.073 0.019-0.077 0.051-0.008 0.053-0.069 0.058-0.12 0.011-0.030-0.028-0.047-0.028-0.12-0.009-0.045 0.013-0.103 0.022-0.129 0.022-0.032 0-0.054 0.017-0.075 0.056-0.022 0.043-0.041 0.056-0.082 0.056-0.086 0-0.308 0.090-0.36 0.148-0.028 0.030-0.064 0.094-0.081 0.144-0.068 0.189-0.062 0.186-0.212 0.186-0.152 0-0.212 0.036-0.212 0.124 0 0.045-0.026 0.073-0.178 0.186l-0.178 0.133v0.082c0 0.084 0 0.084-0.066 0.084-0.086 0-0.107 0.043-0.111 0.221l-0.002 0.141-0.103 0.021c-0.129 0.026-0.142 0.036-0.157 0.105-0.008 0.045-0.023 0.060-0.066 0.067-0.030 0.008-0.075 0.032-0.098 0.056s-0.062 0.045-0.086 0.045c-0.024 0-0.064 0.021-0.088 0.047s-0.058 0.047-0.075 0.047c-0.017 0-0.036 0.015-0.041 0.032-0.026 0.084-0.037 0.090-0.143 0.084-0.12-0.008-0.137 0.006-0.137 0.116 0 0.086-0.024 0.099-0.188 0.103-0.111 0.004-0.176 0.036-0.204 0.101-0.011 0.026-0.068 0.079-0.124 0.118-0.090 0.060-0.116 0.069-0.201 0.066-0.152-0.004-0.165 0.019-0.18 0.289-0.011 0.191-0.007 0.229 0.019 0.257 0.019 0.021 0.045 0.030 0.073 0.022 0.032-0.008 0.051 0.002 0.073 0.038 0.041 0.062 0.024 0.141-0.047 0.208-0.071 0.069-0.071 0.113 0.002 0.152l0.058 0.030-0.006 0.161-0.008 0.163h0.088c0.073 0 0.098 0.009 0.146 0.060 0.12 0.122 0.249 0.126 0.581 0.015 0.176-0.058 0.214-0.079 0.298-0.159 0.064-0.064 0.111-0.094 0.143-0.094 0.054 0 0.122-0.092 0.122-0.165 0-0.067 0.056-0.075 0.107-0.011 0.024 0.030 0.073 0.084 0.109 0.122 0.043 0.043 0.066 0.084 0.066 0.118 0 0.090 0.049 0.157 0.131 0.18 0.058 0.015 0.077 0.032 0.086 0.071 0.006 0.028 0.036 0.122 0.066 0.21 0.045 0.126 0.075 0.178 0.144 0.247 0.084 0.088 0.086 0.090 0.064 0.154-0.022 0.060-0.021 0.071 0.022 0.137 0.026 0.039 0.051 0.094 0.056 0.122 0.006 0.030 0.015 0.073 0.021 0.098 0.013 0.064 0.053 0.071 0.152 0.030 0.047-0.021 0.109-0.037 0.137-0.037 0.067 0 0.096-0.032 0.084-0.092-0.015-0.069 0.021-0.148 0.077-0.174 0.036-0.017 0.071-0.015 0.15 0.004 0.077 0.019 0.114 0.019 0.148 0.004 0.062-0.028 0.124-0.167 0.142-0.319 0.009-0.069 0.026-0.15 0.036-0.18 0.011-0.028 0.021-0.116 0.021-0.195 0-0.169 0.024-0.229 0.103-0.253 0.032-0.009 0.077-0.037 0.103-0.062 0.047-0.043 0.051-0.043 0.092-0.013 0.043 0.030 0.047 0.028 0.081-0.011 0.019-0.026 0.034-0.073 0.034-0.116 0-0.060 0.009-0.077 0.054-0.099 0.094-0.049 0.088-0.18-0.007-0.18-0.047 0-0.064-0.015-0.152-0.128-0.045-0.056-0.056-0.060-0.144-0.056-0.090 0.006-0.098 0.002-0.114-0.047-0.013-0.036-0.013-0.069 0.004-0.111 0.019-0.051 0.017-0.069-0.013-0.12-0.036-0.060-0.036-0.062 0-0.094 0.019-0.017 0.036-0.051 0.036-0.071 0.002-0.079 0.069-0.197 0.122-0.21 0.028-0.008 0.068-0.041 0.094-0.082 0.030-0.047 0.064-0.075 0.101-0.084 0.030-0.006 0.101-0.053 0.159-0.103 0.056-0.049 0.129-0.096 0.161-0.103s0.098-0.051 0.143-0.096c0.047-0.045 0.098-0.082 0.111-0.082 0.041 0 0.045-0.049 0.008-0.111-0.071-0.116-0.039-0.189 0.105-0.244 0.090-0.036 0.094-0.039 0.088-0.103s-0.002-0.067 0.075-0.088c0.090-0.024 0.3-0.013 0.521 0.026 0.139 0.024 0.141 0.026 0.137 0.079-0.004 0.038 0.011 0.071 0.041 0.103 0.058 0.060 0.045 0.075-0.056 0.075-0.084 0-0.114 0.022-0.167 0.127-0.019 0.038-0.058 0.073-0.094 0.088s-0.081 0.056-0.101 0.090c-0.026 0.047-0.054 0.067-0.101 0.077-0.036 0.006-0.088 0.037-0.118 0.068-0.034 0.036-0.073 0.056-0.105 0.056-0.030 0-0.062 0.011-0.071 0.022-0.011 0.013-0.049 0.060-0.084 0.101-0.038 0.043-0.067 0.096-0.067 0.118 0 0.056 0.049 0.148 0.126 0.234 0.066 0.073 0.067 0.081 0.023 0.193-0.021 0.053-0.019 0.073 0.023 0.178 0.039 0.099 0.054 0.118 0.098 0.124 0.030 0.004 0.066 0.028 0.088 0.062 0.038 0.053 0.045 0.054 0.143 0.043 0.098-0.013 0.103-0.011 0.163 0.053 0.124 0.131 0.203 0.139 0.405 0.043 0.096-0.047 0.161-0.066 0.225-0.066 0.049 0 0.156-0.017 0.236-0.038 0.098-0.024 0.208-0.038 0.33-0.038 0.139 0 0.197-0.007 0.242-0.034 0.058-0.030 0.060-0.030 0.081 0.004 0.051 0.081 0.082 0.099 0.21 0.112 0.152 0.015 0.242 0.051 0.272 0.105 0.034 0.062 0.011 0.064-0.082 0.009-0.081-0.047-0.094-0.049-0.176-0.030-0.049 0.013-0.144 0.060-0.216 0.107-0.169 0.111-0.259 0.124-0.388 0.056-0.054-0.028-0.139-0.056-0.191-0.062-0.099-0.011-0.307 0.017-0.446 0.060-0.047 0.015-0.12 0.032-0.165 0.039-0.167 0.026-0.148 0.129 0.060 0.328 0.131 0.122 0.143 0.141 0.139 0.202-0.002 0.037 0.004 0.098 0.011 0.135 0.013 0.066 0.011 0.069-0.075 0.12-0.131 0.077-0.161 0.069-0.306-0.073-0.148-0.146-0.18-0.152-0.328-0.058-0.082 0.053-0.116 0.090-0.171 0.191l-0.068 0.128 0.051 0.12c0.066 0.152 0.079 0.293 0.038 0.375-0.038 0.069-0.131 0.133-0.199 0.133-0.066 0-0.094 0.032-0.094 0.105 0 0.071-0.022 0.092-0.131 0.12-0.167 0.043-0.219 0.045-0.242 0.004-0.011-0.021-0.013-0.041-0.008-0.049 0.019-0.019-0.049-0.082-0.101-0.096-0.026-0.006-0.073-0.002-0.107 0.008-0.032 0.011-0.122 0.024-0.199 0.028s-0.142 0.009-0.144 0.009c-0.004 0.002-0.017 0.032-0.032 0.068s-0.039 0.066-0.053 0.068c-0.013 0.002-0.094 0.004-0.178 0.006-0.127 0.002-0.161 0.009-0.197 0.043-0.126 0.112-0.223 0.111-0.418-0.013-0.114-0.073-0.165-0.094-0.225-0.094-0.124 0-0.221 0.036-0.285 0.105-0.079 0.084-0.139 0.084-0.188 0.002-0.030-0.047-0.064-0.069-0.161-0.103-0.114-0.041-0.124-0.049-0.129-0.103-0.006-0.051-0.013-0.062-0.062-0.066-0.066-0.008-0.084-0.030-0.084-0.103 0-0.028-0.009-0.067-0.023-0.086-0.019-0.030-0.013-0.045 0.038-0.096 0.034-0.032 0.060-0.068 0.060-0.077 0-0.038 0.079-0.092 0.131-0.092 0.092 0 0.131-0.118 0.049-0.15-0.073-0.026-0.094-0.084-0.068-0.18 0.021-0.069 0.019-0.090-0.011-0.152-0.052-0.105-0.101-0.103-0.169 0.002-0.030 0.047-0.058 0.086-0.064 0.088-0.006 0-0.071 0.002-0.146 0.004-0.129 0.004-0.141 0.008-0.191 0.064-0.069 0.079-0.12 0.244-0.103 0.343 0.007 0.041 0.037 0.109 0.067 0.15s0.060 0.103 0.067 0.137c0.006 0.034 0.047 0.131 0.092 0.216 0.105 0.203 0.105 0.246 0.004 0.341-0.045 0.041-0.088 0.075-0.098 0.075-0.011 0-0.041-0.021-0.068-0.047-0.051-0.049-0.075-0.054-0.199-0.051-0.071 0.004-0.079 0.009-0.090 0.062-0.009 0.051-0.017 0.056-0.053 0.045-0.109-0.032-0.129-0.030-0.244 0.026-0.066 0.032-0.159 0.088-0.21 0.124-0.069 0.051-0.109 0.066-0.173 0.066-0.077 0-0.082 0.004-0.082 0.051 0 0.030-0.034 0.107-0.075 0.174-0.081 0.131-0.090 0.186-0.047 0.27 0.015 0.028 0.028 0.069 0.028 0.090 0 0.034-0.009 0.036-0.154 0.023-0.154-0.011-0.156-0.011-0.231 0.049-0.064 0.051-0.086 0.058-0.144 0.049-0.038-0.006-0.090-0.002-0.118 0.011-0.047 0.021-0.053 0.034-0.075 0.174-0.013 0.082-0.067 0.197-0.109 0.231-0.015 0.013-0.067 0.028-0.118 0.036-0.051 0.006-0.098 0.019-0.103 0.028s-0.002 0.051 0.009 0.092c0.024 0.092-0.002 0.129-0.064 0.086-0.030-0.021-0.075-0.026-0.199-0.017l-0.159 0.009-0.081-0.088c-0.090-0.096-0.131-0.105-0.206-0.047-0.058 0.047-0.062 0.077-0.009 0.146 0.045 0.062 0.083 0.206 0.058 0.231-0.009 0.009-0.077 0.019-0.148 0.021-0.109 0.004-0.141-0.004-0.174-0.034-0.062-0.054-0.172-0.049-0.238 0.013-0.049 0.047-0.064 0.051-0.206 0.047-0.188-0.004-0.221 0.017-0.141 0.090 0.049 0.043 0.054 0.060 0.047 0.122-0.011 0.081 0.024 0.114 0.118 0.109 0.030-0.002 0.118 0.008 0.195 0.021 0.129 0.023 0.146 0.032 0.216 0.107 0.054 0.058 0.092 0.082 0.127 0.082 0.047 0 0.051 0.006 0.051 0.081 0 0.067 0.011 0.090 0.071 0.15 0.037 0.038 0.098 0.077 0.131 0.090 0.066 0.023 0.066 0.024 0.092 0.24 0.021 0.174-0.002 0.366-0.062 0.536-0.026 0.071-0.054 0.163-0.062 0.201-0.028 0.135-0.096 0.174-0.326 0.189-0.15 0.011-0.167 0.008-0.201-0.028-0.037-0.041-0.041-0.039-0.188 0.013-0.116 0.043-0.263 0.028-0.405-0.043-0.111-0.054-0.112-0.056-0.382-0.049-0.242 0.006-0.279 0.004-0.343-0.030-0.038-0.021-0.084-0.038-0.103-0.038-0.054 0-0.111 0.051-0.122 0.113-0.011 0.056-0.013 0.056-0.135 0.056-0.107 0-0.129 0.006-0.169 0.047-0.069 0.067-0.062 0.143 0.028 0.266 0.086 0.12 0.088 0.139 0.038 0.268-0.051 0.128-0.047 0.161 0.019 0.201 0.034 0.019 0.056 0.049 0.056 0.071 0 0.071-0.088 0.287-0.146 0.362-0.045 0.056-0.060 0.094-0.060 0.152 0 0.053-0.009 0.082-0.028 0.090-0.054 0.019-0.084 0.112-0.084 0.251v0.133l0.064-0.011c0.097-0.019 0.127 0.041 0.126 0.262 0 0.098-0.006 0.186-0.011 0.197-0.007 0.009-0.007 0.038-0.002 0.062 0.009 0.036 0.032 0.045 0.15 0.066 0.135 0.024 0.143 0.024 0.199-0.017 0.090-0.064 0.171-0.077 0.259-0.038 0.071 0.032 0.113 0.092 0.090 0.128-0.024 0.041 0.030 0.154 0.094 0.193 0.037 0.023 0.075 0.060 0.083 0.084 0.026 0.066 0.075 0.056 0.15-0.030 0.096-0.111 0.208-0.133 0.707-0.144 0.278-0.006 0.403-0.015 0.416-0.030 0.009-0.013 0.034-0.069 0.053-0.124 0.041-0.122 0.114-0.171 0.259-0.171 0.051 0 0.103-0.008 0.114-0.015 0.028-0.019 0.064-0.129 0.064-0.199 0-0.075 0.030-0.105 0.101-0.105 0.092 0 0.137-0.019 0.158-0.066 0.011-0.024 0.049-0.053 0.084-0.064 0.041-0.015 0.069-0.037 0.077-0.064 0.013-0.053-0.036-0.126-0.082-0.126-0.079 0-0.090-0.131-0.028-0.3 0.015-0.036 0.039-0.114 0.054-0.172 0.041-0.146 0.099-0.208 0.253-0.268 0.118-0.045 0.199-0.092 0.356-0.206 0.036-0.026 0.086-0.047 0.112-0.047 0.122 0 0.197-0.144 0.143-0.274-0.015-0.037-0.028-0.109-0.028-0.156 0-0.113 0.045-0.158 0.197-0.199 0.189-0.049 0.33-0.030 0.42 0.052 0.062 0.058 0.154 0.088 0.266 0.088 0.077 0 0.109-0.013 0.217-0.088 0.129-0.088 0.276-0.156 0.341-0.156 0.067 0 0.12-0.064 0.131-0.161l0.011-0.092 0.077 0.004c0.041 0.002 0.154 0.030 0.249 0.064 0.195 0.068 0.231 0.099 0.332 0.304 0.037 0.071 0.103 0.169 0.148 0.218 0.047 0.051 0.088 0.118 0.101 0.163 0.023 0.084 0.047 0.101 0.135 0.101 0.047 0 0.062 0.011 0.082 0.066 0.022 0.051 0.054 0.077 0.154 0.128 0.071 0.036 0.158 0.082 0.193 0.105 0.049 0.028 0.096 0.039 0.184 0.039 0.126 0 0.135 0.008 0.161 0.131 0.013 0.067 0.101 0.112 0.221 0.112 0.129 0 0.146 0.013 0.141 0.103-0.004 0.067 0.002 0.077 0.069 0.114 0.116 0.066 0.272 0.229 0.283 0.296 0.026 0.15 0.021 0.189-0.024 0.195-0.051 0.008-0.071 0.043-0.088 0.159-0.011 0.068-0.006 0.099 0.017 0.135 0.054 0.082 0.105 0.060 0.199-0.090 0.047-0.073 0.094-0.158 0.107-0.186 0.017-0.037 0.036-0.052 0.069-0.052 0.026 0 0.058-0.017 0.075-0.041 0.068-0.096 0.011-0.219-0.116-0.261-0.037-0.011-0.081-0.030-0.092-0.041-0.038-0.028-0.028-0.101 0.017-0.144 0.022-0.021 0.043-0.062 0.045-0.088 0.004-0.088 0.051-0.098 0.172-0.034 0.098 0.052 0.107 0.062 0.113 0.126 0.006 0.056 0.015 0.073 0.051 0.082 0.073 0.019 0.139-0.043 0.141-0.129 0-0.060-0.009-0.075-0.058-0.103-0.032-0.017-0.169-0.098-0.304-0.176-0.135-0.081-0.276-0.152-0.313-0.157-0.111-0.017-0.118-0.023-0.103-0.069 0.053-0.167 0.023-0.199-0.208-0.212-0.193-0.011-0.313-0.049-0.349-0.107-0.015-0.023-0.051-0.101-0.081-0.172-0.030-0.073-0.077-0.165-0.103-0.206-0.028-0.041-0.073-0.118-0.101-0.171-0.054-0.103-0.109-0.139-0.201-0.139-0.039 0-0.075-0.019-0.114-0.056-0.054-0.054-0.056-0.064-0.043-0.156 0.009-0.054 0.017-0.144 0.017-0.201l0.002-0.101 0.073-0.021c0.039-0.011 0.088-0.043 0.109-0.071 0.045-0.064 0.090-0.064 0.146-0.004 0.036 0.037 0.041 0.058 0.032 0.126-0.006 0.049 0 0.103 0.015 0.141 0.024 0.058 0.032 0.062 0.113 0.062 0.073 0 0.088 0.006 0.103 0.047 0.022 0.060 0.062 0.060 0.094 0 0.039-0.073 0.079-0.062 0.064 0.021-0.009 0.051-0.004 0.075 0.024 0.107 0.021 0.023 0.047 0.077 0.060 0.122 0.019 0.067 0.038 0.088 0.116 0.131 0.053 0.028 0.159 0.086 0.236 0.129 0.114 0.064 0.161 0.081 0.234 0.081 0.105 0 0.137 0.024 0.221 0.174 0.053 0.092 0.114 0.144 0.176 0.144 0.013 0 0.081 0.028 0.154 0.062 0.071 0.036 0.158 0.075 0.191 0.088 0.12 0.047 0.118 0.038 0.088 0.566l-0.008 0.143 0.062 0.037c0.053 0.032 0.064 0.051 0.071 0.124 0.013 0.105 0.041 0.143 0.107 0.143 0.064 0 0.131 0.069 0.197 0.201 0.030 0.060 0.064 0.101 0.090 0.109 0.024 0.008 0.079 0.030 0.12 0.049 0.066 0.028 0.096 0.032 0.188 0.017 0.081-0.013 0.141-0.011 0.238 0.009 0.154 0.032 0.178 0.049 0.186 0.128 0.006 0.058 0.009 0.060 0.086 0.060 0.053 0 0.090 0.011 0.103 0.030 0.024 0.032 0.094 0.073 0.124 0.073 0.036 0 0.077-0.060 0.077-0.111 0-0.054-0.081-0.144-0.178-0.197l-0.056-0.030 0.075 0.011c0.041 0.008 0.079 0.015 0.082 0.019s0.023-0.002 0.041-0.013c0.073-0.038 0.026-0.122-0.105-0.191-0.030-0.017-0.075-0.039-0.099-0.053-0.034-0.019-0.051-0.019-0.090 0.002-0.034 0.019-0.056 0.021-0.079 0.008-0.043-0.028-0.051-0.090-0.013-0.12 0.045-0.038 0.034-0.064-0.064-0.146-0.088-0.075-0.092-0.081-0.099-0.195-0.013-0.169 0.032-0.216 0.098-0.103 0.021 0.036 0.058 0.073 0.084 0.084s0.047 0.034 0.047 0.049c0 0.047 0.039 0.054 0.081 0.015 0.023-0.021 0.060-0.043 0.084-0.051 0.036-0.009 0.041-0.023 0.037-0.088-0.008-0.111 0.047-0.146 0.229-0.15 0.231-0.004 0.311 0.017 0.354 0.090s0.096 0.081 0.255 0.037c0.114-0.030 0.172-0.058 0.234-0.114 0.043-0.039 0.069-0.045 0.272-0.051l0.225-0.008v-0.066c0-0.062-0.004-0.064-0.086-0.075-0.178-0.026-0.298-0.126-0.298-0.246 0-0.060-0.011-0.084-0.056-0.124-0.064-0.056-0.068-0.096-0.034-0.251 0.026-0.12 0.039-0.141 0.126-0.18 0.092-0.045 0.107-0.105 0.079-0.307-0.034-0.229-0.024-0.24 0.189-0.268l0.088-0.011 0.013-0.152c0.013-0.146 0.015-0.152 0.077-0.187 0.034-0.021 0.077-0.064 0.092-0.094s0.049-0.064 0.075-0.075c0.026-0.013 0.052-0.045 0.060-0.079 0.019-0.073 0.101-0.092 0.135-0.032 0.011 0.023 0.039 0.039 0.066 0.039 0.024 0 0.058 0.017 0.073 0.039 0.026 0.039 0.208 0.111 0.278 0.111 0.019 0 0.090-0.013 0.157-0.030 0.126-0.032 0.169-0.023 0.148 0.034-0.006 0.015-0.069 0.056-0.142 0.090-0.071 0.036-0.148 0.082-0.171 0.107-0.036 0.038-0.038 0.047-0.013 0.071 0.015 0.015 0.077 0.032 0.139 0.039 0.163 0.017 0.197 0.045 0.197 0.154 0 0.066 0.011 0.101 0.037 0.131 0.069 0.073 0.206 0.039 0.206-0.051 0-0.066 0.045-0.081 0.122-0.045l0.071 0.034 0.030-0.047c0.017-0.024 0.049-0.068 0.071-0.094l0.041-0.047 0.081 0.043c0.099 0.051 0.186 0.052 0.229 0.006 0.081-0.090-0.047-0.169-0.212-0.131-0.156 0.036-0.251-0.013-0.326-0.163-0.021-0.039-0.049-0.062-0.088-0.069-0.030-0.008-0.056-0.021-0.056-0.032 0-0.021 0.013-0.026 0.103-0.047 0.030-0.008 0.090-0.049 0.131-0.094l0.075-0.081 0.223-0.009c0.216-0.009 0.223-0.011 0.281-0.067 0.098-0.094 0.238-0.128 0.27-0.062 0.011 0.021 0.002 0.096-0.026 0.219-0.024 0.103-0.045 0.221-0.045 0.263 0 0.105-0.041 0.159-0.124 0.159-0.051 0-0.064 0.008-0.064 0.038 0 0.071 0.105 0.146 0.262 0.188 0.047 0.011 0.105 0.041 0.131 0.066s0.084 0.052 0.131 0.064c0.054 0.011 0.101 0.038 0.131 0.073 0.026 0.030 0.111 0.128 0.186 0.216 0.105 0.122 0.157 0.169 0.206 0.182 0.099 0.026 0.144 0.023 0.212-0.019 0.049-0.028 0.096-0.038 0.208-0.038 0.225 0 0.326 0.056 0.456 0.259 0.081 0.126 0.133 0.146 0.257 0.105 0.182-0.060 0.364-0.006 0.514 0.157l0.099 0.107 0.247 0.015c0.137 0.009 0.317 0.019 0.399 0.023 0.111 0.002 0.167 0.013 0.216 0.043 0.086 0.049 0.171 0.066 0.262 0.051l0.073-0.013-0.103-0.124c-0.058-0.069-0.139-0.167-0.18-0.216s-0.111-0.112-0.152-0.139c-0.111-0.069-0.124-0.094-0.126-0.227 0-0.129-0.009-0.154-0.116-0.3-0.066-0.088-0.079-0.097-0.146-0.097-0.118 0-0.126-0.043-0.038-0.244 0.028-0.068 0.060-0.156 0.067-0.197 0.015-0.069 0.023-0.075 0.094-0.088 0.174-0.028 0.379-0.182 0.352-0.264-0.009-0.032-0.004-0.034 0.047-0.023 0.038 0.008 0.069 0.004 0.086-0.009s0.051-0.019 0.082-0.013c0.028 0.006 0.060 0.004 0.069-0.006s0.047-0.019 0.082-0.023c0.054-0.004 0.068-0.015 0.081-0.062 0.009-0.032 0.024-0.069 0.032-0.084 0.023-0.049 0.131-0.043 0.266 0.011 0.069 0.028 0.133 0.047 0.139 0.041 0.006-0.008-0.021-0.058-0.058-0.112-0.038-0.060-0.062-0.114-0.056-0.131 0.008-0.017-0.009-0.081-0.036-0.144-0.028-0.066-0.049-0.15-0.049-0.199 0-0.109-0.051-0.206-0.148-0.287-0.053-0.041-0.098-0.105-0.141-0.199-0.034-0.075-0.082-0.15-0.107-0.167-0.023-0.017-0.038-0.036-0.032-0.043 0.008-0.006 0-0.039-0.015-0.073-0.015-0.036-0.026-0.067-0.026-0.073 0-0.026 0.129-0.045 0.255-0.036 0.114 0.008 0.165 0.004 0.223-0.021 0.041-0.019 0.128-0.037 0.193-0.043 0.097-0.009 0.116-0.017 0.116-0.047 0-0.019 0.009-0.051 0.023-0.069 0.017-0.028 0.011-0.054-0.039-0.143-0.034-0.058-0.058-0.109-0.054-0.111 0.004 0 0.054-0.026 0.114-0.056 0.098-0.049 0.12-0.053 0.253-0.045 0.148 0.009 0.232 0.039 0.472 0.173 0.047 0.026 0.201 0.096 0.343 0.154l0.257 0.107 0.081-0.062c0.188-0.15 0.219-0.18 0.219-0.214 0-0.019 0.013-0.084 0.030-0.148 0.026-0.103 0.026-0.129-0.002-0.302-0.017-0.105-0.038-0.279-0.047-0.39-0.015-0.218-0.043-0.289-0.137-0.36l-0.054-0.039-0.039 0.056c-0.073 0.105-0.221 0.236-0.306 0.274-0.182 0.077-0.377 0.023-0.538-0.15-0.098-0.105-0.182-0.259-0.182-0.334 0-0.111 0.073-0.156 0.392-0.249 0.231-0.067 0.287-0.159 0.217-0.358-0.039-0.113-0.157-0.308-0.266-0.441l-0.090-0.111-0.011-0.225c-0.008-0.143-0.024-0.272-0.049-0.356-0.023-0.073-0.079-0.309-0.126-0.525-0.148-0.679-0.3-1.164-0.433-1.38-0.064-0.103-0.066-0.113-0.041-0.171 0.043-0.103 0.238-0.259 0.525-0.416 0.171-0.096 0.171-0.141-0.011-0.409-0.092-0.139-0.099-0.146-0.182-0.158-0.047-0.006-0.129-0.032-0.186-0.058-0.064-0.030-0.158-0.053-0.253-0.062-0.084-0.007-0.186-0.026-0.227-0.041-0.045-0.017-0.189-0.034-0.352-0.041-0.24-0.011-0.277-0.009-0.287 0.015-0.023 0.060 0.009 0.12 0.077 0.142 0.081 0.026 0.133 0.112 0.103 0.169-0.011 0.021-0.028 0.037-0.038 0.037s-0.047 0.024-0.081 0.056c-0.036 0.030-0.079 0.056-0.094 0.056-0.017 0-0.066-0.051-0.107-0.112-0.081-0.118-0.133-0.142-0.167-0.077-0.039 0.073-0.159 0.099-0.499 0.107l-0.319 0.006-0.052 0.068c-0.069 0.084-0.143 0.088-0.221 0.011-0.030-0.030-0.054-0.071-0.054-0.092 0-0.049-0.069-0.135-0.111-0.135-0.017 0-0.060 0.021-0.092 0.045-0.036 0.024-0.099 0.049-0.154 0.054-0.051 0.006-0.131 0.032-0.182 0.058-0.049 0.028-0.113 0.049-0.141 0.049-0.077 0-0.214 0.058-0.351 0.146-0.092 0.060-0.139 0.079-0.197 0.079-0.098 0-0.111 0.009-0.158 0.116-0.066 0.148-0.18 0.176-0.401 0.098-0.041-0.015-0.099-0.026-0.126-0.026-0.064 0-0.096-0.032-0.096-0.098s0.056-0.098 0.178-0.099c0.082 0 0.094-0.006 0.099-0.043 0.004-0.024-0.006-0.062-0.021-0.084-0.037-0.056-0.244-0.159-0.369-0.182-0.171-0.034-0.424-0.037-0.461-0.011-0.030 0.022-0.028 0.028 0.023 0.058 0.221 0.137 0.216 0.128 0.165 0.287-0.017 0.053-0.026 0.107-0.021 0.122 0.006 0.013 0.058 0.036 0.118 0.049 0.062 0.013 0.126 0.032 0.144 0.041 0.039 0.022 0.041 0.079 0.002 0.113-0.019 0.015-0.026 0.041-0.021 0.071 0.024 0.12 0.024 0.124-0.026 0.129-0.026 0.004-0.105-0.015-0.176-0.043-0.069-0.026-0.188-0.053-0.261-0.058-0.201-0.015-0.21-0.019-0.263-0.109-0.026-0.045-0.069-0.096-0.094-0.112-0.032-0.019-0.056-0.060-0.069-0.114-0.024-0.096-0.045-0.112-0.167-0.129-0.052-0.007-0.122-0.037-0.178-0.077-0.105-0.075-0.189-0.103-0.311-0.103-0.109 0-0.176-0.024-0.334-0.114-0.094-0.056-0.143-0.073-0.208-0.073-0.049 0-0.161-0.026-0.253-0.056-0.096-0.032-0.206-0.056-0.261-0.056s-0.111-0.013-0.131-0.028c-0.047-0.036-0.094-0.036-0.193 0.002-0.105 0.041-0.159 0.024-0.199-0.058-0.056-0.118-0.266-0.176-0.367-0.105-0.077 0.056-0.214 0.069-0.319 0.032-0.045-0.017-0.112-0.030-0.15-0.030-0.081 0-0.114-0.026-0.114-0.090 0-0.036 0.008-0.041 0.038-0.034 0.021 0.006 0.052 0.015 0.071 0.021 0.049 0.013 0.234-0.024 0.251-0.053 0.019-0.032-0.006-0.051-0.090-0.062-0.039-0.006-0.112-0.026-0.161-0.047-0.107-0.043-0.221-0.045-0.298-0.006-0.032 0.015-0.079 0.026-0.107 0.022-0.041-0.004-0.052-0.017-0.060-0.071-0.009-0.062-0.013-0.066-0.088-0.071-0.060-0.004-0.086 0.004-0.111 0.030zM11.863 14.421c-0.006 0.006-0.022 0.008-0.036 0.002-0.015-0.006-0.009-0.011 0.011-0.011 0.021-0.002 0.032 0.004 0.024 0.009z"></path>
<path d="M11.934 6.928c-0.021 0.009-0.060 0.017-0.088 0.017-0.030 0.002-0.053 0.009-0.053 0.017 0 0.026 0.129 0.079 0.199 0.079 0.051 0 0.069-0.009 0.086-0.049 0.019-0.039 0.017-0.051-0.006-0.066-0.032-0.021-0.088-0.019-0.139 0.002z"></path>
<path d="M20.732 7.087c-0.073 0.073-0.023 0.126 0.156 0.169 0.077 0.017 0.165 0.045 0.193 0.060 0.068 0.034 0.107 0.021 0.107-0.038s-0.034-0.088-0.096-0.088c-0.034 0-0.071-0.021-0.107-0.058-0.068-0.073-0.203-0.098-0.253-0.045z"></path>
<path d="M18.396 7.408c-0.051 0.064-0.049 0.094 0.008 0.148 0.036 0.038 0.064 0.047 0.144 0.047 0.124 0 0.293-0.038 0.304-0.069 0.017-0.043-0.054-0.096-0.189-0.135-0.176-0.053-0.219-0.051-0.266 0.009z"></path>
<path d="M10.215 7.491c-0.139 0.049-0.24 0.109-0.24 0.144 0 0.051 0.152 0.021 0.236-0.047 0.041-0.030 0.092-0.062 0.116-0.069 0.041-0.011 0.049-0.049 0.011-0.060-0.009-0.002-0.064 0.011-0.124 0.032z"></path>
<path d="M10.249 7.605c-0.058 0.067-0.058 0.077-0.015 0.114 0.051 0.045 0.148 0.009 0.18-0.066 0.030-0.073 0.009-0.107-0.064-0.107-0.036 0-0.069 0.019-0.101 0.058z"></path>
<path d="M9.9 7.759l-0.103 0.039 0.084 0.024c0.137 0.041 0.262 0 0.232-0.077-0.015-0.039-0.084-0.036-0.214 0.013z"></path>
<path d="M9.609 7.845c-0.011 0.021 0.062 0.067 0.079 0.051 0.006-0.006 0.006-0.022 0-0.039-0.013-0.032-0.062-0.038-0.079-0.011z"></path>
<path d="M2.057 8.348c-0.007 0.006-0.013 0.032-0.013 0.054 0 0.030-0.013 0.047-0.041 0.053-0.024 0.006-0.067 0.015-0.099 0.021-0.030 0.006-0.075 0.017-0.099 0.022s-0.062 0.002-0.084-0.009c-0.045-0.021-0.195-0.043-0.332-0.047-0.077-0.004-0.084 0-0.090 0.043-0.015 0.144-0.054 0.178-0.12 0.103-0.043-0.051-0.152-0.094-0.193-0.077-0.017 0.006-0.028 0.034-0.028 0.066 0 0.049-0.013 0.062-0.092 0.103-0.051 0.024-0.097 0.041-0.103 0.036-0.006-0.008-0.011-0.039-0.011-0.073 0-0.099-0.032-0.158-0.103-0.188-0.122-0.051-0.172-0.053-0.227-0.009-0.028 0.021-0.077 0.039-0.109 0.039-0.064 0-0.094 0.015-0.223 0.111-0.099 0.073-0.107 0.099-0.047 0.141 0.058 0.041 0.077 0.037 0.144-0.019 0.043-0.036 0.086-0.051 0.171-0.058 0.129-0.013 0.169 0.009 0.169 0.090 0 0.041-0.013 0.060-0.056 0.082-0.051 0.026-0.077 0.026-0.21 0.008-0.141-0.022-0.152-0.022-0.176 0.011-0.051 0.069-0.019 0.141 0.062 0.141 0.056 0 0.135 0.039 0.182 0.090 0.026 0.030 0.030 0.054 0.021 0.111-0.009 0.058-0.004 0.079 0.023 0.103 0.051 0.043 0.163 0.053 0.279 0.022 0.139-0.036 0.154-0.034 0.279 0.022l0.105 0.049 0.116-0.043c0.112-0.043 0.135-0.045 0.673-0.047 0.437 0 0.563-0.006 0.587-0.026 0.049-0.039 0.084-0.124 0.084-0.193 0-0.084 0.060-0.158 0.163-0.202 0.043-0.019 0.083-0.045 0.083-0.058 0.009-0.103-0.036-0.161-0.131-0.169-0.058-0.006-0.071-0.015-0.086-0.066-0.011-0.034-0.041-0.082-0.066-0.109-0.047-0.049-0.082-0.053-0.172-0.019-0.021 0.008-0.051-0.009-0.092-0.054-0.056-0.064-0.107-0.084-0.135-0.054z"></path>
<path d="M4.275 9.75c0 0.041 0.067 0.161 0.096 0.169 0.039 0.013 0.124-0.024 0.137-0.060 0.015-0.036-0.054-0.099-0.105-0.099-0.024 0-0.062-0.006-0.084-0.011-0.024-0.007-0.043-0.006-0.043 0.002z"></path>
<path d="M5.854 10.335c-0.071 0.028-0.064 0.133 0.015 0.174 0.047 0.024 0.158-0.019 0.186-0.073 0.041-0.075-0.094-0.144-0.201-0.101z"></path>
<path d="M11.723 10.446c-0.028 0.019-0.041 0.045-0.037 0.069 0.004 0.034 0.019 0.041 0.069 0.041 0.077 0 0.116-0.047 0.084-0.099-0.028-0.043-0.066-0.049-0.116-0.011z"></path>
<path d="M5.415 10.832c-0.062 0.021-0.069 0.079-0.017 0.107 0.024 0.015 0.060 0.011 0.122-0.009 0.096-0.034 0.113-0.073 0.037-0.101-0.056-0.022-0.075-0.022-0.143 0.004z"></path>
<path d="M12.486 10.905l-0.062 0.058 0.045 0.036c0.088 0.068 0.244 0.030 0.244-0.060 0-0.028-0.097-0.092-0.141-0.092-0.013 0-0.052 0.026-0.086 0.058z"></path>
<path d="M12.703 11.063c-0.041 0.015-0.109 0.026-0.15 0.026-0.088 0.002-0.216 0.036-0.216 0.056 0 0.008 0.019 0.053 0.043 0.098 0.060 0.111 0.116 0.118 0.223 0.028 0.043-0.037 0.111-0.077 0.15-0.088 0.051-0.013 0.073-0.030 0.082-0.064 0.021-0.086-0.006-0.098-0.133-0.056z"></path>
<path d="M4.841 11.094c-0.011 0.011-0.023 0.047-0.023 0.075 0 0.073-0.054 0.12-0.182 0.158-0.060 0.017-0.116 0.036-0.127 0.041-0.021 0.011 0.019-0.041 0.071-0.094 0.032-0.034 0.041-0.099 0.021-0.154-0.032-0.082-0.253 0.006-0.317 0.126-0.034 0.064-0.036 0.073-0.009 0.12 0.021 0.038 0.047 0.054 0.088 0.058 0.056 0.006 0.058 0.009 0.043 0.053-0.043 0.111 0.002 0.189 0.088 0.156 0.058-0.021 0.099 0.006 0.099 0.066 0 0.023 0.026 0.062 0.060 0.088 0.060 0.049 0.060 0.051 0.041 0.156-0.022 0.124-0.011 0.143 0.088 0.129 0.084-0.011 0.129 0.015 0.129 0.081 0 0.023 0.009 0.049 0.019 0.054 0.039 0.024 0.017 0.088-0.056 0.158-0.079 0.073-0.096 0.139-0.045 0.159 0.088 0.034 0.259-0.009 0.328-0.084 0.062-0.067 0.082-0.049 0.099 0.096 0.011 0.090 0.024 0.112 0.097 0.18 0.101 0.094 0.113 0.169 0.034 0.231-0.099 0.079-0.225 0.088-0.322 0.024-0.069-0.045-0.086-0.006-0.098 0.217l-0.009 0.201-0.067 0.032c-0.088 0.041-0.152 0.122-0.144 0.182 0.006 0.049 0.007 0.049 0.246 0.064 0.281 0.017 0.337 0.034 0.328 0.094-0.006 0.037-0.019 0.043-0.131 0.052-0.097 0.008-0.143 0.023-0.204 0.066-0.043 0.030-0.112 0.077-0.156 0.105-0.082 0.054-0.217 0.21-0.217 0.251 0 0.069 0.161 0.049 0.255-0.034 0.051-0.045 0.075-0.054 0.116-0.043 0.163 0.041 0.18 0.038 0.285-0.064s0.139-0.112 0.225-0.068c0.067 0.036 0.126 0.024 0.255-0.049 0.094-0.053 0.103-0.054 0.381-0.054 0.304 0 0.379-0.015 0.471-0.101 0.026-0.024 0.064-0.054 0.084-0.066 0.034-0.021 0.032-0.023-0.021-0.013-0.069 0.011-0.139-0.030-0.139-0.082 0-0.037 0.058-0.084 0.188-0.15 0.047-0.023 0.090-0.052 0.098-0.064 0.021-0.030-0.002-0.182-0.036-0.232-0.022-0.037-0.038-0.043-0.098-0.032-0.099 0.017-0.173-0.041-0.158-0.128 0.007-0.052 0.002-0.066-0.034-0.081-0.028-0.013-0.049-0.045-0.062-0.103-0.019-0.073-0.028-0.082-0.077-0.088-0.062-0.008-0.107-0.049-0.092-0.088 0.017-0.043-0.028-0.101-0.105-0.141-0.041-0.021-0.111-0.062-0.154-0.092-0.075-0.051-0.081-0.062-0.081-0.141-0.002-0.079-0.009-0.096-0.098-0.184l-0.097-0.097-0.15 0.006c-0.214 0.006-0.304-0.062-0.161-0.122 0.037-0.015 0.077-0.049 0.088-0.075 0.011-0.024 0.043-0.051 0.069-0.056 0.137-0.028 0.157-0.062 0.182-0.309 0.011-0.118 0.009-0.127-0.032-0.156-0.043-0.026-0.056-0.024-0.195 0.019-0.18 0.056-0.302 0.054-0.296-0.002 0.002-0.021 0.021-0.051 0.043-0.066 0.066-0.045 0.131-0.109 0.131-0.129 0-0.039-0.060-0.079-0.101-0.064s-0.182 0.013-0.339-0.004c-0.062-0.008-0.101-0.004-0.118 0.013z"></path>
<path d="M11.503 11.355c-0.133 0.032-0.201 0.135-0.124 0.189 0.021 0.015 0.039 0.051 0.043 0.081 0.009 0.096 0.107 0.081 0.109-0.017 0-0.019 0.026-0.064 0.056-0.099 0.032-0.034 0.056-0.079 0.056-0.096 0-0.034-0.034-0.081-0.054-0.077-0.007 0.002-0.045 0.009-0.086 0.019z"></path>
<path d="M10.993 11.694c-0.034 0.047-0.064 0.208-0.043 0.229 0.037 0.038 0.118-0.028 0.144-0.12 0.030-0.101 0.021-0.131-0.037-0.131-0.026 0-0.054 0.011-0.064 0.022z"></path>
<path d="M4.468 11.797c-0.039 0.015-0.028 0.096 0.013 0.109 0.047 0.015 0.075-0.002 0.075-0.047 0-0.039-0.053-0.075-0.088-0.062z"></path>
<path d="M9.754 12.038c-0.036 0.039-0.056 0.047-0.154 0.047-0.103 0-0.113 0.004-0.124 0.047-0.017 0.066 0.002 0.099 0.069 0.137 0.032 0.017 0.088 0.051 0.124 0.075 0.037 0.024 0.075 0.039 0.084 0.037 0.009-0.004 0.034-0.049 0.053-0.099 0.017-0.053 0.043-0.12 0.058-0.154 0.022-0.053 0.021-0.064-0.011-0.098-0.043-0.051-0.051-0.049-0.099 0.008z"></path>
<path d="M4.492 12.069c-0.041 0.056-0.006 0.090 0.045 0.043 0.021-0.019 0.037-0.045 0.037-0.060 0-0.039-0.051-0.028-0.082 0.017z"></path>
<path d="M4.605 12.195c-0.015 0.023 0.039 0.064 0.064 0.049 0.015-0.009 0.015-0.021-0.002-0.039-0.024-0.030-0.047-0.034-0.062-0.009z"></path>
<path d="M3.986 12.315c-0.112 0.028-0.184 0.058-0.221 0.092-0.069 0.064-0.066 0.084 0.013 0.116 0.077 0.032 0.096 0.068 0.067 0.122-0.037 0.069-0.092 0.067-0.197-0.006-0.114-0.079-0.21-0.090-0.264-0.030-0.053 0.058-0.024 0.126 0.066 0.15 0.084 0.023 0.088 0.030 0.045 0.090-0.017 0.026-0.049 0.041-0.081 0.041-0.056 0-0.084 0.036-0.066 0.082 0.006 0.015 0.051 0.032 0.111 0.039 0.054 0.006 0.114 0.023 0.133 0.036 0.032 0.024 0.026 0.032-0.069 0.12-0.054 0.053-0.118 0.096-0.137 0.098-0.045 0-0.217 0.184-0.217 0.231 0 0.019 0.038 0.071 0.084 0.118 0.079 0.077 0.092 0.082 0.184 0.082 0.148 0 0.405-0.075 0.491-0.144 0.090-0.071 0.197-0.101 0.343-0.097 0.062 0.002 0.122-0.004 0.135-0.011 0.073-0.045 0.156-0.39 0.137-0.581-0.007-0.096-0.004-0.12 0.030-0.163 0.022-0.028 0.064-0.062 0.092-0.075s0.051-0.036 0.051-0.049c0-0.038-0.184-0.283-0.221-0.296-0.019-0.006-0.045 0-0.060 0.011-0.017 0.015-0.051 0.019-0.088 0.011-0.137-0.028-0.201-0.026-0.36 0.013z"></path>
<path d="M10.564 12.3c-0.013 0.034 0.022 0.084 0.060 0.084s0.067-0.064 0.041-0.090c-0.032-0.032-0.090-0.028-0.101 0.006z"></path>
<path d="M9.463 12.414c-0.008 0.008-0.013 0.028-0.013 0.043 0 0.043 0.204 0.092 0.227 0.054 0.030-0.047-0.028-0.099-0.118-0.105-0.045-0.004-0.088 0-0.096 0.008z"></path>
<path d="M9.124 17.021c-0.019 0.026-0.060 0.058-0.094 0.069-0.12 0.039-0.146 0.223-0.036 0.264 0.039 0.015 0.043 0.024 0.034 0.081-0.011 0.053-0.006 0.067 0.026 0.084 0.069 0.038 0.133-0.019 0.172-0.154 0.024-0.084-0.002-0.308-0.039-0.356l-0.032-0.039-0.032 0.051z"></path>
<path d="M9.094 17.685c-0.066 0.036-0.103 0.045-0.165 0.038-0.122-0.013-0.191 0.079-0.088 0.118 0.041 0.015 0.045 0.024 0.028 0.054-0.032 0.064-0.022 0.111 0.032 0.137 0.045 0.023 0.051 0.036 0.053 0.128 0.002 0.056-0.009 0.128-0.022 0.156-0.022 0.047-0.022 0.060 0.004 0.099 0.015 0.024 0.037 0.045 0.047 0.045s0.019 0.019 0.022 0.041c0.004 0.032 0.021 0.045 0.058 0.049 0.039 0.006 0.068-0.011 0.128-0.069 0.041-0.043 0.090-0.077 0.111-0.077 0.047 0 0.060-0.049 0.038-0.141-0.009-0.041-0.013-0.146-0.006-0.234 0.013-0.191-0.013-0.302-0.082-0.354-0.058-0.047-0.051-0.047-0.156 0.011z"></path>
<path d="M7.054 18.208c-0.022 0.015-0.041 0.039-0.041 0.054 0 0.030 0.135 0.103 0.193 0.103 0.084 0 0.124-0.073 0.079-0.143-0.022-0.036-0.045-0.045-0.109-0.045-0.043 0-0.099 0.013-0.122 0.030z"></path>
<path d="M6.671 18.435c-0.069 0.019-0.047 0.128 0.032 0.148 0.094 0.023 0.141-0.077 0.062-0.131-0.022-0.017-0.047-0.028-0.053-0.028-0.006 0.002-0.022 0.006-0.041 0.011z"></path>
<path d="M11.036 18.778c-0.075 0.049-0.191 0.060-0.311 0.034-0.12-0.024-0.429-0.021-0.463 0.008-0.013 0.011-0.024 0.052-0.024 0.092 0 0.081 0.051 0.148 0.113 0.148 0.019 0 0.066 0.024 0.099 0.056 0.066 0.058 0.114 0.071 0.135 0.038 0.022-0.038 0.064-0.017 0.069 0.032 0.004 0.043 0.015 0.053 0.054 0.053 0.032 0 0.066 0.019 0.092 0.051 0.028 0.037 0.058 0.052 0.099 0.052 0.034 0 0.096 0.017 0.141 0.038 0.066 0.030 0.088 0.032 0.127 0.015 0.092-0.041 0.082-0.165-0.017-0.193-0.086-0.026-0.090-0.086-0.006-0.178 0.075-0.082 0.081-0.118 0.041-0.216-0.032-0.075-0.068-0.081-0.15-0.028z"></path>
<path d="M13.117 18.853c-0.075 0.023-0.143 0.092-0.143 0.144 0 0.036 0.019 0.052 0.090 0.084 0.049 0.021 0.090 0.039 0.092 0.041s0.009 0.039 0.015 0.084c0.015 0.131 0.039 0.158 0.122 0.144 0.081-0.013 0.105 0.008 0.124 0.099 0.017 0.079 0.045 0.094 0.045 0.023 0-0.075 0.041-0.077 0.111-0.002 0.028 0.032 0.056 0.051 0.064 0.045 0.019-0.021-0.008-0.236-0.037-0.294-0.036-0.071-0.021-0.105 0.039-0.094 0.064 0.013 0.064-0.019 0-0.105-0.069-0.092-0.099-0.114-0.161-0.114-0.030 0-0.086-0.017-0.128-0.037-0.077-0.039-0.143-0.045-0.232-0.019z"></path>
<path d="M14.044 18.87c0 0.026 0.021 0.047 0.062 0.064 0.032 0.015 0.071 0.039 0.086 0.058 0.019 0.023 0.032 0.024 0.051 0.009 0.037-0.032 0.004-0.094-0.069-0.12-0.036-0.013-0.079-0.030-0.096-0.038-0.026-0.009-0.034-0.004-0.034 0.026z"></path>
<path d="M14.1 19.292c-0.086 0.032-0.088 0.079-0.004 0.073 0.064-0.002 0.143-0.054 0.124-0.083-0.013-0.023-0.039-0.019-0.12 0.009z"></path>
<path d="M14.357 19.485c-0.023 0.021 0.026 0.062 0.073 0.062 0.060 0 0.058-0.034-0.004-0.056-0.056-0.023-0.054-0.023-0.069-0.006z"></path>
<path d="M13.83 19.777c-0.039 0.028-0.045 0.113-0.011 0.152 0.011 0.015 0.062 0.034 0.109 0.039 0.152 0.021 0.234 0.049 0.322 0.103 0.101 0.064 0.308 0.107 0.349 0.073 0.056-0.047 0.008-0.219-0.073-0.255-0.023-0.011-0.124-0.015-0.229-0.011-0.188 0.009-0.188 0.009-0.261-0.049-0.039-0.032-0.084-0.058-0.097-0.058s-0.034-0.004-0.049-0.009c-0.013-0.006-0.041 0.002-0.060 0.015z"></path>
</svg>
