<!-- Generated by IcoMoon.io -->
<svg version="1.1" xmlns="http://www.w3.org/2000/svg" width="24" height="24" viewBox="0 0 24 24">
<path d="M0.216 3.919c0.006 0.009 0.024 0.019 0.039 0.019s0.022-0.009 0.017-0.019c-0.006-0.011-0.024-0.019-0.039-0.019s-0.022 0.007-0.017 0.019z"></path>
<path d="M0.161 3.964c0.006 0.017 0.021 0.030 0.030 0.030 0.024 0 0.009-0.043-0.019-0.053-0.013-0.004-0.019 0.004-0.011 0.022z"></path>
<path d="M0.234 3.994c-0.030 0.032-0.032 0.047-0.013 0.109 0.011 0.037 0.043 0.099 0.069 0.133 0.069 0.096 0.287 0.283 0.328 0.283 0.021 0 0.060 0.030 0.088 0.067 0.028 0.039 0.079 0.099 0.112 0.137 0.032 0.037 0.062 0.092 0.066 0.122 0.006 0.056 0.013 0.062 0.137 0.113 0.113 0.047 0.161 0.092 0.169 0.154 0.004 0.030 0.032 0.126 0.064 0.212 0.051 0.143 0.064 0.161 0.122 0.186 0.039 0.015 0.073 0.045 0.086 0.079 0.011 0.028 0.047 0.077 0.079 0.105 0.030 0.030 0.077 0.096 0.101 0.148 0.024 0.051 0.066 0.131 0.092 0.178s0.047 0.103 0.047 0.127c0 0.047 0.086 0.158 0.272 0.351 0.062 0.066 0.131 0.143 0.154 0.173s0.124 0.111 0.225 0.178c0.103 0.068 0.217 0.163 0.257 0.21 0.098 0.118 0.122 0.142 0.154 0.142 0.022 0 0.022-0.007-0.002-0.056-0.034-0.066-0.021-0.069 0.056-0.019 0.075 0.051 0.103 0.047 0.103-0.011v-0.049l0.056 0.060c0.030 0.032 0.066 0.056 0.079 0.053 0.032-0.011 0.051-0.15 0.049-0.354 0-0.090 0.006-0.173 0.011-0.184 0.008-0.011 0.004-0.038-0.007-0.058-0.017-0.030-0.013-0.049 0.019-0.092 0.049-0.071 0.047-0.103-0.007-0.139-0.023-0.017-0.056-0.058-0.073-0.094-0.028-0.058-0.041-0.066-0.126-0.077-0.053-0.007-0.105-0.006-0.118 0.002-0.015 0.008-0.013 0.002 0.004-0.019 0.022-0.028 0.017-0.037-0.034-0.086-0.039-0.038-0.058-0.071-0.058-0.111 0-0.032-0.007-0.079-0.019-0.105-0.015-0.043-0.028-0.049-0.101-0.049-0.060 0-0.097-0.011-0.131-0.043-0.047-0.039-0.047-0.043-0.015-0.081 0.019-0.021 0.045-0.043 0.060-0.049 0.022-0.009 0.021-0.013-0.007-0.026-0.024-0.009-0.039-0.006-0.045 0.008-0.009 0.032-0.036 0.028-0.036-0.006 0-0.015 0.024-0.038 0.054-0.051 0.060-0.028 0.067-0.071 0.019-0.112-0.054-0.047-0.098-0.054-0.159-0.021-0.054 0.028-0.058 0.028-0.036 0 0.030-0.036 0.017-0.066-0.041-0.088-0.030-0.013-0.032-0.017-0.007-0.017 0.019-0.002 0.049 0.015 0.069 0.038 0.021 0.024 0.045 0.034 0.060 0.026 0.017-0.011 0.013-0.022-0.011-0.039-0.019-0.015-0.028-0.032-0.022-0.039 0.021-0.019-0.064-0.099-0.103-0.099-0.019 0-0.034 0.007-0.034 0.019 0 0.009 0.007 0.019 0.015 0.019 0.009 0 0.032 0.013 0.052 0.028 0.034 0.026 0.032 0.026-0.021 0.007-0.030-0.009-0.062-0.028-0.067-0.039-0.021-0.034-0.079 0-0.066 0.037 0.009 0.026 0.006 0.026-0.017-0.004-0.015-0.021-0.028-0.047-0.028-0.060 0-0.051-0.096-0.139-0.15-0.139-0.030 0-0.058-0.007-0.064-0.015-0.004-0.007 0.015-0.015 0.041-0.013 0.039 0 0.053-0.009 0.056-0.043 0.007-0.053-0.043-0.075-0.086-0.036-0.030 0.028-0.036 0.026-0.069-0.026-0.045-0.066-0.112-0.069-0.111-0.004 0 0.037-0.002 0.039-0.043 0.009-0.024-0.019-0.062-0.064-0.083-0.103-0.019-0.037-0.049-0.069-0.064-0.069s-0.028-0.013-0.028-0.028c0-0.028-0.156-0.156-0.287-0.232-0.041-0.024-0.092-0.062-0.111-0.081s-0.041-0.034-0.051-0.034c-0.009 0-0.022-0.024-0.030-0.056-0.008-0.030-0.028-0.060-0.049-0.066-0.019-0.007-0.036-0.026-0.036-0.045 0-0.017-0.028-0.060-0.064-0.094-0.062-0.060-0.068-0.062-0.251-0.066-0.174-0.004-0.193-0.008-0.279-0.064-0.109-0.071-0.12-0.071-0.165-0.023zM2.325 5.475c-0.015 0.009-0.045 0.017-0.066 0.017-0.030-0.002-0.030-0.004 0.009-0.017 0.066-0.021 0.090-0.021 0.056 0z"></path>
<path d="M8.951 4.301c-0.006 0.015-0.007 0.039-0.002 0.053 0.004 0.013-0.004 0.037-0.019 0.054-0.022 0.026-0.021 0.036 0.011 0.075 0.021 0.026 0.043 0.037 0.053 0.028 0.008-0.009 0.004-0.021-0.008-0.024-0.034-0.011-0.030-0.053 0.004-0.081 0.036-0.030 0.036-0.083 0-0.113-0.022-0.019-0.030-0.017-0.039 0.008z"></path>
<path d="M5.897 4.374c-0.013 0.022-0.030 0.083-0.037 0.135-0.019 0.157-0.026 0.176-0.081 0.201-0.053 0.026-0.084 0.128-0.039 0.128 0.011 0-0.006 0.019-0.041 0.043-0.041 0.028-0.062 0.056-0.058 0.079 0.004 0.019-0.008 0.066-0.024 0.103-0.028 0.060-0.036 0.066-0.094 0.060-0.036-0.004-0.090 0.006-0.124 0.022-0.079 0.039-0.103 0.037-0.18-0.009-0.098-0.062-0.306-0.041-0.306 0.028 0 0.045-0.073 0.073-0.225 0.088-0.077 0.007-0.163 0.019-0.191 0.026-0.045 0.011-0.066 0-0.165-0.094-0.075-0.073-0.112-0.124-0.112-0.154 0-0.022-0.011-0.043-0.024-0.043-0.051 0-0.176 0.169-0.154 0.204 0.006 0.009-0.002 0.021-0.013 0.026-0.036 0.011-0.028 0.212 0.009 0.253 0.037 0.045 0.056 0.111 0.032 0.126-0.028 0.017-0.023 0.077 0.007 0.103 0.015 0.011 0.030 0.039 0.034 0.062 0.004 0.028 0.017 0.039 0.039 0.036 0.030-0.006 0.032 0 0.013 0.034-0.036 0.067 0.015 0.101 0.075 0.047 0.028-0.026 0.036-0.024 0.066 0.009 0.032 0.036 0.032 0.043 0.006 0.101-0.023 0.047-0.026 0.067-0.009 0.084 0.026 0.026 0.067 0.18 0.069 0.253 0 0.047 0.006 0.053 0.047 0.045 0.026-0.006 0.053-0.002 0.058 0.007s0.023 0.013 0.038 0.008c0.015-0.006 0.026-0.002 0.026 0.009s0.007 0.015 0.017 0.009c0.009-0.008 0.067-0.019 0.129-0.026 0.111-0.015 0.114-0.015 0.126 0.030 0.006 0.024 0.006 0.060 0 0.079-0.017 0.054 0.022 0.062 0.086 0.017 0.043-0.030 0.062-0.036 0.079-0.019 0.036 0.036 0.088 0.022 0.143-0.036 0.045-0.051 0.054-0.054 0.077-0.028 0.013 0.015 0.041 0.028 0.064 0.028s0.051 0.017 0.062 0.036c0.021 0.032 0.032 0.034 0.090 0.015 0.092-0.028 0.165 0.024 0.178 0.129 0.006 0.039 0.019 0.073 0.028 0.073 0.011 0 0.090-0.032 0.178-0.071 0.127-0.056 0.165-0.082 0.186-0.128 0.013-0.032 0.030-0.053 0.036-0.045 0.006 0.006 0 0.021-0.011 0.032-0.032 0.032-0.030 0.184 0.002 0.184 0.038 0 0.069-0.041 0.069-0.090 0-0.024 0.008-0.038 0.019-0.032 0.011 0.008 0.019-0.009 0.019-0.038 0-0.026-0.008-0.045-0.015-0.039-0.009 0.006-0.028-0.011-0.043-0.037-0.022-0.043-0.021-0.051 0.007-0.066 0.017-0.011 0.032-0.039 0.032-0.064 0-0.026 0.007-0.047 0.015-0.047 0.022 0 0.056-0.079 0.047-0.109-0.006-0.011-0.022-0.022-0.037-0.022-0.024 0-0.024-0.006-0.006-0.028 0.017-0.021 0.019-0.034 0.002-0.053-0.015-0.021-0.007-0.038 0.034-0.081 0.032-0.032 0.049-0.066 0.043-0.083-0.009-0.024-0.006-0.024 0.021-0.004 0.026 0.022 0.036 0.019 0.073-0.024 0.024-0.028 0.069-0.060 0.099-0.073 0.041-0.019 0.056-0.037 0.058-0.073 0.002-0.034-0.006-0.051-0.024-0.051-0.024 0-0.028-0.017-0.017-0.086 0.015-0.114 0.077-0.251 0.112-0.251 0.017 0 0.030-0.008 0.030-0.019s0.017-0.011 0.049 0c0.073 0.028 0.188 0.022 0.216-0.011 0.021-0.026 0.015-0.037-0.039-0.084-0.036-0.030-0.105-0.081-0.154-0.114-0.086-0.058-0.112-0.111-0.071-0.137 0.011-0.006 0.019-0.026 0.019-0.043 0-0.043-0.146-0.247-0.178-0.247-0.015 0-0.022-0.022-0.021-0.062 0.002-0.053 0.009-0.062 0.066-0.069 0.084-0.013 0.096-0.053 0.022-0.077-0.062-0.023-0.075-0.049-0.030-0.066 0.015-0.007 0.024-0.019 0.019-0.028-0.006-0.008-0.022-0.011-0.036-0.006-0.015 0.006-0.032 0-0.039-0.011-0.008-0.013-0.090-0.019-0.227-0.017-0.199 0.002-0.218 0.006-0.242 0.041z"></path>
<path d="M6.454 4.397c-0.024 0.013-0.038 0.028-0.028 0.034 0.022 0.015 0.099-0.006 0.099-0.026 0-0.026-0.028-0.030-0.071-0.008z"></path>
<path d="M8.663 4.526c0 0.047 0.022 0.086 0.049 0.086 0.032 0 0.034-0.026 0.008-0.077-0.022-0.041-0.056-0.047-0.056-0.009z"></path>
<path d="M6.478 4.575c0.006 0.009 0.021 0.019 0.030 0.019 0.011 0 0.013-0.009 0.007-0.019-0.006-0.011-0.021-0.019-0.030-0.019-0.011 0-0.013 0.007-0.007 0.019z"></path>
<path d="M6.407 4.586c-0.015 0.015 0.002 0.045 0.026 0.045 0.009 0 0.017-0.013 0.017-0.028 0-0.028-0.022-0.037-0.043-0.017z"></path>
<path d="M0.351 4.738c-0.026 0.024-0.011 0.045 0.075 0.099 0.096 0.062 0.161 0.075 0.144 0.028-0.008-0.015-0.019-0.028-0.026-0.028-0.009 0-0.041-0.026-0.071-0.056-0.056-0.054-0.098-0.069-0.122-0.043z"></path>
<path d="M8.58 4.779c-0.008 0.009-0.004 0.022 0.006 0.028 0.009 0.008 0.022 0.004 0.028-0.006 0.008-0.009 0.004-0.022-0.006-0.028-0.009-0.008-0.022-0.004-0.028 0.006z"></path>
<path d="M9.409 4.836c-0.013 0.022-0.036 0.039-0.049 0.039-0.015 0-0.021 0.011-0.015 0.022 0.006 0.013 0.017 0.039 0.022 0.056 0.030 0.083 0.148-0.007 0.135-0.101-0.007-0.056-0.062-0.066-0.094-0.017z"></path>
<path d="M8.578 4.894c0.006 0.009 0.015 0.019 0.021 0.019 0.004 0 0.008-0.009 0.008-0.019 0-0.011-0.009-0.019-0.021-0.019-0.009 0-0.013 0.008-0.008 0.019z"></path>
<path d="M6.686 4.922c0.008 0.015 0.015 0.028 0.019 0.028s0.007-0.013 0.007-0.028c0-0.015-0.007-0.028-0.019-0.028-0.009 0-0.013 0.013-0.008 0.028z"></path>
<path d="M0.737 4.95c-0.004 0.041 0.009 0.047 0.051 0.019 0.024-0.017 0.024-0.021 0-0.037-0.039-0.026-0.049-0.023-0.051 0.019z"></path>
<path d="M0.591 4.95c0.006 0.009 0.019 0.019 0.030 0.019 0.009 0 0.017-0.009 0.017-0.019 0-0.011-0.013-0.019-0.030-0.019-0.015 0-0.022 0.007-0.017 0.019z"></path>
<path d="M9.236 4.974c-0.060 0.060-0.116 0.253-0.086 0.3 0.015 0.026 0.015 0.041-0.002 0.062-0.019 0.023-0.015 0.032 0.011 0.053 0.021 0.015 0.037 0.060 0.045 0.128 0.009 0.088 0.022 0.118 0.090 0.191 0.111 0.12 0.163 0.116 0.073-0.006-0.056-0.077-0.067-0.107-0.067-0.188 0-0.053 0.002-0.096 0.006-0.096 0.002 0 0.058 0.017 0.126 0.038s0.124 0.037 0.126 0.037c0.002 0-0.011-0.024-0.028-0.056-0.017-0.030-0.056-0.066-0.086-0.079l-0.054-0.022 0.060-0.049c0.077-0.066 0.105-0.188 0.043-0.188-0.049 0-0.135 0.037-0.135 0.060 0 0.008 0 0.019 0 0.024-0.002 0.017-0.098 0.105-0.107 0.098-0.004-0.006 0.013-0.041 0.041-0.079 0.054-0.081 0.060-0.131 0.017-0.148-0.026-0.009-0.026-0.015 0-0.053 0.017-0.022 0.030-0.049 0.030-0.056 0-0.030-0.060-0.013-0.101 0.028z"></path>
<path d="M1.106 5.081c0 0.009 0.013 0.019 0.030 0.019 0.015 0 0.023-0.009 0.017-0.019-0.006-0.011-0.019-0.019-0.030-0.019-0.009 0-0.017 0.008-0.017 0.019z"></path>
<path d="M8.422 5.109c-0.022 0.026-0.049 0.047-0.060 0.047-0.009 0-0.019 0.011-0.019 0.024 0 0.015-0.045 0.049-0.099 0.075-0.084 0.043-0.107 0.049-0.163 0.032-0.036-0.011-0.103-0.013-0.15-0.007s-0.109 0.002-0.137-0.009c-0.028-0.011-0.098-0.024-0.154-0.032-0.054-0.006-0.131-0.026-0.171-0.047-0.092-0.045-0.141-0.045-0.152 0.002-0.006 0.021-0.022 0.037-0.036 0.037-0.015 0-0.026 0.017-0.026 0.038s-0.011 0.037-0.024 0.037c-0.039 0-0.053-0.022-0.030-0.051 0.011-0.013 0.015-0.024 0.007-0.024-0.021 0-0.122 0.118-0.122 0.143 0 0.013-0.013 0.028-0.028 0.034-0.021 0.008-0.030 0.036-0.028 0.090 0.002 0.157-0.009 0.21-0.053 0.253-0.064 0.064-0.101 0.165-0.086 0.24 0.008 0.043 0.002 0.077-0.019 0.107-0.017 0.022-0.030 0.056-0.030 0.075 0 0.017-0.028 0.058-0.060 0.090-0.043 0.039-0.054 0.062-0.039 0.071 0.011 0.008 0.024 0.056 0.028 0.107l0.006 0.094 0.081-0.006c0.069-0.006 0.079-0.002 0.079 0.034 0 0.022 0.009 0.058 0.021 0.079 0.017 0.030 0.015 0.073-0.002 0.173-0.013 0.073-0.032 0.141-0.041 0.15-0.026 0.032-0.017 0.086 0.022 0.12 0.028 0.022 0.071 0.032 0.156 0.032h0.114l0.002 0.107c0 0.060 0.009 0.111 0.019 0.113 0.036 0.009 0.030-0.124-0.009-0.251-0.022-0.069-0.034-0.137-0.026-0.15 0.009-0.013 0.017-0.126 0.021-0.249 0.004-0.171-0.002-0.234-0.022-0.266-0.037-0.056-0.037-0.056 0.047-0.099 0.113-0.058 0.131-0.051 0.131 0.045 0 0.047-0.008 0.090-0.019 0.096-0.054 0.034-0.002 0.111 0.131 0.199 0.043 0.028 0.043 0.036 0.024 0.099-0.019 0.062-0.017 0.075 0.015 0.107 0.037 0.038 0.103 0.047 0.146 0.019 0.013-0.009 0.021-0.026 0.013-0.036-0.017-0.028 0.056-0.064 0.131-0.064 0.043 0 0.071-0.011 0.082-0.034 0.011-0.019 0.038-0.038 0.060-0.041s0.043-0.015 0.047-0.026c0.011-0.032-0.047-0.049-0.088-0.026-0.026 0.015-0.049 0.006-0.107-0.043-0.073-0.060-0.079-0.077-0.038-0.159 0.015-0.030 0.015-0.047 0.002-0.056-0.011-0.008-0.024-0.022-0.028-0.036-0.015-0.043-0.227-0.268-0.253-0.268-0.015 0-0.026-0.009-0.026-0.019 0-0.024 0.024-0.024 0.051 0.002 0.017 0.017 0.036 0.009 0.079-0.026 0.032-0.026 0.077-0.054 0.099-0.062 0.024-0.006 0.086-0.053 0.141-0.103 0.099-0.094 0.128-0.109 0.141-0.069 0.009 0.028 0.069 0.006 0.082-0.032 0.019-0.049-0.028-0.084-0.116-0.084-0.043 0-0.086 0.007-0.092 0.019-0.006 0.009-0.039 0.019-0.073 0.019-0.036 0-0.073 0.013-0.086 0.028-0.028 0.034-0.124 0.037-0.137 0.004-0.006-0.013-0.041 0.011-0.096 0.066-0.088 0.092-0.18 0.124-0.18 0.062 0-0.017-0.038-0.066-0.084-0.111-0.094-0.092-0.105-0.148-0.058-0.264 0.038-0.088 0.101-0.126 0.174-0.105 0.032 0.009 0.188 0.013 0.343 0.008 0.249-0.008 0.289-0.004 0.321 0.024 0.028 0.026 0.056 0.030 0.158 0.019 0.169-0.017 0.195-0.030 0.291-0.154 0.047-0.058 0.099-0.122 0.118-0.143 0.034-0.036 0.034-0.039 0.002-0.073-0.043-0.047-0.067-0.045-0.116 0.011z"></path>
<path d="M2.1 5.094c0 0.026 0.058 0.073 0.109 0.088 0.047 0.015 0.058-0.026 0.017-0.060-0.034-0.028-0.126-0.049-0.126-0.028z"></path>
<path d="M0.765 5.132c-0.019 0.004-0.034 0.013-0.034 0.019s0.037 0.056 0.083 0.112c0.047 0.054 0.086 0.111 0.092 0.124 0.013 0.039 0.069-0.024 0.069-0.079 0-0.034-0.024-0.073-0.071-0.12-0.071-0.069-0.079-0.073-0.139-0.056z"></path>
<path d="M8.85 5.177c0 0.009 0.009 0.013 0.019 0.007 0.011-0.006 0.019-0.015 0.019-0.021 0-0.004-0.008-0.008-0.019-0.008-0.009 0-0.019 0.009-0.019 0.021z"></path>
<path d="M2.618 5.244c-0.017 0.041-0.015 0.043 0.026 0.043 0.021 0 0.038 0.011 0.038 0.026 0 0.013 0.013 0.036 0.028 0.049 0.024 0.019 0.028 0.017 0.028-0.023 0-0.024-0.011-0.056-0.022-0.071-0.013-0.015-0.004-0.011 0.022 0.009s0.052 0.045 0.062 0.056c0.007 0.011 0.021 0.007 0.032-0.009 0.045-0.071 0.006-0.109-0.116-0.109-0.060 0-0.090 0.008-0.097 0.028z"></path>
<path d="M2.456 5.25c0 0.009 0.013 0.019 0.030 0.019 0.015 0 0.022-0.009 0.017-0.019-0.006-0.011-0.019-0.019-0.030-0.019-0.009 0-0.017 0.008-0.017 0.019z"></path>
<path d="M3.619 5.269c0 0.009 0.009 0.019 0.019 0.019 0.011 0 0.019-0.009 0.019-0.019 0-0.011-0.008-0.019-0.019-0.019-0.009 0-0.019 0.008-0.019 0.019z"></path>
<path d="M2.469 5.299c-0.015 0.017 0.021 0.083 0.045 0.083 0.011 0 0.017-0.019 0.013-0.041-0.006-0.041-0.036-0.064-0.058-0.041z"></path>
<path d="M2.563 5.301c-0.026 0.024-0.011 0.039 0.034 0.036 0.053-0.002 0.062-0.021 0.017-0.037-0.036-0.013-0.036-0.013-0.051 0.002z"></path>
<path d="M9.103 5.306c-0.006 0.009-0.002 0.019 0.008 0.019 0.011 0 0.021-0.009 0.021-0.019 0-0.011-0.004-0.019-0.008-0.019-0.006 0-0.015 0.008-0.021 0.019z"></path>
<path d="M10.163 5.393c0 0.015 0.009 0.023 0.019 0.017 0.011-0.006 0.019-0.019 0.019-0.030 0-0.009-0.008-0.017-0.019-0.017-0.009 0-0.019 0.013-0.019 0.030z"></path>
<path d="M10.106 5.419c0 0.009 0.009 0.019 0.021 0.019 0.009 0 0.013-0.009 0.007-0.019-0.006-0.011-0.015-0.019-0.021-0.019-0.004 0-0.008 0.007-0.008 0.019z"></path>
<path d="M2.749 5.46c0.009 0.013 0.019 0.054 0.021 0.092 0.006 0.058 0 0.073-0.032 0.083-0.045 0.015-0.047 0.034-0.009 0.066 0.043 0.036 0.094 0.015 0.088-0.036-0.004-0.037 0.002-0.041 0.043-0.032 0.041 0.011 0.047 0.006 0.043-0.036-0.004-0.030-0.013-0.045-0.028-0.039-0.013 0.006-0.024 0-0.024-0.015 0-0.013-0.021-0.041-0.047-0.064-0.052-0.045-0.075-0.053-0.054-0.019z"></path>
<path d="M9.113 5.456c0 0.009 0.009 0.019 0.019 0.019 0.011 0 0.019-0.009 0.019-0.019 0-0.011-0.007-0.019-0.019-0.019-0.009 0-0.019 0.008-0.019 0.019z"></path>
<path d="M1.153 5.512c0.052 0.023 0.088 0.023 0.075 0-0.006-0.011-0.034-0.019-0.062-0.017-0.045 0-0.047 0.002-0.013 0.017z"></path>
<path d="M9.139 5.514c-0.006 0.011-0.002 0.030 0.009 0.041 0.015 0.015 0.021 0.009 0.021-0.021 0-0.045-0.009-0.053-0.030-0.021z"></path>
<path d="M1.069 5.556c0 0.028 0.069 0.099 0.084 0.086 0.013-0.013-0.036-0.097-0.060-0.107-0.013-0.004-0.024 0.006-0.024 0.021z"></path>
<path d="M6.975 5.55c0 0.009 0.009 0.019 0.019 0.019 0.011 0 0.019-0.009 0.019-0.019 0-0.011-0.008-0.019-0.019-0.019-0.009 0-0.019 0.008-0.019 0.019z"></path>
<path d="M9.69 5.572c0.022 0.022 0.047 0.034 0.054 0.026s-0.002-0.026-0.021-0.041c-0.058-0.041-0.081-0.032-0.034 0.015z"></path>
<path d="M10.059 5.548c-0.021 0.006-0.054 0.022-0.075 0.034-0.034 0.022-0.036 0.026-0.006 0.043 0.017 0.011 0.028 0.032 0.022 0.047-0.015 0.039 0.034 0.036 0.077-0.006 0.022-0.021 0.056-0.030 0.096-0.026 0.071 0.009 0.094-0.019 0.049-0.056-0.039-0.036-0.114-0.053-0.163-0.036z"></path>
<path d="M7.528 5.588c0.006 0.009 0.015 0.019 0.021 0.019 0.004 0 0.007-0.009 0.007-0.019 0-0.011-0.009-0.019-0.021-0.019-0.009 0-0.013 0.008-0.008 0.019z"></path>
<path d="M7.688 5.606c0 0.009 0.013 0.019 0.030 0.019 0.015 0 0.022-0.009 0.017-0.019-0.006-0.011-0.019-0.019-0.030-0.019-0.009 0-0.017 0.007-0.017 0.019z"></path>
<path d="M7.616 5.638c-0.011 0.019-0.024 0.032-0.030 0.028-0.024-0.009-0.049-0.002-0.049 0.015 0 0.009 0.011 0.019 0.024 0.019 0.041 0 0.126-0.045 0.12-0.064-0.011-0.034-0.047-0.032-0.066 0.002z"></path>
<path d="M9.051 5.619c-0.006 0.009-0.002 0.030 0.004 0.049 0.011 0.032 0.015 0.032 0.038 0.006 0.013-0.015 0.019-0.037 0.011-0.049-0.013-0.022-0.041-0.024-0.053-0.006z"></path>
<path d="M1.076 5.653c-0.011 0.030 0.017 0.064 0.054 0.066 0.024 0 0.015-0.051-0.015-0.075-0.022-0.019-0.030-0.017-0.039 0.009z"></path>
<path d="M9.131 5.678c0 0.034-0.009 0.054-0.023 0.053-0.013 0-0.026 0.006-0.030 0.017-0.002 0.009 0.015 0.019 0.038 0.021 0.024 0.002 0.069 0.008 0.103 0.015 0.066 0.015 0.111-0.022 0.047-0.039-0.024-0.006-0.041-0.028-0.045-0.060-0.004-0.034-0.019-0.051-0.047-0.054-0.036-0.006-0.043 0.002-0.043 0.049z"></path>
<path d="M10.472 5.651c-0.032 0.013-0.068 0.037-0.081 0.054-0.015 0.017-0.064 0.036-0.109 0.043-0.075 0.011-0.082 0.017-0.082 0.066 0 0.028-0.008 0.058-0.019 0.064-0.011 0.007-0.017-0.008-0.013-0.032 0.002-0.032-0.007-0.045-0.036-0.049-0.045-0.006-0.088 0.036-0.073 0.073 0.019 0.047 0.131 0.107 0.182 0.098 0.056-0.011 0.146 0.041 0.146 0.082 0 0.015 0.022 0.051 0.053 0.079 0.051 0.053 0.054 0.053 0.248 0.047 0.225-0.008 0.276 0 0.242 0.041-0.011 0.013-0.028 0.021-0.037 0.015s-0.053-0.013-0.094-0.017c-0.062-0.007-0.084 0-0.116 0.036-0.036 0.038-0.054 0.043-0.135 0.036-0.053-0.004-0.105 0-0.118 0.009-0.034 0.024-0.008 0.079 0.041 0.079 0.056 0.002 0.208 0.142 0.174 0.163-0.019 0.011-0.021 0.030-0.009 0.075 0.028 0.105 0.135 0.098 0.193-0.013 0.017-0.032 0.032-0.056 0.034-0.056 0.019 0 0.154 0.079 0.154 0.090 0 0.007 0.036 0.011 0.081 0.011 0.062-0.002 0.075 0.002 0.060 0.021-0.039 0.047 0.092 0.122 0.214 0.122 0.060 0 0.143 0.024 0.262 0.075 0.096 0.041 0.182 0.075 0.191 0.075 0.009-0.002 0.073 0.026 0.143 0.060 0.082 0.041 0.126 0.073 0.126 0.094 0.002 0.019 0.011 0.034 0.023 0.034 0.009 0 0.013 0.007 0.008 0.019-0.006 0.009-0.004 0.019 0.008 0.019 0.009 0 0.023 0.026 0.030 0.056 0.015 0.069 0.090 0.161 0.169 0.208l0.056 0.036h-0.060c-0.047 0-0.058-0.007-0.051-0.028 0.008-0.015 0.004-0.028-0.006-0.028-0.032 0-0.024 0.092 0.009 0.111 0.024 0.015 0.026 0.019 0.004 0.021-0.019 0-0.008 0.017 0.028 0.049 0.054 0.045 0.054 0.047 0.004 0.015-0.049-0.030-0.056-0.030-0.137 0.002-0.068 0.026-0.094 0.051-0.139 0.128-0.082 0.142-0.077 0.156 0.056 0.154 0.082 0 0.116-0.007 0.124-0.028 0.006-0.015 0.032-0.047 0.060-0.067l0.051-0.039 0.002 0.045c0.004 0.034-0.004 0.041-0.030 0.034-0.017-0.006-0.043 0.002-0.056 0.019-0.021 0.024-0.015 0.028 0.036 0.028 0.032 0 0.058-0.008 0.058-0.017 0-0.022 0.066-0.039 0.172-0.047 0.049-0.004 0.103-0.017 0.118-0.030 0.024-0.021 0.028-0.019 0.024 0.013-0.004 0.024 0.039 0.079 0.137 0.171l0.144 0.135h0.182c0.099 0 0.195 0.008 0.214 0.019 0.053 0.028 0.264-0.071 0.264-0.122 0-0.022-0.011-0.051-0.023-0.064-0.015-0.015-0.002-0.013 0.037 0.006 0.036 0.019 0.060 0.022 0.060 0.011s-0.013-0.024-0.032-0.032c-0.026-0.009-0.024-0.015 0.011-0.028 0.023-0.007 0.036-0.022 0.030-0.034-0.021-0.034 0.011-0.094 0.049-0.094 0.041 0 0.043-0.008 0.017-0.058-0.019-0.034-0.017-0.034 0.030-0.013 0.039 0.019 0.053 0.019 0.058 0.002 0.006-0.013 0.021-0.017 0.036-0.011s0.026 0 0.026-0.009c0-0.011 0.036-0.006 0.082 0.015 0.045 0.021 0.139 0.049 0.21 0.064 0.139 0.030 0.144 0.034 0.249 0.206 0.034 0.058 0.073 0.105 0.084 0.105s0.032 0.024 0.043 0.056c0.011 0.030 0.043 0.064 0.069 0.073 0.026 0.011 0.062 0.041 0.081 0.069 0.038 0.058 0.133 0.103 0.188 0.090 0.023-0.006 0.045-0.002 0.051 0.009 0.008 0.011 0.058 0.021 0.111 0.021 0.141 0.002 0.443 0.071 0.33 0.077-0.015 0-0.011 0.007 0.011 0.017 0.056 0.024 0.186 0.022 0.212-0.004 0.017-0.017 0.023-0.017 0.023 0 0 0.013 0.009 0.022 0.019 0.022 0.039 0 0.015-0.036-0.037-0.054-0.056-0.019-0.077-0.043-0.032-0.037 0.047 0.006 0.088-0.002 0.088-0.019 0-0.009-0.039-0.021-0.088-0.024-0.152-0.015-0.3-0.109-0.173-0.109 0.079 0 0.021-0.047-0.069-0.056-0.143-0.015-0.15-0.026-0.105-0.148 0.008-0.022-0.011-0.024-0.105-0.015-0.103 0.008-0.116 0.006-0.116-0.024 0-0.017-0.017-0.054-0.037-0.081s-0.043-0.073-0.049-0.107c-0.009-0.045-0.024-0.060-0.068-0.069-0.030-0.006-0.062-0.026-0.071-0.043-0.009-0.019-0.047-0.053-0.084-0.075-0.039-0.024-0.071-0.062-0.082-0.099-0.009-0.034-0.023-0.075-0.030-0.094-0.013-0.032-0.008-0.034 0.086-0.022 0.172 0.021 0.21-0.047 0.098-0.178-0.032-0.039-0.064-0.056-0.103-0.056-0.030 0-0.103-0.024-0.161-0.054s-0.141-0.062-0.182-0.071c-0.073-0.015-0.075-0.017-0.075-0.092-0.002-0.099-0.045-0.165-0.141-0.206-0.060-0.026-0.073-0.041-0.066-0.071 0.006-0.022 0.004-0.030-0.002-0.017-0.011 0.024-0.118-0.022-0.144-0.066-0.008-0.011-0.043-0.022-0.077-0.022-0.038 0-0.090-0.021-0.135-0.053-0.045-0.034-0.12-0.062-0.195-0.077-0.067-0.013-0.206-0.062-0.308-0.109-0.103-0.047-0.217-0.086-0.257-0.088-0.037-0.002-0.081-0.013-0.096-0.026-0.015-0.011-0.077-0.026-0.139-0.034-0.101-0.009-0.354-0.105-0.577-0.218-0.082-0.041-0.133-0.034-0.232 0.026-0.045 0.028-0.060 0.049-0.054 0.073 0.013 0.045-0.008 0.056-0.124 0.071-0.077 0.009-0.099 0.019-0.103 0.049-0.006 0.019-0.030 0.058-0.058 0.084-0.026 0.028-0.077 0.081-0.112 0.118-0.066 0.071-0.122 0.086-0.191 0.051-0.021-0.011-0.036-0.039-0.036-0.067 0-0.026-0.007-0.043-0.017-0.038s-0.021-0.024-0.026-0.066c-0.006-0.041-0.015-0.081-0.019-0.086-0.021-0.019-0.051 0.017-0.051 0.056 0 0.036-0.006 0.032-0.039-0.024-0.036-0.056-0.038-0.077-0.023-0.137 0.017-0.058 0.015-0.069-0.006-0.062-0.023 0.009-0.023 0.002 0-0.041 0.021-0.039 0.022-0.060 0.006-0.088-0.011-0.021-0.024-0.062-0.032-0.094-0.009-0.053-0.017-0.056-0.113-0.068-0.060-0.006-0.142-0.032-0.195-0.060-0.101-0.056-0.144-0.060-0.227-0.024zM10.899 6.45c-0.006 0.022-0.015 0.036-0.021 0.030-0.009-0.011 0.009-0.067 0.023-0.067 0.004 0 0.004 0.017-0.002 0.037zM12.369 7.691c-0.006 0.015-0.011 0.009-0.011-0.011-0.002-0.021 0.004-0.032 0.009-0.024 0.006 0.006 0.008 0.022 0.002 0.036zM13.581 7.862c0.006 0.017-0.008 0.022-0.041 0.021-0.068-0.004-0.071-0.006-0.039-0.026 0.039-0.024 0.069-0.022 0.081 0.006z"></path>
<path d="M11.344 5.736c0 0.011 0.021 0.024 0.047 0.032 0.026 0.006 0.060 0.036 0.077 0.066 0.021 0.039 0.041 0.054 0.079 0.054 0.062 0 0.12-0.036 0.082-0.051-0.013-0.006-0.047-0.030-0.077-0.054-0.058-0.049-0.208-0.083-0.208-0.047z"></path>
<path d="M9.994 5.775c-0.049 0.030-0.007 0.037 0.068 0.011 0.071-0.026 0.071-0.028 0.017-0.028-0.030 0-0.069 0.006-0.084 0.017z"></path>
<path d="M1.153 5.831c-0.021 0.064 0.096 0.225 0.163 0.225 0.045 0 0.043-0.028-0.017-0.154-0.039-0.083-0.062-0.109-0.094-0.109-0.024 0-0.045 0.015-0.052 0.037z"></path>
<path d="M11.197 5.824c0.002 0.017 0.017 0.036 0.030 0.041 0.017 0.006 0.024-0.004 0.019-0.026-0.002-0.017-0.017-0.036-0.030-0.041-0.017-0.006-0.024 0.004-0.019 0.026z"></path>
<path d="M7.886 5.88c-0.030 0.030-0.039 0.086-0.017 0.107 0.006 0.008 0.032 0 0.054-0.015 0.039-0.024 0.043-0.024 0.034 0-0.008 0.015-0.002 0.028 0.009 0.028s0.021-0.013 0.021-0.028c0-0.021 0.013-0.026 0.047-0.017 0.039 0.009 0.047 0.006 0.047-0.026 0-0.053-0.037-0.073-0.066-0.036-0.013 0.019-0.030 0.032-0.037 0.032s-0.004-0.011 0.007-0.024c0.043-0.053-0.049-0.071-0.099-0.021z"></path>
<path d="M9.797 5.869c-0.006 0.009 0.006 0.019 0.026 0.019 0.022 0 0.039-0.009 0.039-0.019 0-0.011-0.011-0.019-0.026-0.019s-0.034 0.008-0.039 0.019z"></path>
<path d="M4.069 5.887c-0.024 0.015-0.024 0.019 0.004 0.019 0.017 0 0.037-0.009 0.043-0.019 0.015-0.024-0.009-0.024-0.047 0z"></path>
<path d="M9.171 5.899c0.022 0.028 0.021 0.030-0.019 0.017-0.039-0.011-0.041-0.009-0.030 0.032 0.019 0.062 0.028 0.067 0.131 0.075 0.124 0.008 0.139-0.037 0.030-0.092-0.041-0.021-0.071-0.043-0.064-0.051 0.006-0.006-0.008-0.011-0.032-0.011-0.037 0-0.039 0.004-0.017 0.030z"></path>
<path d="M15.294 5.919c-0.017 0.017 0.023 0.062 0.056 0.062 0.021 0 0.021-0.007 0.006-0.037-0.021-0.039-0.041-0.047-0.062-0.024z"></path>
<path d="M3.141 5.963c-0.006 0.007-0.004 0.030 0.004 0.049 0.007 0.022 0.006 0.028-0.009 0.019-0.013-0.008-0.022-0.026-0.022-0.041 0-0.039-0.056-0.026-0.083 0.021-0.011 0.021-0.032 0.045-0.043 0.053-0.062 0.039 0.007 0.105 0.086 0.079 0.041-0.013 0.067 0.017 0.090 0.103 0.013 0.053 0.036 0.077 0.111 0.116 0.12 0.067 0.203 0.067 0.137 0.002-0.015-0.015-0.015-0.032 0-0.058 0.028-0.054 0.028-0.056-0.034-0.069-0.071-0.015-0.088-0.036-0.118-0.158-0.019-0.073-0.038-0.105-0.067-0.116-0.023-0.008-0.045-0.008-0.051 0.002z"></path>
<path d="M11.278 5.963c0.006 0.009 0.024 0.019 0.039 0.019s0.026-0.009 0.026-0.019c0-0.011-0.017-0.019-0.039-0.019-0.021 0-0.032 0.008-0.026 0.019z"></path>
<path d="M3.968 5.992c-0.017 0.045-0.015 0.049 0.026 0.026 0.021-0.011 0.037-0.028 0.037-0.038 0-0.030-0.051-0.021-0.064 0.011z"></path>
<path d="M8.312 6.004c-0.011 0.013-0.026 0.043-0.032 0.066-0.011 0.038-0.008 0.043 0.039 0.043 0.028 0 0.082-0.009 0.118-0.019 0.036-0.011 0.114-0.013 0.174-0.008 0.088 0.011 0.107 0.019 0.107 0.049 0 0.049 0.036 0.113 0.056 0.099 0.009-0.006 0.009-0.036-0.002-0.071-0.024-0.084-0.023-0.088 0.028-0.088 0.026 0 0.053-0.009 0.058-0.019 0.008-0.011-0.043-0.019-0.135-0.019-0.082 0-0.156-0.008-0.165-0.017-0.034-0.030-0.227-0.043-0.247-0.017z"></path>
<path d="M11.372 5.996c0.056 0.056 0.341 0.099 0.403 0.060 0.023-0.013 0.019-0.021-0.019-0.034-0.069-0.026-0.407-0.049-0.384-0.026z"></path>
<path d="M7.997 6.019c-0.006 0.009-0.004 0.019 0.008 0.019 0.009 0 0.024-0.009 0.030-0.019 0.006-0.011 0.004-0.019-0.008-0.019-0.009 0-0.024 0.008-0.030 0.019z"></path>
<path d="M9.849 6.028c-0.079 0.034-0.079 0.058 0.004 0.084s0.146-0.002 0.137-0.062c-0.008-0.051-0.060-0.060-0.141-0.022z"></path>
<path d="M7.942 6.036c-0.007 0.013-0.009 0.028-0.004 0.034 0.017 0.017 0.036-0.007 0.026-0.034-0.008-0.021-0.011-0.021-0.022 0z"></path>
<path d="M8.104 6.079c0.006 0.013 0.024 0.028 0.041 0.030 0.022 0.006 0.032-0.002 0.026-0.019-0.006-0.013-0.024-0.028-0.041-0.030-0.022-0.006-0.032 0.002-0.026 0.019z"></path>
<path d="M14.46 6.099c-0.032 0.038-0.009 0.051 0.094 0.051 0.092 0 0.165-0.024 0.165-0.054 0-0.028-0.236-0.024-0.259 0.004z"></path>
<path d="M1.414 6.118c-0.015 0.043 0.032 0.094 0.077 0.084 0.030-0.006 0.030-0.011-0.015-0.062-0.043-0.051-0.049-0.053-0.062-0.022z"></path>
<path d="M11.063 6.12c0 0.017 0.009 0.030 0.019 0.030 0.011 0 0.019-0.007 0.019-0.017 0-0.011-0.008-0.024-0.019-0.030-0.009-0.006-0.019 0.002-0.019 0.017z"></path>
<path d="M14.803 6.169c-0.006 0.009-0.002 0.019 0.008 0.019 0.011 0 0.021-0.009 0.021-0.019 0-0.011-0.004-0.019-0.008-0.019-0.006 0-0.015 0.007-0.021 0.019z"></path>
<path d="M15.413 6.206c-0.024 0.015-0.023 0.021 0.009 0.045 0.041 0.032 0.141 0.039 0.141 0.013 0-0.030-0.056-0.077-0.090-0.077-0.017 0-0.045 0.009-0.060 0.019z"></path>
<path d="M1.519 6.257c0 0.053 0.028 0.082 0.062 0.071 0.022-0.009 0.026-0.004 0.021 0.022-0.006 0.021 0.007 0.056 0.028 0.082 0.032 0.038 0.041 0.039 0.056 0.019 0.013-0.019-0.002-0.054-0.052-0.122-0.077-0.101-0.114-0.128-0.114-0.073z"></path>
<path d="M3.647 6.308c-0.021 0.107-0.007 0.131 0.071 0.133 0.058 0.004 0.075-0.006 0.107-0.054l0.038-0.058-0.049-0.043c-0.026-0.022-0.071-0.041-0.101-0.041-0.047 0-0.056 0.009-0.066 0.064z"></path>
<path d="M15.645 6.261c0.008 0.011 0.004 0.021-0.008 0.021s-0.015 0.008-0.009 0.019c0.006 0.009 0.024 0.019 0.041 0.019s0.073 0.032 0.126 0.069c0.053 0.037 0.137 0.092 0.189 0.118 0.103 0.053 0.178 0.158 0.178 0.255 0 0.034 0.015 0.071 0.038 0.092 0.037 0.034 0.039 0.034 0.066-0.002 0.067-0.092 0.043-0.186-0.062-0.24-0.028-0.015-0.084-0.062-0.126-0.105-0.043-0.045-0.148-0.116-0.244-0.165-0.21-0.109-0.204-0.107-0.189-0.081z"></path>
<path d="M15.96 6.289c-0.002 0.024 0.009 0.054 0.024 0.067 0.034 0.028 0.036 0.013 0.009-0.039-0.015-0.024-0.013-0.036 0-0.036 0.011 0 0.015-0.009 0.009-0.019-0.021-0.032-0.039-0.021-0.043 0.026z"></path>
<path d="M9.673 6.328c-0.022 0.022-0.039 0.026-0.077 0.011-0.058-0.022-0.238-0.021-0.251 0.002-0.006 0.007-0.026 0.015-0.045 0.015s-0.041 0.009-0.049 0.022c-0.009 0.015-0.004 0.017 0.017 0.009 0.034-0.013 0.045 0.015 0.013 0.034-0.024 0.015-0.006 0.047 0.030 0.047 0.015 0 0.026-0.013 0.026-0.030 0-0.024 0.011-0.021 0.047 0.019 0.053 0.056 0.079 0.060 0.137 0.019 0.037-0.026 0.045-0.026 0.082 0 0.049 0.036 0.111 0.039 0.141 0.009 0.017-0.017 0.062-0.002 0.18 0.056 0.088 0.041 0.165 0.077 0.171 0.077s0.011-0.030 0.011-0.066c0-0.045-0.009-0.066-0.028-0.066-0.015 0-0.028-0.015-0.028-0.034 0-0.047-0.038-0.079-0.092-0.079-0.028-0.002-0.082-0.015-0.124-0.030-0.124-0.047-0.129-0.049-0.161-0.017z"></path>
<path d="M3.488 6.337c0 0.009 0.009 0.019 0.019 0.019 0.011 0 0.019-0.009 0.019-0.019 0-0.011-0.007-0.019-0.019-0.019-0.009 0-0.019 0.007-0.019 0.019z"></path>
<path d="M3.581 6.337c0 0.009 0.009 0.019 0.019 0.019 0.011 0 0.019-0.009 0.019-0.019 0-0.011-0.007-0.019-0.019-0.019-0.009 0-0.019 0.007-0.019 0.019z"></path>
<path d="M3.431 6.366c0.013 0.017 0.028 0.024 0.032 0.021 0.013-0.013-0.013-0.049-0.036-0.049-0.011 0-0.011 0.011 0.004 0.028z"></path>
<path d="M15.638 6.356c0 0.009 0.017 0.019 0.037 0.019s0.038-0.009 0.038-0.019c0-0.011-0.017-0.019-0.038-0.019s-0.037 0.007-0.037 0.019z"></path>
<path d="M8.887 6.383c-0.006 0.004-0.036 0.011-0.066 0.017-0.139 0.017-0.030 0.201 0.118 0.201 0.086 0 0.161-0.038 0.169-0.081 0.007-0.036-0.075-0.126-0.114-0.126-0.013 0-0.039-0.006-0.060-0.011s-0.043-0.006-0.047 0z"></path>
<path d="M16.129 6.396c0.004 0.011 0.015 0.019 0.024 0.019s0.021-0.007 0.024-0.019c0.004-0.011-0.008-0.021-0.024-0.021s-0.028 0.009-0.024 0.021z"></path>
<path d="M9.206 6.431c0 0.009-0.015 0.019-0.032 0.019-0.028 0-0.030 0.004-0.006 0.019 0.038 0.024 0.062 0.024 0.047 0-0.006-0.011-0.002-0.019 0.008-0.019 0.011 0 0.021-0.009 0.021-0.019 0-0.011-0.007-0.019-0.019-0.019-0.009 0-0.019 0.007-0.019 0.019z"></path>
<path d="M16.303 6.488c-0.006 0.009 0.002 0.019 0.017 0.019s0.034-0.009 0.039-0.019c0.006-0.011-0.002-0.019-0.017-0.019s-0.034 0.008-0.039 0.019z"></path>
<path d="M10.584 6.506c0.006 0.009 0.021 0.019 0.030 0.019 0.011 0 0.013-0.009 0.008-0.019-0.006-0.011-0.021-0.019-0.030-0.019-0.011 0-0.013 0.007-0.007 0.019z"></path>
<path d="M9.332 6.529c-0.060 0.021-0.058 0.056 0.002 0.064 0.024 0.006 0.047-0.006 0.060-0.028 0.034-0.064 0.026-0.067-0.062-0.036z"></path>
<path d="M7.941 6.544c0.006 0.009 0.015 0.019 0.021 0.019 0.004 0 0.008-0.009 0.008-0.019 0-0.011-0.009-0.019-0.021-0.019-0.009 0-0.013 0.007-0.007 0.019z"></path>
<path d="M9.431 6.544c0 0.009 0.013 0.019 0.028 0.019s0.028-0.009 0.028-0.019c0-0.011-0.013-0.019-0.028-0.019s-0.028 0.007-0.028 0.019z"></path>
<path d="M9.506 6.563c0 0.009 0.009 0.019 0.021 0.019 0.009 0 0.013-0.009 0.008-0.019-0.006-0.011-0.015-0.019-0.021-0.019-0.004 0-0.007 0.008-0.007 0.019z"></path>
<path d="M10.202 6.66c-0.002 0.038 0.013 0.041 0.054 0.015 0.015-0.009 0.021-0.022 0.013-0.032-0.009-0.007-0.023-0.002-0.030 0.011-0.013 0.021-0.019 0.021-0.026 0-0.008-0.019-0.011-0.017-0.011 0.006z"></path>
<path d="M10.772 6.692c-0.006 0.009 0.017 0.026 0.047 0.038 0.032 0.009 0.056 0.011 0.056 0.004 0-0.022-0.092-0.058-0.103-0.041z"></path>
<path d="M16.003 6.692c-0.008 0.013-0.041 0.015-0.088 0.008-0.075-0.011-0.077-0.009-0.064 0.034 0.008 0.024 0.017 0.073 0.024 0.105 0.009 0.058 0.008 0.062-0.043 0.062-0.069 0-0.088 0.015-0.128 0.090-0.028 0.054-0.039 0.062-0.105 0.056-0.041-0.002-0.081 0.002-0.086 0.009-0.024 0.024-0.064-0.030-0.064-0.088-0.002-0.054-0.002-0.056-0.028-0.022-0.015 0.021-0.028 0.053-0.028 0.071 0 0.045-0.073 0.060-0.212 0.043-0.154-0.019-0.201-0.017-0.225 0.007-0.034 0.034 0.006 0.079 0.092 0.109 0.039 0.013 0.082 0.037 0.094 0.053 0.017 0.022 0.034 0.024 0.068 0.011 0.037-0.015 0.052-0.009 0.079 0.021 0.030 0.034 0.049 0.038 0.15 0.028 0.137-0.011 0.336-0.094 0.377-0.156 0.021-0.032 0.047-0.045 0.090-0.045 0.034 0 0.079-0.011 0.098-0.026 0.032-0.022 0.034-0.032 0.013-0.075-0.030-0.066-0.028-0.067 0.015-0.067 0.019 0 0.045-0.017 0.056-0.039 0.023-0.041 0.008-0.148-0.021-0.148-0.009 0-0.015-0.009-0.011-0.021 0.006-0.028-0.036-0.043-0.053-0.019z"></path>
<path d="M7.892 6.793c-0.015 0.032-0.032 0.043-0.060 0.037-0.066-0.011-0.092 0.021-0.101 0.124-0.006 0.084-0.002 0.096 0.028 0.096 0.021 0 0.041 0.017 0.047 0.038 0.011 0.045 0.088 0.053 0.088 0.009 0-0.017 0.021-0.038 0.047-0.047 0.054-0.021 0.056-0.032 0.019-0.082-0.036-0.047-0.036-0.094-0.002-0.081 0.041 0.017 0.047-0.026 0.015-0.086-0.037-0.062-0.054-0.064-0.081-0.007zM7.849 6.969c-0.015 0.028-0.028 0.047-0.030 0.039 0-0.022 0.043-0.109 0.051-0.101 0.006 0.004-0.004 0.032-0.021 0.062z"></path>
<path d="M10.294 6.788c0 0.009 0.009 0.019 0.021 0.019 0.009 0 0.013-0.009 0.007-0.019-0.006-0.011-0.015-0.019-0.021-0.019-0.004 0-0.008 0.007-0.008 0.019z"></path>
<path d="M9.825 6.808c0 0.009 0.009 0.013 0.019 0.008 0.011-0.006 0.019-0.015 0.019-0.021 0-0.004-0.008-0.007-0.019-0.007-0.009 0-0.019 0.009-0.019 0.021z"></path>
<path d="M14.276 6.808c-0.019 0.032 0.024 0.067 0.051 0.041 0.023-0.022 0.008-0.062-0.021-0.062-0.009 0-0.023 0.009-0.030 0.021z"></path>
<path d="M15.277 6.838c0.013 0.006 0.030 0.004 0.036-0.002 0.008-0.006-0.004-0.011-0.024-0.009-0.021 0-0.026 0.006-0.011 0.011z"></path>
<path d="M5.919 6.857c-0.008 0.006-0.013 0.021-0.013 0.032s0.009 0.009 0.022-0.004c0.011-0.011 0.017-0.026 0.013-0.032-0.006-0.006-0.017-0.004-0.022 0.004z"></path>
<path d="M7.607 6.951c-0.021 0.019-0.015 0.096 0.007 0.111 0.034 0.019 0.060-0.024 0.047-0.075-0.011-0.049-0.030-0.060-0.054-0.036z"></path>
<path d="M14.591 7.005c0.004 0.021 0.021 0.038 0.041 0.041 0.024 0.006 0.032-0.002 0.026-0.026-0.004-0.021-0.021-0.038-0.041-0.041-0.024-0.006-0.032 0.002-0.026 0.026z"></path>
<path d="M8.063 7.012c0 0.009 0.009 0.019 0.019 0.019 0.011 0 0.019-0.009 0.019-0.019 0-0.011-0.008-0.019-0.019-0.019-0.009 0-0.019 0.007-0.019 0.019z"></path>
<path d="M2.145 7.041c0.045 0.034 0.073 0.038 0.064 0.004-0.006-0.011-0.028-0.024-0.054-0.028-0.043-0.004-0.043-0.004-0.009 0.024z"></path>
<path d="M10.682 7.091c-0.026 0.073-0.030 0.075-0.030 0.028-0.002-0.075-0.047-0.054-0.054 0.024-0.006 0.049 0 0.060 0.023 0.051 0.017-0.008 0.030-0.004 0.030 0.006 0 0.045 0.032 0.011 0.066-0.069 0.021-0.049 0.041-0.096 0.043-0.103 0.004-0.007-0.006-0.015-0.021-0.015-0.017 0-0.041 0.034-0.056 0.079z"></path>
<path d="M11.074 7.087c-0.028 0.032-0.043 0.056-0.032 0.056 0.013 0 0.017 0.017 0.009 0.045-0.008 0.030 0.004 0.060 0.034 0.096 0.043 0.049 0.047 0.051 0.079 0.017 0.026-0.026 0.032-0.053 0.024-0.126-0.004-0.049-0.021-0.103-0.034-0.118-0.022-0.022-0.034-0.017-0.081 0.030z"></path>
<path d="M8.119 7.067c0 0.009 0.009 0.024 0.019 0.030 0.011 0.006 0.019 0.004 0.019-0.008 0-0.009-0.008-0.024-0.019-0.030-0.009-0.006-0.019-0.004-0.019 0.008z"></path>
<path d="M14.794 7.074c0 0.024 0.058 0.088 0.079 0.088 0.026 0 0.030-0.058 0.004-0.084-0.036-0.036-0.082-0.037-0.082-0.004z"></path>
<path d="M10.5 7.089c0 0.009 0.009 0.013 0.019 0.008 0.011-0.006 0.019-0.015 0.019-0.021 0-0.004-0.008-0.007-0.019-0.007-0.009 0-0.019 0.009-0.019 0.021z"></path>
<path d="M2.859 7.144c0.006 0.009 0.015 0.019 0.021 0.019 0.004 0 0.007-0.009 0.007-0.019 0-0.011-0.009-0.019-0.021-0.019-0.009 0-0.013 0.008-0.007 0.019z"></path>
<path d="M5.034 7.142c-0.011 0.021 0.017 0.043 0.036 0.026 0.017-0.017 0.013-0.043-0.006-0.043-0.011 0-0.022 0.007-0.030 0.017z"></path>
<path d="M8.175 7.179c0 0.009 0.009 0.024 0.019 0.030 0.011 0.006 0.019 0.004 0.019-0.008 0-0.009-0.007-0.024-0.019-0.030-0.009-0.006-0.019-0.004-0.019 0.008z"></path>
<path d="M3.171 7.23c-0.011 0.026-0.021 0.058-0.021 0.073s-0.011 0.028-0.026 0.028c-0.028 0-0.049 0.039-0.049 0.090 0 0.024 0.019 0.032 0.071 0.036 0.090 0.004 0.191 0.024 0.191 0.041 0 0.007-0.009 0.022-0.022 0.036-0.041 0.041 0.019 0.079 0.127 0.079 0.066 0 0.144 0.017 0.225 0.049 0.067 0.028 0.146 0.049 0.174 0.047 0.229-0.021 0.351-0.008 0.499 0.054 0.156 0.064 0.336 0.099 0.474 0.096 0.045-0.002 0.114 0.006 0.154 0.017 0.053 0.013 0.096 0.013 0.157-0.004 0.075-0.021 0.094-0.019 0.174 0.017 0.114 0.051 0.289 0.105 0.3 0.092 0.006-0.004-0.009-0.032-0.032-0.062-0.032-0.045-0.036-0.064-0.019-0.107 0.030-0.079 0.022-0.101-0.037-0.133-0.047-0.024-0.077-0.026-0.18-0.009-0.105 0.017-0.131 0.015-0.169-0.009-0.024-0.017-0.045-0.047-0.045-0.071 0-0.038 0.009-0.041 0.109-0.041 0.060-0.002 0.139-0.015 0.182-0.034 0.069-0.032 0.071-0.036 0.037-0.054-0.060-0.034-0.294-0.028-0.351 0.008-0.041 0.028-0.051 0.028-0.060 0.006-0.006-0.017-0.036-0.028-0.073-0.028-0.034 0-0.071-0.009-0.082-0.021-0.009-0.009-0.066-0.024-0.124-0.030-0.069-0.008-0.116-0.022-0.137-0.045-0.049-0.054-0.094-0.043-0.128 0.030-0.017 0.036-0.041 0.066-0.054 0.067-0.077 0.006-0.396-0.007-0.433-0.017-0.026-0.007-0.066-0.043-0.090-0.079-0.039-0.058-0.056-0.068-0.152-0.077-0.073-0.008-0.122-0.024-0.152-0.053-0.043-0.041-0.131-0.053-0.152-0.021-0.007 0.011-0.026 0.015-0.043 0.011-0.019-0.006-0.075-0.015-0.127-0.021-0.088-0.008-0.098-0.006-0.118 0.039z"></path>
<path d="M11.001 7.232c-0.006 0.019-0.011 0.079-0.011 0.131-0.004 0.086 0.002 0.099 0.032 0.099 0.036 0 0.098-0.054 0.098-0.086 0-0.009-0.024-0.053-0.054-0.098-0.043-0.064-0.056-0.073-0.064-0.047z"></path>
<path d="M11.188 7.32c-0.007 0.019-0.002 0.024 0.017 0.017 0.028-0.011 0.036-0.043 0.009-0.043-0.009 0-0.021 0.013-0.026 0.026z"></path>
<path d="M2.963 7.369c-0.022 0.015-0.021 0.019 0.015 0.019 0.022 0 0.041-0.009 0.041-0.019 0-0.024-0.021-0.024-0.056 0z"></path>
<path d="M11.147 7.389c-0.008 0.011-0.009 0.024-0.004 0.030 0.013 0.013 0.051-0.011 0.051-0.034s-0.032-0.022-0.047 0.004z"></path>
<path d="M10.284 7.406c-0.006 0.009-0.004 0.019 0.008 0.019 0.009 0 0.024-0.009 0.030-0.019 0.006-0.011 0.004-0.019-0.007-0.019-0.009 0-0.024 0.008-0.030 0.019z"></path>
<path d="M2.991 7.425c-0.006 0.009 0.006 0.019 0.026 0.019 0.023 0 0.039-0.009 0.039-0.019 0-0.011-0.011-0.019-0.026-0.019s-0.034 0.008-0.039 0.019z"></path>
<path d="M5.788 7.438c-0.026 0.024-0.011 0.043 0.034 0.043 0.053 0 0.064-0.028 0.017-0.045-0.036-0.013-0.036-0.013-0.051 0.002z"></path>
<path d="M7.26 7.502c0.004 0.011 0.015 0.019 0.024 0.019s0.021-0.007 0.024-0.019c0.004-0.011-0.007-0.021-0.024-0.021s-0.028 0.009-0.024 0.021z"></path>
<path d="M5.512 7.519c0 0.009 0.009 0.019 0.019 0.019 0.011 0 0.019-0.009 0.019-0.019 0-0.011-0.008-0.019-0.019-0.019-0.009 0-0.019 0.008-0.019 0.019z"></path>
<path d="M9.469 7.519c0 0.009 0.009 0.019 0.019 0.019 0.011 0 0.019-0.009 0.019-0.019 0-0.011-0.008-0.019-0.019-0.019-0.009 0-0.019 0.008-0.019 0.019z"></path>
<path d="M10.29 7.521c-0.039 0.022-0.127 0.167-0.127 0.212 0 0.058 0.054 0.054 0.107-0.009 0.084-0.098 0.099-0.246 0.021-0.203z"></path>
<path d="M10.35 7.517c0 0.026 0.034 0.043 0.058 0.028 0.015-0.007 0.013-0.017-0.004-0.028-0.034-0.021-0.054-0.021-0.054 0z"></path>
<path d="M7.313 7.575c0.038 0.024 0.118 0.024 0.103 0-0.006-0.011-0.039-0.019-0.071-0.019-0.045 0-0.053 0.006-0.032 0.019z"></path>
<path d="M7.575 7.596c0 0.009 0.009 0.013 0.019 0.007 0.011-0.006 0.019-0.015 0.019-0.021 0-0.004-0.008-0.008-0.019-0.008-0.009 0-0.019 0.009-0.019 0.021z"></path>
<path d="M10.106 7.613c-0.015 0.009-0.022 0.022-0.015 0.028 0.017 0.017 0.090-0.008 0.090-0.030s-0.039-0.021-0.075 0.002z"></path>
<path d="M8.869 7.65c-0.015 0.009-0.056 0.019-0.090 0.019-0.049 0-0.066 0.009-0.081 0.049-0.023 0.062-0.013 0.073 0.036 0.047 0.022-0.011 0.064-0.021 0.096-0.021 0.071 0 0.152-0.036 0.152-0.069 0-0.013-0.008-0.024-0.017-0.024s-0.028-0.004-0.043-0.009c-0.013-0.006-0.038 0-0.053 0.009z"></path>
<path d="M9.122 7.65c-0.006 0.009 0.002 0.019 0.017 0.019s0.034-0.009 0.039-0.019c0.006-0.011-0.002-0.019-0.017-0.019s-0.034 0.007-0.039 0.019z"></path>
<path d="M10.134 7.669c-0.006 0.009-0.002 0.019 0.008 0.019 0.011 0 0.021-0.009 0.021-0.019 0-0.011-0.004-0.019-0.008-0.019-0.006 0-0.015 0.007-0.021 0.019z"></path>
<path d="M9.758 7.716c-0.013 0.034 0.006 0.066 0.039 0.066 0.039 0 0.053-0.036 0.028-0.066-0.030-0.036-0.054-0.036-0.067 0z"></path>
<path d="M9.075 7.781c0 0.009 0.009 0.019 0.019 0.019 0.011 0 0.019-0.009 0.019-0.019 0-0.011-0.008-0.019-0.019-0.019-0.009 0-0.019 0.008-0.019 0.019z"></path>
<path d="M5.569 7.822c0 0.021 0.023 0.043 0.051 0.054 0.073 0.026 0.118 0.071 0.105 0.103-0.017 0.047 0.024 0.028 0.107-0.049 0.079-0.073 0.081-0.077 0.045-0.103-0.043-0.034-0.045-0.034-0.189-0.036-0.103-0.002-0.118 0.002-0.118 0.030z"></path>
<path d="M6.469 7.809c-0.028 0.034-0.030 0.030 0.056 0.082l0.066 0.039h-0.067c-0.045 0-0.073-0.009-0.081-0.028-0.015-0.041-0.165-0.037-0.214 0.004-0.022 0.019-0.043 0.058-0.045 0.090-0.006 0.054-0.004 0.056 0.088 0.062 0.060 0.004 0.142-0.011 0.231-0.039 0.075-0.024 0.141-0.038 0.146-0.028 0.006 0.008 0.043 0.015 0.084 0.015 0.045 0 0.071-0.008 0.064-0.019-0.006-0.009 0-0.013 0.017-0.008 0.047 0.019 0.073-0.011 0.036-0.041-0.019-0.013-0.026-0.026-0.019-0.026 0.036 0-0.030-0.075-0.067-0.075-0.022 0-0.068 0-0.099 0-0.036 0-0.064-0.011-0.071-0.028-0.013-0.036-0.094-0.036-0.124 0z"></path>
<path d="M7.847 7.8c-0.006 0.009-0.006 0.026 0 0.037 0.006 0.009 0.002 0.019-0.011 0.019s-0.043 0.017-0.066 0.039c-0.039 0.038-0.043 0.038-0.092 0.006-0.039-0.026-0.060-0.028-0.114-0.011s-0.081 0.013-0.15-0.017c-0.105-0.047-0.242-0.051-0.322-0.009-0.051 0.026-0.062 0.041-0.056 0.082 0.006 0.047 0.011 0.051 0.118 0.058 0.272 0.015 0.469 0.004 0.628-0.039 0.088-0.024 0.156-0.051 0.15-0.062s-0.017-0.017-0.026-0.013c-0.009 0.004-0.011-0.007-0.004-0.024 0.006-0.015 0.017-0.041 0.022-0.056 0.013-0.032-0.058-0.041-0.077-0.009z"></path>
<path d="M8.363 7.796c-0.026 0.004-0.053 0.017-0.060 0.030-0.011 0.015-0.015 0.013-0.015-0.004 0-0.019-0.015-0.017-0.056 0.009-0.064 0.037-0.069 0.053-0.024 0.069 0.019 0.008 0.041 0.002 0.053-0.013 0.017-0.022 0.022-0.022 0.043-0.002 0.036 0.039 0.238-0.009 0.225-0.053-0.009-0.028-0.098-0.047-0.165-0.038z"></path>
<path d="M9.217 7.798c-0.030 0.011-0.032 0.017-0.011 0.030 0.015 0.009 0.028 0.008 0.032-0.004 0.006-0.015 0.024-0.013 0.058 0.006 0.066 0.034 0.079 0.034 0.079-0.004 0-0.015-0.008-0.022-0.019-0.017-0.009 0.006-0.019 0.002-0.019-0.007 0-0.022-0.066-0.024-0.12-0.004z"></path>
<path d="M10.101 7.815c-0.049 0.054-0.037 0.062 0.034 0.028 0.036-0.017 0.060-0.038 0.054-0.047-0.017-0.026-0.056-0.017-0.088 0.019z"></path>
<path d="M6.388 7.813c-0.022 0.021-0.015 0.043 0.013 0.043 0.015 0 0.030-0.013 0.038-0.028 0.009-0.028-0.026-0.039-0.051-0.015z"></path>
<path d="M6.816 7.819c0.006 0.009 0.019 0.019 0.030 0.019 0.009 0 0.017-0.009 0.017-0.019 0-0.011-0.013-0.019-0.030-0.019-0.015 0-0.022 0.007-0.017 0.019z"></path>
<path d="M8.625 7.828c0 0.015 0.009 0.028 0.019 0.028 0.011 0 0.019-0.013 0.019-0.028s-0.008-0.028-0.019-0.028c-0.009 0-0.019 0.013-0.019 0.028z"></path>
<path d="M9.525 7.819c0 0.009 0.019 0.019 0.043 0.019 0.034 0 0.036-0.004 0.013-0.019-0.036-0.024-0.056-0.024-0.056 0z"></path>
<path d="M6.030 7.849c-0.017 0.015-0.030 0.045-0.030 0.066s-0.019 0.043-0.041 0.053l-0.041 0.015 0.041 0.022c0.045 0.024 0.193 0.021 0.191-0.004 0-0.008 0.011-0.043 0.026-0.079 0.026-0.060 0.026-0.067-0.008-0.084-0.051-0.028-0.105-0.022-0.139 0.011z"></path>
<path d="M7.956 7.832c-0.039 0.015-0.028 0.043 0.019 0.043 0.030 0 0.034 0.006 0.015 0.017s-0.019 0.019-0.002 0.030c0.032 0.019 0.096-0.002 0.159-0.054 0.045-0.037 0.049-0.047 0.022-0.049-0.019 0-0.053 0.009-0.073 0.021-0.028 0.015-0.036 0.015-0.026 0 0.008-0.011 0.006-0.021-0.006-0.021-0.009 0-0.022 0.011-0.026 0.022-0.007 0.019-0.011 0.019-0.011 0-0.002-0.022-0.030-0.026-0.071-0.009z"></path>
<path d="M8.906 7.877c-0.056 0.007-0.161 0.021-0.231 0.026-0.116 0.011-0.137 0.021-0.202 0.084-0.047 0.045-0.113 0.084-0.173 0.103-0.109 0.036-0.223 0.143-0.217 0.206 0.002 0.021-0.004 0.053-0.011 0.071-0.028 0.066 0.017 0.075 0.152 0.030 0.101-0.034 0.148-0.064 0.223-0.141 0.12-0.124 0.159-0.148 0.309-0.186 0.067-0.017 0.133-0.041 0.148-0.052 0.015-0.013 0.069-0.043 0.122-0.069 0.171-0.084 0.127-0.111-0.12-0.073z"></path>
<path d="M15.716 7.881c-0.021 0.024-0.021 0.038 0 0.073l0.024 0.043 0.006-0.043c0.004-0.022 0.004-0.056 0-0.073-0.006-0.028-0.008-0.028-0.030 0z"></path>
<path d="M5.222 7.894c0.006 0.009 0.021 0.019 0.030 0.019 0.011 0 0.013-0.009 0.008-0.019-0.006-0.011-0.021-0.019-0.030-0.019-0.011 0-0.013 0.008-0.007 0.019z"></path>
<path d="M6.93 7.888c-0.021 0.021-0.011 0.043 0.017 0.043 0.015 0 0.028-0.007 0.028-0.017 0-0.024-0.030-0.041-0.045-0.026z"></path>
<path d="M6.975 7.959c0 0.015 0.009 0.028 0.019 0.028 0.011 0 0.019-0.013 0.019-0.028s-0.008-0.028-0.019-0.028c-0.009 0-0.019 0.013-0.019 0.028z"></path>
<path d="M5.831 7.969c0 0.009 0.013 0.019 0.030 0.019 0.015 0 0.023-0.009 0.017-0.019-0.006-0.011-0.019-0.019-0.030-0.019-0.009 0-0.017 0.008-0.017 0.019z"></path>
<path d="M16.127 8.023c-0.038 0.024 0.082 0.084 0.122 0.062 0.023-0.013 0.024-0.019 0.004-0.036-0.039-0.032-0.098-0.043-0.126-0.026z"></path>
<path d="M15.457 8.109c-0.017 0.039 0.011 0.069 0.053 0.060 0.021-0.006 0.039 0 0.047 0.015 0.004 0.015 0.024 0.032 0.045 0.038 0.019 0.008 0.036 0.022 0.036 0.036 0 0.032 0.081 0.105 0.116 0.105 0.017 0 0.034-0.017 0.039-0.039 0.009-0.032 0.004-0.038-0.026-0.030-0.043 0.011-0.122-0.043-0.090-0.062 0.009-0.008 0.013-0.026 0.008-0.041-0.013-0.036-0.111-0.081-0.137-0.064-0.011 0.006-0.023-0.002-0.030-0.017-0.013-0.036-0.047-0.036-0.060 0z"></path>
<path d="M6.806 8.166c-0.036 0.043-0.007 0.084 0.054 0.084 0.081 0 0.15 0.030 0.231 0.103 0.039 0.036 0.090 0.066 0.114 0.066 0.047 0 0.126-0.049 0.126-0.077s-0.098-0.129-0.124-0.129c-0.011 0-0.036-0.017-0.054-0.037-0.028-0.032-0.058-0.038-0.178-0.038-0.105 0-0.152 0.008-0.169 0.028z"></path>
<path d="M13.226 8.327c-0.006 0.011 0 0.028 0.013 0.037 0.054 0.034 0.073 0.013 0.028-0.032-0.021-0.019-0.032-0.021-0.041-0.006z"></path>
<path d="M8.018 8.379c-0.008 0.013-0.009 0.028-0.004 0.034 0.017 0.017 0.036-0.007 0.026-0.034-0.008-0.021-0.011-0.021-0.022 0z"></path>
<path d="M3.103 8.438c-0.006 0.009 0.002 0.019 0.017 0.019 0.017 0 0.030-0.009 0.030-0.019 0-0.011-0.008-0.019-0.017-0.019-0.011 0-0.024 0.008-0.030 0.019z"></path>
<path d="M7.588 8.439c-0.017 0.011-0.032 0.026-0.032 0.036 0 0.030 0.069 0.021 0.081-0.009 0.015-0.036-0.008-0.049-0.049-0.026z"></path>
<path d="M7.937 8.486c-0.079 0.047-0.092 0.064-0.069 0.088 0.015 0.015 0.143-0.038 0.161-0.068 0.019-0.028 0.019-0.069 0.002-0.069-0.009 0-0.051 0.022-0.094 0.049z"></path>
<path d="M13.266 8.456c0.006 0.009 0.002 0.019-0.008 0.019-0.011 0-0.021 0.007-0.021 0.019 0 0.030 0.051 0.021 0.064-0.011 0.017-0.041 0.015-0.045-0.019-0.045-0.015 0-0.023 0.008-0.017 0.019z"></path>
<path d="M16.134 8.494c0.006 0.009 0.028 0.019 0.047 0.019s0.041-0.009 0.047-0.019c0.008-0.011-0.013-0.019-0.047-0.019s-0.054 0.007-0.047 0.019z"></path>
<path d="M13.29 8.527c-0.030 0.017-0.053 0.049-0.053 0.069s-0.013 0.079-0.028 0.131c-0.017 0.051-0.024 0.103-0.021 0.114s-0.006 0.021-0.023 0.019c-0.017-0.002-0.039 0.026-0.056 0.069-0.026 0.064-0.024 0.073 0.004 0.094 0.030 0.022 0.030 0.026 0.004 0.049-0.019 0.015-0.030 0.054-0.030 0.098 0 0.039-0.008 0.092-0.017 0.116-0.011 0.030-0.011 0.12 0 0.24 0.015 0.154 0.013 0.206-0.008 0.259-0.015 0.038-0.038 0.126-0.051 0.199-0.015 0.075-0.047 0.163-0.077 0.212-0.028 0.045-0.058 0.107-0.064 0.139-0.008 0.030-0.017 0.051-0.023 0.045s-0.041 0.006-0.079 0.024c-0.107 0.054-0.154 0.066-0.141 0.034 0.006-0.017-0.017-0.036-0.077-0.058-0.060-0.024-0.099-0.054-0.131-0.105-0.047-0.073-0.060-0.082-0.184-0.103-0.043-0.008-0.101-0.038-0.146-0.079-0.079-0.071-0.216-0.142-0.315-0.165-0.034-0.008-0.092-0.045-0.129-0.084-0.037-0.038-0.107-0.094-0.154-0.124-0.107-0.068-0.116-0.084-0.082-0.122 0.013-0.015 0.026-0.039 0.026-0.051 0-0.013 0.017-0.032 0.037-0.045 0.045-0.028 0.090-0.169 0.058-0.18-0.037-0.013-0.021-0.075 0.028-0.114 0.039-0.032 0.056-0.036 0.077-0.017 0.034 0.026 0.067-0.004 0.058-0.053-0.004-0.019 0.008-0.051 0.022-0.067 0.015-0.019 0.043-0.051 0.062-0.073 0.026-0.030 0.030-0.043 0.013-0.064-0.013-0.015-0.017-0.036-0.009-0.047 0.006-0.009 0.004-0.019-0.008-0.019-0.009 0-0.024 0.009-0.032 0.021-0.021 0.034-0.049-0.034-0.036-0.079 0.009-0.030 0.006-0.038-0.011-0.032-0.015 0.006-0.024 0.024-0.024 0.041 0.002 0.023-0.008 0.030-0.034 0.026-0.028-0.004-0.041 0.006-0.045 0.036-0.004 0.024 0 0.043 0.011 0.043 0.009 0 0.013 0.013 0.008 0.028-0.013 0.034-0.068 0.037-0.062 0.004 0.007-0.056-0.002-0.071-0.041-0.060-0.034 0.011-0.036 0.009-0.019-0.024 0.034-0.064 0.024-0.082-0.026-0.049-0.026 0.017-0.043 0.036-0.039 0.043 0.006 0.007-0.009 0.015-0.032 0.015-0.022 0.002-0.064 0.009-0.094 0.017-0.039 0.009-0.049 0.006-0.041-0.015 0.009-0.022-0.009-0.028-0.101-0.026-0.075 0.002-0.116-0.006-0.124-0.022-0.004-0.011-0.021-0.023-0.038-0.023-0.015 0-0.028-0.009-0.028-0.021 0-0.013-0.022-0.017-0.064-0.009-0.038 0.007-0.069 0.004-0.077-0.008-0.006-0.009-0.024-0.019-0.039-0.019s-0.049-0.022-0.075-0.053c-0.032-0.034-0.051-0.043-0.058-0.028-0.017 0.043-0.041 0.024-0.047-0.038-0.004-0.032-0.013-0.058-0.024-0.054-0.009 0.004-0.015 0.021-0.013 0.037 0.006 0.024 0.002 0.026-0.021 0.008-0.032-0.028-0.122-0.024-0.169 0.007-0.030 0.019-0.030 0.024 0.019 0.056 0.028 0.021 0.082 0.036 0.118 0.036 0.043 0 0.064 0.008 0.062 0.022-0.004 0.013 0.002 0.024 0.011 0.024 0.008 0 0.015 0.024 0.013 0.053-0.002 0.047-0.008 0.053-0.049 0.045-0.041-0.009-0.045-0.007-0.021 0.022 0.015 0.017 0.021 0.036 0.013 0.043-0.006 0.006-0.011 0.004-0.011-0.008 0-0.009-0.060-0.017-0.144-0.017-0.081 0.002-0.169-0.006-0.197-0.015-0.038-0.011-0.053-0.009-0.053 0.006 0 0.037-0.045 0.071-0.081 0.062-0.030-0.007-0.034-0.002-0.023 0.034 0.009 0.030 0.008 0.037-0.009 0.028-0.013-0.008-0.045 0.009-0.079 0.047-0.041 0.045-0.053 0.075-0.049 0.12 0.004 0.041-0.002 0.058-0.022 0.058-0.049 0.002-0.075 0.028-0.075 0.075 0 0.024-0.024 0.075-0.056 0.109-0.030 0.036-0.056 0.075-0.056 0.084 0 0.024 0.066 0.064 0.081 0.049 0.006-0.008 0.009 0.006 0.008 0.028-0.002 0.030-0.011 0.037-0.039 0.028-0.038-0.013-0.038-0.011-0.004 0.041l0.036 0.053-0.054-0.043c-0.030-0.022-0.056-0.034-0.060-0.022s-0.030 0.008-0.069-0.009c-0.088-0.036-0.186-0.036-0.171 0.002 0.006 0.015 0 0.026-0.013 0.022-0.011-0.002-0.024 0.017-0.028 0.043-0.009 0.058-0.041 0.096-0.041 0.047 0-0.019 0.009-0.060 0.021-0.092 0.021-0.056 0.017-0.062-0.079-0.158-0.154-0.154-0.317-0.219-0.317-0.129 0 0.060-0.019 0.075-0.051 0.036-0.023-0.030-0.026-0.030-0.051 0-0.013 0.019-0.034 0.034-0.047 0.034-0.011 0-0.032 0.028-0.047 0.060-0.015 0.034-0.028 0.051-0.028 0.038-0.002-0.019-0.011-0.019-0.041-0.004-0.036 0.019-0.038 0.019-0.019-0.017 0.026-0.049 0.026-0.058-0.008-0.058-0.015 0-0.028 0.017-0.028 0.036 0 0.045-0.073 0.073-0.096 0.038-0.015-0.023-0.021-0.023-0.034 0.002-0.013 0.017-0.011 0.032 0.002 0.039 0.011 0.007 0.002 0.024-0.028 0.045-0.056 0.036-0.060 0.098-0.009 0.143 0.030 0.026 0.028 0.028-0.032 0.028-0.036-0.002-0.069-0.013-0.075-0.026-0.009-0.026-0.066-0.032-0.066-0.004 0 0.009 0.015 0.026 0.034 0.036 0.030 0.019 0.030 0.019 0 0.021-0.049 0-0.043 0.084 0.009 0.122l0.041 0.028-0.041 0.011c-0.047 0.013-0.058 0.054-0.019 0.071 0.011 0.008 0.002 0.006-0.024 0-0.026-0.008-0.069-0.013-0.098-0.013s-0.047-0.008-0.041-0.015c0.006-0.009-0.008-0.017-0.028-0.017-0.043 0-0.068 0.030-0.039 0.047 0.009 0.006 0.013 0.034 0.008 0.058-0.009 0.034 0 0.064 0.028 0.101 0.021 0.030 0.039 0.062 0.039 0.069s-0.013-0.002-0.028-0.021c-0.032-0.043-0.060-0.024-0.069 0.043-0.006 0.045-0.006 0.045-0.032-0.009-0.015-0.030-0.047-0.081-0.071-0.114-0.024-0.032-0.038-0.073-0.032-0.088 0.006-0.017 0.004-0.030-0.006-0.030-0.024 0-0.081 0.064-0.081 0.090 0 0.013-0.009 0.022-0.021 0.022-0.013 0-0.051 0.030-0.084 0.066-0.071 0.073-0.084 0.159-0.036 0.253 0.026 0.052 0.026 0.054-0.026 0.092-0.030 0.022-0.062 0.039-0.071 0.039-0.011 0-0.028 0.022-0.041 0.051-0.054 0.122-0.143 0.234-0.216 0.277-0.096 0.056-0.287 0.103-0.426 0.103-0.084 0-0.112 0.007-0.146 0.045-0.028 0.030-0.069 0.047-0.129 0.053-0.053 0.006-0.116 0.028-0.159 0.058-0.064 0.043-0.082 0.047-0.197 0.037-0.148-0.013-0.212 0.013-0.381 0.152-0.058 0.047-0.141 0.099-0.188 0.114-0.101 0.036-0.159 0.090-0.186 0.171-0.011 0.034-0.034 0.066-0.051 0.071-0.026 0.011-0.028-0.002-0.019-0.092 0.011-0.103 0.006-0.116-0.037-0.088-0.038 0.024-0.114 0.221-0.098 0.249 0.032 0.049 0.019 0.186-0.022 0.24-0.021 0.028-0.047 0.088-0.056 0.131-0.015 0.064-0.011 0.090 0.021 0.152 0.021 0.039 0.037 0.082 0.037 0.094s0.039 0.075 0.086 0.143c0.075 0.105 0.084 0.129 0.075 0.186-0.015 0.077-0.039 0.084-0.056 0.017-0.007-0.030-0.022-0.045-0.037-0.039-0.019 0.008-0.022-0.002-0.017-0.026 0.011-0.041-0.041-0.111-0.083-0.111-0.054 0-0.002 0.171 0.060 0.193 0.032 0.013 0.037 0.062 0.009 0.079-0.011 0.006-0.024-0.004-0.032-0.023-0.021-0.056-0.096-0.139-0.103-0.114-0.006 0.013-0.019-0.017-0.030-0.066-0.015-0.056-0.034-0.088-0.051-0.088-0.015 0-0.028 0.009-0.028 0.023 0 0.038 0.111 0.219 0.197 0.326 0.111 0.135 0.141 0.197 0.141 0.287 0 0.056 0.015 0.092 0.066 0.152 0.036 0.043 0.066 0.092 0.066 0.109 0 0.015 0.021 0.056 0.047 0.090 0.038 0.049 0.047 0.082 0.047 0.172 0 0.144 0.036 0.257 0.133 0.422 0.064 0.107 0.083 0.156 0.086 0.238 0.004 0.056-0.004 0.122-0.015 0.144-0.017 0.030-0.017 0.056 0 0.099 0.036 0.105-0.039 0.201-0.137 0.176-0.053-0.013-0.064 0.021-0.049 0.133 0.009 0.069 0.015 0.075 0.081 0.086 0.043 0.008 0.096 0.034 0.131 0.069 0.081 0.077 0.24 0.137 0.349 0.133 0.047-0.002 0.137 0.002 0.199 0.009 0.071 0.009 0.103 0.008 0.086-0.004-0.028-0.021-0.015-0.030 0.064-0.049 0.030-0.008 0.060-0.021 0.066-0.026 0.032-0.043 0.141-0.099 0.171-0.092 0.024 0.008 0.066-0.015 0.122-0.064 0.047-0.039 0.096-0.073 0.107-0.075 0.013 0 0.056-0.004 0.098-0.008s0.171-0.013 0.287-0.021c0.173-0.009 0.21-0.008 0.206 0.013-0.004 0.017 0.008 0.024 0.032 0.021 0.176-0.028 0.236-0.026 0.272 0.006 0.021 0.019 0.038 0.024 0.038 0.013s0.019-0.026 0.043-0.032c0.073-0.024 0.159-0.101 0.173-0.157 0.015-0.069 0.058-0.107 0.141-0.124 0.036-0.008 0.092-0.028 0.122-0.047 0.032-0.019 0.077-0.039 0.103-0.047s0.069-0.030 0.098-0.049c0.039-0.028 0.084-0.036 0.225-0.036 0.214 0 0.379-0.034 0.561-0.112 0.126-0.056 0.163-0.062 0.411-0.075 0.15-0.009 0.285-0.017 0.3-0.021 0.066-0.009 0.114 0.006 0.208 0.069 0.084 0.056 0.109 0.064 0.167 0.054 0.051-0.008 0.090-0.002 0.143 0.024 0.082 0.041 0.204 0.075 0.158 0.041-0.024-0.017-0.024-0.019 0-0.019 0.045 0 0.084 0.034 0.084 0.069 0 0.026 0.013 0.032 0.053 0.028 0.036-0.004 0.051 0.004 0.051 0.023s-0.011 0.024-0.028 0.019c-0.038-0.015-0.036 0.009 0.007 0.081 0.028 0.043 0.053 0.060 0.098 0.066 0.049 0.004 0.064 0.017 0.075 0.060 0.009 0.030 0.039 0.081 0.069 0.112 0.062 0.066 0.111 0.184 0.071 0.169-0.015-0.006-0.030 0.002-0.036 0.019-0.011 0.030 0.096 0.111 0.18 0.131 0.038 0.009 0.054 0.004 0.064-0.019 0.006-0.017 0-0.038-0.015-0.047-0.051-0.030 0.189-0.242 0.324-0.287 0.017-0.006 0.051-0.045 0.071-0.088 0.022-0.043 0.058-0.082 0.079-0.088 0.028-0.008 0.036-0.021 0.030-0.062-0.011-0.069-0.006-0.068 0.030 0.006 0.028 0.054 0.028 0.062 0.002 0.077-0.019 0.009-0.024 0.030-0.017 0.060 0.009 0.036-0.002 0.064-0.047 0.112-0.032 0.038-0.058 0.077-0.060 0.090 0 0.013-0.002 0.064-0.004 0.116-0.004 0.090-0.006 0.094-0.060 0.099-0.058 0.006-0.103 0.047-0.103 0.094 0 0.021 0.013 0.023 0.053 0.013 0.028-0.008 0.084-0.015 0.124-0.017 0.073-0.002 0.075-0.004 0.105-0.107 0.054-0.182 0.064-0.188 0.12-0.077 0.064 0.128 0.062 0.18-0.009 0.246-0.041 0.037-0.051 0.058-0.036 0.067 0.030 0.019 0.227-0.028 0.261-0.062 0.036-0.036 0.066-0.019 0.079 0.047 0.008 0.043 0.006 0.056-0.011 0.051-0.013-0.006-0.023-0.023-0.021-0.039 0-0.017-0.009-0.034-0.023-0.037-0.045-0.017-0.011 0.066 0.049 0.116 0.113 0.096 0.148 0.202 0.105 0.315-0.006 0.019 0.032 0.073 0.111 0.154 0.096 0.097 0.135 0.126 0.193 0.135 0.039 0.006 0.094 0.026 0.12 0.043 0.067 0.045 0.109 0.058 0.122 0.036 0.021-0.032 0.201 0.004 0.349 0.069 0.079 0.036 0.156 0.064 0.171 0.064 0.017 0 0.066-0.030 0.111-0.066s0.114-0.075 0.154-0.084c0.071-0.021 0.096-0.056 0.037-0.056-0.024-0.002-0.017-0.011 0.021-0.030 0.036-0.021 0.058-0.024 0.071-0.011 0.028 0.028 0.004 0.081-0.041 0.092-0.030 0.008-0.034 0.015-0.017 0.036 0.028 0.034 0.052 0.034 0.094-0.004 0.032-0.028 0.037-0.026 0.079 0.019 0.024 0.026 0.060 0.049 0.077 0.049s0.036 0.013 0.041 0.028c0.008 0.015 0.026 0.028 0.045 0.028 0.017 0 0.047 0.017 0.066 0.038 0.043 0.049 0.071 0.047 0.094-0.004 0.017-0.038 0.229-0.199 0.356-0.272 0.038-0.021 0.124-0.036 0.255-0.045 0.146-0.009 0.219-0.024 0.279-0.054l0.079-0.041-0.011-0.092c-0.008-0.058-0.004-0.107 0.011-0.135 0.011-0.023 0.028-0.084 0.036-0.137 0.015-0.109 0.129-0.308 0.176-0.308 0.015 0 0.028-0.009 0.028-0.019 0-0.011-0.009-0.019-0.023-0.019-0.017 0-0.017-0.006 0-0.023 0.013-0.013 0.023-0.041 0.023-0.064s0.026-0.071 0.056-0.111c0.032-0.039 0.056-0.082 0.056-0.096 0-0.032 0.060-0.159 0.090-0.191 0.011-0.013 0.023-0.034 0.023-0.043s0.023-0.028 0.049-0.039c0.081-0.037 0.195-0.154 0.195-0.197 0-0.023 0.030-0.096 0.066-0.161 0.051-0.092 0.066-0.141 0.066-0.214 0-0.051 0.021-0.156 0.047-0.231s0.047-0.158 0.047-0.184c0-0.024 0.017-0.069 0.039-0.099 0.030-0.043 0.036-0.071 0.028-0.141-0.006-0.049-0.019-0.097-0.028-0.109-0.028-0.036-0.047-0.111-0.023-0.097 0.013 0.009 0.021-0.008 0.021-0.047 0-0.049-0.004-0.056-0.028-0.036-0.021 0.017-0.036 0.013-0.069-0.017-0.036-0.034-0.039-0.047-0.019-0.077 0.015-0.024 0.019-0.098 0.013-0.229-0.006-0.161-0.002-0.204 0.030-0.279 0.032-0.071 0.034-0.096 0.017-0.128-0.024-0.049-0.056-0.036-0.056 0.024 0 0.024-0.013 0.054-0.028 0.067-0.036 0.030-0.122 0.009-0.122-0.028 0-0.017-0.039-0.069-0.088-0.12-0.051-0.049-0.105-0.112-0.124-0.141-0.024-0.034-0.045-0.047-0.069-0.039-0.021 0.006-0.038 0-0.045-0.019-0.006-0.015-0.024-0.028-0.043-0.028-0.026 0-0.028-0.004-0.008-0.017 0.039-0.024 0.009-0.082-0.036-0.071-0.052 0.013-0.081-0.032-0.079-0.131 0-0.049-0.008-0.107-0.017-0.131-0.017-0.047-0.062-0.099-0.081-0.099-0.023 0-0.011 0.052 0.013 0.062 0.017 0.008 0.015 0.011-0.004 0.011-0.013 0.002-0.054-0.024-0.090-0.054-0.066-0.058-0.099-0.071-0.099-0.036 0 0.009 0.008 0.015 0.017 0.009s0.015 0.009 0.013 0.034c0 0.024-0.009 0.041-0.021 0.036-0.049-0.028-0.084-0.071-0.084-0.103 0-0.084-0.079-0.251-0.154-0.328-0.056-0.058-0.069-0.081-0.047-0.081 0.017 0 0.032-0.009 0.032-0.019 0-0.034-0.137-0.159-0.146-0.135-0.006 0.017-0.013 0.015-0.032-0.004-0.015-0.013-0.060-0.030-0.101-0.037-0.064-0.009-0.077-0.021-0.096-0.077-0.017-0.053-0.032-0.066-0.071-0.066-0.144 0-0.298-0.096-0.276-0.171 0.009-0.026-0.002-0.047-0.036-0.075-0.045-0.036-0.049-0.047-0.037-0.131 0.017-0.12-0.026-0.313-0.071-0.328-0.054-0.017-0.109-0.101-0.098-0.148 0.006-0.023-0.002-0.086-0.019-0.141s-0.026-0.105-0.021-0.113c0.004-0.008-0.008-0.028-0.028-0.047s-0.045-0.062-0.058-0.098c-0.011-0.039-0.038-0.071-0.066-0.081-0.026-0.011-0.045-0.034-0.045-0.054 0-0.056-0.032-0.064-0.092-0.022-0.088 0.064-0.126 0.053-0.158-0.051-0.015-0.049-0.034-0.144-0.041-0.216-0.008-0.069-0.021-0.126-0.030-0.126-0.011 0-0.015-0.015-0.009-0.034 0.008-0.019-0.008-0.053-0.034-0.082-0.030-0.030-0.043-0.062-0.036-0.086 0.006-0.022-0.004-0.047-0.028-0.062-0.021-0.015-0.041-0.060-0.049-0.107-0.017-0.105-0.066-0.229-0.094-0.229-0.011 0-0.043 0.015-0.071 0.034zM14.443 16.288c-0.013 0.004-0.036 0.004-0.047 0-0.013-0.006-0.004-0.009 0.023-0.009s0.036 0.004 0.024 0.009z"></path>
<path d="M11.711 8.629c-0.017 0.023-0.030 0.053-0.030 0.068 0 0.013-0.007 0.021-0.017 0.015-0.021-0.013-0.090 0.039-0.071 0.056 0.019 0.021 0.101-0.047 0.148-0.12 0.041-0.067 0.015-0.084-0.030-0.019z"></path>
<path d="M9.981 8.663c0.008 0.032 0.006 0.036-0.015 0.019-0.019-0.015-0.030-0.006-0.049 0.041-0.013 0.034-0.028 0.069-0.032 0.077-0.004 0.009 0.028 0.013 0.073 0.011s0.103 0.006 0.128 0.019c0.039 0.022 0.053 0.019 0.122-0.030 0.084-0.060 0.113-0.141 0.056-0.163-0.019-0.008-0.039-0.002-0.049 0.011-0.008 0.013-0.015 0.019-0.015 0.013 0-0.008-0.028-0.006-0.060 0.002-0.041 0.008-0.081 0.004-0.116-0.015-0.053-0.024-0.054-0.024-0.043 0.015z"></path>
<path d="M16.275 8.638c0.002 0.036 0.098 0.12 0.15 0.129 0.081 0.017 0.071-0.022-0.013-0.064-0.039-0.017-0.079-0.043-0.086-0.056-0.017-0.024-0.051-0.032-0.051-0.009z"></path>
<path d="M16.547 8.681c-0.006 0.009 0.006 0.019 0.028 0.019s0.034-0.009 0.028-0.019c-0.006-0.011-0.019-0.019-0.028-0.019s-0.023 0.007-0.028 0.019z"></path>
<path d="M10.809 8.719c0.006 0.009 0.019 0.019 0.030 0.019 0.009 0 0.017-0.009 0.017-0.019 0-0.011-0.013-0.019-0.030-0.019-0.015 0-0.022 0.008-0.017 0.019z"></path>
<path d="M0.656 8.925c0 0.009 0.009 0.019 0.019 0.019 0.011 0 0.019-0.009 0.019-0.019 0-0.011-0.008-0.019-0.019-0.019-0.009 0-0.019 0.008-0.019 0.019z"></path>
<path d="M11.55 9.242c0 0.011 0.009 0.024 0.019 0.030 0.011 0.006 0.019-0.002 0.019-0.017 0-0.017-0.007-0.030-0.019-0.030-0.009 0-0.019 0.007-0.019 0.017z"></path>
<path d="M11.709 9.319c-0.006 0.009 0.002 0.019 0.019 0.019s0.024-0.009 0.019-0.019c-0.006-0.011-0.015-0.019-0.019-0.019s-0.013 0.008-0.019 0.019z"></path>
<path d="M11.572 9.341c0.011 0.034 0.053 0.039 0.053 0.007 0-0.017-0.013-0.030-0.030-0.030s-0.026 0.009-0.022 0.022z"></path>
<path d="M11.724 9.353c-0.047 0.006-0.064 0.019-0.079 0.064-0.011 0.032-0.021 0.060-0.021 0.062 0 0.011 0.137 0.024 0.161 0.015 0.036-0.013 0.034-0.043-0.002-0.043-0.034 0-0.034-0.009-0.008-0.060 0.024-0.045 0.022-0.045-0.053-0.037z"></path>
<path d="M8.775 9.394c0 0.024 0.034 0.041 0.045 0.021 0.006-0.009-0.002-0.021-0.017-0.028-0.015-0.006-0.028-0.002-0.028 0.008z"></path>
<path d="M11.696 9.863c0.022 0.021 0.051 0.037 0.062 0.037 0.013 0 0.006-0.017-0.017-0.037s-0.051-0.038-0.062-0.038c-0.013 0-0.006 0.017 0.017 0.038z"></path>
<path d="M11.775 9.831c0 0.028 0.039 0.088 0.058 0.088 0.011 0 0.017-0.013 0.013-0.030-0.004-0.015-0.013-0.026-0.022-0.026-0.009 0.002-0.024-0.008-0.032-0.023-0.009-0.013-0.017-0.017-0.017-0.009z"></path>
<path d="M12.439 10.114l-0.054 0.047 0.062 0.002c0.032 0 0.060-0.009 0.060-0.019 0-0.011 0.017-0.019 0.039-0.019s0.036-0.009 0.032-0.024c-0.015-0.041-0.084-0.036-0.139 0.013z"></path>
<path d="M8.044 10.106c0 0.009 0.009 0.019 0.019 0.019 0.011 0 0.019-0.009 0.019-0.019 0-0.011-0.008-0.019-0.019-0.019-0.009 0-0.019 0.008-0.019 0.019z"></path>
<path d="M12.394 10.2c0 0.009 0.009 0.019 0.019 0.019 0.011 0 0.019-0.009 0.019-0.019 0-0.011-0.008-0.019-0.019-0.019-0.009 0-0.019 0.008-0.019 0.019z"></path>
<path d="M12.499 10.256c-0.028 0.009-0.030 0.017-0.013 0.026 0.013 0.009 0.034 0.006 0.045-0.006 0.026-0.026 0.011-0.038-0.032-0.021z"></path>
<path d="M14.344 10.59c0 0.019 0.039 0.060 0.060 0.060 0.030 0 0.015-0.036-0.023-0.056-0.021-0.011-0.038-0.013-0.038-0.004z"></path>
<path d="M14.531 10.839c0 0.009 0.009 0.013 0.019 0.008 0.011-0.006 0.019-0.015 0.019-0.021 0-0.004-0.008-0.007-0.019-0.007-0.009 0-0.019 0.009-0.019 0.021z"></path>
<path d="M15.12 11.102c-0.006 0.011-0.002 0.030 0.009 0.041 0.015 0.015 0.021 0.009 0.021-0.021 0-0.045-0.009-0.053-0.030-0.021z"></path>
<path d="M5.807 11.276c-0.011 0.030 0.004 0.052 0.026 0.037 0.022-0.013 0.021-0.064 0-0.064-0.009 0-0.021 0.011-0.026 0.026z"></path>
<path d="M15.675 11.962c0 0.009 0.009 0.019 0.019 0.019 0.011 0 0.019-0.009 0.019-0.019 0-0.011-0.008-0.019-0.019-0.019-0.009 0-0.019 0.007-0.019 0.019z"></path>
<path d="M5.175 12.431c0 0.021 0.009 0.038 0.019 0.038 0.011 0 0.019-0.017 0.019-0.038s-0.007-0.037-0.019-0.037c-0.009 0-0.019 0.017-0.019 0.037z"></path>
<path d="M5.167 12.516c-0.006 0.015-0.002 0.028 0.008 0.028 0.011 0 0.019-0.013 0.019-0.028s-0.004-0.028-0.007-0.028c-0.004 0-0.011 0.013-0.019 0.028z"></path>
<path d="M16.361 13.026c-0.017 0.019-0.013 0.081 0.006 0.081 0.021 0 0.039-0.073 0.021-0.084-0.008-0.004-0.019-0.004-0.026 0.004z"></path>
<path d="M11.1 14.888c0 0.009 0.007 0.019 0.017 0.019 0.011 0 0.024-0.009 0.030-0.019 0.006-0.011-0.002-0.019-0.017-0.019-0.017 0-0.030 0.008-0.030 0.019z"></path>
<path d="M7.706 15c0 0.009 0.009 0.019 0.019 0.019 0.011 0 0.019-0.009 0.019-0.019 0-0.011-0.007-0.019-0.019-0.019-0.009 0-0.019 0.008-0.019 0.019z"></path>
<path d="M21.263 15.184c0 0.011-0.017 0.015-0.038 0.009-0.051-0.013-0.047 0 0.019 0.066 0.038 0.038 0.056 0.077 0.056 0.112 0 0.062 0.060 0.128 0.098 0.107 0.019-0.011 0.019-0.009 0.002 0.009s-0.002 0.047 0.075 0.135c0.054 0.060 0.107 0.105 0.12 0.099 0.090-0.036 0.090-0.036 0.068-0.006-0.013 0.015-0.019 0.034-0.011 0.041s0 0.008-0.019 0c-0.017-0.006-0.032-0.008-0.032-0.002 0 0.011 0.062 0.124 0.111 0.201 0.045 0.073 0.075 0.167 0.054 0.18-0.009 0.006-0.008 0.023 0.008 0.039 0.019 0.023 0.017 0.032-0.009 0.045-0.019 0.011-0.032 0.041-0.032 0.069 0 0.075-0.047 0.131-0.131 0.156-0.127 0.039-0.167 0.131-0.069 0.157 0.023 0.006 0.084 0.032 0.135 0.056 0.052 0.024 0.109 0.049 0.126 0.054 0.051 0.015 0.096 0.098 0.082 0.154-0.008 0.026-0.047 0.084-0.090 0.131-0.084 0.090-0.081 0.107 0.023 0.131 0.026 0.008 0.058 0.024 0.071 0.041 0.021 0.026 0.030 0.026 0.105-0.009 0.045-0.023 0.114-0.081 0.154-0.131 0.039-0.049 0.109-0.129 0.152-0.178 0.045-0.049 0.081-0.101 0.081-0.114 0-0.015 0.013-0.037 0.028-0.051s0.028-0.030 0.028-0.039c0-0.009-0.013-0.017-0.028-0.017-0.037 0-0.036-0.043 0.006-0.094 0.043-0.054 0.186-0.075 0.203-0.030 0.021 0.053 0.064-0.002 0.051-0.064-0.008-0.045-0.002-0.058 0.049-0.083 0.043-0.024 0.058-0.043 0.058-0.082 0-0.028 0.017-0.084 0.036-0.122 0.034-0.067 0.034-0.071 0.002-0.088-0.069-0.038-0.165-0.023-0.231 0.037-0.075 0.064-0.133 0.071-0.249 0.026-0.054-0.021-0.077-0.039-0.069-0.056 0.006-0.015 0-0.026-0.011-0.026s-0.021 0.008-0.021 0.019c0 0.036-0.053 0.019-0.082-0.026-0.030-0.049-0.071-0.184-0.069-0.242 0-0.017-0.009-0.032-0.019-0.032-0.011 0-0.013 0.008-0.008 0.019 0.006 0.009 0 0.019-0.015 0.019s-0.032-0.013-0.039-0.028c-0.006-0.015-0.023-0.028-0.039-0.028-0.032 0-0.038 0.021-0.011 0.047 0.023 0.026 0.041 0.141 0.023 0.141-0.009 0-0.021-0.013-0.028-0.028-0.006-0.015-0.024-0.028-0.041-0.028-0.024 0-0.026-0.006-0.008-0.028s0.019-0.028-0.008-0.028c-0.017 0-0.030 0.009-0.030 0.023 0 0.011-0.017 0.006-0.038-0.013-0.047-0.043-0.051-0.107-0.006-0.090 0.034 0.013 0.032 0.009-0.051-0.086-0.077-0.088-0.077-0.090-0.047-0.122 0.028-0.026 0.026-0.034-0.017-0.077-0.026-0.026-0.060-0.047-0.077-0.047s-0.024-0.009-0.019-0.019c0.015-0.024-0.116-0.081-0.152-0.068-0.015 0.006-0.026 0.002-0.026-0.009s-0.013-0.015-0.030-0.009c-0.034 0.013-0.101-0.060-0.088-0.094 0.004-0.013 0-0.028-0.011-0.036-0.011-0.006-0.021-0.004-0.021 0.006zM21.656 15.664c0 0.021-0.036 0.028-0.047 0.011-0.006-0.009 0.002-0.019 0.017-0.019 0.017 0 0.030 0.004 0.030 0.008z"></path>
<path d="M11.569 15.244c0 0.009 0.009 0.019 0.021 0.019 0.009 0 0.013-0.009 0.008-0.019-0.006-0.011-0.015-0.019-0.021-0.019-0.004 0-0.007 0.008-0.007 0.019z"></path>
<path d="M11.799 15.426c-0.124 0.028-0.154 0.066-0.075 0.092 0.060 0.019 0.244 0.024 0.266 0.006 0.011-0.008 0.045-0.017 0.075-0.021 0.084-0.009 0.073-0.060-0.013-0.067-0.039-0.004-0.071-0.013-0.071-0.024 0-0.023-0.041-0.019-0.182 0.015z"></path>
<path d="M21.919 15.664c0 0.026 0.052 0.079 0.066 0.064 0.004-0.004 0.004-0.026-0.004-0.049-0.011-0.045-0.062-0.058-0.062-0.015z"></path>
<path d="M14.081 16.219c0.037 0.024 0.062 0.024 0.047 0-0.006-0.011-0.026-0.019-0.043-0.019-0.028 0-0.028 0.004-0.004 0.019z"></path>
<path d="M13.729 16.523c-0.028 0.028-0.030 0.122-0.002 0.139 0.011 0.006 0.037-0.004 0.056-0.024 0.030-0.030 0.034-0.045 0.019-0.086-0.023-0.056-0.039-0.062-0.073-0.028z"></path>
<path d="M14.814 16.564c-0.013 0.017-0.004 0.039 0.034 0.083 0.030 0.032 0.045 0.062 0.036 0.064-0.013 0.006-0.013 0.021 0.002 0.049 0.023 0.043 0.058 0.056 0.058 0.023 0-0.011 0.013-0.019 0.028-0.019 0.038 0 0.036-0.032-0.004-0.054-0.019-0.011-0.024-0.021-0.011-0.021s0.019-0.013 0.011-0.034c-0.028-0.081-0.118-0.133-0.154-0.090z"></path>
<path d="M13.974 16.738c-0.013 0.004-0.024 0.023-0.024 0.039 0.002 0.030 0.004 0.030 0.026 0 0.013-0.019 0.030-0.028 0.036-0.021 0.008 0.006 0.013 0.002 0.013-0.009 0-0.024-0.013-0.026-0.051-0.009z"></path>
<path d="M14.006 16.8c0 0.009 0.009 0.019 0.021 0.019 0.009 0 0.013-0.009 0.008-0.019-0.006-0.011-0.015-0.019-0.021-0.019-0.004 0-0.008 0.008-0.008 0.019z"></path>
<path d="M13.944 16.83c-0.008 0.008-0.013 0.039-0.013 0.071 0 0.062 0.043 0.143 0.137 0.261 0.041 0.052 0.051 0.077 0.034 0.086-0.036 0.023-0.008 0.099 0.077 0.201 0.099 0.122 0.135 0.144 0.266 0.171 0.116 0.024 0.161 0.011 0.161-0.043 0-0.032 0.056-0.062 0.092-0.049 0.019 0.006 0.023 0 0.015-0.023-0.008-0.017-0.004-0.030 0.006-0.030 0.011 0 0.019-0.013 0.019-0.028 0-0.017 0.017-0.028 0.041-0.028 0.039 0 0.039 0 0.006 0.026-0.030 0.023-0.032 0.030-0.011 0.056 0.056 0.068 0.139 0.017 0.098-0.062-0.017-0.030-0.015-0.039 0.017-0.049 0.043-0.013 0.051-0.047 0.009-0.047-0.034 0-0.034-0.008 0-0.094 0.024-0.064 0.026-0.064 0.026-0.015 0.002 0.030 0.013 0.053 0.026 0.053 0.019 0 0.023-0.047 0.021-0.199-0.002-0.176-0.008-0.204-0.043-0.238-0.034-0.034-0.045-0.038-0.077-0.017-0.021 0.011-0.054 0.023-0.075 0.023s-0.037 0.008-0.037 0.019c0 0.009-0.043 0.019-0.096 0.019-0.084 0-0.094 0.004-0.082 0.032 0.009 0.026 0.008 0.028-0.011 0.011-0.015-0.015-0.053-0.019-0.101-0.011-0.058 0.008-0.122-0.004-0.227-0.037-0.182-0.058-0.259-0.075-0.276-0.058zM14.175 17.288c0 0.009-0.004 0.019-0.008 0.019-0.006 0-0.015-0.009-0.021-0.019-0.006-0.011-0.002-0.019 0.008-0.019 0.011 0 0.021 0.008 0.021 0.019z"></path>
<path d="M21.163 16.883c-0.103 0.038-0.144 0.081-0.144 0.156 0 0.069-0.084 0.174-0.139 0.174-0.030 0-0.086 0.090-0.086 0.137 0 0.043-0.126 0.174-0.191 0.201-0.034 0.015-0.111 0.062-0.171 0.107-0.062 0.045-0.12 0.081-0.133 0.081-0.011 0-0.060 0.021-0.109 0.047s-0.109 0.047-0.133 0.047c-0.026 0-0.118 0.060-0.236 0.154-0.165 0.131-0.189 0.159-0.18 0.197 0.008 0.030 0.002 0.043-0.017 0.043-0.017 0-0.024-0.011-0.019-0.026s0.002-0.032-0.009-0.039c-0.011-0.006-0.021-0.002-0.021 0.009s-0.013 0.034-0.028 0.049c-0.036 0.036-0.036 0.064-0.004 0.064 0.015 0 0.026 0.013 0.026 0.028 0 0.021-0.008 0.023-0.021 0.009-0.032-0.032-0.081-0.021-0.092 0.019-0.008 0.026 0.009 0.056 0.049 0.096 0.056 0.056 0.062 0.058 0.174 0.047 0.092-0.009 0.12-0.006 0.139 0.017 0.017 0.019 0.041 0.026 0.073 0.019 0.026-0.006 0.062-0.002 0.077 0.009 0.021 0.013 0.021 0.019 0.004 0.019-0.013 0-0.019 0.009-0.011 0.021 0.008 0.013 0.041 0.017 0.084 0.011 0.041-0.006 0.079-0.002 0.084 0.009 0.017 0.026 0.169 0 0.253-0.043 0.037-0.019 0.092-0.060 0.122-0.092 0.030-0.030 0.066-0.056 0.079-0.056s0.043-0.009 0.064-0.021c0.028-0.015 0.032-0.024 0.015-0.036-0.028-0.017-0.006-0.066 0.077-0.171 0.032-0.039 0.054-0.092 0.054-0.124 0-0.082 0.045-0.128 0.182-0.184 0.071-0.028 0.137-0.058 0.148-0.067s0.043-0.008 0.077 0.006c0.060 0.023 0.118 0.011 0.118-0.023 0-0.011-0.024-0.030-0.056-0.039-0.075-0.028-0.075-0.084 0.004-0.126 0.032-0.017 0.075-0.049 0.094-0.069 0.266-0.293 0.308-0.347 0.261-0.347-0.041 0-0.034-0.077 0.011-0.112 0.026-0.021 0.041-0.045 0.034-0.058-0.013-0.019-0.049-0.017-0.159 0.009-0.039 0.009-0.041 0.009-0.009-0.006 0.021-0.009 0.030-0.019 0.021-0.019-0.009-0.002-0.002-0.019 0.017-0.039 0.030-0.034 0.030-0.038 0.004-0.038-0.017 0-0.039 0.017-0.051 0.038-0.017 0.032-0.144 0.112-0.178 0.112-0.006 0-0.009-0.028-0.009-0.064 0-0.053-0.008-0.066-0.041-0.071-0.054-0.008-0.067-0.053-0.015-0.053 0.023 0 0.034-0.009 0.028-0.019-0.015-0.024-0.021-0.023-0.109 0.008z"></path>
<path d="M14.634 17.571c-0.008 0.011-0.008 0.024-0.002 0.030 0.015 0.015 0.068-0.009 0.068-0.032 0-0.024-0.051-0.024-0.066 0.002z"></path>
<path d="M20.822 18.636c0.008 0.024-0.004 0.047-0.038 0.073-0.039 0.032-0.043 0.039-0.015 0.049 0.017 0.008 0.039 0.004 0.051-0.008 0.009-0.009 0.037-0.019 0.060-0.019 0.066 0 0.101-0.021 0.101-0.054 0-0.049-0.039-0.077-0.109-0.077-0.052 0-0.060 0.006-0.051 0.036z"></path>
<path d="M23.888 19.427c0 0.009 0.009 0.013 0.019 0.008 0.011-0.006 0.019-0.015 0.019-0.021 0-0.004-0.008-0.008-0.019-0.008-0.009 0-0.019 0.009-0.019 0.021z"></path>
<path d="M20.357 19.684c-0.036 0.039-0.041 0.071-0.013 0.088 0.026 0.015 0.098-0.026 0.082-0.049-0.006-0.009 0-0.030 0.011-0.045 0.036-0.043-0.043-0.038-0.081 0.006z"></path>
<path d="M21.197 20.212c0.006 0.009 0.024 0.019 0.039 0.019s0.026-0.009 0.026-0.019c0-0.011-0.017-0.019-0.039-0.019-0.021 0-0.032 0.008-0.026 0.019z"></path>
</svg>
