<!-- Generated by IcoMoon.io -->
<svg version="1.1" xmlns="http://www.w3.org/2000/svg" width="24" height="24" viewBox="0 0 24 24">
<path d="M22.106 4.884c-0.169 0.007-0.289 0.021-0.317 0.036-0.036 0.021-0.064 0.021-0.141 0.004-0.071-0.017-0.146-0.017-0.302-0.002-0.112 0.011-0.293 0.021-0.398 0.021-0.172 0-0.197 0.004-0.261 0.049-0.067 0.045-0.073 0.045-0.122 0.017-0.079-0.047-0.141-0.037-0.186 0.026-0.049 0.067-0.068 0.069-0.18 0.009-0.114-0.060-0.141-0.058-0.186 0.015-0.047 0.075-0.092 0.084-0.161 0.034-0.043-0.032-0.060-0.036-0.088-0.019-0.028 0.019-0.045 0.015-0.090-0.019-0.053-0.037-0.064-0.039-0.317-0.023-0.234 0.017-0.281 0.026-0.441 0.088-0.167 0.064-0.193 0.069-0.403 0.073-0.244 0.004-0.452 0.037-0.467 0.075-0.004 0.013 0.004 0.047 0.019 0.075s0.026 0.053 0.026 0.056c0 0.015-0.178 0.047-0.255 0.047-0.118 0-0.669 0.075-0.688 0.094-0.009 0.008-0.011 0.032-0.004 0.053 0.011 0.037 0.024 0.039 0.298 0.037 0.156-0.002 0.296 0.004 0.311 0.013 0.017 0.011-0.032 0.030-0.146 0.058-0.158 0.039-0.18 0.041-0.249 0.017-0.099-0.036-0.189-0.019-0.182 0.036 0.006 0.034 0.017 0.039 0.084 0.034 0.081-0.008 0.081-0.008 0.069 0.049-0.011 0.053-0.008 0.054 0.068 0.067 0.058 0.009 0.092 0.004 0.124-0.017 0.060-0.037 0.15-0.036 0.176 0.004 0.017 0.030 0.023 0.028 0.066-0.023s0.051-0.053 0.067-0.024c0.024 0.045 0.075 0.043 0.135-0.004 0.058-0.045 0.092-0.049 0.084-0.008-0.006 0.026 0.015 0.032 0.118 0.034 0.086 0.002 0.137 0.011 0.159 0.032 0.021 0.017 0.060 0.036 0.088 0.043 0.041 0.009 0.051 0.022 0.047 0.054s0.006 0.043 0.043 0.047c0.041 0.006 0.051 0.019 0.071 0.112 0.028 0.126 0.006 0.246-0.066 0.371-0.066 0.111-0.060 0.144 0.017 0.129 0.032-0.006 0.083-0.021 0.109-0.030 0.039-0.015 0.064-0.009 0.135 0.034 0.099 0.060 0.114 0.082 0.079 0.129-0.023 0.032-0.028 0.032-0.096 0.002-0.096-0.041-0.242-0.051-0.242-0.015 0 0.015 0.036 0.036 0.084 0.047 0.217 0.056 0.289 0.129 0.234 0.234-0.030 0.060-0.030 0.060-0.139 0.047-0.103-0.011-0.111-0.009-0.169 0.047-0.032 0.032-0.067 0.058-0.077 0.058-0.008 0-0.041 0.022-0.073 0.049-0.071 0.058-0.082 0.156-0.021 0.171 0.041 0.011 0.051 0.043 0.013 0.043-0.034 0-0.088 0.062-0.088 0.099 0 0.017 0.023 0.051 0.051 0.077 0.051 0.047 0.051 0.049 0.030 0.173-0.026 0.146-0.004 0.227 0.077 0.279 0.039 0.026 0.043 0.038 0.024 0.066-0.017 0.030-0.015 0.045 0.017 0.088 0.023 0.028 0.049 0.084 0.062 0.124 0.013 0.037 0.039 0.079 0.058 0.088 0.052 0.028 0.217 0.022 0.242-0.008 0.019-0.022 0.034-0.021 0.096 0.015 0.056 0.030 0.077 0.054 0.086 0.099 0.013 0.067 0.028 0.077 0.064 0.034 0.019-0.022 0.045-0.026 0.101-0.019 0.075 0.011 0.079 0.009 0.165-0.098 0.049-0.060 0.109-0.127 0.129-0.15 0.032-0.032 0.039-0.054 0.030-0.107-0.011-0.068 0.026-0.129 0.052-0.086 0.021 0.032 0.045 0.021 0.075-0.037 0.017-0.032 0.043-0.056 0.062-0.056 0.051 0 0.116-0.054 0.116-0.096 0-0.022-0.013-0.036-0.038-0.036-0.058 0-0.045-0.038 0.017-0.049 0.051-0.011 0.054-0.017 0.045-0.075-0.011-0.064-0.011-0.064 0.066-0.064 0.045 0 0.079-0.009 0.084-0.026 0.006-0.015 0.056-0.030 0.128-0.038 0.143-0.017 0.182-0.036 0.189-0.090 0.004-0.024 0.021-0.045 0.039-0.049 0.028-0.006 0.034 0 0.023 0.034-0.011 0.038-0.008 0.039 0.088 0.034 0.073-0.004 0.099-0.013 0.099-0.034s0.023-0.028 0.081-0.032c0.096-0.004 0.135-0.026 0.27-0.163 0.067-0.067 0.122-0.105 0.157-0.109 0.047-0.004 0.054-0.015 0.060-0.067 0.008-0.073 0.015-0.073 0.081-0.011 0.051 0.049 0.051 0.049 0.15 0.019 0.056-0.015 0.174-0.036 0.264-0.047 0.105-0.011 0.195-0.036 0.253-0.064 0.081-0.041 0.223-0.099 0.48-0.191 0.092-0.032 0.109-0.054 0.058-0.073-0.054-0.021-0.465 0.011-0.51 0.039-0.024 0.015-0.058 0.022-0.073 0.017-0.047-0.019 0.024-0.082 0.105-0.096 0.122-0.021 0.152-0.041 0.152-0.103 0-0.056 0.004-0.058 0.069-0.053 0.054 0.004 0.075 0.017 0.099 0.062 0.026 0.047 0.043 0.056 0.105 0.058 0.039 0 0.088 0.008 0.105 0.015 0.068 0.030 0.099 0.006 0.098-0.073-0.002-0.066-0.008-0.075-0.043-0.069-0.028 0.004-0.039-0.004-0.039-0.032 0-0.043-0.034-0.069-0.081-0.062-0.019 0.004-0.054-0.006-0.077-0.022-0.045-0.028-0.116-0.156-0.098-0.174 0.009-0.011 0.082 0.009 0.272 0.079 0.051 0.019 0.090 0.022 0.099 0.013 0.011-0.011 0.011-0.022-0.002-0.030-0.066-0.041 0.051-0.141 0.167-0.144 0.036 0 0.103-0.015 0.15-0.036 0.073-0.030 0.084-0.039 0.079-0.084l-0.006-0.051 0.101 0.013c0.079 0.009 0.105 0.006 0.124-0.017 0.030-0.037 0.011-0.067-0.043-0.067-0.024 0-0.054-0.013-0.068-0.030-0.021-0.024-0.019-0.030 0.013-0.038 0.030-0.007 0.037-0.024 0.036-0.079-0.002-0.058 0.006-0.069 0.041-0.075 0.028-0.004 0.041-0.017 0.038-0.037-0.004-0.024-0.030-0.034-0.096-0.038-0.049-0.004-0.088-0.013-0.088-0.024 0-0.009 0.008-0.017 0.017-0.017 0.011 0 0.058-0.034 0.105-0.075s0.099-0.075 0.114-0.075c0.038 0 0.032-0.038-0.013-0.086-0.047-0.051-0.030-0.090 0.032-0.077 0.024 0.004 0.054-0.004 0.066-0.017 0.011-0.015 0.041-0.026 0.066-0.026 0.023 0 0.056-0.013 0.071-0.030 0.021-0.021 0.047-0.026 0.084-0.017 0.039 0.008 0.066 0 0.107-0.034 0.038-0.032 0.090-0.049 0.167-0.058 0.124-0.013 0.172-0.041 0.101-0.056-0.234-0.049-0.362-0.054-0.459-0.022-0.051 0.015-0.148 0.032-0.216 0.036-0.086 0.004-0.135 0.017-0.158 0.037-0.017 0.017-0.045 0.032-0.064 0.032-0.017 0-0.077 0.017-0.133 0.036-0.056 0.021-0.109 0.032-0.116 0.028-0.030-0.019-0.013-0.041 0.056-0.073 0.064-0.032 0.096-0.060 0.098-0.084 0-0.006-0.081-0.007-0.178-0.004-0.174 0.007-0.21-0.004-0.154-0.049 0.013-0.011 0.109-0.024 0.21-0.026 0.12-0.004 0.188-0.013 0.191-0.028 0.006-0.013-0.024-0.026-0.082-0.034-0.191-0.024-0.337-0.051-0.416-0.077-0.047-0.015-0.101-0.024-0.122-0.022-0.023 0.002-0.161 0.008-0.311 0.015z"></path>
<path d="M17.451 4.935c-0.009 0.007-0.184 0.015-0.39 0.017l-0.375 0.004-0.045 0.049c-0.047 0.051-0.111 0.064-0.131 0.030-0.015-0.024-0.18-0.008-0.274 0.028-0.045 0.017-0.174 0.028-0.371 0.032-0.165 0.002-0.302 0.009-0.302 0.017s0.026 0.037 0.056 0.067l0.056 0.054 0.33 0.004c0.182 0.004 0.339 0.009 0.349 0.015s0.008 0.022-0.006 0.037c-0.026 0.032-0.319 0.037-0.377 0.006-0.030-0.017-0.047-0.011-0.088 0.026-0.026 0.024-0.073 0.053-0.105 0.058-0.054 0.013-0.054 0.013-0.021-0.024 0.036-0.039 0.030-0.096-0.011-0.096-0.011 0-0.041 0.019-0.066 0.041l-0.045 0.041-0.011-0.041c-0.008-0.032-0.024-0.041-0.073-0.041-0.051 0-0.067-0.009-0.082-0.045-0.009-0.028-0.041-0.054-0.081-0.066-0.056-0.019-0.086-0.015-0.225 0.034-0.088 0.030-0.176 0.064-0.197 0.075s-0.067 0.021-0.103 0.021c-0.088 0-0.161 0.060-0.133 0.107 0.028 0.045 0.214 0.069 0.321 0.043 0.043-0.009 0.094-0.019 0.112-0.019 0.030 0 0.030 0.002 0.002 0.030-0.023 0.022-0.069 0.032-0.182 0.034-0.131 0.002-0.152 0.006-0.152 0.034 0 0.053 0.075 0.084 0.227 0.098 0.128 0.011 0.144 0.007 0.176-0.026 0.019-0.021 0.053-0.037 0.073-0.037 0.023 0 0.101-0.017 0.176-0.037 0.073-0.021 0.171-0.037 0.216-0.037 0.114 0 0.199-0.034 0.212-0.083 0.009-0.037 0.017-0.034 0.103 0.049 0.051 0.051 0.092 0.092 0.092 0.096 0 0.002-0.122 0.002-0.272-0.002l-0.27-0.007-0.045 0.049c-0.028 0.030-0.066 0.049-0.099 0.049-0.066 0-0.092 0.017-0.109 0.066-0.008 0.030-0.028 0.039-0.081 0.041-0.099 0.006-0.276 0.071-0.283 0.107-0.009 0.047 0.047 0.056 0.203 0.032 0.107-0.019 0.156-0.019 0.184-0.004s0.054 0.013 0.109-0.009c0.058-0.024 0.084-0.026 0.143-0.009 0.056 0.017 0.090 0.017 0.161-0.006 0.099-0.028 0.163-0.013 0.12 0.030-0.011 0.011-0.023 0.034-0.023 0.049 0 0.028 0.008 0.028 0.187-0.024 0.056-0.017 0.15-0.036 0.206-0.043 0.092-0.011 0.103-0.019 0.109-0.060 0.009-0.060 0.037-0.094 0.079-0.094 0.017 0 0.047-0.017 0.067-0.039 0.023-0.024 0.051-0.036 0.079-0.030 0.026 0.006 0.073 0.002 0.105-0.006 0.032-0.009 0.081-0.021 0.111-0.026 0.034-0.007 0.051-0.024 0.051-0.049 0-0.021 0.021-0.051 0.045-0.066 0.024-0.017 0.067-0.064 0.094-0.103 0.060-0.090 0.118-0.098 0.251-0.030 0.071 0.036 0.107 0.043 0.191 0.036 0.060-0.006 0.118-0.024 0.141-0.043 0.026-0.023 0.081-0.036 0.169-0.041 0.082-0.006 0.161-0.024 0.21-0.051 0.043-0.021 0.105-0.039 0.135-0.039 0.081 0 0.114-0.017 0.114-0.058 0-0.036 0.015-0.037 0.283-0.034 0.176 0.002 0.291-0.006 0.302-0.017 0.038-0.037 0-0.077-0.082-0.086-0.045-0.006-0.152-0.019-0.24-0.032-0.088-0.011-0.328-0.024-0.534-0.026s-0.392-0.009-0.413-0.017c-0.021-0.007-0.045-0.007-0.053 0.002z"></path>
<path d="M13.562 5.477c-0.034 0.038-0.062 0.077-0.062 0.084 0 0.030 0.084 0.037 0.197 0.021 0.128-0.021 0.173-0.006 0.189 0.062 0.006 0.026 0.013 0.047 0.017 0.047 0.015 0 0.18-0.099 0.189-0.114 0.006-0.011-0.002-0.037-0.015-0.058-0.030-0.045-0.178-0.088-0.352-0.101-0.099-0.009-0.105-0.007-0.163 0.060z"></path>
<path d="M12.784 5.492c-0.019 0.013-0.034 0.036-0.034 0.051 0 0.021 0.032 0.026 0.146 0.024 0.201-0.004 0.195-0.002 0.188-0.051-0.006-0.037-0.017-0.041-0.137-0.045-0.088-0.004-0.143 0.004-0.163 0.021z"></path>
<path d="M14.288 5.531c-0.043 0.051 0.011 0.081 0.156 0.086 0.223 0.008 0.219-0.082-0.006-0.105-0.103-0.011-0.128-0.007-0.15 0.019z"></path>
<path d="M12.39 5.591c-0.019 0.004-0.034 0.024-0.034 0.045 0 0.026 0.013 0.036 0.047 0.036 0.056 0 0.159-0.049 0.159-0.075 0-0.019-0.111-0.023-0.172-0.006z"></path>
<path d="M12.806 5.597c-0.015 0.009-0.071 0.019-0.122 0.019-0.096 0-0.178 0.037-0.178 0.083 0 0.032 0.219 0.017 0.276-0.019 0.023-0.015 0.064-0.026 0.090-0.026 0.052 0 0.066-0.045 0.017-0.064-0.039-0.015-0.049-0.013-0.082 0.008z"></path>
<path d="M13.226 5.662c-0.024 0.036-0.026 0.053-0.009 0.073 0.045 0.054 0.112-0.004 0.114-0.097 0-0.041-0.073-0.024-0.105 0.024z"></path>
<path d="M11.925 5.67c-0.026 0.009-0.101 0.026-0.167 0.037-0.101 0.021-0.122 0.019-0.15-0.006-0.043-0.039-0.069-0.037-0.099 0.004-0.021 0.028-0.354 0.135-0.493 0.157-0.022 0.004-0.038 0.021-0.038 0.041 0 0.030 0.019 0.036 0.139 0.041 0.101 0.006 0.15 0 0.182-0.021 0.024-0.015 0.066-0.028 0.094-0.028s0.082-0.009 0.122-0.021c0.056-0.017 0.079-0.017 0.099 0 0.024 0.021 0.039 0.017 0.084-0.015 0.030-0.023 0.079-0.039 0.109-0.039 0.028 0 0.079-0.017 0.109-0.037 0.032-0.021 0.075-0.038 0.098-0.038 0.056 0 0.075-0.037 0.034-0.069-0.039-0.028-0.054-0.028-0.122-0.007z"></path>
<path d="M14.362 5.679c0 0.036 0.043 0.047 0.174 0.045 0.090 0 0.107-0.006 0.103-0.032-0.008-0.043-0.278-0.056-0.278-0.013z"></path>
<path d="M14.891 5.674c-0.081 0.024-0.067 0.066 0.017 0.060 0.105-0.009 0.148-0.024 0.148-0.053 0-0.032-0.067-0.036-0.165-0.008z"></path>
<path d="M14.134 5.779c-0.058 0.015-0.036 0.060 0.039 0.081 0.041 0.011 0.12 0.015 0.174 0.008 0.082-0.009 0.105-0.006 0.128 0.021 0.028 0.034 0.030 0.034-0.096 0.124-0.058 0.041-0.036 0.092 0.041 0.092 0.034 0 0.077 0.015 0.096 0.032 0.032 0.028 0.039 0.028 0.101 0 0.090-0.043 0.126-0.041 0.111 0.006s0.019 0.049 0.169 0.004c0.152-0.045 0.45-0.043 0.521 0.006 0.066 0.043 0.302 0.032 0.371-0.015 0.024-0.019 0.058-0.032 0.077-0.032 0.023 0 0.034-0.015 0.034-0.043 0-0.114-0.174-0.161-0.437-0.116-0.090 0.015-0.188 0.028-0.217 0.028-0.032 0-0.062 0.008-0.068 0.019-0.017 0.028-0.129 0.022-0.171-0.009-0.047-0.036-0.101-0.036-0.152 0-0.036 0.026-0.039 0.024-0.047-0.019-0.006-0.024 0.002-0.056 0.017-0.071 0.023-0.023 0.015-0.030-0.049-0.060-0.043-0.019-0.097-0.028-0.126-0.022s-0.090-0.002-0.137-0.017c-0.081-0.024-0.309-0.032-0.381-0.013z"></path>
<path d="M12.484 5.814c-0.060 0.032-0.060 0.034-0.030 0.081 0.032 0.051 0.006 0.096-0.054 0.096-0.090-0.002-0.234-0.049-0.261-0.084-0.036-0.049-0.307-0.064-0.373-0.021-0.024 0.017-0.062 0.030-0.081 0.030s-0.054 0.015-0.075 0.036c-0.023 0.019-0.060 0.030-0.082 0.026-0.053-0.009-0.171 0.062-0.159 0.094 0.004 0.013 0.021 0.019 0.034 0.015 0.015-0.006 0.051-0.009 0.079-0.009 0.028-0.002 0.058-0.011 0.066-0.022s0.075-0.021 0.15-0.022c0.105-0.002 0.135 0.004 0.135 0.024 0 0.032-0.062 0.051-0.131 0.043-0.030-0.004-0.047 0.006-0.053 0.026-0.009 0.045 0.079 0.064 0.178 0.038 0.045-0.013 0.105-0.022 0.133-0.022s0.111-0.017 0.182-0.037c0.092-0.026 0.188-0.038 0.315-0.038 0.306 0 0.508-0.079 0.422-0.165-0.032-0.032-0.066-0.028-0.128 0.019-0.073 0.054-0.112 0.024-0.066-0.047 0.017-0.028 0.026-0.058 0.019-0.069-0.017-0.028-0.161-0.022-0.219 0.011z"></path>
<path d="M13.539 5.824c-0.096 0.038-0.167 0.144-0.116 0.174 0.009 0.006 0.013 0.026 0.009 0.045-0.008 0.026 0.006 0.032 0.094 0.037 0.082 0.004 0.124-0.006 0.214-0.053 0.126-0.064 0.21-0.135 0.21-0.178s-0.047-0.054-0.099-0.021c-0.041 0.028-0.049 0.028-0.069 0.002-0.026-0.032-0.169-0.038-0.242-0.008z"></path>
<path d="M13.125 5.85c0 0.017 0.013 0.034 0.028 0.039 0.015 0.007 0.028 0.028 0.028 0.047 0 0.047 0.041 0.064 0.092 0.037 0.038-0.021 0.043-0.081 0.013-0.129-0.021-0.034-0.161-0.030-0.161 0.006z"></path>
<path d="M12.904 6.013c-0.045 0.045-0.026 0.077 0.038 0.064 0.062-0.011 0.109-0.043 0.109-0.069 0-0.024-0.12-0.021-0.146 0.006z"></path>
<path d="M13.909 6.030c-0.045 0.026-0.043 0.067 0.006 0.094 0.054 0.028 0.206 0.009 0.232-0.028 0.013-0.017 0.037-0.030 0.056-0.030 0.026 0 0.028-0.006 0.009-0.028-0.028-0.034-0.251-0.039-0.304-0.007z"></path>
<path d="M10.352 6.176c-0.021 0.021-0.039 0.056-0.039 0.075 0 0.026-0.021 0.043-0.069 0.058-0.039 0.013-0.137 0.060-0.216 0.105-0.081 0.047-0.172 0.088-0.202 0.096-0.075 0.013-0.084 0.036-0.037 0.075 0.021 0.019 0.037 0.047 0.037 0.064 0 0.069 0.051 0.081 0.167 0.038 0.060-0.021 0.146-0.039 0.193-0.039 0.062 0 0.094-0.011 0.12-0.039 0.049-0.054 0.131-0.094 0.165-0.081 0.017 0.006 0.069-0.013 0.118-0.045 0.051-0.030 0.128-0.062 0.174-0.069 0.047-0.006 0.122-0.022 0.169-0.038 0.047-0.013 0.131-0.030 0.188-0.038 0.172-0.019 0.195-0.062 0.067-0.131-0.058-0.032-0.077-0.034-0.152-0.013-0.112 0.030-0.161 0.028-0.212-0.007-0.028-0.019-0.105-0.032-0.236-0.039-0.18-0.009-0.197-0.007-0.234 0.030z"></path>
<path d="M13.969 6.234c-0.058 0.008-0.122 0.022-0.144 0.034-0.023 0.013-0.062 0.022-0.088 0.022-0.030 0-0.049 0.011-0.049 0.026s-0.021 0.032-0.047 0.038c-0.062 0.015-0.105 0.148-0.064 0.189 0.037 0.038 0.144 0.008 0.195-0.054 0.045-0.054 0.069-0.060 0.167-0.039 0.066 0.013 0.092 0.006 0.216-0.056 0.079-0.039 0.163-0.081 0.189-0.092 0.026-0.013 0.047-0.034 0.047-0.049 0-0.022-0.032-0.028-0.159-0.030-0.088 0-0.206 0.004-0.262 0.011z"></path>
<path d="M14.813 6.253c-0.026 0.007-0.144 0.047-0.263 0.084-0.199 0.062-0.223 0.075-0.324 0.171-0.109 0.107-0.12 0.139-0.043 0.139 0.053 0 0.163 0.036 0.189 0.062 0.013 0.011-0.030 0.013-0.122 0.006-0.109-0.009-0.15-0.006-0.178 0.015-0.036 0.026-0.036 0.028 0.009 0.066 0.036 0.028 0.073 0.038 0.161 0.039 0.062 0 0.12 0.007 0.131 0.017 0.009 0.009 0.081 0.021 0.157 0.026 0.077 0.004 0.204 0.019 0.281 0.034s0.195 0.024 0.263 0.024c0.139-0.004 0.266-0.049 0.251-0.090-0.006-0.015 0-0.032 0.011-0.039 0.013-0.008 0.054 0.022 0.101 0.077 0.043 0.049 0.109 0.099 0.144 0.113l0.064 0.022-0.058 0.002c-0.071 0.002-0.15 0.060-0.135 0.098 0.013 0.036 0.163 0.024 0.178-0.013 0.011-0.030 0.056-0.036 0.066-0.007 0.004 0.009 0.043 0.038 0.090 0.062 0.082 0.043 0.084 0.047 0.084 0.137 0 0.073-0.006 0.092-0.032 0.092-0.017 0-0.047 0.015-0.066 0.034-0.021 0.017-0.058 0.032-0.084 0.032s-0.053 0.011-0.058 0.026c-0.006 0.015-0.041 0.038-0.077 0.051-0.068 0.024-0.086 0.066-0.047 0.105 0.030 0.030 0.004 0.039-0.152 0.062-0.109 0.015-0.15 0.013-0.217-0.009-0.109-0.036-0.126-0.036-0.165 0.007-0.019 0.021-0.060 0.039-0.094 0.043-0.051 0.006-0.060 0.013-0.067 0.071-0.021 0.124 0.008 0.135 0.201 0.082 0.060-0.015 0.188-0.030 0.281-0.032 0.152-0.004 0.172 0 0.165 0.026-0.011 0.036 0.024 0.071 0.096 0.090 0.066 0.017 0.079 0.053 0.023 0.062-0.026 0.004-0.045 0.021-0.049 0.045-0.004 0.032 0.006 0.039 0.056 0.039 0.111 0.004 0.182 0.026 0.193 0.064 0.013 0.038 0.037 0.045 0.178 0.062 0.045 0.004 0.092 0.022 0.105 0.038 0.026 0.036 0.101 0.039 0.146 0.006 0.032-0.024 0.032-0.028 0.004-0.084-0.017-0.034-0.039-0.060-0.049-0.060-0.032 0-0.188-0.12-0.188-0.144 0-0.028 0.049-0.034 0.066-0.006 0.006 0.009 0.036 0.019 0.064 0.019 0.039 0 0.067 0.017 0.103 0.064 0.034 0.045 0.058 0.062 0.084 0.054 0.024-0.006 0.043 0.004 0.058 0.034l0.024 0.043 0.026-0.051c0.013-0.028 0.034-0.051 0.043-0.051 0.011 0 0.019-0.017 0.019-0.038 0-0.024 0.013-0.037 0.038-0.037 0.051 0 0.067-0.047 0.038-0.103-0.013-0.024-0.019-0.058-0.011-0.077 0.015-0.039-0.021-0.082-0.067-0.082-0.045 0-0.146-0.103-0.146-0.148 0.002-0.041 0.084-0.133 0.124-0.133 0.067 0 0.174 0.081 0.212 0.161 0.034 0.069 0.045 0.079 0.112 0.086 0.090 0.008 0.114 0.002 0.114-0.032 0-0.043 0.053-0.073 0.098-0.053 0.034 0.015 0.053 0.007 0.103-0.043 0.034-0.034 0.062-0.071 0.062-0.081s0.023-0.017 0.049-0.015c0.062 0.004 0.101-0.047 0.071-0.096-0.015-0.022-0.060-0.038-0.154-0.049-0.118-0.015-0.135-0.022-0.135-0.056 0-0.071-0.032-0.096-0.126-0.098-0.049-0.002-0.131-0.017-0.18-0.036-0.154-0.056-0.137-0.127 0.023-0.111 0.049 0.006 0.098 0.002 0.111-0.008 0.034-0.022 0.008-0.079-0.041-0.081-0.039 0-0.039 0 0.004-0.017 0.051-0.021 0.053-0.066 0.006-0.143-0.030-0.049-0.051-0.060-0.133-0.069-0.077-0.009-0.113-0.026-0.172-0.081-0.075-0.068-0.086-0.069-0.197-0.036-0.034 0.011-0.049 0-0.088-0.064-0.064-0.099-0.122-0.135-0.21-0.129-0.041 0.002-0.109-0.004-0.152-0.011-0.071-0.013-0.081-0.009-0.109 0.034-0.034 0.051-0.099 0.064-0.135 0.028-0.015-0.015-0.043-0.009-0.099 0.021-0.053 0.028-0.077 0.032-0.071 0.015 0.004-0.013 0.039-0.039 0.077-0.058s0.069-0.041 0.069-0.047c0-0.007-0.017-0.039-0.036-0.071-0.049-0.081-0.15-0.096-0.298-0.047-0.060 0.021-0.129 0.032-0.154 0.026-0.028-0.008-0.047-0.002-0.060 0.019-0.008 0.017-0.045 0.036-0.079 0.041-0.043 0.009-0.084 0.039-0.131 0.094-0.073 0.088-0.084 0.122-0.041 0.122 0.039 0 0.056 0.036 0.030 0.066-0.017 0.021-0.032 0.021-0.067 0.006-0.071-0.034-0.075-0.096-0.013-0.197 0.047-0.075 0.069-0.092 0.148-0.114 0.143-0.041 0.176-0.056 0.176-0.086 0-0.013-0.026-0.030-0.058-0.038-0.071-0.013-0.088-0.013-0.148 0.008z"></path>
<path d="M12.422 6.27c-0.019 0.017-0.008 0.054 0.024 0.096 0.032 0.039 0.038 0.039 0.141 0.017 0.079-0.019 0.107-0.034 0.107-0.058 0-0.017-0.011-0.038-0.023-0.047-0.026-0.015-0.236-0.022-0.249-0.008z"></path>
<path d="M13.256 6.274c-0.15 0.006-0.278 0.013-0.285 0.015-0.036 0.006-0.009 0.037 0.043 0.056 0.075 0.026 0.062 0.062-0.028 0.084-0.056 0.015-0.082 0.011-0.133-0.015-0.049-0.026-0.069-0.030-0.101-0.011-0.054 0.028-0.043 0.056 0.045 0.107 0.041 0.022 0.082 0.066 0.096 0.099 0.024 0.054 0.032 0.060 0.086 0.049 0.034-0.006 0.114-0.017 0.18-0.028 0.186-0.026 0.341-0.161 0.236-0.202-0.028-0.011-0.028-0.015 0.004-0.038 0.019-0.013 0.054-0.024 0.081-0.024 0.066 0 0.101-0.026 0.092-0.066-0.008-0.043 0.006-0.043-0.315-0.026z"></path>
<path d="M15.549 6.293c-0.036 0.038-0.030 0.069 0.021 0.101 0.039 0.026 0.058 0.026 0.128 0.007 0.049-0.013 0.131-0.017 0.208-0.009 0.114 0.011 0.126 0.009 0.126-0.024 0-0.066-0.051-0.082-0.259-0.092-0.148-0.006-0.206-0.002-0.223 0.017z"></path>
<path d="M12.081 6.407c-0.032 0.034-0.062 0.086-0.066 0.118-0.008 0.068-0.094 0.126-0.129 0.090-0.017-0.017-0.015-0.034 0.009-0.069 0.041-0.066 0.037-0.096-0.017-0.12-0.064-0.030-0.094-0.028-0.122 0.006-0.015 0.017-0.054 0.028-0.103 0.028-0.054 0-0.084-0.009-0.092-0.028-0.015-0.039-0.079-0.036-0.174 0.011-0.092 0.045-0.122 0.036-0.071-0.021 0.049-0.054 0.021-0.068-0.081-0.039-0.049 0.013-0.176 0.045-0.285 0.067-0.109 0.024-0.246 0.066-0.304 0.094-0.118 0.054-0.144 0.103-0.056 0.103 0.049 0 0.098 0.028 0.098 0.058 0 0.007-0.051 0.017-0.113 0.021-0.124 0.009-0.141 0.019-0.124 0.062 0.011 0.032 0.021 0.032 0.473-0.002 0.109-0.008 0.141-0.002 0.165 0.022 0.053 0.051 0.024 0.073-0.084 0.071-0.056-0.002-0.217 0-0.36 0.006-0.21 0.007-0.262 0.015-0.27 0.039-0.023 0.054 0.051 0.081 0.204 0.075 0.079-0.002 0.15 0.002 0.158 0.009s-0.006 0.036-0.032 0.062c-0.037 0.039-0.039 0.051-0.017 0.066 0.038 0.024 0.242 0.009 0.394-0.030 0.067-0.017 0.203-0.038 0.3-0.045 0.109-0.008 0.202-0.026 0.24-0.047 0.058-0.030 0.066-0.030 0.103-0.004 0.022 0.017 0.058 0.041 0.079 0.056 0.030 0.022 0.071 0.024 0.225 0.008 0.234-0.022 0.246-0.026 0.216-0.062-0.043-0.051 0.009-0.084 0.131-0.084 0.148 0 0.159-0.038 0.032-0.096-0.053-0.024-0.113-0.045-0.133-0.045-0.060 0-0.064-0.092-0.006-0.131 0.037-0.024 0.049-0.051 0.058-0.144 0.017-0.135-0.006-0.165-0.12-0.165-0.053 0-0.081 0.015-0.126 0.060z"></path>
<path d="M13.434 6.604c-0.021 0.006-0.053 0.022-0.069 0.039-0.019 0.015-0.034 0.021-0.034 0.011s-0.037 0.024-0.084 0.075c-0.045 0.051-0.101 0.101-0.124 0.112-0.060 0.030-0.051 0.054 0.032 0.086 0.111 0.043 0.126 0.054 0.099 0.086-0.011 0.015-0.039 0.026-0.062 0.026-0.052 0-0.094 0.028-0.079 0.054 0.008 0.011 0.034 0.021 0.060 0.021 0.024 0 0.045 0.007 0.045 0.019 0 0.009-0.024 0.019-0.054 0.019s-0.064 0.013-0.077 0.028c-0.013 0.015-0.049 0.028-0.081 0.028s-0.084 0.009-0.12 0.022c-0.047 0.017-0.058 0.030-0.053 0.060 0.013 0.053-0.015 0.092-0.058 0.082-0.054-0.009-0.054-0.069 0.004-0.129 0.056-0.058 0.056-0.060-0.086-0.090-0.094-0.021-0.135-0.004-0.227 0.096-0.051 0.056-0.051 0.056-0.154 0.032-0.081-0.017-0.129-0.017-0.212 0-0.103 0.021-0.113 0.019-0.18-0.026-0.051-0.034-0.084-0.045-0.12-0.036-0.054 0.013-0.143-0.054-0.126-0.098 0.015-0.041-0.081-0.053-0.188-0.021-0.054 0.017-0.137 0.036-0.186 0.043-0.062 0.007-0.090 0.021-0.090 0.039 0 0.028 0.071 0.028 0.281 0 0.062-0.008 0.036 0.036-0.032 0.049-0.174 0.039-0.223 0.058-0.272 0.111l-0.053 0.056-0.073-0.081-0.071-0.081-0.092 0.021c-0.098 0.024-0.561 0.039-0.579 0.021-0.008-0.007-0.008-0.030 0-0.051 0.009-0.034 0.026-0.039 0.111-0.039 0.126 0 0.165-0.034 0.105-0.094-0.036-0.036-0.054-0.039-0.146-0.028-0.073 0.007-0.143 0.002-0.219-0.021-0.062-0.017-0.148-0.037-0.191-0.047-0.043-0.007-0.111-0.032-0.15-0.054-0.098-0.051-0.191-0.049-0.277 0.011-0.077 0.051-0.122 0.049-0.122-0.007 0-0.021-0.013-0.047-0.028-0.060-0.024-0.021-0.039-0.015-0.092 0.036-0.043 0.041-0.077 0.060-0.107 0.054-0.038-0.004-0.045-0.019-0.051-0.086-0.007-0.094-0.045-0.105-0.129-0.034-0.058 0.049-0.143 0.079-0.272 0.098-0.049 0.006-0.116 0.032-0.148 0.056-0.051 0.036-0.084 0.045-0.18 0.045-0.103 0-0.126 0.008-0.167 0.049-0.060 0.058-0.127 0.054-0.135-0.008-0.006-0.030 0.004-0.041 0.028-0.041 0.019 0 0.077-0.021 0.127-0.047 0.064-0.030 0.126-0.045 0.193-0.047 0.094 0 0.247-0.062 0.247-0.099 0-0.019-0.204 0.006-0.274 0.034-0.067 0.028-0.191 0.051-0.298 0.056-0.163 0.009-0.276 0.041-0.322 0.094-0.041 0.043-0.058 0.049-0.116 0.039-0.038-0.006-0.118-0.036-0.178-0.067-0.077-0.039-0.137-0.056-0.201-0.056-0.068 0-0.103-0.011-0.144-0.047-0.066-0.054-0.090-0.058-0.171-0.017-0.054 0.026-0.067 0.026-0.148 0-0.139-0.045-0.503-0.092-0.626-0.081-0.096 0.008-0.116 0.004-0.146-0.028s-0.051-0.038-0.12-0.028c-0.067 0.009-0.092 0.004-0.131-0.026-0.075-0.058-0.184-0.067-0.249-0.021-0.043 0.030-0.090 0.038-0.259 0.045-0.174 0.006-0.218 0.013-0.285 0.053-0.071 0.039-0.086 0.041-0.126 0.019-0.051-0.026-0.101-0.017-0.296 0.054-0.060 0.022-0.129 0.039-0.158 0.039s-0.077 0.024-0.114 0.056c-0.045 0.041-0.083 0.056-0.133 0.056-0.039 0-0.101 0.017-0.141 0.038-0.043 0.024-0.107 0.038-0.167 0.038-0.058 0.002-0.114 0.013-0.135 0.028s-0.053 0.028-0.071 0.028c-0.049 0-0.041 0.036 0.013 0.056 0.064 0.024 0.096 0.096 0.067 0.148-0.021 0.036-0.017 0.039 0.036 0.039 0.066 0 0.071 0.022 0.023 0.103-0.030 0.049-0.047 0.056-0.118 0.056-0.045 0.002-0.098 0.009-0.114 0.017-0.024 0.011-0.034 0.007-0.034-0.013 0-0.017 0.017-0.036 0.038-0.041 0.077-0.024 0.034-0.047-0.088-0.047-0.097 0-0.143 0.009-0.193 0.041-0.036 0.022-0.099 0.043-0.141 0.045-0.066 0.006-0.317 0.084-0.341 0.109-0.022 0.022 0.021 0.049 0.084 0.051 0.051 0.002 0.058 0.006 0.022 0.011-0.024 0.006-0.066 0.024-0.090 0.043-0.038 0.032-0.039 0.036-0.011 0.053 0.038 0.021 0.454 0.006 0.501-0.019 0.028-0.015 0.032-0.011 0.021 0.036-0.019 0.081-0.024 0.084-0.103 0.071-0.069-0.011-0.075-0.009-0.099 0.047-0.039 0.098-0.244 0.159-0.392 0.122-0.043-0.011-0.071-0.002-0.152 0.054-0.054 0.038-0.12 0.068-0.146 0.068-0.028 0-0.082 0.028-0.127 0.066-0.051 0.043-0.098 0.066-0.133 0.066-0.066 0-0.086 0.039-0.056 0.105 0.017 0.039 0.015 0.049-0.013 0.056-0.090 0.028-0.111 0.064-0.088 0.152 0.013 0.053 0.032 0.053 0.201 0.004 0.049-0.013 0.096-0.019 0.101-0.011 0.017 0.017-0.066 0.107-0.099 0.107-0.013 0-0.034 0.021-0.043 0.047-0.009 0.024-0.043 0.058-0.075 0.075-0.030 0.015-0.056 0.034-0.056 0.039 0 0.015 0.229-0.013 0.266-0.032 0.056-0.030 0.124 0 0.131 0.054l0.006 0.051 0.058-0.062c0.051-0.054 0.062-0.058 0.113-0.041 0.039 0.013 0.073 0.015 0.107 0.002 0.041-0.017 0.051-0.015 0.051 0.008 0 0.019-0.021 0.028-0.062 0.028-0.049 0-0.067 0.011-0.084 0.047-0.013 0.026-0.038 0.047-0.058 0.047s-0.053 0.021-0.073 0.047c-0.030 0.038-0.054 0.047-0.114 0.047-0.086 0-0.161 0.032-0.216 0.092-0.021 0.022-0.058 0.039-0.092 0.039-0.032 0-0.099 0.021-0.152 0.045-0.146 0.068-0.217 0.090-0.33 0.103-0.056 0.007-0.122 0.022-0.144 0.036s-0.064 0.022-0.092 0.022c-0.049 0-0.231 0.107-0.233 0.135 0 0.024 0.079 0.037 0.127 0.019 0.028-0.011 0.075-0.024 0.105-0.032 0.028-0.006 0.075-0.026 0.101-0.043 0.028-0.019 0.090-0.034 0.144-0.034 0.126-0.004 0.218-0.024 0.257-0.058 0.021-0.019 0.051-0.024 0.088-0.015 0.047 0.009 0.067 0.002 0.127-0.052 0.062-0.056 0.088-0.068 0.203-0.079 0.15-0.017 0.227-0.049 0.244-0.103 0.006-0.021 0.026-0.037 0.043-0.037 0.019 0 0.052-0.013 0.075-0.030 0.024-0.017 0.075-0.030 0.112-0.032 0.038 0 0.083-0.011 0.099-0.026s0.075-0.032 0.128-0.041c0.066-0.009 0.114-0.032 0.15-0.066 0.028-0.028 0.083-0.054 0.12-0.062 0.058-0.009 0.067-0.017 0.073-0.069 0.006-0.064 0.021-0.071 0.208-0.107 0.071-0.013 0.129-0.038 0.169-0.071 0.081-0.069 0.169-0.114 0.229-0.114 0.028 0 0.077-0.021 0.109-0.045 0.071-0.054 0.191-0.073 0.191-0.030 0 0.019-0.026 0.032-0.086 0.038-0.049 0.006-0.124 0.036-0.178 0.069-0.051 0.032-0.116 0.064-0.146 0.069-0.032 0.008-0.083 0.038-0.116 0.068-0.034 0.028-0.071 0.056-0.084 0.060s-0.019 0.021-0.011 0.039c0.017 0.047 0.109 0.039 0.212-0.015 0.058-0.030 0.118-0.047 0.174-0.047 0.064 0 0.096-0.009 0.12-0.037s0.056-0.038 0.129-0.039c0.169-0.004 0.193-0.017 0.193-0.101 0-0.064 0.006-0.075 0.045-0.081 0.069-0.011 0.124 0.011 0.182 0.069 0.056 0.058 0.195 0.12 0.261 0.118 0.021-0.002 0.067-0.008 0.103-0.013 0.077-0.013 0.298 0.058 0.362 0.116 0.022 0.021 0.054 0.043 0.073 0.049 0.017 0.006 0.036 0.036 0.043 0.066 0.007 0.041 0.030 0.064 0.086 0.088 0.083 0.037 0.083 0.052-0.004 0.051-0.051-0.002-0.056 0.004-0.045 0.039 0.019 0.060 0.017 0.088-0.017 0.18-0.019 0.045-0.028 0.094-0.022 0.109 0.017 0.039 0.103-0.013 0.171-0.105 0.037-0.051 0.071-0.077 0.099-0.077 0.032 0 0.051-0.019 0.071-0.068 0.026-0.062 0.026-0.071-0.004-0.103-0.030-0.034-0.030-0.036 0.011-0.036 0.039 0 0.041 0.006 0.030 0.084-0.009 0.062-0.006 0.096 0.015 0.126 0.051 0.071 0.039 0.191-0.026 0.264-0.049 0.056-0.051 0.066-0.026 0.090 0.015 0.017 0.032 0.071 0.037 0.122 0.011 0.088 0.008 0.098-0.041 0.135-0.112 0.084-0.12 0.098-0.082 0.154 0.017 0.024 0.024 0.021 0.058-0.017 0.054-0.068 0.088-0.024 0.043 0.052l-0.036 0.060 0.062 0.047c0.069 0.056 0.079 0.101 0.019 0.101-0.032 0-0.053 0.021-0.077 0.077-0.045 0.096-0.032 0.129 0.051 0.129 0.047 0 0.067 0.009 0.077 0.036 0.006 0.021 0.045 0.049 0.084 0.066 0.067 0.026 0.075 0.036 0.075 0.096 0 0.047 0.011 0.073 0.045 0.094 0.030 0.021 0.047 0.053 0.054 0.109 0.009 0.067 0.004 0.086-0.038 0.129-0.045 0.047-0.053 0.049-0.088 0.024-0.045-0.032-0.116-0.038-0.133-0.009-0.021 0.032-0.081 0.021-0.094-0.019-0.006-0.021-0.028-0.037-0.049-0.037-0.028 0-0.036 0.015-0.039 0.079-0.004 0.107-0.004 0.111 0.013 0.169 0.011 0.043 0.004 0.060-0.045 0.105-0.036 0.032-0.060 0.075-0.066 0.113-0.004 0.037-0.036 0.090-0.084 0.144-0.041 0.045-0.077 0.092-0.077 0.101 0 0.024-0.143 0.199-0.229 0.277-0.077 0.073-0.098 0.111-0.146 0.268-0.036 0.116-0.073 0.193-0.109 0.232-0.053 0.054-0.056 0.069-0.064 0.249-0.008 0.152-0.004 0.197 0.019 0.218 0.030 0.030 0.036 0.152 0.013 0.253-0.011 0.054-0.009 0.064 0.026 0.073 0.060 0.015 0.049 0.111-0.011 0.105-0.026-0.004-0.043 0.006-0.043 0.021 0 0.051 0.077 0.199 0.114 0.218 0.028 0.017 0.036 0.037 0.032 0.099l-0.006 0.079 0.079-0.006c0.064-0.006 0.079 0 0.090 0.030 0.006 0.021 0.030 0.043 0.053 0.049s0.073 0.049 0.113 0.096c0.067 0.081 0.073 0.094 0.079 0.231 0.004 0.079 0.019 0.193 0.036 0.253s0.030 0.146 0.030 0.191c0 0.066 0.011 0.097 0.056 0.146 0.032 0.036 0.056 0.077 0.056 0.092s0.017 0.043 0.037 0.062c0.051 0.045 0.047 0.077-0.011 0.133-0.039 0.039-0.058 0.047-0.111 0.037-0.083-0.017-0.105 0.021-0.043 0.073 0.024 0.021 0.051 0.053 0.058 0.071 0.013 0.036 0.133 0.092 0.169 0.077 0.013-0.004 0.060 0.024 0.105 0.066 0.081 0.075 0.081 0.077 0.069 0.174-0.015 0.131 0.017 0.216 0.118 0.313 0.068 0.066 0.079 0.086 0.071 0.129-0.021 0.099 0.049 0.126 0.144 0.054 0.036-0.026 0.036-0.034 0.011-0.109-0.032-0.099-0.066-0.144-0.12-0.152-0.041-0.006-0.049-0.036-0.079-0.332-0.006-0.056-0.028-0.128-0.047-0.159s-0.036-0.071-0.036-0.088c0-0.017-0.013-0.041-0.028-0.054-0.017-0.015-0.028-0.056-0.028-0.111s-0.015-0.111-0.039-0.15c-0.030-0.051-0.034-0.067-0.013-0.081 0.019-0.013 0.017-0.023-0.013-0.043-0.109-0.082-0.107-0.077-0.096-0.231 0.006-0.079 0.011-0.169 0.011-0.199l0.002-0.054 0.043 0.041c0.032 0.030 0.058 0.039 0.084 0.030 0.026-0.008 0.043-0.002 0.051 0.017 0.006 0.017 0.028 0.030 0.047 0.030 0.032 0 0.036 0.015 0.036 0.124 0 0.088 0.017 0.172 0.054 0.287 0.030 0.088 0.058 0.182 0.062 0.208 0.004 0.036 0.021 0.049 0.077 0.062 0.064 0.015 0.069 0.023 0.069 0.082 0 0.051 0.015 0.081 0.067 0.133 0.066 0.066 0.067 0.069 0.038 0.118-0.017 0.028-0.030 0.066-0.030 0.086 0 0.019 0.086 0.122 0.195 0.229 0.109 0.109 0.201 0.217 0.208 0.242 0.006 0.026 0.038 0.084 0.069 0.128 0.043 0.060 0.054 0.094 0.047 0.133-0.006 0.034 0.004 0.077 0.030 0.124l0.041 0.073-0.047 0.034c-0.045 0.034-0.045 0.037-0.013 0.060 0.032 0.024 0.030 0.028-0.015 0.090-0.060 0.081-0.060 0.103 0.008 0.171 0.032 0.030 0.062 0.071 0.067 0.092 0.007 0.021 0.028 0.038 0.049 0.038 0.026 0 0.047 0.023 0.066 0.067 0.022 0.052 0.036 0.066 0.066 0.058 0.021-0.006 0.066 0.006 0.098 0.024 0.034 0.019 0.098 0.039 0.141 0.047 0.045 0.008 0.096 0.030 0.113 0.051 0.062 0.071 0.227 0.184 0.272 0.184 0.024 0 0.077 0.021 0.116 0.049 0.174 0.118 0.397 0.186 0.512 0.154 0.039-0.009 0.092-0.043 0.12-0.073 0.039-0.041 0.067-0.054 0.122-0.054 0.073 0 0.156 0.041 0.156 0.077 0 0.039 0.12 0.199 0.236 0.311 0.113 0.111 0.126 0.118 0.206 0.118 0.056 0 0.111 0.015 0.152 0.039 0.034 0.023 0.114 0.054 0.178 0.075 0.114 0.034 0.118 0.034 0.18-0.002 0.079-0.049 0.084-0.047 0.075 0.009-0.008 0.038 0.013 0.073 0.103 0.174 0.156 0.176 0.165 0.195 0.169 0.317 0.002 0.090 0.009 0.114 0.051 0.15 0.026 0.023 0.062 0.043 0.082 0.043 0.028 0 0.032-0.009 0.022-0.049-0.017-0.067 0.021-0.039 0.054 0.041 0.015 0.036 0.047 0.071 0.073 0.082 0.039 0.015 0.047 0.032 0.053 0.107l0.006 0.090 0.135-0.006c0.15-0.006 0.204 0.013 0.231 0.082 0.011 0.028 0.032 0.045 0.056 0.045s0.045 0.019 0.056 0.047c0.021 0.056 0.073 0.060 0.133 0.011l0.045-0.036-0.041-0.045c-0.053-0.056-0.054-0.071-0.008-0.071 0.021 0 0.041-0.017 0.049-0.036 0.017-0.058 0.084-0.133 0.118-0.133 0.015 0 0.069 0.028 0.12 0.062 0.084 0.056 0.113 0.109 0.071 0.135-0.028 0.017-0.022 0.058 0.011 0.092 0.026 0.028 0.034 0.028 0.082-0.002 0.051-0.028 0.094-0.094 0.094-0.141 0-0.043-0.156-0.225-0.214-0.249-0.032-0.013-0.098-0.030-0.144-0.037-0.081-0.011-0.092-0.008-0.146 0.045-0.034 0.032-0.079 0.058-0.105 0.058-0.024 0-0.075 0.015-0.111 0.032-0.086 0.039-0.161 0.013-0.161-0.060 0-0.028-0.017-0.058-0.045-0.077-0.026-0.015-0.049-0.043-0.053-0.060s-0.022-0.032-0.041-0.032c-0.028 0-0.041-0.028-0.071-0.137l-0.036-0.139 0.047-0.133c0.034-0.101 0.043-0.157 0.036-0.225-0.009-0.073-0.004-0.101 0.026-0.143 0.021-0.028 0.045-0.084 0.051-0.126 0.015-0.084-0.015-0.124-0.105-0.146-0.036-0.008-0.053-0.024-0.053-0.049 0-0.054-0.099-0.088-0.234-0.081-0.107 0.008-0.201 0.008-0.36 0.004-0.039 0-0.101 0.006-0.139 0.011-0.105 0.019-0.111-0.021-0.019-0.105 0.062-0.058 0.077-0.084 0.077-0.139 0-0.038 0.013-0.094 0.030-0.126s0.026-0.071 0.021-0.090c-0.004-0.017 0-0.047 0.009-0.066 0.015-0.026 0.022-0.028 0.036-0.008 0.007 0.013 0.021 0.021 0.026 0.013 0.019-0.019 0.045-0.146 0.047-0.216 0-0.041 0.011-0.067 0.039-0.081 0.021-0.013 0.051-0.051 0.066-0.084 0.015-0.036 0.043-0.073 0.066-0.084 0.030-0.017 0.036-0.032 0.026-0.071-0.019-0.075-0.047-0.099-0.092-0.086-0.022 0.008-0.062 0.013-0.090 0.011s-0.094 0.013-0.146 0.034c-0.053 0.021-0.12 0.038-0.15 0.038-0.124 0-0.188 0.077-0.188 0.227 0 0.034-0.011 0.053-0.037 0.060-0.021 0.006-0.043 0.024-0.049 0.045-0.026 0.079-0.051 0.114-0.075 0.105-0.043-0.017-0.084 0.030-0.071 0.081 0.009 0.036 0.004 0.045-0.026 0.045-0.021 0-0.049-0.019-0.064-0.041-0.028-0.041-0.028-0.041-0.116-0.008-0.049 0.019-0.141 0.045-0.204 0.058-0.114 0.024-0.116 0.024-0.167-0.023-0.028-0.028-0.082-0.054-0.122-0.060-0.069-0.011-0.071-0.015-0.086-0.105-0.009-0.052-0.021-0.113-0.024-0.135s-0.028-0.062-0.051-0.084c-0.030-0.028-0.058-0.101-0.086-0.212l-0.041-0.169 0.037-0.122c0.019-0.068 0.041-0.159 0.049-0.206 0.017-0.099 0.047-0.165 0.133-0.283 0.053-0.073 0.064-0.105 0.064-0.184 0-0.054-0.013-0.122-0.028-0.154-0.028-0.054-0.028-0.056 0.039-0.116 0.038-0.032 0.088-0.071 0.114-0.084 0.024-0.013 0.053-0.045 0.062-0.071 0.015-0.037 0.030-0.045 0.090-0.045 0.056 0 0.084-0.013 0.127-0.058 0.030-0.032 0.075-0.066 0.099-0.075s0.039-0.024 0.032-0.030c-0.011-0.013 0.18-0.081 0.229-0.081 0.013 0 0.049 0.019 0.079 0.041 0.054 0.039 0.056 0.039 0.12 0.006 0.054-0.030 0.069-0.032 0.094-0.011 0.017 0.015 0.030 0.047 0.030 0.071 0 0.043 0.006 0.047 0.071 0.036 0.174-0.028 0.21-0.026 0.231 0.009 0.009 0.021 0.039 0.036 0.066 0.036 0.045 0 0.049-0.006 0.037-0.060-0.007-0.034-0.015-0.077-0.017-0.096-0.004-0.017-0.023-0.045-0.043-0.058-0.056-0.041-0.009-0.071 0.137-0.090 0.105-0.011 0.131-0.009 0.148 0.013 0.019 0.024 0.036 0.024 0.113 0.008 0.107-0.024 0.264-0.002 0.255 0.037-0.009 0.047 0.037 0.077 0.118 0.077 0.049 0 0.088-0.011 0.103-0.030 0.039-0.045 0.116-0.024 0.15 0.039 0.015 0.030 0.043 0.068 0.062 0.084 0.026 0.023 0.036 0.062 0.039 0.193 0.002 0.090-0.002 0.169-0.011 0.174-0.026 0.017-0.017 0.071 0.022 0.12 0.021 0.026 0.038 0.060 0.038 0.077s0.021 0.062 0.047 0.099c0.026 0.038 0.047 0.090 0.047 0.114 0 0.051 0.019 0.060 0.105 0.051 0.043-0.006 0.064-0.017 0.064-0.039 0-0.017 0.013-0.068 0.030-0.114 0.051-0.144 0.053-0.412 0.006-0.628-0.058-0.27-0.053-0.351 0.034-0.478 0.082-0.12 0.204-0.244 0.24-0.244 0.013 0 0.051-0.021 0.081-0.047 0.032-0.026 0.073-0.047 0.096-0.047 0.026 0 0.039-0.011 0.039-0.036 0-0.054 0.101-0.152 0.156-0.152 0.030 0 0.082-0.030 0.133-0.073 0.047-0.041 0.101-0.079 0.122-0.086 0.021-0.006 0.053-0.045 0.069-0.086 0.028-0.064 0.041-0.073 0.094-0.073 0.064 0 0.111-0.039 0.096-0.082-0.006-0.013-0.002-0.060 0.009-0.103 0.013-0.053 0.013-0.084 0-0.101-0.013-0.015-0.013-0.053-0.004-0.107 0.009-0.047 0.017-0.116 0.019-0.156 0-0.096 0.064-0.219 0.112-0.219 0.047 0 0.047 0.011-0.009 0.101-0.032 0.053-0.041 0.090-0.034 0.128 0.006 0.032-0.002 0.069-0.021 0.099-0.030 0.047-0.041 0.148-0.015 0.137 0.008-0.004 0.068-0.064 0.133-0.133 0.124-0.135 0.131-0.163 0.086-0.281-0.013-0.030-0.008-0.034 0.051-0.023 0.056 0.011 0.077 0.004 0.133-0.045 0.036-0.034 0.082-0.098 0.101-0.143l0.034-0.084h0.097c0.082 0 0.105-0.008 0.146-0.051 0.026-0.028 0.047-0.056 0.047-0.064 0-0.006 0.034-0.030 0.077-0.053 0.069-0.039 0.084-0.041 0.193-0.023 0.156 0.028 0.152 0.028 0.176-0.028 0.017-0.034 0.017-0.058 0.002-0.084-0.019-0.036-0.023-0.036-0.053-0.009-0.024 0.023-0.038 0.024-0.054 0.008-0.032-0.032-0.028-0.084 0.006-0.097 0.015-0.006 0.028-0.026 0.028-0.047s0.039-0.075 0.090-0.122c0.067-0.066 0.103-0.086 0.148-0.086 0.082 0 0.156-0.030 0.156-0.066 0-0.021 0.021-0.028 0.071-0.028 0.039 0 0.088-0.013 0.109-0.028 0.019-0.015 0.066-0.036 0.103-0.047 0.039-0.011 0.073-0.034 0.079-0.054 0.006-0.022 0.026-0.034 0.064-0.036 0.030 0 0.099-0.019 0.156-0.039 0.122-0.047 0.112-0.045 0.112-0.013 0 0.028-0.107 0.098-0.178 0.116-0.026 0.006-0.047 0.021-0.047 0.030 0 0.011-0.021 0.039-0.047 0.064-0.041 0.037-0.043 0.049-0.026 0.099 0.037 0.105 0.146 0.090 0.293-0.038 0.034-0.028 0.092-0.058 0.131-0.066 0.038-0.007 0.096-0.028 0.126-0.045 0.032-0.019 0.096-0.039 0.139-0.045 0.101-0.015 0.229-0.079 0.229-0.113 0-0.047-0.047-0.066-0.197-0.079-0.143-0.013-0.253-0.060-0.294-0.126-0.026-0.041-0.017-0.182 0.013-0.193 0.032-0.013 0.038-0.075 0.008-0.092-0.009-0.008-0.043-0.002-0.075 0.009-0.043 0.019-0.060 0.019-0.082 0-0.047-0.039-0.002-0.064 0.111-0.058 0.090 0.004 0.111-0.004 0.165-0.053s0.060-0.060 0.043-0.107c-0.030-0.082-0.082-0.099-0.223-0.069-0.229 0.047-0.33 0.079-0.39 0.124-0.096 0.071-0.257 0.135-0.281 0.111-0.015-0.015 0.008-0.034 0.081-0.069 0.056-0.026 0.129-0.067 0.165-0.094 0.037-0.028 0.088-0.047 0.128-0.047 0.051 0 0.082-0.019 0.171-0.105l0.107-0.105 0.529 0.009c0.506 0.008 0.531 0.008 0.563-0.028 0.017-0.021 0.084-0.073 0.148-0.118 0.086-0.062 0.142-0.088 0.225-0.101 0.124-0.021 0.315-0.116 0.352-0.176 0.045-0.071 0.053-0.174 0.021-0.238-0.024-0.045-0.041-0.056-0.092-0.056-0.054 0-0.064-0.008-0.073-0.051-0.006-0.028 0-0.066 0.013-0.084 0.017-0.030 0.013-0.041-0.015-0.064-0.021-0.015-0.060-0.026-0.088-0.026-0.036 0-0.056-0.011-0.064-0.038-0.009-0.028-0.028-0.037-0.084-0.037-0.066 0-0.073-0.006-0.079-0.051-0.004-0.038-0.023-0.060-0.062-0.077-0.101-0.045-0.113-0.054-0.118-0.103-0.006-0.041 0.002-0.049 0.047-0.054 0.051-0.006 0.052-0.009 0.045-0.099-0.004-0.051-0.017-0.111-0.032-0.131-0.015-0.019-0.026-0.054-0.026-0.075s-0.017-0.071-0.037-0.113c-0.021-0.041-0.038-0.103-0.038-0.141 0-0.066-0.026-0.113-0.064-0.113-0.024 0-0.18 0.169-0.18 0.197s-0.131 0.122-0.174 0.122c-0.017 0-0.064 0.017-0.105 0.039-0.081 0.041-0.112 0.034-0.176-0.036-0.021-0.022-0.049-0.034-0.071-0.028-0.032 0.009-0.036 0-0.036-0.075 0-0.086 0.054-0.197 0.124-0.248 0.017-0.011 0.028-0.037 0.023-0.058-0.006-0.030-0.024-0.036-0.124-0.041-0.092-0.004-0.118-0.011-0.109-0.032 0.006-0.015-0.015-0.041-0.051-0.064-0.034-0.021-0.082-0.056-0.111-0.079-0.049-0.039-0.058-0.041-0.156-0.019-0.071 0.017-0.169 0.019-0.308 0.011-0.193-0.013-0.206-0.011-0.225 0.024-0.011 0.021-0.021 0.068-0.021 0.101 0 0.036-0.021 0.092-0.047 0.131-0.026 0.038-0.047 0.094-0.047 0.124 0 0.054-0.077 0.124-0.238 0.219-0.073 0.043-0.079 0.109-0.011 0.118 0.098 0.015 0.133 0.18 0.060 0.274-0.024 0.032-0.036 0.067-0.030 0.096 0.006 0.037 0 0.047-0.032 0.047-0.043 0-0.103 0.036-0.18 0.105-0.047 0.043-0.141 0.082-0.3 0.127-0.157 0.045-0.169 0.056-0.169 0.172 0 0.056-0.013 0.133-0.030 0.173-0.015 0.037-0.032 0.092-0.036 0.12-0.006 0.047-0.086 0.174-0.129 0.206-0.009 0.006-0.028 0.008-0.041 0.002-0.015-0.006-0.039 0.004-0.054 0.021-0.037 0.036-0.092 0.039-0.116 0.006-0.019-0.024-0.062-0.131-0.094-0.232-0.017-0.051-0.009-0.084 0.054-0.244 0.041-0.101 0.082-0.195 0.094-0.206 0.047-0.056 0.004-0.075-0.193-0.077-0.105-0.002-0.197-0.009-0.202-0.015s-0.011-0.034-0.011-0.060c0-0.051-0.002-0.051-0.116-0.045-0.114 0.008-0.118 0.006-0.139-0.047-0.039-0.101-0.049-0.109-0.146-0.124-0.064-0.011-0.101-0.028-0.114-0.053-0.024-0.043-0.159-0.051-0.217-0.009-0.043 0.030-0.109 0.045-0.116 0.024-0.002-0.008 0.009-0.034 0.026-0.060 0.019-0.030 0.026-0.064 0.019-0.094-0.008-0.026-0.004-0.064 0.008-0.086 0.034-0.064 0.006-0.109-0.077-0.122-0.094-0.015-0.098-0.067-0.006-0.116 0.022-0.011 0.045-0.047 0.051-0.077 0.011-0.054 0.082-0.116 0.217-0.188 0.026-0.013 0.069-0.045 0.096-0.067s0.062-0.047 0.081-0.053c0.017-0.007 0.032-0.022 0.032-0.036s0.064-0.049 0.141-0.079c0.131-0.051 0.141-0.056 0.141-0.109 0-0.051 0.006-0.056 0.047-0.045 0.026 0.006 0.068 0.017 0.094 0.022 0.088 0.023 0.139-0.064 0.062-0.101-0.037-0.017-0.032-0.021 0.051-0.022 0.053 0 0.114-0.002 0.141-0.002 0.024-0.002 0.056-0.015 0.067-0.032 0.015-0.022 0.053-0.032 0.114-0.034 0.049-0.002 0.116-0.009 0.146-0.017 0.079-0.021 0.285-0.171 0.296-0.216 0.006-0.022 0.026-0.038 0.047-0.038 0.023 0 0.043-0.007 0.049-0.017s0.041-0.022 0.079-0.028c0.058-0.011 0.066-0.019 0.060-0.064-0.006-0.047 0-0.051 0.071-0.056 0.052-0.004 0.088 0.004 0.107 0.022 0.017 0.017 0.054 0.030 0.086 0.030 0.045 0 0.058-0.008 0.058-0.036 0-0.054 0.030-0.064 0.092-0.028 0.049 0.028 0.064 0.030 0.143 0.007 0.071-0.021 0.191-0.092 0.272-0.163 0.006-0.006-0.006-0.019-0.024-0.032-0.073-0.054-0.013-0.193 0.062-0.146 0.043 0.026 0.086 0.013 0.099-0.030 0.006-0.017 0.015-0.047 0.023-0.066 0.011-0.024 0.004-0.032-0.032-0.032-0.026 0-0.062-0.017-0.079-0.036-0.038-0.041-0.176-0.060-0.268-0.036-0.049 0.013-0.066 0.030-0.082 0.092-0.023 0.071-0.067 0.103-0.126 0.088-0.013-0.004-0.034 0.015-0.047 0.039-0.013 0.028-0.060 0.060-0.126 0.084-0.056 0.022-0.124 0.054-0.15 0.071-0.062 0.045-0.126 0.043-0.15-0.006-0.036-0.066-0.015-0.114 0.056-0.139 0.054-0.019 0.066-0.032 0.066-0.077 0-0.049-0.008-0.054-0.069-0.060-0.049-0.004-0.075 0.004-0.094 0.028-0.032 0.045-0.128 0.105-0.143 0.092-0.019-0.021 0.051-0.142 0.082-0.142 0.017 0 0.026-0.013 0.023-0.034-0.008-0.034-0.071-0.041-0.131-0.013-0.026 0.009-0.034 0.004-0.034-0.026s0.015-0.043 0.053-0.051c0.052-0.011 0.054-0.015 0.054-0.122 0.002-0.105-0.002-0.114-0.053-0.139-0.053-0.028-0.122-0.032-0.195-0.015z"></path>
<path d="M18.435 6.848c-0.052 0.009-0.067 0.045-0.052 0.109 0.013 0.049 0.013 0.049 0.171 0.039 0.178-0.009 0.204-0.019 0.18-0.062-0.028-0.053-0.208-0.105-0.298-0.086z"></path>
<path d="M12.726 6.966c-0.039 0.034-0.086 0.056-0.118 0.056-0.064 0-0.116 0.028-0.096 0.051 0.009 0.008 0.047 0.015 0.084 0.017s0.126 0.009 0.193 0.017c0.152 0.017 0.21-0.006 0.201-0.081-0.004-0.036-0.019-0.053-0.047-0.056-0.023-0.004-0.051-0.019-0.062-0.034-0.036-0.041-0.086-0.032-0.156 0.030z"></path>
<path d="M15.272 6.984c-0.006 0.009-0.045 0.026-0.084 0.038-0.092 0.024-0.103 0.075-0.019 0.075 0.056 0 0.15-0.069 0.15-0.113 0-0.024-0.032-0.024-0.047 0z"></path>
<path d="M15.383 7.196c-0.075 0.043-0.159 0.126-0.148 0.144 0.006 0.009 0.062 0.019 0.124 0.019 0.099 0 0.118-0.006 0.18-0.062 0.088-0.082 0.077-0.126-0.036-0.126-0.045 0.002-0.097 0.011-0.12 0.024z"></path>
<path d="M15.63 7.226c-0.008 0.011 0.006 0.037 0.026 0.058 0.032 0.032 0.045 0.034 0.077 0.019 0.056-0.032 0.037-0.082-0.034-0.090-0.032-0.004-0.064 0.002-0.069 0.013z"></path>
<path d="M13.877 7.671c-0.054 0.034-0.113 0.079-0.128 0.099-0.015 0.022-0.038 0.039-0.051 0.039s-0.034 0.021-0.045 0.047c-0.017 0.038-0.036 0.047-0.086 0.047-0.066 0-0.124 0.039-0.124 0.082 0 0.015 0.030 0.023 0.090 0.023 0.077-0.002 0.088 0.004 0.094 0.039 0.008 0.054 0.019 0.054 0.15-0.013 0.062-0.032 0.12-0.056 0.131-0.056s0.037-0.017 0.056-0.038c0.034-0.038 0.036-0.038 0.079 0.009 0.053 0.056 0.165 0.090 0.236 0.073 0.032-0.008 0.054-0.004 0.066 0.013 0.021 0.036 0.051 0.004 0.066-0.071 0.011-0.058 0.009-0.060-0.060-0.066-0.056-0.004-0.075-0.015-0.079-0.043-0.011-0.056-0.060-0.105-0.148-0.142-0.058-0.024-0.081-0.045-0.081-0.073 0-0.053-0.047-0.045-0.167 0.030z"></path>
<path d="M14.794 7.971c0 0.030 0.043 0.082 0.066 0.082 0.041 0 0.034-0.053-0.008-0.075-0.041-0.021-0.058-0.024-0.058-0.007z"></path>
<path d="M14.629 8.038c0.004 0.024 0.021 0.045 0.039 0.049 0.041 0.008 0.066-0.051 0.030-0.073-0.047-0.030-0.077-0.019-0.069 0.024z"></path>
<path d="M13.806 8.158c-0.081 0.049-0.103 0.090-0.056 0.105 0.084 0.030 0.313-0.056 0.313-0.116 0-0.058-0.154-0.051-0.257 0.011z"></path>
<path d="M14.226 8.25c-0.036 0.026-0.038 0.105-0.004 0.116 0.026 0.008 0.122-0.084 0.122-0.116 0-0.036-0.073-0.036-0.118 0z"></path>
<path d="M16.269 8.329c-0.008 0.006-0.013 0.028-0.013 0.047 0 0.053 0.064 0.036 0.071-0.019 0.006-0.039-0.030-0.058-0.058-0.028z"></path>
<path d="M1.748 8.591c-0.075 0.009-0.092 0.045-0.047 0.098 0.043 0.051 0.058 0.049 0.137-0.017 0.054-0.047 0.060-0.058 0.037-0.075-0.015-0.009-0.036-0.017-0.047-0.015-0.009 0.002-0.047 0.006-0.081 0.009z"></path>
<path d="M3.347 8.942c-0.021 0.013-0.045 0.026-0.056 0.028-0.009 0-0.019 0.013-0.019 0.024 0 0.017 0.026 0.022 0.083 0.021 0.099-0.006 0.127-0.026 0.086-0.069-0.038-0.037-0.047-0.037-0.094-0.004z"></path>
<path d="M3.094 9.084c-0.032 0.032-0.034 0.045-0.019 0.077 0.021 0.036 0.024 0.038 0.069 0.006 0.028-0.017 0.071-0.038 0.097-0.045 0.079-0.021 0.060-0.066-0.030-0.071-0.060-0.004-0.088 0.004-0.118 0.034z"></path>
<path d="M5.801 9.242c-0.058 0.026-0.092 0.075-0.071 0.107 0.006 0.009 0.024 0.009 0.045-0.002 0.019-0.009 0.066-0.019 0.103-0.019 0.073 0 0.103-0.038 0.066-0.084-0.028-0.034-0.066-0.034-0.143-0.002z"></path>
<path d="M13.706 9.332c-0.043 0.071-0.032 0.098 0.034 0.081 0.096-0.024 0.137-0.141 0.051-0.141-0.034 0-0.058 0.019-0.084 0.060z"></path>
<path d="M5.743 9.397c-0.013 0.004-0.024 0.022-0.024 0.039 0 0.015-0.013 0.045-0.032 0.064-0.028 0.032-0.028 0.036 0 0.068 0.019 0.019 0.032 0.054 0.032 0.077 0 0.060 0.041 0.041 0.079-0.038 0.067-0.139 0.075-0.165 0.066-0.193-0.011-0.028-0.071-0.038-0.12-0.017z"></path>
<path d="M0.928 9.609c-0.041 0.021-0.084 0.038-0.098 0.038-0.032 0-0.032 0.073 0.002 0.086 0.013 0.006 0.053-0.008 0.088-0.028s0.096-0.043 0.135-0.049c0.052-0.011 0.069-0.021 0.062-0.041-0.006-0.015-0.011-0.032-0.011-0.036 0-0.023-0.114-0.004-0.178 0.030z"></path>
<path d="M5.625 9.628c0 0.009 0.009 0.019 0.019 0.019 0.011 0 0.019-0.009 0.019-0.019 0-0.011-0.007-0.019-0.019-0.019-0.009 0-0.019 0.008-0.019 0.019z"></path>
<path d="M0.311 9.838c-0.028 0.036-0.041 0.068-0.030 0.079 0.023 0.022 0.098 0 0.152-0.043 0.038-0.030 0.039-0.039 0.019-0.066-0.039-0.047-0.088-0.036-0.141 0.030z"></path>
<path d="M5.438 9.812c-0.045 0.037-0.047 0.037-0.011 0.077 0.049 0.054 0.116 0.051 0.154-0.007 0.019-0.030 0.049-0.047 0.079-0.047 0.083 0 0.021-0.038-0.083-0.049-0.075-0.009-0.101-0.004-0.139 0.026z"></path>
<path d="M0.056 9.9c-0.024 0.026-0.037 0.053-0.032 0.060 0.021 0.019 0.107-0.028 0.107-0.058 0-0.049-0.030-0.049-0.075-0.002z"></path>
<path d="M13.084 9.93c-0.019 0.009-0.034 0.036-0.034 0.054 0 0.030 0.013 0.038 0.062 0.038 0.073 0 0.144-0.045 0.116-0.073-0.030-0.030-0.111-0.041-0.144-0.019z"></path>
<path d="M5.443 9.96c-0.051 0.009-0.053 0.026-0.008 0.135 0.021 0.049 0.039 0.075 0.047 0.062s0.009-0.023 0.004-0.023c-0.006 0 0.002-0.037 0.015-0.082 0.024-0.077 0.022-0.109-0.006-0.103-0.006 0.002-0.030 0.008-0.053 0.011z"></path>
<path d="M16.783 10.271c-0.079 0.024-0.266 0.197-0.367 0.338-0.047 0.066-0.101 0.116-0.144 0.137-0.047 0.021-0.071 0.045-0.071 0.068 0 0.058-0.036 0.109-0.075 0.109-0.051 0-0.081 0.060-0.049 0.103 0.019 0.026 0.038 0.030 0.079 0.019 0.030-0.008 0.086-0.013 0.126-0.011 0.186 0.006 0.253 0.006 0.308-0.008 0.034-0.008 0.075-0.008 0.092-0.002 0.028 0.011 0.028 0.015-0.002 0.049-0.019 0.021-0.049 0.037-0.069 0.037-0.047 0-0.043 0.032 0.011 0.066 0.056 0.037 0.107 0.017 0.154-0.066 0.034-0.054 0.129-0.111 0.152-0.086 0.008 0.006-0.008 0.037-0.030 0.069-0.037 0.051-0.039 0.062-0.017 0.084 0.066 0.066 0.184 0.064 0.184-0.004 0-0.011 0.013-0.032 0.030-0.047 0.045-0.038 0.088-0.131 0.069-0.15-0.011-0.011-0.043-0.009-0.079 0.004-0.079 0.028-0.090 0.013-0.037-0.056 0.039-0.053 0.039-0.060 0.011-0.090-0.024-0.030-0.026-0.037-0.002-0.069 0.036-0.051 0.034-0.092-0.011-0.144-0.030-0.036-0.039-0.039-0.054-0.019-0.009 0.013-0.026 0.019-0.037 0.013-0.011-0.007-0.034 0-0.051 0.017-0.045 0.043-0.090 0.026-0.101-0.038-0.009-0.049-0.019-0.056-0.062-0.051-0.028 0.002-0.051-0.004-0.051-0.015 0-0.022 0.113-0.133 0.184-0.182 0.051-0.034 0.056-0.099 0.009-0.098-0.019 0.002-0.062 0.011-0.098 0.022z"></path>
<path d="M5.633 10.44c0.007 0.032 0.037 0.082 0.067 0.111 0.032 0.028 0.056 0.064 0.056 0.081 0 0.015 0.021 0.037 0.043 0.045 0.024 0.009 0.054 0.041 0.068 0.073 0.017 0.039 0.051 0.066 0.126 0.096 0.126 0.053 0.158 0.043 0.158-0.047 0-0.051-0.009-0.069-0.037-0.077-0.024-0.006-0.038-0.026-0.038-0.054 0-0.090-0.036-0.141-0.126-0.18-0.051-0.021-0.105-0.053-0.124-0.067-0.019-0.017-0.071-0.032-0.12-0.036l-0.084-0.004 0.011 0.060z"></path>
<path d="M15.45 10.586c0 0.021 0.015 0.043 0.034 0.049 0.017 0.008 0.051 0.032 0.073 0.056 0.038 0.039 0.058 0.045 0.15 0.039 0.086-0.004 0.111-0.013 0.114-0.038 0.004-0.022-0.011-0.041-0.047-0.054-0.028-0.011-0.077-0.034-0.109-0.047-0.030-0.013-0.092-0.028-0.135-0.034-0.069-0.006-0.081-0.004-0.081 0.028z"></path>
<path d="M15.697 11.019c-0.026 0.026-0.030 0.071-0.004 0.071 0.017 0 0.056-0.058 0.056-0.082 0-0.019-0.028-0.013-0.053 0.011z"></path>
<path d="M15.263 11.156c-0.036 0.043-0.008 0.12 0.053 0.133 0.028 0.008 0.067 0.024 0.088 0.038 0.051 0.036 0.092 0.032 0.131-0.011 0.019-0.021 0.047-0.038 0.060-0.038 0.015 0 0.024-0.011 0.019-0.024-0.004-0.013-0.043-0.023-0.099-0.023-0.114-0.002-0.199-0.036-0.184-0.075 0.015-0.038-0.036-0.038-0.067 0z"></path>
<path d="M15.788 11.179c-0.036 0.024-0.071 0.062-0.079 0.082-0.008 0.019-0.023 0.036-0.034 0.036-0.034 0-0.021 0.053 0.023 0.082s0.12 0.039 0.173 0.019c0.032-0.013 0.041-0.101 0.011-0.101-0.009 0-0.019-0.013-0.019-0.028s0.008-0.028 0.017-0.028c0.021 0 0.036-0.056 0.026-0.090-0.013-0.032-0.043-0.026-0.118 0.028z"></path>
<path d="M12.008 15.291c-0.002 0.079 0.006 0.113 0.021 0.113 0.034 0 0.064-0.043 0.077-0.113 0.011-0.049 0.006-0.067-0.021-0.088-0.062-0.043-0.075-0.028-0.077 0.088z"></path>
<path d="M12.139 15.487c-0.032 0.024-0.032 0.026-0.002 0.028 0.019 0 0.032 0.015 0.032 0.039 0 0.026 0.009 0.036 0.032 0.032 0.036-0.008 0.049-0.069 0.021-0.103-0.024-0.032-0.037-0.030-0.082 0.004z"></path>
<path d="M12.030 15.529c-0.021 0.021-0.011 0.043 0.017 0.043 0.015 0 0.028-0.008 0.028-0.017 0-0.024-0.030-0.041-0.045-0.026z"></path>
<path d="M11.826 15.585c-0.024 0.024-0.013 0.096 0.019 0.107 0.043 0.017 0.082-0.026 0.069-0.079-0.011-0.039-0.062-0.056-0.088-0.028z"></path>
<path d="M11.854 15.744c0.011 0.034 0.053 0.039 0.053 0.008 0-0.017-0.013-0.030-0.030-0.030s-0.026 0.009-0.022 0.023z"></path>
<path d="M12.319 15.898c0 0.071 0.030 0.107 0.049 0.060 0.015-0.039-0.006-0.124-0.030-0.124-0.011 0-0.019 0.028-0.019 0.064z"></path>
<path d="M10.954 15.939c-0.075 0.013-0.161 0.043-0.191 0.064-0.060 0.043-0.141 0.186-0.118 0.208 0.028 0.026 0.118-0.006 0.118-0.041 0-0.028 0.013-0.036 0.073-0.036 0.056 0 0.079-0.009 0.103-0.047 0.032-0.049 0.126-0.082 0.193-0.069 0.049 0.009 0.058 0.041 0.015 0.041-0.039 0-0.036 0.049 0.006 0.066 0.017 0.008 0.094 0.017 0.171 0.023 0.118 0.009 0.133 0.015 0.105 0.036-0.051 0.038-0.015 0.064 0.086 0.064 0.12 0 0.167 0.024 0.167 0.090 0 0.060 0.017 0.086 0.062 0.103 0.017 0.008 0.039 0.032 0.051 0.058 0.023 0.064 0.054 0.069 0.33 0.064s0.317-0.026 0.229-0.109c-0.024-0.023-0.066-0.038-0.105-0.038-0.047 0-0.066-0.009-0.073-0.038-0.006-0.021-0.021-0.037-0.034-0.037s-0.034-0.011-0.047-0.026c-0.011-0.015-0.032-0.024-0.047-0.019-0.032 0.013-0.105-0.026-0.259-0.133-0.077-0.052-0.143-0.084-0.176-0.084-0.062 0-0.101-0.030-0.086-0.066 0.004-0.015-0.008-0.034-0.026-0.045-0.032-0.015-0.088-0.024-0.343-0.047-0.036-0.004-0.127 0.006-0.202 0.019z"></path>
<path d="M12.48 16.050c0.008 0.028 0.004 0.047-0.009 0.047-0.011 0-0.021 0.008-0.021 0.019 0 0.030 0.088 0.021 0.101-0.011 0.015-0.039 0.015-0.038-0.019-0.071-0.043-0.043-0.066-0.036-0.052 0.017z"></path>
<path d="M10.867 16.202c-0.047 0.045-0.006 0.086 0.081 0.079 0.058-0.006 0.067-0.013 0.067-0.053s-0.009-0.049-0.058-0.052c-0.036-0.004-0.071 0.006-0.090 0.026z"></path>
<path d="M12.615 16.581c-0.088 0.006-0.159 0.051-0.107 0.067 0.015 0.004 0.053 0.017 0.082 0.026 0.043 0.013 0.054 0.026 0.051 0.058-0.004 0.023 0.004 0.054 0.017 0.069 0.043 0.054-0.008 0.071-0.129 0.047-0.143-0.032-0.199-0.023-0.206 0.030-0.006 0.034 0.006 0.043 0.056 0.051 0.034 0.004 0.079 0.009 0.099 0.009 0.143 0.002 0.309 0.028 0.309 0.049 0 0.024 0.039 0.047 0.086 0.047 0.013 0 0.038-0.030 0.053-0.066 0.030-0.067 0.062-0.081 0.128-0.045 0.030 0.017 0.045 0.013 0.073-0.019l0.037-0.039 0.073 0.038c0.098 0.051 0.105 0.049 0.143-0.028 0.037-0.083 0.013-0.122-0.077-0.122-0.037 0-0.073-0.015-0.096-0.039-0.019-0.021-0.079-0.060-0.133-0.084-0.098-0.047-0.246-0.062-0.459-0.049z"></path>
<path d="M13.594 16.854c-0.086 0.086 0.111 0.165 0.249 0.099 0.090-0.041 0.058-0.069-0.114-0.097-0.077-0.013-0.122-0.015-0.135-0.002z"></path>
<path d="M11.663 16.899c0 0.019 0.021 0.054 0.047 0.079 0.041 0.039 0.054 0.041 0.111 0.024 0.036-0.011 0.084-0.017 0.109-0.011 0.056 0.011 0.103-0.036 0.067-0.064-0.024-0.017-0.24-0.062-0.304-0.062-0.017 0-0.030 0.015-0.030 0.034z"></path>
</svg>
