<!-- Generated by IcoMoon.io -->
<svg version="1.1" xmlns="http://www.w3.org/2000/svg" width="24" height="24" viewBox="0 0 24 24">
<path d="M12.653 0.022c-0.066 0.038-0.032 0.111 0.051 0.111 0.041 0 0.073-0.071 0.045-0.105-0.024-0.030-0.051-0.032-0.096-0.006z"></path>
<path d="M12.72 0.217c-0.028 0.021-0.032 0.032-0.015 0.060 0.030 0.049 0.109 0.045 0.116-0.007 0.008-0.056-0.054-0.088-0.101-0.053z"></path>
<path d="M12.812 0.521c-0.038 0.013-0.028 0.096 0.011 0.118 0.021 0.009 0.041 0.019 0.045 0.019 0.017 0 0.051-0.116 0.039-0.133-0.011-0.019-0.058-0.021-0.096-0.004z"></path>
<path d="M9.666 1.312c-0.051 0.011-0.064 0.026-0.122 0.152-0.009 0.019-0.041 0.028-0.092 0.030-0.060 0-0.092 0.013-0.139 0.058-0.086 0.081-0.127 0.099-0.268 0.113-0.099 0.009-0.127 0.019-0.15 0.054-0.032 0.049-0.116 0.082-0.204 0.082-0.133 0-0.221 0.129-0.225 0.33-0.004 0.163-0.013 0.18-0.094 0.165-0.054-0.009-0.067-0.004-0.096 0.041-0.019 0.028-0.034 0.081-0.036 0.118 0 0.062-0.006 0.067-0.075 0.086-0.066 0.019-0.075 0.030-0.081 0.083-0.006 0.058-0.011 0.062-0.060 0.052-0.049-0.011-0.053-0.006-0.064 0.060-0.008 0.051-0.032 0.090-0.077 0.131-0.038 0.032-0.073 0.058-0.081 0.058s-0.024 0.007-0.039 0.017c-0.022 0.015-0.022 0.022 0.004 0.047 0.019 0.019 0.030 0.058 0.028 0.098-0.002 0.043 0.011 0.079 0.039 0.109 0.039 0.041 0.043 0.064 0.045 0.322 0.004 0.276 0.004 0.277-0.047 0.341-0.038 0.047-0.053 0.086-0.053 0.143 0 0.041-0.013 0.148-0.026 0.236-0.017 0.098-0.021 0.189-0.013 0.236 0.021 0.105-0.002 0.139-0.090 0.139-0.131 0-0.208 0.105-0.208 0.285 0 0.054-0.015 0.084-0.066 0.137-0.058 0.058-0.079 0.066-0.159 0.066-0.109 0-0.118 0.011-0.148 0.178-0.026 0.144-0.068 0.197-0.18 0.232-0.109 0.036-0.165 0.107-0.195 0.247s-0.022 0.276 0.024 0.401c0.038 0.103 0.047 0.114 0.114 0.135 0.041 0.013 0.107 0.028 0.146 0.034 0.107 0.017 0.086 0.069-0.081 0.21-0.105 0.086-0.148 0.137-0.171 0.197-0.017 0.045-0.047 0.111-0.069 0.146-0.053 0.084-0.053 0.109 0.006 0.161 0.036 0.034 0.043 0.054 0.036 0.098-0.006 0.030-0.002 0.084 0.007 0.124 0.013 0.047 0.013 0.086 0 0.126-0.015 0.043-0.013 0.066 0.009 0.099 0.037 0.056 0.171 0.118 0.285 0.131 0.109 0.011 0.137 0.037 0.161 0.142 0.028 0.128 0.142 0.343 0.24 0.452 0.049 0.056 0.101 0.135 0.114 0.176s0.053 0.105 0.086 0.144c0.079 0.088 0.101 0.131 0.131 0.257 0.037 0.158 0.219 0.538 0.328 0.686 0.053 0.071 0.126 0.195 0.161 0.272s0.081 0.174 0.101 0.218c0.019 0.041 0.036 0.105 0.036 0.141 0 0.073 0.022 0.111 0.171 0.291 0.197 0.24 0.497 0.486 0.613 0.504 0.101 0.017 0.165 0.045 0.204 0.088 0.019 0.021 0.101 0.071 0.184 0.111s0.184 0.090 0.225 0.113c0.041 0.021 0.088 0.045 0.103 0.053 0.017 0.009 0.030 0.049 0.034 0.099 0.004 0.060 0.019 0.098 0.047 0.122 0.047 0.043 0.184 0.099 0.238 0.099 0.043 0 0.075 0.053 0.075 0.122 0 0.026 0.017 0.088 0.037 0.137 0.058 0.137 0.094 0.319 0.094 0.476 0 0.081 0.009 0.184 0.023 0.231 0.021 0.075 0.017 0.105-0.039 0.322-0.073 0.274-0.077 0.356-0.032 0.474 0.024 0.062 0.034 0.137 0.034 0.276 0 0.167 0.006 0.199 0.039 0.242 0.034 0.045 0.036 0.058 0.015 0.137-0.017 0.067-0.017 0.137 0 0.302 0.028 0.266 0.034 0.613 0.013 0.673-0.009 0.024-0.037 0.060-0.062 0.081-0.060 0.047-0.060 0.109 0.002 0.182 0.045 0.054 0.047 0.068 0.036 0.174-0.009 0.071-0.030 0.137-0.053 0.169-0.039 0.052-0.039 0.054-0.006 0.212 0.017 0.086 0.053 0.208 0.079 0.27 0.024 0.062 0.045 0.137 0.045 0.165 0 0.030 0.021 0.098 0.047 0.152 0.060 0.129 0.058 0.163-0.011 0.296-0.058 0.109-0.060 0.112-0.043 0.279 0.028 0.313 0.009 0.782-0.038 0.907-0.039 0.107-0.037 0.156 0.008 0.214 0.075 0.096 0.113 0.204 0.113 0.336 0 0.079 0.011 0.152 0.032 0.193 0.030 0.064 0.030 0.067-0.009 0.122-0.049 0.064-0.051 0.090-0.015 0.141 0.013 0.021 0.030 0.079 0.036 0.128 0.013 0.099 0.135 0.349 0.176 0.364 0.015 0.006 0.054-0.006 0.090-0.023 0.058-0.034 0.066-0.034 0.111-0.004 0.026 0.019 0.049 0.049 0.049 0.066 0 0.019 0.030 0.060 0.066 0.092 0.066 0.058 0.077 0.094 0.049 0.165-0.008 0.019-0.006 0.058 0.004 0.086 0.015 0.038 0.011 0.069-0.013 0.128-0.034 0.088-0.028 0.109 0.039 0.135 0.034 0.013 0.043 0.026 0.034 0.051-0.039 0.101-0.034 0.131 0.030 0.171 0.144 0.084 0.161 0.148 0.082 0.317-0.053 0.114-0.056 0.161-0.019 0.229 0.017 0.030 0.026 0.105 0.028 0.218 0 0.144-0.006 0.178-0.038 0.219-0.021 0.026-0.037 0.054-0.037 0.066 0 0.009 0.017 0.032 0.037 0.051s0.038 0.043 0.038 0.054c0.002 0.051 0.039 0.075 0.122 0.077 0.051 0.002 0.099 0.017 0.116 0.034 0.026 0.026 0.024 0.032-0.028 0.058-0.058 0.030-0.067 0.053-0.088 0.203-0.013 0.082-0.009 0.092 0.037 0.131 0.131 0.109 0.141 0.124 0.141 0.212 0 0.081 0.034 0.141 0.090 0.161 0.009 0.004 0.038 0.058 0.062 0.12 0.037 0.092 0.058 0.118 0.114 0.144 0.038 0.019 0.082 0.058 0.101 0.088 0.017 0.030 0.053 0.064 0.075 0.075 0.030 0.013 0.053 0.051 0.073 0.124 0.017 0.058 0.049 0.126 0.071 0.152l0.041 0.049 0.101-0.053c0.094-0.049 0.105-0.051 0.214-0.032 0.064 0.011 0.148 0.034 0.188 0.049 0.058 0.026 0.069 0.039 0.069 0.088 0 0.113-0.161 0.126-0.216 0.017-0.058-0.109-0.197-0.111-0.197 0 0 0.060 0.045 0.109 0.111 0.118 0.071 0.009 0.071 0.052 0.002 0.052-0.077 0-0.066 0.034 0.024 0.067 0.038 0.015 0.101 0.039 0.141 0.054 0.086 0.032 0.176 0.036 0.206 0.006 0.013-0.013 0.023-0.053 0.023-0.090 0-0.049 0.024-0.105 0.084-0.197 0.154-0.242 0.128-0.221 0.283-0.208 0.137 0.013 0.139 0.013 0.139-0.032 0-0.060-0.056-0.107-0.128-0.107-0.051 0-0.060-0.008-0.060-0.043 0-0.024-0.021-0.064-0.045-0.086-0.141-0.133-0.135-0.373 0.009-0.456 0.060-0.036 0.060-0.041 0.054-0.277l-0.004-0.143 0.096-0.088c0.052-0.049 0.116-0.098 0.143-0.111 0.099-0.045 0.126-0.195 0.054-0.311-0.023-0.034-0.043-0.041-0.128-0.041-0.081 0-0.114-0.011-0.176-0.054-0.041-0.030-0.081-0.066-0.088-0.075-0.006-0.011-0.045-0.037-0.084-0.058-0.090-0.047-0.131-0.12-0.131-0.236 0-0.073 0.009-0.096 0.062-0.148 0.041-0.041 0.088-0.067 0.137-0.075 0.039-0.006 0.086-0.019 0.101-0.026 0.049-0.026 0.066-0.161 0.053-0.452-0.006-0.131 0.008-0.169 0.062-0.169 0.049 0 0.043-0.038-0.011-0.092-0.062-0.058-0.058-0.094 0.011-0.109 0.043-0.008 0.054-0.019 0.051-0.051s-0.023-0.041-0.099-0.049c-0.129-0.013-0.141-0.024-0.141-0.137 0-0.096-0.002-0.099-0.090-0.154-0.099-0.064-0.12-0.122-0.066-0.182 0.045-0.049 0.165-0.038 0.253 0.024 0.053 0.039 0.088 0.045 0.244 0.051 0.163 0.006 0.184 0.004 0.219-0.032 0.043-0.043 0.054-0.163 0.019-0.174-0.011-0.004-0.030-0.079-0.041-0.169-0.017-0.141-0.015-0.173 0.013-0.247 0.039-0.103 0.088-0.124 0.199-0.079 0.12 0.047 0.128 0.047 0.516-0.075 0.082-0.024 0.171-0.045 0.193-0.045 0.098 0 0.152-0.058 0.268-0.287 0.129-0.255 0.133-0.291 0.030-0.426-0.131-0.172-0.144-0.197-0.144-0.253 0-0.030-0.015-0.099-0.034-0.15l-0.034-0.094-0.088 0.006c-0.116 0.008-0.193-0.034-0.24-0.133-0.030-0.064-0.034-0.088-0.019-0.131 0.026-0.068 0.058-0.064 0.139 0.013 0.051 0.047 0.088 0.064 0.161 0.073 0.101 0.011 0.188 0.051 0.27 0.118 0.066 0.056 0.101 0.056 0.21 0.004l0.086-0.041 0.079 0.041c0.099 0.053 0.109 0.053 0.165-0.008 0.024-0.026 0.071-0.062 0.101-0.077 0.111-0.056 0.159-0.118 0.159-0.204 0-0.069 0.011-0.092 0.073-0.152 0.092-0.094 0.12-0.148 0.18-0.364 0.051-0.184 0.092-0.242 0.169-0.242 0.034 0 0.049-0.015 0.064-0.062 0.011-0.036 0.047-0.081 0.077-0.103 0.038-0.028 0.058-0.064 0.066-0.111 0.045-0.283 0.103-0.429 0.27-0.679 0.18-0.27 0.176-0.259 0.161-0.487-0.011-0.159-0.023-0.214-0.058-0.276-0.056-0.096-0.060-0.225-0.009-0.322 0.038-0.073 0.135-0.171 0.283-0.283 0.047-0.036 0.107-0.096 0.135-0.135 0.066-0.092 0.135-0.128 0.279-0.143 0.109-0.011 0.124-0.019 0.247-0.129 0.191-0.173 0.223-0.186 0.493-0.188 0.126-0.002 0.247-0.008 0.272-0.013 0.026-0.008 0.068-0.049 0.098-0.098 0.030-0.047 0.101-0.126 0.158-0.174l0.103-0.090 0.006-0.141c0.004-0.077 0.008-0.15 0.008-0.161 0.002-0.013 0.030-0.036 0.064-0.049 0.088-0.038 0.116-0.081 0.111-0.178-0.004-0.096 0.011-0.12 0.114-0.186 0.096-0.060 0.109-0.105 0.077-0.242-0.013-0.060-0.026-0.159-0.026-0.217 0-0.099 0.006-0.113 0.067-0.174 0.043-0.045 0.064-0.079 0.056-0.098-0.052-0.137-0.052-0.264 0.002-0.309 0.051-0.041 0.062-0.103 0.034-0.197-0.013-0.049-0.032-0.157-0.038-0.24-0.008-0.082-0.026-0.184-0.039-0.225-0.034-0.098-0.032-0.129 0.004-0.201 0.026-0.053 0.026-0.064 0-0.135-0.017-0.041-0.024-0.098-0.017-0.124 0.015-0.067 0.096-0.146 0.172-0.171 0.075-0.024 0.133-0.067 0.133-0.101 0-0.011 0.024-0.054 0.054-0.096 0.030-0.039 0.060-0.092 0.066-0.114 0.008-0.024 0.051-0.124 0.097-0.221 0.071-0.154 0.090-0.178 0.128-0.178 0.036 0 0.066-0.028 0.129-0.127 0.047-0.069 0.139-0.189 0.203-0.266l0.118-0.139 0.013-0.189c0.008-0.116 0.026-0.229 0.052-0.298 0.051-0.143 0.051-0.158-0.017-0.349-0.030-0.088-0.056-0.195-0.056-0.24 0-0.071-0.011-0.094-0.092-0.178l-0.094-0.098-0.184-0.006c-0.182-0.006-0.184-0.007-0.246-0.071-0.032-0.036-0.067-0.060-0.079-0.054-0.034 0.021-0.082-0.022-0.186-0.163-0.099-0.135-0.308-0.315-0.405-0.353-0.026-0.009-0.066-0.049-0.086-0.084-0.047-0.079-0.094-0.084-0.289-0.028-0.071 0.021-0.163 0.038-0.204 0.038-0.073 0-0.364-0.088-0.473-0.144-0.073-0.038-0.197-0.021-0.319 0.043-0.096 0.051-0.126 0.047-0.075-0.009 0.060-0.066 0.043-0.139-0.054-0.251-0.052-0.062-0.111-0.111-0.141-0.116-0.028-0.006-0.073-0.036-0.101-0.067-0.039-0.045-0.064-0.054-0.131-0.054-0.064 0-0.097-0.013-0.142-0.051-0.060-0.049-0.139-0.071-0.334-0.094-0.086-0.009-0.105-0.006-0.144 0.032-0.026 0.024-0.060 0.079-0.077 0.124-0.039 0.103-0.251 0.289-0.33 0.289-0.045 0-0.052-0.008-0.052-0.053 0-0.066 0.030-0.098 0.094-0.098 0.069 0 0.116-0.039 0.165-0.139 0.023-0.047 0.060-0.126 0.082-0.172 0.056-0.114 0.036-0.144-0.109-0.159-0.060-0.008-0.204-0.013-0.319-0.015-0.264-0.002-0.277 0.007-0.274 0.214 0.004 0.148 0.008 0.146-0.094 0.167-0.028 0.007-0.079 0.036-0.114 0.066-0.064 0.058-0.082 0.064-0.172 0.060-0.053-0.002-0.051-0.006 0.090-0.141 0.079-0.077 0.144-0.152 0.144-0.171 0-0.017 0.021-0.075 0.047-0.129 0.034-0.071 0.067-0.109 0.12-0.139s0.081-0.062 0.096-0.109c0.013-0.037 0.047-0.094 0.075-0.126 0.069-0.083 0.116-0.176 0.109-0.225-0.004-0.032-0.032-0.049-0.124-0.079-0.066-0.023-0.126-0.053-0.135-0.066-0.008-0.015-0.019-0.094-0.024-0.174-0.009-0.122-0.019-0.158-0.064-0.216-0.043-0.058-0.054-0.094-0.062-0.208l-0.009-0.141-0.062-0.015c-0.054-0.015-0.071-0.034-0.122-0.143-0.067-0.146-0.079-0.158-0.152-0.144-0.039 0.007-0.067-0.004-0.109-0.037-0.036-0.030-0.079-0.047-0.118-0.047-0.049 0-0.073-0.013-0.105-0.058-0.058-0.083-0.188-0.137-0.287-0.122-0.051 0.007-0.107 0.002-0.159-0.017-0.097-0.034-0.216-0.036-0.358-0.006-0.133 0.026-0.203 0.006-0.257-0.081-0.023-0.036-0.086-0.109-0.141-0.161-0.079-0.079-0.113-0.099-0.159-0.099-0.084 0-0.137-0.056-0.137-0.146 0-0.092-0.077-0.214-0.199-0.315-0.146-0.124-0.206-0.146-0.294-0.12-0.146 0.043-0.247-0.051-0.158-0.146 0.144-0.158 0.013-0.304-0.276-0.304-0.148 0-0.161-0.009-0.161-0.103 0-0.060 0.047-0.103 0.112-0.103 0.090 0 0.090-0.039 0-0.099-0.064-0.045-0.146-0.039-0.242 0.015-0.053 0.030-0.111 0.047-0.163 0.047-0.049 0-0.107 0.015-0.143 0.037-0.034 0.021-0.077 0.037-0.096 0.037s-0.051 0.028-0.071 0.064c-0.021 0.036-0.049 0.067-0.062 0.073-0.030 0.011-0.15-0.041-0.296-0.129l-0.111-0.067-0.201 0.011c-0.111 0.007-0.234 0.017-0.277 0.022-0.094 0.013-0.139-0.024-0.139-0.114 0-0.039-0.017-0.083-0.043-0.114-0.041-0.047-0.056-0.051-0.184-0.052l-0.139-0.002 0.006-0.098c0.008-0.107-0.008-0.124-0.129-0.146-0.049-0.009-0.073-0.004-0.092 0.019-0.021 0.026-0.015 0.039 0.047 0.105 0.068 0.067 0.071 0.075 0.043 0.103-0.015 0.017-0.079 0.036-0.141 0.043-0.126 0.015-0.208 0.064-0.268 0.161-0.054 0.090-0.103 0.088-0.088-0.002 0.009-0.051 0.002-0.075-0.026-0.103-0.019-0.019-0.036-0.047-0.036-0.060 0-0.032 0.053-0.081 0.105-0.096 0.069-0.021 0.139-0.099 0.139-0.158 0-0.090-0.041-0.111-0.178-0.081z"></path>
<path d="M12.6 1.415c0 0.039 0.039 0.058 0.056 0.028 0.009-0.013 0.011-0.032 0.008-0.039-0.017-0.026-0.064-0.017-0.064 0.011z"></path>
<path d="M12.688 1.824c-0.049 0.017-0.053 0.026-0.043 0.083 0.011 0.051 0.006 0.066-0.026 0.082s-0.036 0.026-0.017 0.049c0.034 0.041 0.137 0.026 0.144-0.021 0.006-0.021 0.024-0.052 0.043-0.071 0.043-0.041 0.047-0.118 0.006-0.133-0.036-0.013-0.041-0.013-0.107 0.011z"></path>
<path d="M3.611 5.432c-0.038 0.037-0.038 0.036 0.011 0.124 0.037 0.067 0.039 0.077 0.011 0.092-0.015 0.009-0.036 0.037-0.041 0.064-0.036 0.144 0.139 0.169 0.212 0.032 0.036-0.066 0.009-0.218-0.049-0.285-0.053-0.062-0.101-0.071-0.144-0.026z"></path>
<path d="M3.938 5.674c-0.021 0.026-0.019 0.036 0.013 0.069 0.024 0.024 0.053 0.034 0.071 0.026 0.039-0.015 0.030-0.066-0.021-0.099-0.034-0.022-0.043-0.021-0.064 0.004z"></path>
<path d="M4.211 5.713c-0.019 0.049-0.013 0.064 0.022 0.064 0.039 0 0.079-0.034 0.079-0.069s-0.088-0.030-0.101 0.006z"></path>
<path d="M10.706 19.502c-0.047 0.047-0.047 0.058 0.002 0.156 0.036 0.067 0.038 0.090 0.023 0.176-0.009 0.054-0.013 0.107-0.008 0.116s0.058 0.021 0.114 0.024l0.103 0.006 0.006-0.116c0.004-0.079-0.004-0.135-0.024-0.172-0.015-0.032-0.028-0.073-0.028-0.096 0-0.045-0.079-0.131-0.122-0.131-0.015 0-0.045 0.017-0.066 0.038z"></path>
<path d="M13.434 19.562c-0.004 0.013-0.006 0.058-0.004 0.099 0.004 0.082 0.053 0.122 0.15 0.122 0.043 0 0.051-0.008 0.051-0.054 0-0.030-0.011-0.058-0.023-0.064-0.013-0.004-0.024-0.032-0.024-0.062 0-0.049-0.006-0.054-0.071-0.060-0.045-0.004-0.073 0.002-0.079 0.019z"></path>
<path d="M11.198 20.344c-0.038 0.023 0.006 0.118 0.049 0.111 0.045-0.009 0.052-0.082 0.009-0.107-0.021-0.009-0.047-0.011-0.058-0.004z"></path>
<path d="M10.969 20.48c-0.071 0.118-0.036 0.171 0.107 0.161 0.081-0.006 0.090-0.009 0.096-0.054 0.008-0.060-0.077-0.167-0.129-0.167-0.021 0-0.053 0.026-0.073 0.060z"></path>
<path d="M11.034 20.859c-0.015 0.023-0.071 0.066-0.124 0.094-0.051 0.028-0.090 0.062-0.086 0.073 0.004 0.013 0.053 0.024 0.118 0.026 0.060 0.002 0.15 0.008 0.197 0.015 0.067 0.009 0.092 0.006 0.118-0.021 0.043-0.043 0.026-0.114-0.047-0.182-0.067-0.064-0.137-0.066-0.176-0.006z"></path>
<path d="M11.087 21.514c-0.090 0.034-0.090 0.041 0.006 0.097 0.099 0.058 0.126 0.047 0.116-0.049-0.006-0.071-0.032-0.083-0.122-0.049z"></path>
<path d="M11.1 21.767c-0.032 0.011-0.021 0.052 0.030 0.099 0.039 0.036 0.045 0.056 0.036 0.105-0.009 0.054-0.006 0.064 0.038 0.081 0.053 0.021 0.141 0.026 0.141 0.009 0-0.006-0.011-0.030-0.026-0.052-0.030-0.047-0.011-0.12 0.036-0.137 0.034-0.013 0.038-0.075 0.006-0.096-0.024-0.013-0.221-0.021-0.259-0.009z"></path>
<path d="M15.45 22.59c-0.064 0.011-0.088 0.039-0.051 0.054 0.045 0.017 0.039 0.047-0.019 0.094l-0.051 0.039 0.045 0.024c0.039 0.021 0.049 0.017 0.133-0.077 0.049-0.056 0.088-0.111 0.084-0.12-0.006-0.021-0.073-0.028-0.143-0.015z"></path>
<path d="M15.681 22.655c-0.073 0.079-0.064 0.146 0.021 0.146 0.062 0 0.124-0.039 0.124-0.077 0-0.009 0.019-0.017 0.043-0.017 0.045 0 0.124-0.047 0.107-0.062-0.006-0.006-0.064-0.015-0.131-0.023-0.112-0.011-0.126-0.009-0.163 0.032z"></path>
<path d="M11.595 22.697c-0.015 0.041-0.002 0.111 0.024 0.12 0.028 0.008 0.067-0.084 0.054-0.122-0.013-0.032-0.066-0.032-0.079 0.002z"></path>
<path d="M13.17 23.023c-0.032 0.021-0.064 0.090-0.064 0.142 0 0.068 0.071 0.113 0.139 0.086 0.028-0.009 0.064-0.019 0.079-0.019 0.043 0 0.030 0.069-0.023 0.101-0.034 0.024-0.045 0.045-0.041 0.082 0.006 0.051 0.017 0.056 0.171 0.088 0.030 0.006 0.051 0.021 0.045 0.034-0.011 0.034-0.154 0.038-0.223 0.006-0.034-0.015-0.128-0.032-0.206-0.038-0.129-0.011-0.144-0.009-0.154 0.023-0.019 0.058 0.008 0.098 0.064 0.098 0.028 0 0.088 0.013 0.133 0.030 0.045 0.015 0.156 0.030 0.246 0.034 0.101 0.004 0.174 0.015 0.193 0.030 0.024 0.021 0.043 0.021 0.094 0.002 0.195-0.069 0.433-0.082 0.534-0.028 0.049 0.024 0.105 0.034 0.212 0.036 0.154 0 0.188-0.017 0.178-0.094-0.006-0.030-0.017-0.036-0.069-0.032-0.036 0.002-0.077-0.008-0.094-0.021-0.017-0.015-0.071-0.032-0.124-0.039-0.135-0.017-0.351-0.126-0.467-0.236-0.054-0.051-0.116-0.094-0.137-0.094-0.051 0-0.086-0.045-0.071-0.092 0.008-0.024-0.002-0.051-0.026-0.075-0.034-0.034-0.062-0.039-0.202-0.039-0.092 0-0.174 0.008-0.186 0.015z"></path>
<path d="M11.882 23.040c-0.017 0.026 0.037 0.096 0.098 0.126 0.054 0.030 0.276 0.021 0.294-0.011 0.006-0.008-0.036-0.038-0.094-0.064-0.111-0.051-0.281-0.079-0.298-0.051z"></path>
<path d="M12.984 23.214c-0.047 0.051-0.011 0.137 0.051 0.128 0.047-0.006 0.062-0.049 0.045-0.12-0.015-0.054-0.051-0.058-0.096-0.008z"></path>
<path d="M12.298 23.282c-0.036 0.043 0.008 0.116 0.071 0.124 0.036 0.004 0.051 0.015 0.047 0.036-0.006 0.043 0.043 0.079 0.090 0.064 0.062-0.019 0.051-0.101-0.019-0.124-0.030-0.011-0.060-0.036-0.066-0.053-0.015-0.052-0.096-0.081-0.124-0.047z"></path>
<path d="M13.83 23.722c-0.041 0.009-0.086 0.028-0.099 0.039-0.015 0.011-0.056 0.026-0.092 0.032-0.064 0.011-0.064 0.013-0.036 0.052 0.021 0.030 0.051 0.043 0.090 0.043 0.034 0.002 0.081 0.013 0.107 0.028s0.075 0.026 0.107 0.028c0.058 0 0.060-0.004 0.051-0.054l-0.011-0.054 0.099 0.004c0.092 0.002 0.101-0.002 0.107-0.041 0.011-0.073-0.028-0.097-0.144-0.096-0.058 0.002-0.139 0.009-0.178 0.019z"></path>
<path d="M14.278 23.87c-0.114 0.024-0.178 0.053-0.178 0.082 0 0.041 0.054 0.051 0.21 0.038 0.152-0.013 0.182-0.034 0.146-0.103-0.021-0.038-0.056-0.041-0.178-0.017z"></path>
</svg>
